%TF.GenerationSoftware,KiCad,Pcbnew,8.0.3*%
%TF.CreationDate,2024-06-29T22:13:22+09:00*%
%TF.ProjectId,makyi_mouse,6d616b79-695f-46d6-9f75-73652e6b6963,rev?*%
%TF.SameCoordinates,Original*%
%TF.FileFunction,Soldermask,Bot*%
%TF.FilePolarity,Negative*%
%FSLAX46Y46*%
G04 Gerber Fmt 4.6, Leading zero omitted, Abs format (unit mm)*
G04 Created by KiCad (PCBNEW 8.0.3) date 2024-06-29 22:13:22*
%MOMM*%
%LPD*%
G01*
G04 APERTURE LIST*
G04 Aperture macros list*
%AMRoundRect*
0 Rectangle with rounded corners*
0 $1 Rounding radius*
0 $2 $3 $4 $5 $6 $7 $8 $9 X,Y pos of 4 corners*
0 Add a 4 corners polygon primitive as box body*
4,1,4,$2,$3,$4,$5,$6,$7,$8,$9,$2,$3,0*
0 Add four circle primitives for the rounded corners*
1,1,$1+$1,$2,$3*
1,1,$1+$1,$4,$5*
1,1,$1+$1,$6,$7*
1,1,$1+$1,$8,$9*
0 Add four rect primitives between the rounded corners*
20,1,$1+$1,$2,$3,$4,$5,0*
20,1,$1+$1,$4,$5,$6,$7,0*
20,1,$1+$1,$6,$7,$8,$9,0*
20,1,$1+$1,$8,$9,$2,$3,0*%
%AMHorizOval*
0 Thick line with rounded ends*
0 $1 width*
0 $2 $3 position (X,Y) of the first rounded end (center of the circle)*
0 $4 $5 position (X,Y) of the second rounded end (center of the circle)*
0 Add line between two ends*
20,1,$1,$2,$3,$4,$5,0*
0 Add two circle primitives to create the rounded ends*
1,1,$1,$2,$3*
1,1,$1,$4,$5*%
G04 Aperture macros list end*
%ADD10O,1.500000X1.000000*%
%ADD11R,1.500000X1.000000*%
%ADD12R,2.200000X1.200000*%
%ADD13O,1.400000X1.800000*%
%ADD14HorizOval,2.000000X-0.021789X-0.249049X0.021789X0.249049X0*%
%ADD15HorizOval,2.000000X-0.216506X-0.125000X0.216506X0.125000X0*%
%ADD16HorizOval,2.000000X0.216506X-0.125000X-0.216506X0.125000X0*%
%ADD17RoundRect,0.140000X-0.170000X0.140000X-0.170000X-0.140000X0.170000X-0.140000X0.170000X0.140000X0*%
%ADD18R,1.500000X0.700000*%
%ADD19HorizOval,2.000000X0.021789X-0.249049X-0.021789X0.249049X0*%
%ADD20O,2.500000X1.800000*%
%ADD21R,0.850000X0.850000*%
%ADD22O,0.850000X0.850000*%
%ADD23RoundRect,0.250000X-0.625000X0.350000X-0.625000X-0.350000X0.625000X-0.350000X0.625000X0.350000X0*%
%ADD24O,1.750000X1.200000*%
%ADD25C,0.850000*%
%ADD26RoundRect,0.155000X0.155000X-0.212500X0.155000X0.212500X-0.155000X0.212500X-0.155000X-0.212500X0*%
%ADD27RoundRect,0.135000X-0.185000X0.135000X-0.185000X-0.135000X0.185000X-0.135000X0.185000X0.135000X0*%
%ADD28RoundRect,0.155000X-0.155000X0.212500X-0.155000X-0.212500X0.155000X-0.212500X0.155000X0.212500X0*%
G04 APERTURE END LIST*
D10*
%TO.C,Q6*%
X139200000Y-52235000D03*
X139200000Y-50965000D03*
%TD*%
%TO.C,Q5*%
X139200000Y-115665000D03*
X139200000Y-116935000D03*
%TD*%
%TO.C,Q4*%
X139200000Y-107865000D03*
X139200000Y-109135000D03*
%TD*%
%TO.C,Q3*%
X139200000Y-43165000D03*
X139200000Y-44435000D03*
%TD*%
D11*
%TO.C,J9*%
X135500000Y-51600000D03*
D12*
X135000000Y-54100000D03*
X135000000Y-49100000D03*
%TD*%
D13*
%TO.C,D4*%
X143700000Y-107230000D03*
X143700000Y-109770000D03*
%TD*%
D14*
%TO.C,J6*%
X160782111Y-97490487D03*
X161217889Y-92509513D03*
%TD*%
D15*
%TO.C,J3*%
X170834936Y-88250000D03*
X175165064Y-85750000D03*
%TD*%
D16*
%TO.C,J5*%
X175165064Y-74250000D03*
X170834936Y-71750000D03*
%TD*%
D17*
%TO.C,C8*%
X141400000Y-45240000D03*
X141400000Y-46200000D03*
%TD*%
%TO.C,C14*%
X141450000Y-53020000D03*
X141450000Y-53980000D03*
%TD*%
D11*
%TO.C,J7*%
X135500000Y-116300000D03*
D12*
X135000000Y-118800000D03*
X135000000Y-113800000D03*
%TD*%
%TO.C,J13*%
X135000000Y-57000000D03*
D18*
X135500000Y-59000000D03*
X135500000Y-61000000D03*
D12*
X135000000Y-63000000D03*
%TD*%
D13*
%TO.C,D6*%
X143700000Y-50330000D03*
X143700000Y-52870000D03*
%TD*%
D19*
%TO.C,J8*%
X161217889Y-67490487D03*
X160782111Y-62509513D03*
%TD*%
D20*
%TO.C,J10*%
X152987300Y-71200000D03*
X146987300Y-71200000D03*
%TD*%
D13*
%TO.C,D5*%
X143700000Y-115030000D03*
X143700000Y-117570000D03*
%TD*%
D17*
%TO.C,C12*%
X141500000Y-117720000D03*
X141500000Y-118680000D03*
%TD*%
D13*
%TO.C,D3*%
X143700000Y-42530000D03*
X143700000Y-45070000D03*
%TD*%
D11*
%TO.C,J4*%
X135500000Y-108500000D03*
D12*
X135000000Y-111000000D03*
X135000000Y-106000000D03*
%TD*%
D21*
%TO.C,M1*%
X136300000Y-79500000D03*
D22*
X136300000Y-80500000D03*
%TD*%
D20*
%TO.C,J12*%
X152987300Y-88800000D03*
X146987300Y-88800000D03*
%TD*%
D23*
%TO.C,J1*%
X132850000Y-76700000D03*
D24*
X132850000Y-78700000D03*
%TD*%
D25*
%TO.C,M2*%
X136300000Y-82200000D03*
D22*
X136300000Y-83200000D03*
%TD*%
D17*
%TO.C,C10*%
X141600000Y-109820000D03*
X141600000Y-110780000D03*
%TD*%
D26*
%TO.C,C16*%
X141300000Y-99617500D03*
X141300000Y-98482500D03*
%TD*%
D27*
%TO.C,R12*%
X136850000Y-109840000D03*
X136850000Y-110860000D03*
%TD*%
%TO.C,R18*%
X136750000Y-52990000D03*
X136750000Y-54010000D03*
%TD*%
D28*
%TO.C,C17*%
X141300000Y-61332500D03*
X141300000Y-62467500D03*
%TD*%
D27*
%TO.C,R15*%
X136900000Y-117690000D03*
X136900000Y-118710000D03*
%TD*%
D12*
%TO.C,J11*%
X135000000Y-103000000D03*
X135000000Y-103000000D03*
D18*
X135500000Y-101000000D03*
X135500000Y-99000000D03*
D12*
X135000000Y-97000000D03*
%TD*%
D27*
%TO.C,R9*%
X136700000Y-45090000D03*
X136700000Y-46110000D03*
%TD*%
D11*
%TO.C,J2*%
X135500000Y-43800000D03*
D12*
X135000000Y-46300000D03*
X135000000Y-41300000D03*
%TD*%
M02*
