M48
; DRILL file {KiCad 8.0.3} date 2024-06-29T22:13:31+0900
; FORMAT={-:-/ absolute / metric / decimal}
; #@! TF.CreationDate,2024-06-29T22:13:31+09:00
; #@! TF.GenerationSoftware,Kicad,Pcbnew,8.0.3
; #@! TF.FileFunction,MixedPlating,1,2
FMAT,2
METRIC
; #@! TA.AperFunction,Plated,PTH,ViaDrill
T1C0.300
; #@! TA.AperFunction,Plated,PTH,ComponentDrill
T2C0.350
; #@! TA.AperFunction,Plated,PTH,ViaDrill
T3C0.400
; #@! TA.AperFunction,Plated,PTH,ComponentDrill
T4C0.750
; #@! TA.AperFunction,Plated,PTH,ComponentDrill
T5C0.800
; #@! TA.AperFunction,Plated,PTH,ComponentDrill
T6C0.900
; #@! TA.AperFunction,Plated,PTH,ComponentDrill
T7C0.950
%
G90
G05
T1
X125.359Y-81.43
X125.45Y-82.7
X125.725Y-87.8
X130.9Y-91.1
X131.2Y-90.2
X132.7Y-70.2
X132.8Y-91.6
X133.2Y-71.0
X135.9Y-110.6
X135.9Y-114.2
X136.0Y-106.4
X136.1Y-118.55
X136.507Y-77.907
X136.684Y-100.311
X136.773Y-99.691
X136.8Y-61.2
X136.8Y-98.2
X137.1Y-59.441
X137.4Y-91.6
X137.411Y-77.711
X137.6Y-97.6
X137.6Y-110.9
X137.65Y-118.75
X139.0Y-99.0
X139.1Y-70.6
X139.124Y-77.188
X139.2Y-85.1
X139.689Y-70.111
X140.132Y-69.668
X140.2Y-118.75
X140.25Y-110.99
X140.7Y-90.1
X140.7Y-91.6
X141.3Y-100.1
X141.45Y-60.8
X141.5Y-73.9
X141.7Y-79.2
X141.9Y-77.1
X142.2Y-78.4
X142.4Y-87.4
X142.883Y-80.942
X142.927Y-81.984
X143.0Y-77.1
X143.4Y-82.5
X143.421Y-81.391
X143.5Y-72.2
X144.0Y-76.3
X144.4Y-90.1
X144.61Y-78.3
X144.7Y-75.6
X145.6Y-77.6
X145.9Y-91.7
X146.1Y-74.2
X146.5Y-78.2
X146.6Y-81.3
X146.8Y-76.1
X146.9Y-73.7
X147.3Y-83.6
X147.6Y-81.3
X147.923Y-76.523
X148.129Y-78.129
X148.4Y-74.5
X148.4Y-81.9
X148.6Y-84.1
X148.648Y-77.611
X148.657Y-75.327
X149.25Y-77.25
X149.674Y-86.424
X149.9Y-85.2
X150.0Y-80.6
X150.0Y-82.8
X150.469Y-89.281
X150.7Y-82.05
X150.7Y-91.8
X150.987Y-70.7
X151.2Y-83.9
X151.25Y-76.69
X152.017Y-79.084
X152.018Y-78.357
X152.03Y-77.47
X152.048Y-79.783
X152.2Y-74.6
X152.7Y-81.3
X152.8Y-85.2
X153.5Y-75.5
X153.7Y-84.1
X154.6Y-87.8
X154.9Y-77.2
X154.9Y-79.2
X154.9Y-81.1
X155.0Y-82.8
X155.0Y-90.8
X155.35Y-73.495
X155.893Y-72.307
X155.9Y-87.3
X156.6Y-85.0
X156.7Y-82.8
X156.8Y-86.84
X156.989Y-74.911
X157.0Y-74.2
X157.4Y-86.4
X157.5Y-73.6
X157.6Y-80.0
X157.8Y-77.2
X157.8Y-79.1
X157.9Y-86.9
X158.2Y-74.0
X158.8Y-89.6
X159.2Y-63.8
X159.4Y-88.3
X160.0Y-82.4
X160.3Y-77.3
X160.3Y-79.1
X160.6Y-89.6
X161.0Y-87.1
X161.0Y-87.981
X161.5Y-87.54
X162.5Y-61.7
X163.9Y-84.4
X164.0Y-88.9
X164.1Y-75.5
X164.1Y-82.6
X164.4Y-77.1
X164.4Y-79.3
X166.0Y-80.8
X166.2Y-86.3
X169.8Y-75.5
X170.0Y-77.1
X170.1Y-82.0
X171.6Y-76.85
X171.6Y-78.85
X171.6Y-80.85
X171.7Y-82.85
T2
X136.3Y-79.5
X136.3Y-80.5
X136.3Y-82.2
X136.3Y-83.2
T3
X120.8Y-85.8
X121.4Y-80.0
X123.5Y-78.1
X123.5Y-82.2
X123.7Y-72.4
X125.2Y-80.0
X125.8Y-85.6
X126.7Y-78.0
X127.7Y-86.0
X127.8Y-82.9
X128.8Y-78.9
X128.9Y-72.2
X128.9Y-81.2
X129.3Y-85.7
X129.7Y-70.0
X130.6Y-81.1
X131.8Y-82.7
X132.6Y-85.3
X132.7Y-72.2
X133.9Y-85.6
X134.3Y-81.0
X134.52Y-73.48
X135.0Y-77.2
X135.0Y-78.3
X135.651Y-53.9
X135.672Y-41.604
X135.673Y-49.408
X135.774Y-46.1
X135.9Y-57.2
X135.9Y-62.8
X136.0Y-102.8
X136.35Y-97.25
X137.161Y-115.561
X137.2Y-107.8
X137.25Y-50.9
X137.3Y-43.0
X137.4Y-90.1
X137.5Y-86.7
X138.4Y-71.8
X138.4Y-73.2
X139.0Y-61.0
X139.587Y-46.114
X139.6Y-84.0
X139.65Y-53.85
X140.3Y-86.1
X140.4Y-72.4
X141.1Y-80.4
X141.1Y-82.1
X141.3Y-83.5
X141.6Y-69.7
X142.4Y-85.1
X143.4Y-83.6
X145.1Y-86.5
X147.9Y-69.5
X152.1Y-84.6
X154.356Y-74.467
X155.9Y-60.9
X156.4Y-93.4
X156.4Y-99.2
X156.6Y-87.8
X157.6Y-65.9
X157.6Y-67.7
X158.5Y-60.9
X160.0Y-72.2
X160.7Y-74.15
X162.05Y-84.2
X162.3Y-86.2
X162.8Y-91.1
X163.2Y-93.8
X163.53Y-77.99
X164.2Y-64.6
X164.3Y-72.2
X164.4Y-67.7
X168.6Y-83.5
X169.8Y-68.3
X170.0Y-79.6
X170.7Y-93.8
X170.8Y-73.8
X172.5Y-90.9
X172.6Y-70.2
X173.7Y-84.5
X175.8Y-79.8
X176.7Y-84.0
T4
X132.85Y-76.7
X132.85Y-78.7
T5
X139.2Y-43.165
X139.2Y-44.435
X139.2Y-50.965
X139.2Y-52.235
X139.2Y-107.865
X139.2Y-109.135
X139.2Y-115.665
X139.2Y-116.935
T6
X143.7Y-42.53
X143.7Y-45.07
X143.7Y-50.33
X143.7Y-52.87
X143.7Y-107.23
X143.7Y-109.77
X143.7Y-115.03
X143.7Y-117.57
T6
G00X146.687Y-71.2
M15
G01X147.287Y-71.2
M16
G05
G00X146.687Y-88.8
M15
G01X147.287Y-88.8
M16
G05
G00X152.687Y-71.2
M15
G01X153.287Y-71.2
M16
G05
G00X152.687Y-88.8
M15
G01X153.287Y-88.8
M16
G05
T7
G00X160.758Y-62.236
M15
G01X160.806Y-62.783
M16
G05
G00X160.806Y-97.217
M15
G01X160.758Y-97.764
M16
G05
G00X161.194Y-67.217
M15
G01X161.242Y-67.764
M16
G05
G00X161.242Y-92.236
M15
G01X161.194Y-92.783
M16
G05
G00X170.597Y-71.612
M15
G01X171.073Y-71.888
M16
G05
G00X171.073Y-88.112
M15
G01X170.597Y-88.388
M16
G05
G00X174.927Y-74.112
M15
G01X175.403Y-74.388
M16
G05
G00X175.403Y-85.612
M15
G01X174.927Y-85.888
M16
G05
M30
