%TF.GenerationSoftware,KiCad,Pcbnew,8.0.3*%
%TF.CreationDate,2024-06-29T22:13:22+09:00*%
%TF.ProjectId,makyi_mouse,6d616b79-695f-46d6-9f75-73652e6b6963,rev?*%
%TF.SameCoordinates,Original*%
%TF.FileFunction,Profile,NP*%
%FSLAX46Y46*%
G04 Gerber Fmt 4.6, Leading zero omitted, Abs format (unit mm)*
G04 Created by KiCad (PCBNEW 8.0.3) date 2024-06-29 22:13:22*
%MOMM*%
%LPD*%
G01*
G04 APERTURE LIST*
%TA.AperFunction,Profile*%
%ADD10C,0.200000*%
%TD*%
%TA.AperFunction,Profile*%
%ADD11C,0.100000*%
%TD*%
%TA.AperFunction,Profile*%
%ADD12C,0.050000*%
%TD*%
G04 APERTURE END LIST*
D10*
X174648339Y-67190378D02*
G75*
G02*
X180000038Y-76044357I-4648339J-8854022D01*
G01*
X120000000Y-78800000D02*
X120000000Y-89016660D01*
D11*
X136000000Y-54600000D02*
X139500000Y-54600000D01*
D10*
X120000000Y-89016660D02*
X133000000Y-92500000D01*
X158000000Y-69500000D02*
G75*
G02*
X156000000Y-69500000I-1000000J0D01*
G01*
X156000000Y-69500000D02*
G75*
G02*
X158000000Y-69500000I1000000J0D01*
G01*
D11*
X136000000Y-46800000D02*
X139450000Y-46800000D01*
D10*
X158000000Y-90500000D02*
G75*
G02*
X156000000Y-90500000I-1000000J0D01*
G01*
X156000000Y-90500000D02*
G75*
G02*
X158000000Y-90500000I1000000J0D01*
G01*
D11*
X137000000Y-103500000D02*
X135000000Y-103500000D01*
X139200000Y-92500000D02*
X139200000Y-96500000D01*
X140500000Y-96500000D02*
X140500000Y-92500000D01*
X139200000Y-96500000D02*
X135000000Y-96500000D01*
X140500000Y-63500000D02*
X142000000Y-63500000D01*
D10*
X133000000Y-67500000D02*
X120000000Y-70983340D01*
D11*
X139200000Y-67500000D02*
X133000000Y-67500000D01*
X136000000Y-40800000D02*
X142900000Y-40800000D01*
X121100000Y-72900000D02*
X120000000Y-72400000D01*
X141450000Y-113300000D02*
X142900000Y-113300000D01*
X153000000Y-92500000D02*
G75*
G02*
X155000000Y-94500000I0J-2000000D01*
G01*
D10*
X155000000Y-59500000D02*
X155000000Y-65500000D01*
D11*
X142000000Y-57500000D02*
X141200000Y-57500000D01*
X141450000Y-48600000D02*
X141450000Y-46800000D01*
X142900000Y-40800000D02*
G75*
G02*
X142900000Y-46800000I0J-3000000D01*
G01*
X121100000Y-78000000D02*
X121100000Y-72900000D01*
D10*
X156301837Y-59500000D02*
G75*
G02*
X163274338Y-61219047I-37J-15000000D01*
G01*
D11*
X142000000Y-102500000D02*
X141100000Y-102500000D01*
X139200000Y-92500000D02*
X133000000Y-92500000D01*
X139450000Y-113300000D02*
X139450000Y-111500000D01*
X141450000Y-46800000D02*
X142900000Y-46800000D01*
X139500000Y-57500000D02*
X137500000Y-57500000D01*
X135000000Y-63500000D02*
X139200000Y-63500000D01*
X136000000Y-119300000D02*
X142900000Y-119300000D01*
D10*
X163274346Y-98780969D02*
X174648339Y-92809622D01*
X155000000Y-100500000D02*
X156301837Y-100500000D01*
D11*
X136000000Y-105500000D02*
X139600000Y-105500000D01*
X140500000Y-67500000D02*
X140500000Y-63500000D01*
D10*
X155000000Y-94500000D02*
X155000000Y-100500000D01*
D11*
X136000000Y-48600000D02*
X139450000Y-48600000D01*
X139450000Y-48600000D02*
X139450000Y-46800000D01*
X141450000Y-113300000D02*
X141450000Y-111500000D01*
X141200000Y-54600000D02*
X142900000Y-54600000D01*
X120000000Y-78800000D02*
X121100000Y-78000000D01*
X141100000Y-105500000D02*
X142900000Y-105500000D01*
X141450000Y-111500000D02*
X142900000Y-111500000D01*
X137500000Y-57500000D02*
X136500000Y-56500000D01*
X139200000Y-63500000D02*
X139200000Y-67500000D01*
X142000000Y-96500000D02*
X142000000Y-102500000D01*
X139600000Y-105500000D02*
X139600000Y-102500000D01*
D10*
X156301837Y-59500000D02*
X155000000Y-59500000D01*
D11*
X136000000Y-113300000D02*
X139450000Y-113300000D01*
X142000000Y-63500000D02*
X142000000Y-57500000D01*
X141450000Y-48600000D02*
X142900000Y-48600000D01*
X136000000Y-111500000D02*
X139450000Y-111500000D01*
D10*
X136000000Y-69500000D02*
G75*
G02*
X134000000Y-69500000I-1000000J0D01*
G01*
X134000000Y-69500000D02*
G75*
G02*
X136000000Y-69500000I1000000J0D01*
G01*
D11*
X141200000Y-57500000D02*
X141200000Y-54600000D01*
D10*
X180000000Y-83955643D02*
G75*
G02*
X174648338Y-92809620I-10000000J3D01*
G01*
X174648339Y-67190378D02*
X163274346Y-61219031D01*
X153000000Y-67500000D02*
X140500000Y-67500000D01*
D11*
X139500000Y-57500000D02*
X139500000Y-54600000D01*
X138000000Y-102500000D02*
X137000000Y-103500000D01*
X142900000Y-48600000D02*
G75*
G02*
X142900000Y-54600000I0J-3000000D01*
G01*
D10*
X163274346Y-98780969D02*
G75*
G02*
X156301837Y-100500018I-6972546J13280969D01*
G01*
D11*
X142900000Y-105500000D02*
G75*
G02*
X142900000Y-111500000I0J-3000000D01*
G01*
X142000000Y-96500000D02*
X140500000Y-96500000D01*
D10*
X140500000Y-92500000D02*
X153000000Y-92500000D01*
X136000000Y-90500000D02*
G75*
G02*
X134000000Y-90500000I-1000000J0D01*
G01*
X134000000Y-90500000D02*
G75*
G02*
X136000000Y-90500000I1000000J0D01*
G01*
D11*
X136500000Y-56500000D02*
X135000000Y-56500000D01*
X142900000Y-113300000D02*
G75*
G02*
X142900000Y-119300000I0J-3000000D01*
G01*
D10*
X180000000Y-83955643D02*
X180000000Y-76044357D01*
D11*
X155000000Y-65500000D02*
G75*
G02*
X153000000Y-67500000I-2000000J0D01*
G01*
X141100000Y-105500000D02*
X141100000Y-102500000D01*
X120000000Y-72400000D02*
X120000000Y-70983340D01*
X139600000Y-102500000D02*
X138000000Y-102500000D01*
%TO.C,J9*%
X134000000Y-48600000D02*
X136000000Y-48600000D01*
X134000000Y-49600000D02*
X134000000Y-48600000D01*
X134000000Y-49600000D02*
X135000000Y-49600000D01*
X134000000Y-53600000D02*
X134000000Y-54600000D01*
X134000000Y-53600000D02*
X135000000Y-53600000D01*
X134000000Y-54600000D02*
X136000000Y-54600000D01*
X135000000Y-53600000D02*
X135000000Y-49600000D01*
%TO.C,J7*%
X134000000Y-113300000D02*
X136000000Y-113300000D01*
X134000000Y-114300000D02*
X134000000Y-113300000D01*
X134000000Y-114300000D02*
X135000000Y-114300000D01*
X134000000Y-118300000D02*
X134000000Y-119300000D01*
X134000000Y-118300000D02*
X135000000Y-118300000D01*
X134000000Y-119300000D02*
X136000000Y-119300000D01*
X135000000Y-118300000D02*
X135000000Y-114300000D01*
%TO.C,J13*%
X134000000Y-56500000D02*
X135000000Y-56500000D01*
X134000000Y-57500000D02*
X134000000Y-56500000D01*
X134000000Y-62500000D02*
X134000000Y-63500000D01*
X134000000Y-63500000D02*
X135000000Y-63500000D01*
X135000000Y-57500000D02*
X134000000Y-57500000D01*
X135000000Y-60000000D02*
X135000000Y-58000000D01*
X135000000Y-60000000D02*
X135000000Y-62000000D01*
X135000000Y-62500000D02*
X134000000Y-62500000D01*
X135000000Y-57500000D02*
G75*
G02*
X135000000Y-58000000I0J-250000D01*
G01*
X135000000Y-62000000D02*
G75*
G02*
X135000000Y-62500000I0J-250000D01*
G01*
%TO.C,J4*%
X134000000Y-105500000D02*
X136000000Y-105500000D01*
X134000000Y-106500000D02*
X134000000Y-105500000D01*
X134000000Y-106500000D02*
X135000000Y-106500000D01*
X134000000Y-110500000D02*
X134000000Y-111500000D01*
X134000000Y-110500000D02*
X135000000Y-110500000D01*
X134000000Y-111500000D02*
X136000000Y-111500000D01*
X135000000Y-110500000D02*
X135000000Y-106500000D01*
D12*
%TO.C,SW1*%
X123025000Y-73600000D02*
G75*
G02*
X122175000Y-73600000I-425000J0D01*
G01*
X122175000Y-73600000D02*
G75*
G02*
X123025000Y-73600000I425000J0D01*
G01*
X123025000Y-76600000D02*
G75*
G02*
X122175000Y-76600000I-425000J0D01*
G01*
X122175000Y-76600000D02*
G75*
G02*
X123025000Y-76600000I425000J0D01*
G01*
D11*
%TO.C,J11*%
X134000000Y-96500000D02*
X134000000Y-97500000D01*
X134000000Y-97500000D02*
X135000000Y-97500000D01*
X134000000Y-102500000D02*
X135000000Y-102500000D01*
X134000000Y-103500000D02*
X134000000Y-102500000D01*
X135000000Y-96500000D02*
X134000000Y-96500000D01*
X135000000Y-98000000D02*
X135000000Y-100000000D01*
X135000000Y-102000000D02*
X135000000Y-100000000D01*
X135000000Y-103500000D02*
X134000000Y-103500000D01*
X135000000Y-97500000D02*
G75*
G02*
X135000000Y-98000000I0J-250000D01*
G01*
X135000000Y-102000000D02*
G75*
G02*
X135000000Y-102500000I0J-250000D01*
G01*
%TO.C,J2*%
X134000000Y-40800000D02*
X136000000Y-40800000D01*
X134000000Y-41800000D02*
X134000000Y-40800000D01*
X134000000Y-41800000D02*
X135000000Y-41800000D01*
X134000000Y-45800000D02*
X134000000Y-46800000D01*
X134000000Y-45800000D02*
X135000000Y-45800000D01*
X134000000Y-46800000D02*
X136000000Y-46800000D01*
X135000000Y-45800000D02*
X135000000Y-41800000D01*
%TD*%
M02*
