%TF.GenerationSoftware,KiCad,Pcbnew,8.0.3*%
%TF.CreationDate,2024-06-29T22:13:22+09:00*%
%TF.ProjectId,makyi_mouse,6d616b79-695f-46d6-9f75-73652e6b6963,rev?*%
%TF.SameCoordinates,Original*%
%TF.FileFunction,Legend,Bot*%
%TF.FilePolarity,Positive*%
%FSLAX46Y46*%
G04 Gerber Fmt 4.6, Leading zero omitted, Abs format (unit mm)*
G04 Created by KiCad (PCBNEW 8.0.3) date 2024-06-29 22:13:22*
%MOMM*%
%LPD*%
G01*
G04 APERTURE LIST*
%ADD10C,0.200000*%
%ADD11C,0.150000*%
%ADD12C,0.120000*%
G04 APERTURE END LIST*
D10*
X138085161Y-60380952D02*
X138085161Y-61333333D01*
X138085161Y-61333333D02*
X140085161Y-61333333D01*
X138085161Y-98380952D02*
X139037542Y-99047619D01*
X138085161Y-99523809D02*
X140085161Y-99523809D01*
X140085161Y-99523809D02*
X140085161Y-98761904D01*
X140085161Y-98761904D02*
X139989923Y-98571428D01*
X139989923Y-98571428D02*
X139894685Y-98476190D01*
X139894685Y-98476190D02*
X139704209Y-98380952D01*
X139704209Y-98380952D02*
X139418495Y-98380952D01*
X139418495Y-98380952D02*
X139228019Y-98476190D01*
X139228019Y-98476190D02*
X139132780Y-98571428D01*
X139132780Y-98571428D02*
X139037542Y-98761904D01*
X139037542Y-98761904D02*
X139037542Y-99523809D01*
D11*
X132900057Y-49404761D02*
X132852438Y-49309523D01*
X132852438Y-49309523D02*
X132757200Y-49214285D01*
X132757200Y-49214285D02*
X132614342Y-49071428D01*
X132614342Y-49071428D02*
X132566723Y-48976190D01*
X132566723Y-48976190D02*
X132566723Y-48880952D01*
X132804819Y-48928571D02*
X132757200Y-48833333D01*
X132757200Y-48833333D02*
X132661961Y-48738095D01*
X132661961Y-48738095D02*
X132471485Y-48690476D01*
X132471485Y-48690476D02*
X132138152Y-48690476D01*
X132138152Y-48690476D02*
X131947676Y-48738095D01*
X131947676Y-48738095D02*
X131852438Y-48833333D01*
X131852438Y-48833333D02*
X131804819Y-48928571D01*
X131804819Y-48928571D02*
X131804819Y-49119047D01*
X131804819Y-49119047D02*
X131852438Y-49214285D01*
X131852438Y-49214285D02*
X131947676Y-49309523D01*
X131947676Y-49309523D02*
X132138152Y-49357142D01*
X132138152Y-49357142D02*
X132471485Y-49357142D01*
X132471485Y-49357142D02*
X132661961Y-49309523D01*
X132661961Y-49309523D02*
X132757200Y-49214285D01*
X132757200Y-49214285D02*
X132804819Y-49119047D01*
X132804819Y-49119047D02*
X132804819Y-48928571D01*
X131804819Y-50214285D02*
X131804819Y-50023809D01*
X131804819Y-50023809D02*
X131852438Y-49928571D01*
X131852438Y-49928571D02*
X131900057Y-49880952D01*
X131900057Y-49880952D02*
X132042914Y-49785714D01*
X132042914Y-49785714D02*
X132233390Y-49738095D01*
X132233390Y-49738095D02*
X132614342Y-49738095D01*
X132614342Y-49738095D02*
X132709580Y-49785714D01*
X132709580Y-49785714D02*
X132757200Y-49833333D01*
X132757200Y-49833333D02*
X132804819Y-49928571D01*
X132804819Y-49928571D02*
X132804819Y-50119047D01*
X132804819Y-50119047D02*
X132757200Y-50214285D01*
X132757200Y-50214285D02*
X132709580Y-50261904D01*
X132709580Y-50261904D02*
X132614342Y-50309523D01*
X132614342Y-50309523D02*
X132376247Y-50309523D01*
X132376247Y-50309523D02*
X132281009Y-50261904D01*
X132281009Y-50261904D02*
X132233390Y-50214285D01*
X132233390Y-50214285D02*
X132185771Y-50119047D01*
X132185771Y-50119047D02*
X132185771Y-49928571D01*
X132185771Y-49928571D02*
X132233390Y-49833333D01*
X132233390Y-49833333D02*
X132281009Y-49785714D01*
X132281009Y-49785714D02*
X132376247Y-49738095D01*
X131550057Y-114604761D02*
X131502438Y-114509523D01*
X131502438Y-114509523D02*
X131407200Y-114414285D01*
X131407200Y-114414285D02*
X131264342Y-114271428D01*
X131264342Y-114271428D02*
X131216723Y-114176190D01*
X131216723Y-114176190D02*
X131216723Y-114080952D01*
X131454819Y-114128571D02*
X131407200Y-114033333D01*
X131407200Y-114033333D02*
X131311961Y-113938095D01*
X131311961Y-113938095D02*
X131121485Y-113890476D01*
X131121485Y-113890476D02*
X130788152Y-113890476D01*
X130788152Y-113890476D02*
X130597676Y-113938095D01*
X130597676Y-113938095D02*
X130502438Y-114033333D01*
X130502438Y-114033333D02*
X130454819Y-114128571D01*
X130454819Y-114128571D02*
X130454819Y-114319047D01*
X130454819Y-114319047D02*
X130502438Y-114414285D01*
X130502438Y-114414285D02*
X130597676Y-114509523D01*
X130597676Y-114509523D02*
X130788152Y-114557142D01*
X130788152Y-114557142D02*
X131121485Y-114557142D01*
X131121485Y-114557142D02*
X131311961Y-114509523D01*
X131311961Y-114509523D02*
X131407200Y-114414285D01*
X131407200Y-114414285D02*
X131454819Y-114319047D01*
X131454819Y-114319047D02*
X131454819Y-114128571D01*
X130454819Y-115461904D02*
X130454819Y-114985714D01*
X130454819Y-114985714D02*
X130931009Y-114938095D01*
X130931009Y-114938095D02*
X130883390Y-114985714D01*
X130883390Y-114985714D02*
X130835771Y-115080952D01*
X130835771Y-115080952D02*
X130835771Y-115319047D01*
X130835771Y-115319047D02*
X130883390Y-115414285D01*
X130883390Y-115414285D02*
X130931009Y-115461904D01*
X130931009Y-115461904D02*
X131026247Y-115509523D01*
X131026247Y-115509523D02*
X131264342Y-115509523D01*
X131264342Y-115509523D02*
X131359580Y-115461904D01*
X131359580Y-115461904D02*
X131407200Y-115414285D01*
X131407200Y-115414285D02*
X131454819Y-115319047D01*
X131454819Y-115319047D02*
X131454819Y-115080952D01*
X131454819Y-115080952D02*
X131407200Y-114985714D01*
X131407200Y-114985714D02*
X131359580Y-114938095D01*
X132700057Y-106554761D02*
X132652438Y-106459523D01*
X132652438Y-106459523D02*
X132557200Y-106364285D01*
X132557200Y-106364285D02*
X132414342Y-106221428D01*
X132414342Y-106221428D02*
X132366723Y-106126190D01*
X132366723Y-106126190D02*
X132366723Y-106030952D01*
X132604819Y-106078571D02*
X132557200Y-105983333D01*
X132557200Y-105983333D02*
X132461961Y-105888095D01*
X132461961Y-105888095D02*
X132271485Y-105840476D01*
X132271485Y-105840476D02*
X131938152Y-105840476D01*
X131938152Y-105840476D02*
X131747676Y-105888095D01*
X131747676Y-105888095D02*
X131652438Y-105983333D01*
X131652438Y-105983333D02*
X131604819Y-106078571D01*
X131604819Y-106078571D02*
X131604819Y-106269047D01*
X131604819Y-106269047D02*
X131652438Y-106364285D01*
X131652438Y-106364285D02*
X131747676Y-106459523D01*
X131747676Y-106459523D02*
X131938152Y-106507142D01*
X131938152Y-106507142D02*
X132271485Y-106507142D01*
X132271485Y-106507142D02*
X132461961Y-106459523D01*
X132461961Y-106459523D02*
X132557200Y-106364285D01*
X132557200Y-106364285D02*
X132604819Y-106269047D01*
X132604819Y-106269047D02*
X132604819Y-106078571D01*
X131938152Y-107364285D02*
X132604819Y-107364285D01*
X131557200Y-107126190D02*
X132271485Y-106888095D01*
X132271485Y-106888095D02*
X132271485Y-107507142D01*
X132700057Y-41704761D02*
X132652438Y-41609523D01*
X132652438Y-41609523D02*
X132557200Y-41514285D01*
X132557200Y-41514285D02*
X132414342Y-41371428D01*
X132414342Y-41371428D02*
X132366723Y-41276190D01*
X132366723Y-41276190D02*
X132366723Y-41180952D01*
X132604819Y-41228571D02*
X132557200Y-41133333D01*
X132557200Y-41133333D02*
X132461961Y-41038095D01*
X132461961Y-41038095D02*
X132271485Y-40990476D01*
X132271485Y-40990476D02*
X131938152Y-40990476D01*
X131938152Y-40990476D02*
X131747676Y-41038095D01*
X131747676Y-41038095D02*
X131652438Y-41133333D01*
X131652438Y-41133333D02*
X131604819Y-41228571D01*
X131604819Y-41228571D02*
X131604819Y-41419047D01*
X131604819Y-41419047D02*
X131652438Y-41514285D01*
X131652438Y-41514285D02*
X131747676Y-41609523D01*
X131747676Y-41609523D02*
X131938152Y-41657142D01*
X131938152Y-41657142D02*
X132271485Y-41657142D01*
X132271485Y-41657142D02*
X132461961Y-41609523D01*
X132461961Y-41609523D02*
X132557200Y-41514285D01*
X132557200Y-41514285D02*
X132604819Y-41419047D01*
X132604819Y-41419047D02*
X132604819Y-41228571D01*
X131604819Y-41990476D02*
X131604819Y-42609523D01*
X131604819Y-42609523D02*
X131985771Y-42276190D01*
X131985771Y-42276190D02*
X131985771Y-42419047D01*
X131985771Y-42419047D02*
X132033390Y-42514285D01*
X132033390Y-42514285D02*
X132081009Y-42561904D01*
X132081009Y-42561904D02*
X132176247Y-42609523D01*
X132176247Y-42609523D02*
X132414342Y-42609523D01*
X132414342Y-42609523D02*
X132509580Y-42561904D01*
X132509580Y-42561904D02*
X132557200Y-42514285D01*
X132557200Y-42514285D02*
X132604819Y-42419047D01*
X132604819Y-42419047D02*
X132604819Y-42133333D01*
X132604819Y-42133333D02*
X132557200Y-42038095D01*
X132557200Y-42038095D02*
X132509580Y-41990476D01*
X147704819Y-108061905D02*
X146704819Y-108061905D01*
X146704819Y-108061905D02*
X146704819Y-108300000D01*
X146704819Y-108300000D02*
X146752438Y-108442857D01*
X146752438Y-108442857D02*
X146847676Y-108538095D01*
X146847676Y-108538095D02*
X146942914Y-108585714D01*
X146942914Y-108585714D02*
X147133390Y-108633333D01*
X147133390Y-108633333D02*
X147276247Y-108633333D01*
X147276247Y-108633333D02*
X147466723Y-108585714D01*
X147466723Y-108585714D02*
X147561961Y-108538095D01*
X147561961Y-108538095D02*
X147657200Y-108442857D01*
X147657200Y-108442857D02*
X147704819Y-108300000D01*
X147704819Y-108300000D02*
X147704819Y-108061905D01*
X147038152Y-109490476D02*
X147704819Y-109490476D01*
X146657200Y-109252381D02*
X147371485Y-109014286D01*
X147371485Y-109014286D02*
X147371485Y-109633333D01*
X135209580Y-46053333D02*
X135257200Y-46005714D01*
X135257200Y-46005714D02*
X135304819Y-45862857D01*
X135304819Y-45862857D02*
X135304819Y-45767619D01*
X135304819Y-45767619D02*
X135257200Y-45624762D01*
X135257200Y-45624762D02*
X135161961Y-45529524D01*
X135161961Y-45529524D02*
X135066723Y-45481905D01*
X135066723Y-45481905D02*
X134876247Y-45434286D01*
X134876247Y-45434286D02*
X134733390Y-45434286D01*
X134733390Y-45434286D02*
X134542914Y-45481905D01*
X134542914Y-45481905D02*
X134447676Y-45529524D01*
X134447676Y-45529524D02*
X134352438Y-45624762D01*
X134352438Y-45624762D02*
X134304819Y-45767619D01*
X134304819Y-45767619D02*
X134304819Y-45862857D01*
X134304819Y-45862857D02*
X134352438Y-46005714D01*
X134352438Y-46005714D02*
X134400057Y-46053333D01*
X134733390Y-46624762D02*
X134685771Y-46529524D01*
X134685771Y-46529524D02*
X134638152Y-46481905D01*
X134638152Y-46481905D02*
X134542914Y-46434286D01*
X134542914Y-46434286D02*
X134495295Y-46434286D01*
X134495295Y-46434286D02*
X134400057Y-46481905D01*
X134400057Y-46481905D02*
X134352438Y-46529524D01*
X134352438Y-46529524D02*
X134304819Y-46624762D01*
X134304819Y-46624762D02*
X134304819Y-46815238D01*
X134304819Y-46815238D02*
X134352438Y-46910476D01*
X134352438Y-46910476D02*
X134400057Y-46958095D01*
X134400057Y-46958095D02*
X134495295Y-47005714D01*
X134495295Y-47005714D02*
X134542914Y-47005714D01*
X134542914Y-47005714D02*
X134638152Y-46958095D01*
X134638152Y-46958095D02*
X134685771Y-46910476D01*
X134685771Y-46910476D02*
X134733390Y-46815238D01*
X134733390Y-46815238D02*
X134733390Y-46624762D01*
X134733390Y-46624762D02*
X134781009Y-46529524D01*
X134781009Y-46529524D02*
X134828628Y-46481905D01*
X134828628Y-46481905D02*
X134923866Y-46434286D01*
X134923866Y-46434286D02*
X135114342Y-46434286D01*
X135114342Y-46434286D02*
X135209580Y-46481905D01*
X135209580Y-46481905D02*
X135257200Y-46529524D01*
X135257200Y-46529524D02*
X135304819Y-46624762D01*
X135304819Y-46624762D02*
X135304819Y-46815238D01*
X135304819Y-46815238D02*
X135257200Y-46910476D01*
X135257200Y-46910476D02*
X135209580Y-46958095D01*
X135209580Y-46958095D02*
X135114342Y-47005714D01*
X135114342Y-47005714D02*
X134923866Y-47005714D01*
X134923866Y-47005714D02*
X134828628Y-46958095D01*
X134828628Y-46958095D02*
X134781009Y-46910476D01*
X134781009Y-46910476D02*
X134733390Y-46815238D01*
X128259580Y-53507142D02*
X128307200Y-53459523D01*
X128307200Y-53459523D02*
X128354819Y-53316666D01*
X128354819Y-53316666D02*
X128354819Y-53221428D01*
X128354819Y-53221428D02*
X128307200Y-53078571D01*
X128307200Y-53078571D02*
X128211961Y-52983333D01*
X128211961Y-52983333D02*
X128116723Y-52935714D01*
X128116723Y-52935714D02*
X127926247Y-52888095D01*
X127926247Y-52888095D02*
X127783390Y-52888095D01*
X127783390Y-52888095D02*
X127592914Y-52935714D01*
X127592914Y-52935714D02*
X127497676Y-52983333D01*
X127497676Y-52983333D02*
X127402438Y-53078571D01*
X127402438Y-53078571D02*
X127354819Y-53221428D01*
X127354819Y-53221428D02*
X127354819Y-53316666D01*
X127354819Y-53316666D02*
X127402438Y-53459523D01*
X127402438Y-53459523D02*
X127450057Y-53507142D01*
X128354819Y-54459523D02*
X128354819Y-53888095D01*
X128354819Y-54173809D02*
X127354819Y-54173809D01*
X127354819Y-54173809D02*
X127497676Y-54078571D01*
X127497676Y-54078571D02*
X127592914Y-53983333D01*
X127592914Y-53983333D02*
X127640533Y-53888095D01*
X127688152Y-55316666D02*
X128354819Y-55316666D01*
X127307200Y-55078571D02*
X128021485Y-54840476D01*
X128021485Y-54840476D02*
X128021485Y-55459523D01*
X147404819Y-50811905D02*
X146404819Y-50811905D01*
X146404819Y-50811905D02*
X146404819Y-51050000D01*
X146404819Y-51050000D02*
X146452438Y-51192857D01*
X146452438Y-51192857D02*
X146547676Y-51288095D01*
X146547676Y-51288095D02*
X146642914Y-51335714D01*
X146642914Y-51335714D02*
X146833390Y-51383333D01*
X146833390Y-51383333D02*
X146976247Y-51383333D01*
X146976247Y-51383333D02*
X147166723Y-51335714D01*
X147166723Y-51335714D02*
X147261961Y-51288095D01*
X147261961Y-51288095D02*
X147357200Y-51192857D01*
X147357200Y-51192857D02*
X147404819Y-51050000D01*
X147404819Y-51050000D02*
X147404819Y-50811905D01*
X146404819Y-52240476D02*
X146404819Y-52050000D01*
X146404819Y-52050000D02*
X146452438Y-51954762D01*
X146452438Y-51954762D02*
X146500057Y-51907143D01*
X146500057Y-51907143D02*
X146642914Y-51811905D01*
X146642914Y-51811905D02*
X146833390Y-51764286D01*
X146833390Y-51764286D02*
X147214342Y-51764286D01*
X147214342Y-51764286D02*
X147309580Y-51811905D01*
X147309580Y-51811905D02*
X147357200Y-51859524D01*
X147357200Y-51859524D02*
X147404819Y-51954762D01*
X147404819Y-51954762D02*
X147404819Y-52145238D01*
X147404819Y-52145238D02*
X147357200Y-52240476D01*
X147357200Y-52240476D02*
X147309580Y-52288095D01*
X147309580Y-52288095D02*
X147214342Y-52335714D01*
X147214342Y-52335714D02*
X146976247Y-52335714D01*
X146976247Y-52335714D02*
X146881009Y-52288095D01*
X146881009Y-52288095D02*
X146833390Y-52240476D01*
X146833390Y-52240476D02*
X146785771Y-52145238D01*
X146785771Y-52145238D02*
X146785771Y-51954762D01*
X146785771Y-51954762D02*
X146833390Y-51859524D01*
X146833390Y-51859524D02*
X146881009Y-51811905D01*
X146881009Y-51811905D02*
X146976247Y-51764286D01*
X148104819Y-115861905D02*
X147104819Y-115861905D01*
X147104819Y-115861905D02*
X147104819Y-116100000D01*
X147104819Y-116100000D02*
X147152438Y-116242857D01*
X147152438Y-116242857D02*
X147247676Y-116338095D01*
X147247676Y-116338095D02*
X147342914Y-116385714D01*
X147342914Y-116385714D02*
X147533390Y-116433333D01*
X147533390Y-116433333D02*
X147676247Y-116433333D01*
X147676247Y-116433333D02*
X147866723Y-116385714D01*
X147866723Y-116385714D02*
X147961961Y-116338095D01*
X147961961Y-116338095D02*
X148057200Y-116242857D01*
X148057200Y-116242857D02*
X148104819Y-116100000D01*
X148104819Y-116100000D02*
X148104819Y-115861905D01*
X147104819Y-117338095D02*
X147104819Y-116861905D01*
X147104819Y-116861905D02*
X147581009Y-116814286D01*
X147581009Y-116814286D02*
X147533390Y-116861905D01*
X147533390Y-116861905D02*
X147485771Y-116957143D01*
X147485771Y-116957143D02*
X147485771Y-117195238D01*
X147485771Y-117195238D02*
X147533390Y-117290476D01*
X147533390Y-117290476D02*
X147581009Y-117338095D01*
X147581009Y-117338095D02*
X147676247Y-117385714D01*
X147676247Y-117385714D02*
X147914342Y-117385714D01*
X147914342Y-117385714D02*
X148009580Y-117338095D01*
X148009580Y-117338095D02*
X148057200Y-117290476D01*
X148057200Y-117290476D02*
X148104819Y-117195238D01*
X148104819Y-117195238D02*
X148104819Y-116957143D01*
X148104819Y-116957143D02*
X148057200Y-116861905D01*
X148057200Y-116861905D02*
X148009580Y-116814286D01*
X138659580Y-120357142D02*
X138707200Y-120309523D01*
X138707200Y-120309523D02*
X138754819Y-120166666D01*
X138754819Y-120166666D02*
X138754819Y-120071428D01*
X138754819Y-120071428D02*
X138707200Y-119928571D01*
X138707200Y-119928571D02*
X138611961Y-119833333D01*
X138611961Y-119833333D02*
X138516723Y-119785714D01*
X138516723Y-119785714D02*
X138326247Y-119738095D01*
X138326247Y-119738095D02*
X138183390Y-119738095D01*
X138183390Y-119738095D02*
X137992914Y-119785714D01*
X137992914Y-119785714D02*
X137897676Y-119833333D01*
X137897676Y-119833333D02*
X137802438Y-119928571D01*
X137802438Y-119928571D02*
X137754819Y-120071428D01*
X137754819Y-120071428D02*
X137754819Y-120166666D01*
X137754819Y-120166666D02*
X137802438Y-120309523D01*
X137802438Y-120309523D02*
X137850057Y-120357142D01*
X138754819Y-121309523D02*
X138754819Y-120738095D01*
X138754819Y-121023809D02*
X137754819Y-121023809D01*
X137754819Y-121023809D02*
X137897676Y-120928571D01*
X137897676Y-120928571D02*
X137992914Y-120833333D01*
X137992914Y-120833333D02*
X138040533Y-120738095D01*
X137850057Y-121690476D02*
X137802438Y-121738095D01*
X137802438Y-121738095D02*
X137754819Y-121833333D01*
X137754819Y-121833333D02*
X137754819Y-122071428D01*
X137754819Y-122071428D02*
X137802438Y-122166666D01*
X137802438Y-122166666D02*
X137850057Y-122214285D01*
X137850057Y-122214285D02*
X137945295Y-122261904D01*
X137945295Y-122261904D02*
X138040533Y-122261904D01*
X138040533Y-122261904D02*
X138183390Y-122214285D01*
X138183390Y-122214285D02*
X138754819Y-121642857D01*
X138754819Y-121642857D02*
X138754819Y-122261904D01*
X139454819Y-43061905D02*
X138454819Y-43061905D01*
X138454819Y-43061905D02*
X138454819Y-43300000D01*
X138454819Y-43300000D02*
X138502438Y-43442857D01*
X138502438Y-43442857D02*
X138597676Y-43538095D01*
X138597676Y-43538095D02*
X138692914Y-43585714D01*
X138692914Y-43585714D02*
X138883390Y-43633333D01*
X138883390Y-43633333D02*
X139026247Y-43633333D01*
X139026247Y-43633333D02*
X139216723Y-43585714D01*
X139216723Y-43585714D02*
X139311961Y-43538095D01*
X139311961Y-43538095D02*
X139407200Y-43442857D01*
X139407200Y-43442857D02*
X139454819Y-43300000D01*
X139454819Y-43300000D02*
X139454819Y-43061905D01*
X138454819Y-43966667D02*
X138454819Y-44585714D01*
X138454819Y-44585714D02*
X138835771Y-44252381D01*
X138835771Y-44252381D02*
X138835771Y-44395238D01*
X138835771Y-44395238D02*
X138883390Y-44490476D01*
X138883390Y-44490476D02*
X138931009Y-44538095D01*
X138931009Y-44538095D02*
X139026247Y-44585714D01*
X139026247Y-44585714D02*
X139264342Y-44585714D01*
X139264342Y-44585714D02*
X139359580Y-44538095D01*
X139359580Y-44538095D02*
X139407200Y-44490476D01*
X139407200Y-44490476D02*
X139454819Y-44395238D01*
X139454819Y-44395238D02*
X139454819Y-44109524D01*
X139454819Y-44109524D02*
X139407200Y-44014286D01*
X139407200Y-44014286D02*
X139359580Y-43966667D01*
X130009580Y-110807142D02*
X130057200Y-110759523D01*
X130057200Y-110759523D02*
X130104819Y-110616666D01*
X130104819Y-110616666D02*
X130104819Y-110521428D01*
X130104819Y-110521428D02*
X130057200Y-110378571D01*
X130057200Y-110378571D02*
X129961961Y-110283333D01*
X129961961Y-110283333D02*
X129866723Y-110235714D01*
X129866723Y-110235714D02*
X129676247Y-110188095D01*
X129676247Y-110188095D02*
X129533390Y-110188095D01*
X129533390Y-110188095D02*
X129342914Y-110235714D01*
X129342914Y-110235714D02*
X129247676Y-110283333D01*
X129247676Y-110283333D02*
X129152438Y-110378571D01*
X129152438Y-110378571D02*
X129104819Y-110521428D01*
X129104819Y-110521428D02*
X129104819Y-110616666D01*
X129104819Y-110616666D02*
X129152438Y-110759523D01*
X129152438Y-110759523D02*
X129200057Y-110807142D01*
X130104819Y-111759523D02*
X130104819Y-111188095D01*
X130104819Y-111473809D02*
X129104819Y-111473809D01*
X129104819Y-111473809D02*
X129247676Y-111378571D01*
X129247676Y-111378571D02*
X129342914Y-111283333D01*
X129342914Y-111283333D02*
X129390533Y-111188095D01*
X129104819Y-112378571D02*
X129104819Y-112473809D01*
X129104819Y-112473809D02*
X129152438Y-112569047D01*
X129152438Y-112569047D02*
X129200057Y-112616666D01*
X129200057Y-112616666D02*
X129295295Y-112664285D01*
X129295295Y-112664285D02*
X129485771Y-112711904D01*
X129485771Y-112711904D02*
X129723866Y-112711904D01*
X129723866Y-112711904D02*
X129914342Y-112664285D01*
X129914342Y-112664285D02*
X130009580Y-112616666D01*
X130009580Y-112616666D02*
X130057200Y-112569047D01*
X130057200Y-112569047D02*
X130104819Y-112473809D01*
X130104819Y-112473809D02*
X130104819Y-112378571D01*
X130104819Y-112378571D02*
X130057200Y-112283333D01*
X130057200Y-112283333D02*
X130009580Y-112235714D01*
X130009580Y-112235714D02*
X129914342Y-112188095D01*
X129914342Y-112188095D02*
X129723866Y-112140476D01*
X129723866Y-112140476D02*
X129485771Y-112140476D01*
X129485771Y-112140476D02*
X129295295Y-112188095D01*
X129295295Y-112188095D02*
X129200057Y-112235714D01*
X129200057Y-112235714D02*
X129152438Y-112283333D01*
X129152438Y-112283333D02*
X129104819Y-112378571D01*
X144759580Y-98357142D02*
X144807200Y-98309523D01*
X144807200Y-98309523D02*
X144854819Y-98166666D01*
X144854819Y-98166666D02*
X144854819Y-98071428D01*
X144854819Y-98071428D02*
X144807200Y-97928571D01*
X144807200Y-97928571D02*
X144711961Y-97833333D01*
X144711961Y-97833333D02*
X144616723Y-97785714D01*
X144616723Y-97785714D02*
X144426247Y-97738095D01*
X144426247Y-97738095D02*
X144283390Y-97738095D01*
X144283390Y-97738095D02*
X144092914Y-97785714D01*
X144092914Y-97785714D02*
X143997676Y-97833333D01*
X143997676Y-97833333D02*
X143902438Y-97928571D01*
X143902438Y-97928571D02*
X143854819Y-98071428D01*
X143854819Y-98071428D02*
X143854819Y-98166666D01*
X143854819Y-98166666D02*
X143902438Y-98309523D01*
X143902438Y-98309523D02*
X143950057Y-98357142D01*
X144854819Y-99309523D02*
X144854819Y-98738095D01*
X144854819Y-99023809D02*
X143854819Y-99023809D01*
X143854819Y-99023809D02*
X143997676Y-98928571D01*
X143997676Y-98928571D02*
X144092914Y-98833333D01*
X144092914Y-98833333D02*
X144140533Y-98738095D01*
X143854819Y-100166666D02*
X143854819Y-99976190D01*
X143854819Y-99976190D02*
X143902438Y-99880952D01*
X143902438Y-99880952D02*
X143950057Y-99833333D01*
X143950057Y-99833333D02*
X144092914Y-99738095D01*
X144092914Y-99738095D02*
X144283390Y-99690476D01*
X144283390Y-99690476D02*
X144664342Y-99690476D01*
X144664342Y-99690476D02*
X144759580Y-99738095D01*
X144759580Y-99738095D02*
X144807200Y-99785714D01*
X144807200Y-99785714D02*
X144854819Y-99880952D01*
X144854819Y-99880952D02*
X144854819Y-100071428D01*
X144854819Y-100071428D02*
X144807200Y-100166666D01*
X144807200Y-100166666D02*
X144759580Y-100214285D01*
X144759580Y-100214285D02*
X144664342Y-100261904D01*
X144664342Y-100261904D02*
X144426247Y-100261904D01*
X144426247Y-100261904D02*
X144331009Y-100214285D01*
X144331009Y-100214285D02*
X144283390Y-100166666D01*
X144283390Y-100166666D02*
X144235771Y-100071428D01*
X144235771Y-100071428D02*
X144235771Y-99880952D01*
X144235771Y-99880952D02*
X144283390Y-99785714D01*
X144283390Y-99785714D02*
X144331009Y-99738095D01*
X144331009Y-99738095D02*
X144426247Y-99690476D01*
X131204819Y-110507142D02*
X130728628Y-110173809D01*
X131204819Y-109935714D02*
X130204819Y-109935714D01*
X130204819Y-109935714D02*
X130204819Y-110316666D01*
X130204819Y-110316666D02*
X130252438Y-110411904D01*
X130252438Y-110411904D02*
X130300057Y-110459523D01*
X130300057Y-110459523D02*
X130395295Y-110507142D01*
X130395295Y-110507142D02*
X130538152Y-110507142D01*
X130538152Y-110507142D02*
X130633390Y-110459523D01*
X130633390Y-110459523D02*
X130681009Y-110411904D01*
X130681009Y-110411904D02*
X130728628Y-110316666D01*
X130728628Y-110316666D02*
X130728628Y-109935714D01*
X131204819Y-111459523D02*
X131204819Y-110888095D01*
X131204819Y-111173809D02*
X130204819Y-111173809D01*
X130204819Y-111173809D02*
X130347676Y-111078571D01*
X130347676Y-111078571D02*
X130442914Y-110983333D01*
X130442914Y-110983333D02*
X130490533Y-110888095D01*
X130300057Y-111840476D02*
X130252438Y-111888095D01*
X130252438Y-111888095D02*
X130204819Y-111983333D01*
X130204819Y-111983333D02*
X130204819Y-112221428D01*
X130204819Y-112221428D02*
X130252438Y-112316666D01*
X130252438Y-112316666D02*
X130300057Y-112364285D01*
X130300057Y-112364285D02*
X130395295Y-112411904D01*
X130395295Y-112411904D02*
X130490533Y-112411904D01*
X130490533Y-112411904D02*
X130633390Y-112364285D01*
X130633390Y-112364285D02*
X131204819Y-111792857D01*
X131204819Y-111792857D02*
X131204819Y-112411904D01*
X130704819Y-53457142D02*
X130228628Y-53123809D01*
X130704819Y-52885714D02*
X129704819Y-52885714D01*
X129704819Y-52885714D02*
X129704819Y-53266666D01*
X129704819Y-53266666D02*
X129752438Y-53361904D01*
X129752438Y-53361904D02*
X129800057Y-53409523D01*
X129800057Y-53409523D02*
X129895295Y-53457142D01*
X129895295Y-53457142D02*
X130038152Y-53457142D01*
X130038152Y-53457142D02*
X130133390Y-53409523D01*
X130133390Y-53409523D02*
X130181009Y-53361904D01*
X130181009Y-53361904D02*
X130228628Y-53266666D01*
X130228628Y-53266666D02*
X130228628Y-52885714D01*
X130704819Y-54409523D02*
X130704819Y-53838095D01*
X130704819Y-54123809D02*
X129704819Y-54123809D01*
X129704819Y-54123809D02*
X129847676Y-54028571D01*
X129847676Y-54028571D02*
X129942914Y-53933333D01*
X129942914Y-53933333D02*
X129990533Y-53838095D01*
X130133390Y-54980952D02*
X130085771Y-54885714D01*
X130085771Y-54885714D02*
X130038152Y-54838095D01*
X130038152Y-54838095D02*
X129942914Y-54790476D01*
X129942914Y-54790476D02*
X129895295Y-54790476D01*
X129895295Y-54790476D02*
X129800057Y-54838095D01*
X129800057Y-54838095D02*
X129752438Y-54885714D01*
X129752438Y-54885714D02*
X129704819Y-54980952D01*
X129704819Y-54980952D02*
X129704819Y-55171428D01*
X129704819Y-55171428D02*
X129752438Y-55266666D01*
X129752438Y-55266666D02*
X129800057Y-55314285D01*
X129800057Y-55314285D02*
X129895295Y-55361904D01*
X129895295Y-55361904D02*
X129942914Y-55361904D01*
X129942914Y-55361904D02*
X130038152Y-55314285D01*
X130038152Y-55314285D02*
X130085771Y-55266666D01*
X130085771Y-55266666D02*
X130133390Y-55171428D01*
X130133390Y-55171428D02*
X130133390Y-54980952D01*
X130133390Y-54980952D02*
X130181009Y-54885714D01*
X130181009Y-54885714D02*
X130228628Y-54838095D01*
X130228628Y-54838095D02*
X130323866Y-54790476D01*
X130323866Y-54790476D02*
X130514342Y-54790476D01*
X130514342Y-54790476D02*
X130609580Y-54838095D01*
X130609580Y-54838095D02*
X130657200Y-54885714D01*
X130657200Y-54885714D02*
X130704819Y-54980952D01*
X130704819Y-54980952D02*
X130704819Y-55171428D01*
X130704819Y-55171428D02*
X130657200Y-55266666D01*
X130657200Y-55266666D02*
X130609580Y-55314285D01*
X130609580Y-55314285D02*
X130514342Y-55361904D01*
X130514342Y-55361904D02*
X130323866Y-55361904D01*
X130323866Y-55361904D02*
X130228628Y-55314285D01*
X130228628Y-55314285D02*
X130181009Y-55266666D01*
X130181009Y-55266666D02*
X130133390Y-55171428D01*
X143459580Y-63057142D02*
X143507200Y-63009523D01*
X143507200Y-63009523D02*
X143554819Y-62866666D01*
X143554819Y-62866666D02*
X143554819Y-62771428D01*
X143554819Y-62771428D02*
X143507200Y-62628571D01*
X143507200Y-62628571D02*
X143411961Y-62533333D01*
X143411961Y-62533333D02*
X143316723Y-62485714D01*
X143316723Y-62485714D02*
X143126247Y-62438095D01*
X143126247Y-62438095D02*
X142983390Y-62438095D01*
X142983390Y-62438095D02*
X142792914Y-62485714D01*
X142792914Y-62485714D02*
X142697676Y-62533333D01*
X142697676Y-62533333D02*
X142602438Y-62628571D01*
X142602438Y-62628571D02*
X142554819Y-62771428D01*
X142554819Y-62771428D02*
X142554819Y-62866666D01*
X142554819Y-62866666D02*
X142602438Y-63009523D01*
X142602438Y-63009523D02*
X142650057Y-63057142D01*
X143554819Y-64009523D02*
X143554819Y-63438095D01*
X143554819Y-63723809D02*
X142554819Y-63723809D01*
X142554819Y-63723809D02*
X142697676Y-63628571D01*
X142697676Y-63628571D02*
X142792914Y-63533333D01*
X142792914Y-63533333D02*
X142840533Y-63438095D01*
X142554819Y-64342857D02*
X142554819Y-65009523D01*
X142554819Y-65009523D02*
X143554819Y-64580952D01*
X132754819Y-118357142D02*
X132278628Y-118023809D01*
X132754819Y-117785714D02*
X131754819Y-117785714D01*
X131754819Y-117785714D02*
X131754819Y-118166666D01*
X131754819Y-118166666D02*
X131802438Y-118261904D01*
X131802438Y-118261904D02*
X131850057Y-118309523D01*
X131850057Y-118309523D02*
X131945295Y-118357142D01*
X131945295Y-118357142D02*
X132088152Y-118357142D01*
X132088152Y-118357142D02*
X132183390Y-118309523D01*
X132183390Y-118309523D02*
X132231009Y-118261904D01*
X132231009Y-118261904D02*
X132278628Y-118166666D01*
X132278628Y-118166666D02*
X132278628Y-117785714D01*
X132754819Y-119309523D02*
X132754819Y-118738095D01*
X132754819Y-119023809D02*
X131754819Y-119023809D01*
X131754819Y-119023809D02*
X131897676Y-118928571D01*
X131897676Y-118928571D02*
X131992914Y-118833333D01*
X131992914Y-118833333D02*
X132040533Y-118738095D01*
X131754819Y-120214285D02*
X131754819Y-119738095D01*
X131754819Y-119738095D02*
X132231009Y-119690476D01*
X132231009Y-119690476D02*
X132183390Y-119738095D01*
X132183390Y-119738095D02*
X132135771Y-119833333D01*
X132135771Y-119833333D02*
X132135771Y-120071428D01*
X132135771Y-120071428D02*
X132183390Y-120166666D01*
X132183390Y-120166666D02*
X132231009Y-120214285D01*
X132231009Y-120214285D02*
X132326247Y-120261904D01*
X132326247Y-120261904D02*
X132564342Y-120261904D01*
X132564342Y-120261904D02*
X132659580Y-120214285D01*
X132659580Y-120214285D02*
X132707200Y-120166666D01*
X132707200Y-120166666D02*
X132754819Y-120071428D01*
X132754819Y-120071428D02*
X132754819Y-119833333D01*
X132754819Y-119833333D02*
X132707200Y-119738095D01*
X132707200Y-119738095D02*
X132659580Y-119690476D01*
X132454819Y-99190476D02*
X133169104Y-99190476D01*
X133169104Y-99190476D02*
X133311961Y-99142857D01*
X133311961Y-99142857D02*
X133407200Y-99047619D01*
X133407200Y-99047619D02*
X133454819Y-98904762D01*
X133454819Y-98904762D02*
X133454819Y-98809524D01*
X133454819Y-100190476D02*
X133454819Y-99619048D01*
X133454819Y-99904762D02*
X132454819Y-99904762D01*
X132454819Y-99904762D02*
X132597676Y-99809524D01*
X132597676Y-99809524D02*
X132692914Y-99714286D01*
X132692914Y-99714286D02*
X132740533Y-99619048D01*
X133454819Y-101142857D02*
X133454819Y-100571429D01*
X133454819Y-100857143D02*
X132454819Y-100857143D01*
X132454819Y-100857143D02*
X132597676Y-100761905D01*
X132597676Y-100761905D02*
X132692914Y-100666667D01*
X132692914Y-100666667D02*
X132740533Y-100571429D01*
X130904819Y-45433333D02*
X130428628Y-45100000D01*
X130904819Y-44861905D02*
X129904819Y-44861905D01*
X129904819Y-44861905D02*
X129904819Y-45242857D01*
X129904819Y-45242857D02*
X129952438Y-45338095D01*
X129952438Y-45338095D02*
X130000057Y-45385714D01*
X130000057Y-45385714D02*
X130095295Y-45433333D01*
X130095295Y-45433333D02*
X130238152Y-45433333D01*
X130238152Y-45433333D02*
X130333390Y-45385714D01*
X130333390Y-45385714D02*
X130381009Y-45338095D01*
X130381009Y-45338095D02*
X130428628Y-45242857D01*
X130428628Y-45242857D02*
X130428628Y-44861905D01*
X130904819Y-45909524D02*
X130904819Y-46100000D01*
X130904819Y-46100000D02*
X130857200Y-46195238D01*
X130857200Y-46195238D02*
X130809580Y-46242857D01*
X130809580Y-46242857D02*
X130666723Y-46338095D01*
X130666723Y-46338095D02*
X130476247Y-46385714D01*
X130476247Y-46385714D02*
X130095295Y-46385714D01*
X130095295Y-46385714D02*
X130000057Y-46338095D01*
X130000057Y-46338095D02*
X129952438Y-46290476D01*
X129952438Y-46290476D02*
X129904819Y-46195238D01*
X129904819Y-46195238D02*
X129904819Y-46004762D01*
X129904819Y-46004762D02*
X129952438Y-45909524D01*
X129952438Y-45909524D02*
X130000057Y-45861905D01*
X130000057Y-45861905D02*
X130095295Y-45814286D01*
X130095295Y-45814286D02*
X130333390Y-45814286D01*
X130333390Y-45814286D02*
X130428628Y-45861905D01*
X130428628Y-45861905D02*
X130476247Y-45909524D01*
X130476247Y-45909524D02*
X130523866Y-46004762D01*
X130523866Y-46004762D02*
X130523866Y-46195238D01*
X130523866Y-46195238D02*
X130476247Y-46290476D01*
X130476247Y-46290476D02*
X130428628Y-46338095D01*
X130428628Y-46338095D02*
X130333390Y-46385714D01*
D12*
%TO.C,Q6*%
X140435516Y-50040000D02*
G75*
G02*
X140278608Y-53272335I-1235517J-1560000D01*
G01*
X140280000Y-50559039D02*
G75*
G02*
X140279837Y-52641130I-1080000J-1040961D01*
G01*
X138120163Y-52641130D02*
G75*
G02*
X138120000Y-50559039I1079837J1041130D01*
G01*
X138121392Y-53272335D02*
G75*
G02*
X137964484Y-50040000I1078609J1672335D01*
G01*
X140436000Y-50040000D02*
X140280000Y-50040000D01*
X138120000Y-50040000D02*
X137964000Y-50040000D01*
%TO.C,Q5*%
X138120000Y-114740000D02*
X137964000Y-114740000D01*
X140436000Y-114740000D02*
X140280000Y-114740000D01*
X138121392Y-117972335D02*
G75*
G02*
X137964484Y-114740000I1078609J1672335D01*
G01*
X138120163Y-117341130D02*
G75*
G02*
X138120000Y-115259039I1079837J1041130D01*
G01*
X140280000Y-115259039D02*
G75*
G02*
X140279837Y-117341130I-1080000J-1040961D01*
G01*
X140435516Y-114740000D02*
G75*
G02*
X140278608Y-117972335I-1235517J-1560000D01*
G01*
%TO.C,Q4*%
X138120000Y-106940000D02*
X137964000Y-106940000D01*
X140436000Y-106940000D02*
X140280000Y-106940000D01*
X138121392Y-110172335D02*
G75*
G02*
X137964484Y-106940000I1078609J1672335D01*
G01*
X138120163Y-109541130D02*
G75*
G02*
X138120000Y-107459039I1079837J1041130D01*
G01*
X140280000Y-107459039D02*
G75*
G02*
X140279837Y-109541130I-1080000J-1040961D01*
G01*
X140435516Y-106940000D02*
G75*
G02*
X140278608Y-110172335I-1235517J-1560000D01*
G01*
%TO.C,Q3*%
X138120000Y-42240000D02*
X137964000Y-42240000D01*
X140436000Y-42240000D02*
X140280000Y-42240000D01*
X138121392Y-45472335D02*
G75*
G02*
X137964484Y-42240000I1078609J1672335D01*
G01*
X138120163Y-44841130D02*
G75*
G02*
X138120000Y-42759039I1079837J1041130D01*
G01*
X140280000Y-42759039D02*
G75*
G02*
X140279837Y-44841130I-1080000J-1040961D01*
G01*
X140435516Y-42240000D02*
G75*
G02*
X140278608Y-45472335I-1235517J-1560000D01*
G01*
%TO.C,D4*%
X144936000Y-106940000D02*
X144780000Y-106940000D01*
X142620000Y-106940000D02*
X142464000Y-106940000D01*
X144780000Y-107459039D02*
G75*
G02*
X144779837Y-109541130I-1080000J-1040961D01*
G01*
X144935516Y-106940000D02*
G75*
G02*
X144778608Y-110172335I-1235517J-1560000D01*
G01*
X142620163Y-109541130D02*
G75*
G02*
X142620000Y-107459039I1079837J1041130D01*
G01*
X142621392Y-110172335D02*
G75*
G02*
X142464484Y-106940000I1078609J1672335D01*
G01*
%TO.C,C8*%
X141760000Y-45827836D02*
X141760000Y-45612164D01*
X141040000Y-45827836D02*
X141040000Y-45612164D01*
%TO.C,C14*%
X141810000Y-53607836D02*
X141810000Y-53392164D01*
X141090000Y-53607836D02*
X141090000Y-53392164D01*
%TO.C,D6*%
X144936000Y-50040000D02*
X144780000Y-50040000D01*
X142620000Y-50040000D02*
X142464000Y-50040000D01*
X144780000Y-50559039D02*
G75*
G02*
X144779837Y-52641130I-1080000J-1040961D01*
G01*
X144935516Y-50040000D02*
G75*
G02*
X144778608Y-53272335I-1235517J-1560000D01*
G01*
X142620163Y-52641130D02*
G75*
G02*
X142620000Y-50559039I1079837J1041130D01*
G01*
X142621392Y-53272335D02*
G75*
G02*
X142464484Y-50040000I1078609J1672335D01*
G01*
%TO.C,D5*%
X144936000Y-114740000D02*
X144780000Y-114740000D01*
X142620000Y-114740000D02*
X142464000Y-114740000D01*
X144780000Y-115259039D02*
G75*
G02*
X144779837Y-117341130I-1080000J-1040961D01*
G01*
X144935516Y-114740000D02*
G75*
G02*
X144778608Y-117972335I-1235517J-1560000D01*
G01*
X142620163Y-117341130D02*
G75*
G02*
X142620000Y-115259039I1079837J1041130D01*
G01*
X142621392Y-117972335D02*
G75*
G02*
X142464484Y-114740000I1078609J1672335D01*
G01*
%TO.C,C12*%
X141860000Y-118307836D02*
X141860000Y-118092164D01*
X141140000Y-118307836D02*
X141140000Y-118092164D01*
%TO.C,D3*%
X144936000Y-42240000D02*
X144780000Y-42240000D01*
X142620000Y-42240000D02*
X142464000Y-42240000D01*
X144780000Y-42759039D02*
G75*
G02*
X144779837Y-44841130I-1080000J-1040961D01*
G01*
X144935516Y-42240000D02*
G75*
G02*
X144778608Y-45472335I-1235517J-1560000D01*
G01*
X142620163Y-44841130D02*
G75*
G02*
X142620000Y-42759039I1079837J1041130D01*
G01*
X142621392Y-45472335D02*
G75*
G02*
X142464484Y-42240000I1078609J1672335D01*
G01*
%TO.C,C10*%
X141960000Y-110407836D02*
X141960000Y-110192164D01*
X141240000Y-110407836D02*
X141240000Y-110192164D01*
%TO.C,C16*%
X140940000Y-98934165D02*
X140940000Y-99165835D01*
X141660000Y-98934165D02*
X141660000Y-99165835D01*
%TO.C,R12*%
X136470000Y-110503641D02*
X136470000Y-110196359D01*
X137230000Y-110503641D02*
X137230000Y-110196359D01*
%TO.C,R18*%
X136370000Y-53653641D02*
X136370000Y-53346359D01*
X137130000Y-53653641D02*
X137130000Y-53346359D01*
%TO.C,C17*%
X140940000Y-62015835D02*
X140940000Y-61784165D01*
X141660000Y-62015835D02*
X141660000Y-61784165D01*
%TO.C,R15*%
X136520000Y-118353641D02*
X136520000Y-118046359D01*
X137280000Y-118353641D02*
X137280000Y-118046359D01*
%TO.C,R9*%
X136320000Y-45753641D02*
X136320000Y-45446359D01*
X137080000Y-45753641D02*
X137080000Y-45446359D01*
%TD*%
M02*
