%TF.GenerationSoftware,KiCad,Pcbnew,8.0.3*%
%TF.CreationDate,2024-06-29T22:13:22+09:00*%
%TF.ProjectId,makyi_mouse,6d616b79-695f-46d6-9f75-73652e6b6963,rev?*%
%TF.SameCoordinates,Original*%
%TF.FileFunction,Copper,L2,Bot*%
%TF.FilePolarity,Positive*%
%FSLAX46Y46*%
G04 Gerber Fmt 4.6, Leading zero omitted, Abs format (unit mm)*
G04 Created by KiCad (PCBNEW 8.0.3) date 2024-06-29 22:13:22*
%MOMM*%
%LPD*%
G01*
G04 APERTURE LIST*
G04 Aperture macros list*
%AMRoundRect*
0 Rectangle with rounded corners*
0 $1 Rounding radius*
0 $2 $3 $4 $5 $6 $7 $8 $9 X,Y pos of 4 corners*
0 Add a 4 corners polygon primitive as box body*
4,1,4,$2,$3,$4,$5,$6,$7,$8,$9,$2,$3,0*
0 Add four circle primitives for the rounded corners*
1,1,$1+$1,$2,$3*
1,1,$1+$1,$4,$5*
1,1,$1+$1,$6,$7*
1,1,$1+$1,$8,$9*
0 Add four rect primitives between the rounded corners*
20,1,$1+$1,$2,$3,$4,$5,0*
20,1,$1+$1,$4,$5,$6,$7,0*
20,1,$1+$1,$6,$7,$8,$9,0*
20,1,$1+$1,$8,$9,$2,$3,0*%
%AMHorizOval*
0 Thick line with rounded ends*
0 $1 width*
0 $2 $3 position (X,Y) of the first rounded end (center of the circle)*
0 $4 $5 position (X,Y) of the second rounded end (center of the circle)*
0 Add line between two ends*
20,1,$1,$2,$3,$4,$5,0*
0 Add two circle primitives to create the rounded ends*
1,1,$1,$2,$3*
1,1,$1,$4,$5*%
G04 Aperture macros list end*
%TA.AperFunction,ComponentPad*%
%ADD10O,1.500000X1.000000*%
%TD*%
%TA.AperFunction,SMDPad,CuDef*%
%ADD11R,1.500000X1.000000*%
%TD*%
%TA.AperFunction,SMDPad,CuDef*%
%ADD12R,2.200000X1.200000*%
%TD*%
%TA.AperFunction,ComponentPad*%
%ADD13O,1.400000X1.800000*%
%TD*%
%TA.AperFunction,ComponentPad*%
%ADD14HorizOval,2.000000X-0.021789X-0.249049X0.021789X0.249049X0*%
%TD*%
%TA.AperFunction,ComponentPad*%
%ADD15HorizOval,2.000000X-0.216506X-0.125000X0.216506X0.125000X0*%
%TD*%
%TA.AperFunction,ComponentPad*%
%ADD16HorizOval,2.000000X0.216506X-0.125000X-0.216506X0.125000X0*%
%TD*%
%TA.AperFunction,SMDPad,CuDef*%
%ADD17RoundRect,0.140000X-0.170000X0.140000X-0.170000X-0.140000X0.170000X-0.140000X0.170000X0.140000X0*%
%TD*%
%TA.AperFunction,SMDPad,CuDef*%
%ADD18R,1.500000X0.700000*%
%TD*%
%TA.AperFunction,ComponentPad*%
%ADD19HorizOval,2.000000X0.021789X-0.249049X-0.021789X0.249049X0*%
%TD*%
%TA.AperFunction,ComponentPad*%
%ADD20O,2.500000X1.800000*%
%TD*%
%TA.AperFunction,ComponentPad*%
%ADD21R,0.850000X0.850000*%
%TD*%
%TA.AperFunction,ComponentPad*%
%ADD22O,0.850000X0.850000*%
%TD*%
%TA.AperFunction,ComponentPad*%
%ADD23RoundRect,0.250000X-0.625000X0.350000X-0.625000X-0.350000X0.625000X-0.350000X0.625000X0.350000X0*%
%TD*%
%TA.AperFunction,ComponentPad*%
%ADD24O,1.750000X1.200000*%
%TD*%
%TA.AperFunction,ComponentPad*%
%ADD25C,0.850000*%
%TD*%
%TA.AperFunction,SMDPad,CuDef*%
%ADD26RoundRect,0.155000X0.155000X-0.212500X0.155000X0.212500X-0.155000X0.212500X-0.155000X-0.212500X0*%
%TD*%
%TA.AperFunction,SMDPad,CuDef*%
%ADD27RoundRect,0.135000X-0.185000X0.135000X-0.185000X-0.135000X0.185000X-0.135000X0.185000X0.135000X0*%
%TD*%
%TA.AperFunction,SMDPad,CuDef*%
%ADD28RoundRect,0.155000X-0.155000X0.212500X-0.155000X-0.212500X0.155000X-0.212500X0.155000X0.212500X0*%
%TD*%
%TA.AperFunction,ViaPad*%
%ADD29C,0.800000*%
%TD*%
%TA.AperFunction,ViaPad*%
%ADD30C,0.500000*%
%TD*%
%TA.AperFunction,Conductor*%
%ADD31C,0.800000*%
%TD*%
%TA.AperFunction,Conductor*%
%ADD32C,0.400000*%
%TD*%
%TA.AperFunction,Conductor*%
%ADD33C,0.250000*%
%TD*%
%TA.AperFunction,Conductor*%
%ADD34C,0.500000*%
%TD*%
%TA.AperFunction,Conductor*%
%ADD35C,0.127000*%
%TD*%
G04 APERTURE END LIST*
D10*
%TO.P,Q6,2,E*%
%TO.N,Net-(Q6-E)*%
X139200000Y-52235000D03*
%TO.P,Q6,1,C*%
%TO.N,/wall_sensor3/ENC_3.3V*%
X139200000Y-50965000D03*
%TD*%
%TO.P,Q5,1,C*%
%TO.N,/wall_sensor2/ENC_3.3V*%
X139200000Y-115665000D03*
%TO.P,Q5,2,E*%
%TO.N,Net-(Q5-E)*%
X139200000Y-116935000D03*
%TD*%
%TO.P,Q4,1,C*%
%TO.N,/wall_sensor1/ENC_3.3V*%
X139200000Y-107865000D03*
%TO.P,Q4,2,E*%
%TO.N,Net-(Q4-E)*%
X139200000Y-109135000D03*
%TD*%
%TO.P,Q3,1,C*%
%TO.N,/wall_sensor/ENC_3.3V*%
X139200000Y-43165000D03*
%TO.P,Q3,2,E*%
%TO.N,Net-(Q3-E)*%
X139200000Y-44435000D03*
%TD*%
D11*
%TO.P,J9,2,Pin_2*%
%TO.N,/wall_sensor3/ENC_OUT*%
X135500000Y-51600000D03*
D12*
%TO.P,J9,3,Pin_3*%
%TO.N,/wall_sensor3/ENC_GND*%
X135000000Y-54100000D03*
%TO.P,J9,4,Pin_4*%
%TO.N,/wall_sensor3/ENC_3.3V*%
X135000000Y-49100000D03*
%TD*%
D13*
%TO.P,D4,1,K*%
%TO.N,Net-(D4-K)*%
X143700000Y-107230000D03*
%TO.P,D4,2,A*%
%TO.N,/wall_sensor1/ENC_3.3V*%
X143700000Y-109770000D03*
%TD*%
D14*
%TO.P,J6,3,Pin_3*%
%TO.N,GND*%
X160782111Y-97490487D03*
%TO.P,J6,4,Pin_4*%
%TO.N,+3.3V*%
X161217889Y-92509513D03*
%TD*%
D15*
%TO.P,J3,3,Pin_3*%
%TO.N,GND*%
X170834936Y-88250000D03*
%TO.P,J3,4,Pin_4*%
%TO.N,+3.3V*%
X175165064Y-85750000D03*
%TD*%
D16*
%TO.P,J5,3,Pin_3*%
%TO.N,GND*%
X175165064Y-74250000D03*
%TO.P,J5,4,Pin_4*%
%TO.N,+3.3V*%
X170834936Y-71750000D03*
%TD*%
D17*
%TO.P,C8,1*%
%TO.N,/wall_sensor/ENC_3.3V*%
X141400000Y-45240000D03*
%TO.P,C8,2*%
%TO.N,/wall_sensor/ENC_GND*%
X141400000Y-46200000D03*
%TD*%
%TO.P,C14,1*%
%TO.N,/wall_sensor3/ENC_3.3V*%
X141450000Y-53020000D03*
%TO.P,C14,2*%
%TO.N,/wall_sensor3/ENC_GND*%
X141450000Y-53980000D03*
%TD*%
D11*
%TO.P,J7,2,Pin_2*%
%TO.N,/wall_sensor2/ENC_OUT*%
X135500000Y-116300000D03*
D12*
%TO.P,J7,3,Pin_3*%
%TO.N,/wall_sensor2/ENC_GND*%
X135000000Y-118800000D03*
%TO.P,J7,4,Pin_4*%
%TO.N,/wall_sensor2/ENC_3.3V*%
X135000000Y-113800000D03*
%TD*%
%TO.P,J13,1,Pin_1*%
%TO.N,Net-(J13-Pin_1)*%
X135000000Y-57000000D03*
D18*
%TO.P,J13,4,Pin_4*%
%TO.N,/encorder1/CS*%
X135500000Y-59000000D03*
%TO.P,J13,5,Pin_5*%
%TO.N,/encorder1/MISO*%
X135500000Y-61000000D03*
D12*
%TO.P,J13,6,Pin_6*%
%TO.N,Net-(J13-Pin_6)*%
X135000000Y-63000000D03*
%TD*%
D13*
%TO.P,D6,1,K*%
%TO.N,Net-(D6-K)*%
X143700000Y-50330000D03*
%TO.P,D6,2,A*%
%TO.N,/wall_sensor3/ENC_3.3V*%
X143700000Y-52870000D03*
%TD*%
D19*
%TO.P,J8,3,Pin_3*%
%TO.N,GND*%
X161217889Y-67490487D03*
%TO.P,J8,4,Pin_4*%
%TO.N,+3.3V*%
X160782111Y-62509513D03*
%TD*%
D20*
%TO.P,J10,1,Pin_1*%
%TO.N,+3.3V*%
X152987300Y-71200000D03*
%TO.P,J10,6,Pin_6*%
%TO.N,GND*%
X146987300Y-71200000D03*
%TD*%
D13*
%TO.P,D5,1,K*%
%TO.N,Net-(D5-K)*%
X143700000Y-115030000D03*
%TO.P,D5,2,A*%
%TO.N,/wall_sensor2/ENC_3.3V*%
X143700000Y-117570000D03*
%TD*%
D17*
%TO.P,C12,1*%
%TO.N,/wall_sensor2/ENC_3.3V*%
X141500000Y-117720000D03*
%TO.P,C12,2*%
%TO.N,/wall_sensor2/ENC_GND*%
X141500000Y-118680000D03*
%TD*%
D13*
%TO.P,D3,1,K*%
%TO.N,Net-(D3-K)*%
X143700000Y-42530000D03*
%TO.P,D3,2,A*%
%TO.N,/wall_sensor/ENC_3.3V*%
X143700000Y-45070000D03*
%TD*%
D11*
%TO.P,J4,2,Pin_2*%
%TO.N,/wall_sensor1/ENC_OUT*%
X135500000Y-108500000D03*
D12*
%TO.P,J4,3,Pin_3*%
%TO.N,/wall_sensor1/ENC_GND*%
X135000000Y-111000000D03*
%TO.P,J4,4,Pin_4*%
%TO.N,/wall_sensor1/ENC_3.3V*%
X135000000Y-106000000D03*
%TD*%
D21*
%TO.P,M1,1,+*%
%TO.N,Net-(M1-+)*%
X136300000Y-79500000D03*
D22*
%TO.P,M1,2,-*%
%TO.N,Net-(M1--)*%
X136300000Y-80500000D03*
%TD*%
D20*
%TO.P,J12,1,Pin_1*%
%TO.N,+3.3V*%
X152987300Y-88800000D03*
%TO.P,J12,6,Pin_6*%
%TO.N,GND*%
X146987300Y-88800000D03*
%TD*%
D23*
%TO.P,J1,1,Pin_1*%
%TO.N,Net-(J1-Pin_1)*%
X132850000Y-76700000D03*
D24*
%TO.P,J1,2,Pin_2*%
%TO.N,GND*%
X132850000Y-78700000D03*
%TD*%
D25*
%TO.P,M2,1,+*%
%TO.N,Net-(M2-+)*%
X136300000Y-82200000D03*
D22*
%TO.P,M2,2,-*%
%TO.N,Net-(M2--)*%
X136300000Y-83200000D03*
%TD*%
D17*
%TO.P,C10,1*%
%TO.N,/wall_sensor1/ENC_3.3V*%
X141600000Y-109820000D03*
%TO.P,C10,2*%
%TO.N,/wall_sensor1/ENC_GND*%
X141600000Y-110780000D03*
%TD*%
D26*
%TO.P,C16,1*%
%TO.N,Net-(J11-Pin_1)*%
X141300000Y-99617500D03*
%TO.P,C16,2*%
%TO.N,Net-(J11-Pin_6)*%
X141300000Y-98482500D03*
%TD*%
D27*
%TO.P,R12,1*%
%TO.N,/wall_sensor1/ENC_OUT*%
X136850000Y-109840000D03*
%TO.P,R12,2*%
%TO.N,/wall_sensor1/ENC_GND*%
X136850000Y-110860000D03*
%TD*%
%TO.P,R18,1*%
%TO.N,/wall_sensor3/ENC_OUT*%
X136750000Y-52990000D03*
%TO.P,R18,2*%
%TO.N,/wall_sensor3/ENC_GND*%
X136750000Y-54010000D03*
%TD*%
D28*
%TO.P,C17,1*%
%TO.N,Net-(J13-Pin_1)*%
X141300000Y-61332500D03*
%TO.P,C17,2*%
%TO.N,Net-(J13-Pin_6)*%
X141300000Y-62467500D03*
%TD*%
D27*
%TO.P,R15,1*%
%TO.N,/wall_sensor2/ENC_OUT*%
X136900000Y-117690000D03*
%TO.P,R15,2*%
%TO.N,/wall_sensor2/ENC_GND*%
X136900000Y-118710000D03*
%TD*%
D12*
%TO.P,J11,1,Pin_1*%
%TO.N,Net-(J11-Pin_1)*%
X135000000Y-103000000D03*
X135000000Y-103000000D03*
D18*
%TO.P,J11,2,Pin_2*%
%TO.N,/encorder/MOSI*%
X135500000Y-101000000D03*
%TO.P,J11,3,Pin_3*%
%TO.N,/encorder/SCLK*%
X135500000Y-99000000D03*
D12*
%TO.P,J11,6,Pin_6*%
%TO.N,Net-(J11-Pin_6)*%
X135000000Y-97000000D03*
%TD*%
D27*
%TO.P,R9,1*%
%TO.N,/wall_sensor/ENC_OUT*%
X136700000Y-45090000D03*
%TO.P,R9,2*%
%TO.N,/wall_sensor/ENC_GND*%
X136700000Y-46110000D03*
%TD*%
D11*
%TO.P,J2,2,Pin_2*%
%TO.N,/wall_sensor/ENC_OUT*%
X135500000Y-43800000D03*
D12*
%TO.P,J2,3,Pin_3*%
%TO.N,/wall_sensor/ENC_GND*%
X135000000Y-46300000D03*
%TO.P,J2,4,Pin_4*%
%TO.N,/wall_sensor/ENC_3.3V*%
X135000000Y-41300000D03*
%TD*%
D29*
%TO.N,/wall_sensor/ENC_GND*%
X135774002Y-46100000D03*
%TO.N,/wall_sensor2/ENC_OUT*%
X137161034Y-115561034D03*
%TO.N,/wall_sensor1/ENC_OUT*%
X137200000Y-107800000D03*
%TO.N,/wall_sensor/ENC_3.3V*%
X135672004Y-41604009D03*
%TO.N,/wall_sensor3/ENC_GND*%
X135651079Y-53900000D03*
%TO.N,/wall_sensor3/ENC_OUT*%
X137250000Y-50900000D03*
%TO.N,/wall_sensor3/ENC_GND*%
X139650000Y-53850000D03*
%TO.N,/wall_sensor3/ENC_3.3V*%
X135673109Y-49407842D03*
%TO.N,/wall_sensor/ENC_GND*%
X139587281Y-46113593D03*
%TO.N,/wall_sensor/ENC_OUT*%
X137300000Y-43000000D03*
%TO.N,GND*%
X129300000Y-85700000D03*
D30*
X142400000Y-87400000D03*
D29*
X162300000Y-86200000D03*
X128900000Y-81200000D03*
D30*
X144700000Y-75600000D03*
D29*
X134300000Y-81000000D03*
D30*
X156700000Y-82800000D03*
D29*
X172500000Y-90900000D03*
X127800000Y-82900000D03*
D30*
X159400000Y-88300000D03*
D29*
X156400000Y-93400000D03*
D30*
X169800000Y-75500000D03*
D29*
X157600000Y-67700000D03*
D30*
X151200000Y-83900000D03*
X154900000Y-77200000D03*
X150000000Y-80600000D03*
D29*
X123500000Y-82200000D03*
X164400000Y-67700000D03*
X147900000Y-69500000D03*
D30*
X166000000Y-80800000D03*
D29*
X141300000Y-83500000D03*
X176700000Y-84000000D03*
D30*
X160600000Y-89600000D03*
D29*
X125200000Y-80000000D03*
X138400000Y-73200000D03*
X155900000Y-60900000D03*
X127700000Y-86000000D03*
D30*
X153700000Y-84100000D03*
X146100000Y-74200000D03*
X152700000Y-81300000D03*
D29*
X140400000Y-72400000D03*
D30*
X160000000Y-82400000D03*
D29*
X164300000Y-72200000D03*
D30*
X132800000Y-91600000D03*
X164100000Y-75500000D03*
X164400000Y-79300000D03*
X152200000Y-74600000D03*
X143500000Y-72200000D03*
D29*
X156400000Y-99200000D03*
X173700000Y-84500000D03*
X163200000Y-93800000D03*
D30*
X148400000Y-74500000D03*
X149900000Y-85200000D03*
D29*
X120800000Y-85800000D03*
D30*
X160300000Y-79100000D03*
X152800000Y-85200000D03*
X170100000Y-82000000D03*
X153500000Y-75500000D03*
X137400000Y-91600000D03*
X140700000Y-91600000D03*
D29*
X138400000Y-71800000D03*
D30*
X159200000Y-63800000D03*
D29*
X143400000Y-83600000D03*
X175800000Y-79800000D03*
D30*
X141900000Y-77100000D03*
X154900000Y-79200000D03*
D29*
X129700000Y-70000000D03*
D30*
X146800000Y-76100000D03*
X143000000Y-77100000D03*
D29*
X135000000Y-78300000D03*
X157600000Y-65900000D03*
D30*
X150700000Y-82050000D03*
D29*
X160000000Y-72200000D03*
D30*
X157600000Y-80000000D03*
D29*
X137400000Y-90100000D03*
D30*
X145900000Y-91700000D03*
X157800000Y-77200000D03*
D29*
X141600000Y-69700000D03*
X145100000Y-86500000D03*
X164200000Y-64600000D03*
X123700000Y-72400000D03*
X132700000Y-72200000D03*
X125800000Y-85600000D03*
D30*
X158800000Y-89600000D03*
X166200000Y-86300000D03*
X141500000Y-73900000D03*
X150000000Y-82800000D03*
X149250000Y-77250000D03*
X140700000Y-90100000D03*
D29*
X172600000Y-70200000D03*
D30*
X155000000Y-90800000D03*
D29*
X131800000Y-82700000D03*
X133900000Y-85600000D03*
D30*
X157900000Y-86900000D03*
D29*
X137500000Y-86700000D03*
D30*
X160300000Y-77300000D03*
D29*
X121400000Y-80000000D03*
D30*
X142200000Y-78400000D03*
D29*
X141100000Y-82100000D03*
D30*
X141700000Y-79200000D03*
D29*
X141100000Y-80400000D03*
D30*
X147300000Y-83600000D03*
D29*
X168600000Y-83500000D03*
X126700000Y-78000000D03*
X158500000Y-60900000D03*
X130600000Y-81100000D03*
D30*
X154600000Y-87800000D03*
X148600000Y-84100000D03*
X164000000Y-88900000D03*
D29*
X142400000Y-85100000D03*
X170000000Y-79600000D03*
D30*
X150700000Y-91800000D03*
X162500000Y-61700000D03*
D29*
X123500000Y-78100000D03*
D30*
X157800000Y-79100000D03*
X144400000Y-90100000D03*
X130900000Y-91100000D03*
D29*
X156600000Y-87800000D03*
X162800000Y-91100000D03*
D30*
X154900000Y-81100000D03*
D29*
X169800000Y-68300000D03*
X128800000Y-78900000D03*
X135000000Y-77200000D03*
X170700000Y-93800000D03*
X128900000Y-72200000D03*
X132600000Y-85300000D03*
X139600000Y-84000000D03*
D30*
X133200000Y-71000000D03*
X156600000Y-85000000D03*
X170000000Y-77100000D03*
X145600000Y-77600000D03*
X164400000Y-77100000D03*
D29*
X170800000Y-73800000D03*
X140300000Y-86100000D03*
D30*
X163900000Y-84400000D03*
X155349896Y-73494500D03*
X155000000Y-82800000D03*
X146500000Y-78200000D03*
D29*
%TO.N,+3.3V*%
X134520000Y-73480000D03*
X163530064Y-77990499D03*
D30*
X151250000Y-76690000D03*
X136506513Y-77906513D03*
D29*
X152100000Y-84600000D03*
X154355877Y-74466910D03*
D30*
X144610000Y-78300000D03*
D29*
X162050000Y-84200000D03*
D30*
X139123834Y-77187671D03*
D29*
X160700000Y-74150000D03*
D30*
%TO.N,/BATT_ADC*%
X144000000Y-76300000D03*
X157500000Y-73600000D03*
%TO.N,/IMU_SCLK*%
X147923418Y-76523418D03*
X148129223Y-78129223D03*
%TO.N,/IMU_CS*%
X148657276Y-75327112D03*
X148647682Y-77610764D03*
%TO.N,/BIN2*%
X152047951Y-79783494D03*
X143400000Y-82500000D03*
%TO.N,/BIN1*%
X142927395Y-81983622D03*
X152017201Y-79084168D03*
%TO.N,/AIN2*%
X143420615Y-81390737D03*
X152018102Y-78357067D03*
%TO.N,/AIN1*%
X142882995Y-80942442D03*
X152029999Y-77470000D03*
%TO.N,/ENC_L_MOSI*%
X155893124Y-72306876D03*
X150987300Y-70700000D03*
%TO.N,/encorder/MOSI*%
X137600000Y-97600000D03*
%TO.N,/encorder/SCLK*%
X136684073Y-100311164D03*
%TO.N,/encorder/CS*%
X136800000Y-98200000D03*
X136773000Y-99690500D03*
%TO.N,/ENC_R_CS*%
X149673643Y-86423643D03*
X150468650Y-89281350D03*
%TO.N,/encorder1/CS*%
X137100000Y-59440500D03*
%TO.N,/encorder1/MISO*%
X136800000Y-61200000D03*
%TO.N,/Flash_SDA*%
X148400000Y-81900000D03*
X157400000Y-86400000D03*
%TO.N,/Flash_SCL*%
X156800000Y-86840500D03*
X147600000Y-81300000D03*
%TO.N,/LED1*%
X161000000Y-87981000D03*
X171700000Y-82850000D03*
%TO.N,/LED2*%
X161500000Y-87540500D03*
X171600000Y-80850000D03*
%TO.N,/LED3*%
X171600000Y-78850000D03*
X161000000Y-87100000D03*
%TO.N,/LED4*%
X164100000Y-82600000D03*
X171600000Y-76850000D03*
%TO.N,/Flash_WP*%
X155900000Y-87300000D03*
X146600000Y-81300000D03*
%TO.N,/DEBUG_RX*%
X125450000Y-82700000D03*
X139688518Y-70111482D03*
%TO.N,/DEBUG_TX*%
X125359500Y-81430000D03*
X140131876Y-69668124D03*
%TO.N,/NRST*%
X131200000Y-90200000D03*
X125725000Y-87800000D03*
%TO.N,/wall_sensor1/ENC_3.3V*%
X136000000Y-106400000D03*
%TO.N,/wall_sensor2/ENC_3.3V*%
X135900000Y-114200000D03*
%TO.N,/wall_sensor1/ENC_GND*%
X135900000Y-110600000D03*
X137600000Y-110900000D03*
X140250000Y-110990000D03*
%TO.N,/wall_sensor2/ENC_GND*%
X140200000Y-118750000D03*
X137650000Y-118750000D03*
X136100000Y-118550000D03*
D29*
%TO.N,Net-(J11-Pin_1)*%
X136000000Y-102800000D03*
D30*
X141300000Y-100100000D03*
%TO.N,Net-(J11-Pin_6)*%
X139000000Y-99000000D03*
D29*
X136350000Y-97250000D03*
%TO.N,Net-(J13-Pin_6)*%
X139000000Y-61000000D03*
X135900000Y-62800000D03*
D30*
%TO.N,Net-(J13-Pin_1)*%
X141450000Y-60800000D03*
D29*
X135900000Y-57200000D03*
D30*
%TO.N,/I_right*%
X156988519Y-74911481D03*
X139200000Y-85100000D03*
%TO.N,/I_left*%
X157000000Y-74200000D03*
X137411481Y-77711481D03*
%TO.N,/USER_SW*%
X146900000Y-73700000D03*
X139100000Y-70600000D03*
X132700000Y-70200000D03*
X158200000Y-74000000D03*
%TD*%
D31*
%TO.N,/wall_sensor2/ENC_3.3V*%
X143550000Y-117720000D02*
X143700000Y-117570000D01*
X141500000Y-117720000D02*
X143550000Y-117720000D01*
X141500000Y-117440001D02*
X141500000Y-117720000D01*
X139724999Y-115665000D02*
X141500000Y-117440001D01*
X139200000Y-115665000D02*
X139724999Y-115665000D01*
X137735000Y-114200000D02*
X135900000Y-114200000D01*
X139200000Y-115665000D02*
X137735000Y-114200000D01*
%TO.N,/wall_sensor1/ENC_3.3V*%
X141600000Y-109820000D02*
X143650000Y-109820000D01*
X143650000Y-109820000D02*
X143700000Y-109770000D01*
X139645000Y-107865000D02*
X141600000Y-109820000D01*
X139200000Y-107865000D02*
X139645000Y-107865000D01*
X137735000Y-106400000D02*
X136000000Y-106400000D01*
X139200000Y-107865000D02*
X137735000Y-106400000D01*
D32*
%TO.N,/wall_sensor1/ENC_GND*%
X137600000Y-110900000D02*
X136940000Y-110900000D01*
X136940000Y-110900000D02*
X136840000Y-111000000D01*
X136840000Y-111000000D02*
X135000000Y-111000000D01*
D33*
%TO.N,/wall_sensor1/ENC_OUT*%
X136850000Y-109840000D02*
X136850000Y-108150000D01*
X136850000Y-108150000D02*
X137200000Y-107800000D01*
X136840000Y-109840000D02*
X136850000Y-109840000D01*
X135500000Y-108500000D02*
X136840000Y-109840000D01*
%TO.N,/wall_sensor2/ENC_OUT*%
X136900000Y-115822068D02*
X137161034Y-115561034D01*
X136900000Y-117690000D02*
X136900000Y-115822068D01*
X136890000Y-117690000D02*
X136900000Y-117690000D01*
X135500000Y-116300000D02*
X136890000Y-117690000D01*
D32*
%TO.N,/wall_sensor2/ENC_GND*%
X140200000Y-118750000D02*
X137650000Y-118750000D01*
%TO.N,/wall_sensor1/ENC_GND*%
X137690000Y-110990000D02*
X137600000Y-110900000D01*
X140250000Y-110990000D02*
X137690000Y-110990000D01*
D33*
X140250000Y-110990000D02*
X140160000Y-110900000D01*
D32*
%TO.N,/wall_sensor/ENC_GND*%
X136890000Y-46300000D02*
X136700000Y-46110000D01*
X139400874Y-46300000D02*
X136890000Y-46300000D01*
X139587281Y-46113593D02*
X139400874Y-46300000D01*
%TO.N,/wall_sensor3/ENC_GND*%
X136840000Y-54100000D02*
X136750000Y-54010000D01*
X139400000Y-54100000D02*
X136840000Y-54100000D01*
X139650000Y-53850000D02*
X139400000Y-54100000D01*
D33*
%TO.N,/wall_sensor2/ENC_GND*%
X137650000Y-118750000D02*
X137745000Y-118845000D01*
D32*
X137650000Y-118750000D02*
X137600000Y-118800000D01*
X137600000Y-118800000D02*
X135000000Y-118800000D01*
D33*
X140105000Y-118845000D02*
X140200000Y-118750000D01*
D32*
%TO.N,/wall_sensor1/ENC_3.3V*%
X136000000Y-106400000D02*
X135600000Y-106000000D01*
X135600000Y-106000000D02*
X135000000Y-106000000D01*
D31*
%TO.N,/wall_sensor/ENC_3.3V*%
X139200000Y-42800000D02*
X139200000Y-43165000D01*
X138004009Y-41604009D02*
X139200000Y-42800000D01*
X135672004Y-41604009D02*
X138004009Y-41604009D01*
D32*
X135367995Y-41300000D02*
X135000000Y-41300000D01*
X135672004Y-41604009D02*
X135367995Y-41300000D01*
D31*
%TO.N,/wall_sensor3/ENC_3.3V*%
X137642842Y-49407842D02*
X139200000Y-50965000D01*
X135673109Y-49407842D02*
X137642842Y-49407842D01*
D32*
X135365267Y-49100000D02*
X135000000Y-49100000D01*
X135673109Y-49407842D02*
X135365267Y-49100000D01*
D33*
%TO.N,/wall_sensor3/ENC_GND*%
X135761079Y-54010000D02*
X136750000Y-54010000D01*
X135651079Y-53900000D02*
X135761079Y-54010000D01*
D32*
%TO.N,/wall_sensor2/ENC_OUT*%
X135500000Y-116300000D02*
X135600000Y-116300000D01*
D33*
%TO.N,/wall_sensor2/ENC_GND*%
X141305000Y-118875000D02*
X141500000Y-118680000D01*
X140325000Y-118875000D02*
X141305000Y-118875000D01*
X140200000Y-118750000D02*
X140325000Y-118875000D01*
%TO.N,/wall_sensor1/ENC_GND*%
X140460000Y-110780000D02*
X140250000Y-110990000D01*
X141600000Y-110780000D02*
X140460000Y-110780000D01*
D31*
%TO.N,/wall_sensor3/ENC_3.3V*%
X141450000Y-53020000D02*
X143550000Y-53020000D01*
X143550000Y-53020000D02*
X143700000Y-52870000D01*
X141450000Y-52165000D02*
X141450000Y-53020000D01*
X140250000Y-50965000D02*
X141450000Y-52165000D01*
X139200000Y-50965000D02*
X140250000Y-50965000D01*
D33*
%TO.N,/wall_sensor3/ENC_OUT*%
X137250000Y-52490000D02*
X136750000Y-52990000D01*
X137250000Y-50900000D02*
X137250000Y-52490000D01*
X136750000Y-52850000D02*
X135500000Y-51600000D01*
X136750000Y-52990000D02*
X136750000Y-52850000D01*
D32*
%TO.N,/wall_sensor3/ENC_GND*%
X139880000Y-54080000D02*
X139650000Y-53850000D01*
X141400000Y-54080000D02*
X139880000Y-54080000D01*
D31*
%TO.N,/wall_sensor/ENC_3.3V*%
X140265000Y-43165000D02*
X139200000Y-43165000D01*
X141400000Y-44300000D02*
X140265000Y-43165000D01*
X141400000Y-45240000D02*
X141400000Y-44300000D01*
X143530000Y-45240000D02*
X141400000Y-45240000D01*
X143700000Y-45070000D02*
X143530000Y-45240000D01*
D33*
%TO.N,/wall_sensor/ENC_GND*%
X139703688Y-46230000D02*
X139587281Y-46113593D01*
X141400000Y-46230000D02*
X139703688Y-46230000D01*
%TO.N,/wall_sensor/ENC_OUT*%
X135500000Y-43890000D02*
X135500000Y-43800000D01*
X136700000Y-45090000D02*
X135500000Y-43890000D01*
X137300000Y-44490000D02*
X136700000Y-45090000D01*
X137300000Y-43000000D02*
X137300000Y-44490000D01*
%TO.N,/wall_sensor/ENC_GND*%
X136510000Y-46300000D02*
X135000000Y-46300000D01*
X136700000Y-46110000D02*
X136510000Y-46300000D01*
D34*
%TO.N,+3.3V*%
X153500000Y-76700000D02*
X153500000Y-81980000D01*
D33*
X138936163Y-77000000D02*
X139123834Y-77187671D01*
D34*
X153457690Y-74466910D02*
X152362300Y-75562300D01*
D33*
X136506513Y-77906513D02*
X137413026Y-77000000D01*
D34*
X160700000Y-74150000D02*
X158800000Y-76050000D01*
D33*
X137600000Y-77000000D02*
X138936163Y-77000000D01*
D34*
X151250000Y-76674600D02*
X153457690Y-74466910D01*
X152100000Y-83380000D02*
X153500000Y-81980000D01*
D33*
X137600000Y-77000000D02*
X137413026Y-77000000D01*
D34*
X162050000Y-84200000D02*
X161850000Y-84000000D01*
D32*
X151250000Y-76690000D02*
X151250000Y-77050000D01*
X145300000Y-78300000D02*
X144610000Y-78300000D01*
D33*
X134520000Y-73480000D02*
X134520000Y-74106974D01*
D34*
X158800000Y-76050000D02*
X158800000Y-78114031D01*
X152100000Y-84600000D02*
X152100000Y-83380000D01*
D32*
X159000000Y-86800000D02*
X159000000Y-84000000D01*
D34*
X153520000Y-82000000D02*
X153500000Y-81980000D01*
D32*
X151250000Y-77050000D02*
X149500000Y-78800000D01*
D34*
X163406532Y-78114031D02*
X158135969Y-78114031D01*
X151250000Y-76690000D02*
X151250000Y-76674600D01*
X152987300Y-73996520D02*
X153457690Y-74466910D01*
X152987300Y-71200000D02*
X152987300Y-73996520D01*
X152362300Y-75562300D02*
X153500000Y-76700000D01*
X163530064Y-77990499D02*
X163406532Y-78114031D01*
X153457690Y-74466910D02*
X154355877Y-74466910D01*
X161850000Y-84000000D02*
X159000000Y-84000000D01*
X153500000Y-78114031D02*
X158135969Y-78114031D01*
X157000000Y-82000000D02*
X153520000Y-82000000D01*
X158800000Y-78114031D02*
X158135969Y-78114031D01*
X159000000Y-84000000D02*
X157000000Y-82000000D01*
D32*
X145800000Y-78800000D02*
X145300000Y-78300000D01*
D33*
X134520000Y-74106974D02*
X137413026Y-77000000D01*
D32*
X157000000Y-88800000D02*
X159000000Y-86800000D01*
X152987300Y-88800000D02*
X157000000Y-88800000D01*
X149500000Y-78800000D02*
X145800000Y-78800000D01*
D35*
%TO.N,/BATT_ADC*%
X157500000Y-72572370D02*
X154275130Y-69347500D01*
X157500000Y-73600000D02*
X157500000Y-72572370D01*
X150734080Y-69347500D02*
X149292000Y-70789580D01*
X149292000Y-70789580D02*
X149292000Y-71989580D01*
X154275130Y-69347500D02*
X150734080Y-69347500D01*
X149292000Y-71989580D02*
X144981580Y-76300000D01*
X144981580Y-76300000D02*
X144000000Y-76300000D01*
%TO.N,/IMU_SCLK*%
X148129223Y-78129223D02*
X147923418Y-77923418D01*
X147923418Y-77923418D02*
X147923418Y-76523418D01*
%TO.N,/IMU_CS*%
X148647682Y-77610764D02*
X148436918Y-77400000D01*
X148436918Y-77400000D02*
X148436918Y-75547470D01*
X148436918Y-75547470D02*
X148657276Y-75327112D01*
%TO.N,/BIN2*%
X144115115Y-81784885D02*
X144115115Y-80787952D01*
X144950567Y-79952500D02*
X151508079Y-79952500D01*
X151862518Y-79598061D02*
X152047951Y-79783494D01*
X151508079Y-79952500D02*
X151862518Y-79598061D01*
X143400000Y-82500000D02*
X144115115Y-81784885D01*
X144115115Y-80787952D02*
X144950567Y-79952500D01*
%TO.N,/BIN1*%
X142927395Y-81983622D02*
X143450692Y-81983622D01*
X143450692Y-81983622D02*
X143861115Y-81573199D01*
X151402869Y-79698500D02*
X152017201Y-79084168D01*
X144845357Y-79698500D02*
X151402869Y-79698500D01*
X143861115Y-80682742D02*
X144845357Y-79698500D01*
X143861115Y-81573199D02*
X143861115Y-80682742D01*
%TO.N,/AIN2*%
X143420615Y-80764032D02*
X144740147Y-79444500D01*
X144740147Y-79444500D02*
X150930669Y-79444500D01*
X143420615Y-81390737D02*
X143420615Y-80764032D01*
X150930669Y-79444500D02*
X152018102Y-78357067D01*
%TO.N,/AIN1*%
X152029999Y-77618970D02*
X150458469Y-79190500D01*
X144634937Y-79190500D02*
X142882995Y-80942442D01*
X152029999Y-77470000D02*
X152029999Y-77618970D01*
X150458469Y-79190500D02*
X144634937Y-79190500D01*
%TO.N,/ENC_L_MOSI*%
X155893124Y-72043124D02*
X155893124Y-72306876D01*
X153959500Y-70109500D02*
X155893124Y-72043124D01*
X150987300Y-70700000D02*
X151577800Y-70109500D01*
X151577800Y-70109500D02*
X153959500Y-70109500D01*
%TO.N,/encorder/MOSI*%
X136700000Y-101000000D02*
X135500000Y-101000000D01*
X137600000Y-97600000D02*
X137600000Y-100100000D01*
X137600000Y-100100000D02*
X136700000Y-101000000D01*
%TO.N,/encorder/SCLK*%
X135500000Y-99000000D02*
X135500000Y-99127091D01*
X135500000Y-99127091D02*
X136684073Y-100311164D01*
%TO.N,/encorder/CS*%
X136773000Y-99690500D02*
X136800000Y-99663500D01*
X136800000Y-99663500D02*
X136800000Y-98200000D01*
%TO.N,/ENC_R_CS*%
X150250000Y-87000000D02*
X150250000Y-89062700D01*
X149673643Y-86423643D02*
X150250000Y-87000000D01*
X150250000Y-89062700D02*
X150468650Y-89281350D01*
%TO.N,/encorder1/CS*%
X136659500Y-59000000D02*
X135500000Y-59000000D01*
X137100000Y-59440500D02*
X136659500Y-59000000D01*
%TO.N,/encorder1/MISO*%
X136800000Y-61200000D02*
X136600000Y-61000000D01*
X136600000Y-61000000D02*
X135500000Y-61000000D01*
%TO.N,/Flash_SDA*%
X152613248Y-86400000D02*
X157400000Y-86400000D01*
X148400000Y-81900000D02*
X148400000Y-82186752D01*
X148400000Y-82186752D02*
X152613248Y-86400000D01*
%TO.N,/Flash_SCL*%
X147600000Y-81745962D02*
X152508038Y-86654000D01*
X156613500Y-86654000D02*
X156800000Y-86840500D01*
X147600000Y-81300000D02*
X147600000Y-81745962D01*
X152508038Y-86654000D02*
X156613500Y-86654000D01*
%TO.N,/LED1*%
X161000000Y-87981000D02*
X166569000Y-87981000D01*
X166569000Y-87981000D02*
X171700000Y-82850000D01*
%TO.N,/LED2*%
X166359500Y-87540500D02*
X171600000Y-82300000D01*
X161500000Y-87540500D02*
X166359500Y-87540500D01*
X171600000Y-82300000D02*
X171600000Y-80850000D01*
%TO.N,/LED3*%
X161000000Y-87100000D02*
X166440790Y-87100000D01*
X171159500Y-82381290D02*
X171159500Y-80667538D01*
X166440790Y-87100000D02*
X171159500Y-82381290D01*
X171159500Y-80667538D02*
X171600000Y-80227038D01*
X171600000Y-80227038D02*
X171600000Y-78850000D01*
%TO.N,/LED4*%
X170581580Y-82600000D02*
X170905500Y-82276080D01*
X164100000Y-82600000D02*
X170581580Y-82600000D01*
X170905500Y-77544500D02*
X171600000Y-76850000D01*
X170905500Y-82276080D02*
X170905500Y-77544500D01*
%TO.N,/Flash_WP*%
X152402828Y-86908000D02*
X155508000Y-86908000D01*
X146794828Y-81300000D02*
X152402828Y-86908000D01*
X146600000Y-81300000D02*
X146794828Y-81300000D01*
X155508000Y-86908000D02*
X155900000Y-87300000D01*
%TO.N,/DEBUG_RX*%
X121717500Y-72841710D02*
X121717500Y-78058290D01*
X133081295Y-68117500D02*
X124011453Y-70547757D01*
X139688518Y-69847728D02*
X137958290Y-68117500D01*
X125800000Y-82350000D02*
X125450000Y-82700000D01*
X121717500Y-78058290D02*
X124648710Y-80989500D01*
X125541962Y-80989500D02*
X125800000Y-81247538D01*
X125800000Y-81247538D02*
X125800000Y-82350000D01*
X137958290Y-68117500D02*
X133081295Y-68117500D01*
X139688518Y-70111482D02*
X139688518Y-69847728D01*
X124011453Y-70547757D02*
X121717500Y-72841710D01*
X124648710Y-80989500D02*
X125541962Y-80989500D01*
%TO.N,/DEBUG_TX*%
X138327252Y-67863500D02*
X133047855Y-67863500D01*
X121463500Y-78163500D02*
X124730000Y-81430000D01*
X133047855Y-67863500D02*
X123879973Y-70320027D01*
X123879973Y-70320027D02*
X121463500Y-72736500D01*
X140131876Y-69668124D02*
X138327252Y-67863500D01*
X121463500Y-72736500D02*
X121463500Y-78163500D01*
X124730000Y-81430000D02*
X125359500Y-81430000D01*
%TO.N,/NRST*%
X128125000Y-90200000D02*
X131200000Y-90200000D01*
X125725000Y-87800000D02*
X128125000Y-90200000D01*
D33*
%TO.N,/wall_sensor2/ENC_3.3V*%
X135000000Y-113800000D02*
X135500000Y-113800000D01*
X135500000Y-113800000D02*
X135900000Y-114200000D01*
D32*
%TO.N,Net-(J11-Pin_1)*%
X135800000Y-103000000D02*
X136000000Y-102800000D01*
X137800000Y-101700000D02*
X140500000Y-101700000D01*
X141300000Y-99617500D02*
X141300000Y-100100000D01*
X141300000Y-100900000D02*
X141300000Y-100100000D01*
X136000000Y-102800000D02*
X136700000Y-102800000D01*
X136700000Y-102800000D02*
X137800000Y-101700000D01*
X135000000Y-103000000D02*
X135800000Y-103000000D01*
X140500000Y-101700000D02*
X141300000Y-100900000D01*
D33*
%TO.N,Net-(J11-Pin_6)*%
X139817500Y-97000000D02*
X141300000Y-98482500D01*
X136100000Y-97000000D02*
X135000000Y-97000000D01*
X141300000Y-98482500D02*
X139517500Y-98482500D01*
X136600000Y-97000000D02*
X139817500Y-97000000D01*
X136350000Y-97250000D02*
X136600000Y-97000000D01*
X139517500Y-98482500D02*
X139000000Y-99000000D01*
X136350000Y-97250000D02*
X136100000Y-97000000D01*
D32*
%TO.N,Net-(J13-Pin_6)*%
X137000000Y-63000000D02*
X139000000Y-61000000D01*
X141300000Y-62467500D02*
X140467500Y-62467500D01*
X135000000Y-63000000D02*
X135700000Y-63000000D01*
X140467500Y-62467500D02*
X139000000Y-61000000D01*
X135700000Y-63000000D02*
X135900000Y-62800000D01*
X135900000Y-62800000D02*
X136100000Y-63000000D01*
X136100000Y-63000000D02*
X137000000Y-63000000D01*
D35*
%TO.N,Net-(J13-Pin_1)*%
X141300000Y-60950000D02*
X141450000Y-60800000D01*
D32*
X141450000Y-60800000D02*
X141450000Y-59550000D01*
D35*
X141300000Y-61332500D02*
X141300000Y-60950000D01*
D32*
X135900000Y-57200000D02*
X135700000Y-57000000D01*
X136492893Y-57200000D02*
X135900000Y-57200000D01*
X135700000Y-57000000D02*
X135000000Y-57000000D01*
X139900000Y-58000000D02*
X137292893Y-58000000D01*
X137292893Y-58000000D02*
X136492893Y-57200000D01*
X141450000Y-59550000D02*
X139900000Y-58000000D01*
D35*
%TO.N,/I_right*%
X156383347Y-72174137D02*
X156383347Y-74306309D01*
X149800000Y-72200000D02*
X149800000Y-71000000D01*
X154064710Y-69855500D02*
X156383347Y-72174137D01*
X149800000Y-71000000D02*
X150944500Y-69855500D01*
X150944500Y-69855500D02*
X154064710Y-69855500D01*
X140900000Y-85100000D02*
X142300000Y-83700000D01*
X142300000Y-83700000D02*
X142300000Y-79700000D01*
X139200000Y-85100000D02*
X140900000Y-85100000D01*
X156383347Y-74306309D02*
X156988519Y-74911481D01*
X142300000Y-79700000D02*
X149800000Y-72200000D01*
%TO.N,/I_left*%
X154169920Y-69601500D02*
X150839290Y-69601500D01*
X143929309Y-77711481D02*
X137411481Y-77711481D01*
X157000000Y-74200000D02*
X157000000Y-72431580D01*
X149546000Y-72094790D02*
X143929309Y-77711481D01*
X149546000Y-70894790D02*
X149546000Y-72094790D01*
X157000000Y-72431580D02*
X154169920Y-69601500D01*
X150839290Y-69601500D02*
X149546000Y-70894790D01*
%TO.N,/USER_SW*%
X149000000Y-71922370D02*
X147222370Y-73700000D01*
X154380340Y-69093500D02*
X150628870Y-69093500D01*
X150628870Y-69093500D02*
X149000000Y-70722370D01*
X149000000Y-70722370D02*
X149000000Y-71922370D01*
X132700000Y-70200000D02*
X132800000Y-70100000D01*
X138600000Y-71100000D02*
X139100000Y-70600000D01*
X133400000Y-70100000D02*
X134400000Y-71100000D01*
X158200000Y-72913160D02*
X154380340Y-69093500D01*
X158200000Y-74000000D02*
X158200000Y-72913160D01*
X147222370Y-73700000D02*
X146900000Y-73700000D01*
X134400000Y-71100000D02*
X138600000Y-71100000D01*
X132800000Y-70100000D02*
X133400000Y-70100000D01*
%TD*%
%TA.AperFunction,Conductor*%
%TO.N,GND*%
G36*
X151795939Y-70343185D02*
G01*
X151841694Y-70395989D01*
X151851638Y-70465147D01*
X151824753Y-70526165D01*
X151821325Y-70530341D01*
X151706358Y-70702403D01*
X151627170Y-70893579D01*
X151627168Y-70893587D01*
X151586800Y-71096530D01*
X151586800Y-71303469D01*
X151627168Y-71506412D01*
X151627170Y-71506420D01*
X151706358Y-71697596D01*
X151821324Y-71869657D01*
X151967642Y-72015975D01*
X151967645Y-72015977D01*
X152139702Y-72130941D01*
X152330880Y-72210130D01*
X152486994Y-72241182D01*
X152548902Y-72273566D01*
X152583476Y-72334282D01*
X152586800Y-72362799D01*
X152586800Y-73943793D01*
X152586800Y-74049247D01*
X152591399Y-74066410D01*
X152614093Y-74151109D01*
X152623228Y-74166931D01*
X152666820Y-74242433D01*
X152666822Y-74242435D01*
X152803616Y-74379229D01*
X152837101Y-74440552D01*
X152832117Y-74510244D01*
X152803616Y-74554591D01*
X150929522Y-76428684D01*
X150929520Y-76428687D01*
X150876793Y-76520011D01*
X150867850Y-76553385D01*
X150866009Y-76559600D01*
X150864019Y-76565723D01*
X150862000Y-76575216D01*
X150849501Y-76621865D01*
X150849500Y-76621874D01*
X150849500Y-76648724D01*
X150847973Y-76668123D01*
X150845198Y-76685646D01*
X150844508Y-76690000D01*
X150847330Y-76707820D01*
X150847973Y-76711876D01*
X150849500Y-76731275D01*
X150849500Y-76742729D01*
X150856034Y-76767116D01*
X150858731Y-76779805D01*
X150864354Y-76815303D01*
X150864356Y-76815309D01*
X150865532Y-76817617D01*
X150866115Y-76820724D01*
X150867371Y-76824589D01*
X150866871Y-76824751D01*
X150878427Y-76886286D01*
X150852149Y-76951026D01*
X150842727Y-76961590D01*
X149391137Y-78413181D01*
X149329814Y-78446666D01*
X149303456Y-78449500D01*
X148617875Y-78449500D01*
X148550836Y-78429815D01*
X148505081Y-78377011D01*
X148495137Y-78307853D01*
X148507390Y-78269206D01*
X148514868Y-78254528D01*
X148514869Y-78254527D01*
X148534715Y-78129223D01*
X148534714Y-78129218D01*
X148536066Y-78120684D01*
X148565995Y-78057549D01*
X148625306Y-78020617D01*
X148639143Y-78017607D01*
X148647677Y-78016255D01*
X148647682Y-78016256D01*
X148772986Y-77996410D01*
X148886024Y-77938814D01*
X148975732Y-77849106D01*
X149033328Y-77736068D01*
X149033328Y-77736066D01*
X149033329Y-77736065D01*
X149033329Y-77736064D01*
X149053174Y-77610767D01*
X149053174Y-77610760D01*
X149033329Y-77485463D01*
X149033329Y-77485462D01*
X149025452Y-77470003D01*
X148975732Y-77372422D01*
X148975728Y-77372418D01*
X148975727Y-77372416D01*
X148886029Y-77282718D01*
X148886026Y-77282716D01*
X148886024Y-77282714D01*
X148804998Y-77241429D01*
X148772983Y-77225116D01*
X148755520Y-77222351D01*
X148692385Y-77192422D01*
X148655454Y-77133110D01*
X148650918Y-77099878D01*
X148650918Y-75839517D01*
X148670603Y-75772478D01*
X148723407Y-75726723D01*
X148755518Y-75717044D01*
X148782580Y-75712758D01*
X148895618Y-75655162D01*
X148985326Y-75565454D01*
X149042922Y-75452416D01*
X149042922Y-75452414D01*
X149042923Y-75452413D01*
X149042923Y-75452412D01*
X149062768Y-75327115D01*
X149062768Y-75327108D01*
X149042923Y-75201811D01*
X149042923Y-75201810D01*
X149026234Y-75169057D01*
X148985326Y-75088770D01*
X148985322Y-75088766D01*
X148985321Y-75088764D01*
X148895623Y-74999066D01*
X148895620Y-74999064D01*
X148895618Y-74999062D01*
X148782580Y-74941466D01*
X148782579Y-74941465D01*
X148782576Y-74941464D01*
X148657279Y-74921620D01*
X148657273Y-74921620D01*
X148531975Y-74941464D01*
X148531974Y-74941464D01*
X148456613Y-74979863D01*
X148418934Y-74999062D01*
X148418933Y-74999063D01*
X148418928Y-74999066D01*
X148329230Y-75088764D01*
X148329227Y-75088769D01*
X148271628Y-75201810D01*
X148271628Y-75201811D01*
X148251784Y-75327108D01*
X148251784Y-75327115D01*
X148258698Y-75370770D01*
X148250787Y-75437617D01*
X148242022Y-75458779D01*
X148242021Y-75458783D01*
X148222917Y-75504902D01*
X148222917Y-75604470D01*
X148222918Y-75604479D01*
X148222918Y-76024179D01*
X148203233Y-76091218D01*
X148150429Y-76136973D01*
X148081271Y-76146917D01*
X148058367Y-76139658D01*
X148058001Y-76140787D01*
X148048718Y-76137770D01*
X147923421Y-76117926D01*
X147923415Y-76117926D01*
X147798117Y-76137770D01*
X147798116Y-76137770D01*
X147725647Y-76174696D01*
X147685076Y-76195368D01*
X147685075Y-76195369D01*
X147685070Y-76195372D01*
X147595372Y-76285070D01*
X147595369Y-76285075D01*
X147595368Y-76285076D01*
X147578350Y-76318475D01*
X147537770Y-76398116D01*
X147537770Y-76398117D01*
X147517926Y-76523414D01*
X147517926Y-76523421D01*
X147537770Y-76648718D01*
X147537770Y-76648719D01*
X147537772Y-76648722D01*
X147595368Y-76761760D01*
X147595370Y-76761762D01*
X147595372Y-76761765D01*
X147673099Y-76839492D01*
X147706584Y-76900815D01*
X147709418Y-76927173D01*
X147709418Y-77870848D01*
X147709417Y-77870862D01*
X147709417Y-77965987D01*
X147722018Y-77996406D01*
X147722019Y-77996411D01*
X147722020Y-77996411D01*
X147725092Y-78003828D01*
X147727438Y-78023656D01*
X147731458Y-78043860D01*
X147731458Y-78043861D01*
X147729830Y-78043861D01*
X147733003Y-78070673D01*
X147725084Y-78120684D01*
X147723731Y-78129226D01*
X147743575Y-78254523D01*
X147743576Y-78254527D01*
X147751056Y-78269206D01*
X147763952Y-78337875D01*
X147737675Y-78402615D01*
X147680569Y-78442872D01*
X147640571Y-78449500D01*
X145996544Y-78449500D01*
X145929505Y-78429815D01*
X145908863Y-78413181D01*
X145515213Y-78019531D01*
X145515208Y-78019527D01*
X145435291Y-77973387D01*
X145435287Y-77973385D01*
X145429926Y-77971949D01*
X145429926Y-77971948D01*
X145353888Y-77951575D01*
X145346144Y-77949500D01*
X145346143Y-77949500D01*
X144834052Y-77949500D01*
X144777758Y-77935985D01*
X144735300Y-77914352D01*
X144735301Y-77914352D01*
X144676100Y-77904976D01*
X144612965Y-77875046D01*
X144576034Y-77815735D01*
X144577032Y-77745872D01*
X144607814Y-77694826D01*
X149909300Y-72393339D01*
X149909305Y-72393336D01*
X149921219Y-72381421D01*
X149921222Y-72381421D01*
X149981421Y-72321222D01*
X150000505Y-72275146D01*
X150014001Y-72242567D01*
X150014001Y-72157433D01*
X150014001Y-72147444D01*
X150014000Y-72147430D01*
X150014000Y-71140003D01*
X150033685Y-71072964D01*
X150050319Y-71052322D01*
X150216641Y-70886000D01*
X150385229Y-70717412D01*
X150446549Y-70683929D01*
X150516240Y-70688913D01*
X150572174Y-70730784D01*
X150595380Y-70785697D01*
X150601652Y-70825300D01*
X150601652Y-70825301D01*
X150609096Y-70839910D01*
X150659250Y-70938342D01*
X150659252Y-70938344D01*
X150659254Y-70938347D01*
X150748952Y-71028045D01*
X150748954Y-71028046D01*
X150748958Y-71028050D01*
X150861996Y-71085646D01*
X150861997Y-71085646D01*
X150861999Y-71085647D01*
X150987297Y-71105492D01*
X150987300Y-71105492D01*
X150987303Y-71105492D01*
X151112600Y-71085647D01*
X151112601Y-71085647D01*
X151112602Y-71085646D01*
X151112604Y-71085646D01*
X151225642Y-71028050D01*
X151315350Y-70938342D01*
X151372946Y-70825304D01*
X151372946Y-70825302D01*
X151372947Y-70825301D01*
X151372947Y-70825300D01*
X151392792Y-70700003D01*
X151392792Y-70699999D01*
X151388613Y-70673616D01*
X151397567Y-70604323D01*
X151423405Y-70566535D01*
X151451829Y-70538112D01*
X151551601Y-70438340D01*
X151630124Y-70359818D01*
X151691447Y-70326334D01*
X151717805Y-70323500D01*
X151728900Y-70323500D01*
X151795939Y-70343185D01*
G37*
%TD.AperFunction*%
%TA.AperFunction,Conductor*%
G36*
X156303324Y-59800535D02*
G01*
X157009237Y-59817604D01*
X157015171Y-59817891D01*
X157717932Y-59868945D01*
X157723886Y-59869523D01*
X158423342Y-59954476D01*
X158429213Y-59955333D01*
X159123788Y-60073996D01*
X159129632Y-60075141D01*
X159817627Y-60227223D01*
X159823433Y-60228655D01*
X160503259Y-60413804D01*
X160508975Y-60415510D01*
X161179088Y-60633304D01*
X161184715Y-60635284D01*
X161808569Y-60871950D01*
X161843499Y-60885201D01*
X161849044Y-60887459D01*
X162494983Y-61168920D01*
X162500396Y-61171436D01*
X162632568Y-61236802D01*
X163133981Y-61484776D01*
X163136634Y-61486128D01*
X163176803Y-61507217D01*
X163190132Y-61514215D01*
X163190140Y-61514217D01*
X174507030Y-67455586D01*
X174510239Y-67457332D01*
X175015666Y-67742475D01*
X175022031Y-67746324D01*
X175448093Y-68021861D01*
X175507681Y-68060397D01*
X175513844Y-68064652D01*
X175979644Y-68407469D01*
X175985539Y-68412088D01*
X176429797Y-68782405D01*
X176435397Y-68787367D01*
X176499017Y-68847266D01*
X176856482Y-69183824D01*
X176861778Y-69189121D01*
X177258156Y-69610271D01*
X177263122Y-69615877D01*
X177633362Y-70060200D01*
X177637980Y-70066096D01*
X177980709Y-70531948D01*
X177984963Y-70538112D01*
X178144977Y-70785635D01*
X178284404Y-71001313D01*
X178298946Y-71023807D01*
X178302820Y-71030217D01*
X178586904Y-71533977D01*
X178590385Y-71540608D01*
X178843550Y-72060624D01*
X178846623Y-72067454D01*
X179067920Y-72601774D01*
X179070576Y-72608777D01*
X179259223Y-73155516D01*
X179261441Y-73162636D01*
X179416738Y-73719771D01*
X179418526Y-73727025D01*
X179539901Y-74292506D01*
X179541251Y-74299873D01*
X179628267Y-74871652D01*
X179629169Y-74879087D01*
X179681504Y-75455055D01*
X179681956Y-75462531D01*
X179699443Y-76041213D01*
X179699500Y-76044958D01*
X179699500Y-83953784D01*
X179699443Y-83957529D01*
X179681921Y-84537469D01*
X179681469Y-84544945D01*
X179629136Y-85120911D01*
X179628234Y-85128346D01*
X179541219Y-85700128D01*
X179539869Y-85707494D01*
X179418500Y-86272957D01*
X179416708Y-86280229D01*
X179261421Y-86837341D01*
X179259193Y-86844492D01*
X179070552Y-87391218D01*
X179067896Y-87398221D01*
X178846598Y-87932548D01*
X178843525Y-87939377D01*
X178590371Y-88459374D01*
X178586891Y-88466006D01*
X178302799Y-88969784D01*
X178298924Y-88976194D01*
X177984948Y-89461883D01*
X177980694Y-89468047D01*
X177637965Y-89933900D01*
X177633347Y-89939796D01*
X177263110Y-90384119D01*
X177258144Y-90389725D01*
X176861768Y-90810875D01*
X176856472Y-90816172D01*
X176435385Y-91212632D01*
X176429795Y-91217585D01*
X175985542Y-91587901D01*
X175979647Y-91592520D01*
X175513847Y-91935339D01*
X175507683Y-91939594D01*
X175022049Y-92253658D01*
X175015641Y-92257533D01*
X174510249Y-92542657D01*
X174506959Y-92544448D01*
X163177924Y-98492194D01*
X163177889Y-98492211D01*
X163177890Y-98492212D01*
X163136037Y-98514185D01*
X163133366Y-98515546D01*
X162500422Y-98828569D01*
X162494986Y-98831096D01*
X161849049Y-99112556D01*
X161843498Y-99114817D01*
X161184734Y-99364726D01*
X161179080Y-99366716D01*
X160508994Y-99584502D01*
X160503250Y-99586216D01*
X159823444Y-99771359D01*
X159817624Y-99772794D01*
X159129655Y-99924871D01*
X159123773Y-99926023D01*
X158429249Y-100044677D01*
X158423318Y-100045543D01*
X157723891Y-100130492D01*
X157717925Y-100131071D01*
X157015199Y-100182123D01*
X157009211Y-100182413D01*
X156304028Y-100199464D01*
X156301031Y-100199500D01*
X155424500Y-100199500D01*
X155357461Y-100179815D01*
X155311706Y-100127011D01*
X155300500Y-100075500D01*
X155300500Y-97729467D01*
X159606809Y-97729467D01*
X159619437Y-97910043D01*
X159660156Y-98086417D01*
X159665934Y-98100718D01*
X160298333Y-97570070D01*
X160279500Y-97785339D01*
X160301218Y-97908508D01*
X160354075Y-98021861D01*
X160429973Y-98112313D01*
X159926437Y-98534832D01*
X159937547Y-98548074D01*
X159937552Y-98548078D01*
X160074162Y-98666830D01*
X160227666Y-98762751D01*
X160227668Y-98762752D01*
X160394292Y-98833479D01*
X160569939Y-98877273D01*
X160750252Y-98893047D01*
X160930829Y-98880420D01*
X161107203Y-98839701D01*
X161275035Y-98771893D01*
X161430191Y-98678667D01*
X161430192Y-98678666D01*
X161443433Y-98667554D01*
X161020916Y-98164017D01*
X161111372Y-98088116D01*
X161183109Y-97985664D01*
X161225885Y-97868137D01*
X161244718Y-97652870D01*
X161775365Y-98285268D01*
X161783535Y-98272194D01*
X161783541Y-98272183D01*
X161854265Y-98105565D01*
X161898059Y-97929919D01*
X161898059Y-97929917D01*
X161957412Y-97251505D01*
X161944784Y-97070930D01*
X161904066Y-96894558D01*
X161904066Y-96894557D01*
X161898286Y-96880254D01*
X161265888Y-97410899D01*
X161284722Y-97195635D01*
X161263004Y-97072466D01*
X161210147Y-96959113D01*
X161134246Y-96868657D01*
X161637783Y-96446140D01*
X161637784Y-96446139D01*
X161626681Y-96432906D01*
X161626674Y-96432898D01*
X161490062Y-96314145D01*
X161336554Y-96218221D01*
X161169925Y-96147492D01*
X160994287Y-96103701D01*
X160994281Y-96103700D01*
X160813968Y-96087925D01*
X160633392Y-96100553D01*
X160457022Y-96141270D01*
X160289186Y-96209080D01*
X160134025Y-96302310D01*
X160120786Y-96313418D01*
X160543305Y-96816957D01*
X160452850Y-96892858D01*
X160381113Y-96995310D01*
X160338337Y-97112837D01*
X160319503Y-97328103D01*
X159788856Y-96695702D01*
X159788855Y-96695703D01*
X159780684Y-96708780D01*
X159709956Y-96875408D01*
X159666162Y-97051054D01*
X159666162Y-97051056D01*
X159606809Y-97729467D01*
X155300500Y-97729467D01*
X155300500Y-94360842D01*
X155288029Y-94258136D01*
X155266954Y-94084565D01*
X155200350Y-93814343D01*
X155188168Y-93782223D01*
X155101658Y-93554115D01*
X155043360Y-93443039D01*
X154972323Y-93307689D01*
X154814226Y-93078645D01*
X154629673Y-92870327D01*
X154492146Y-92748489D01*
X160042085Y-92748489D01*
X160054719Y-92929143D01*
X160095454Y-93105593D01*
X160163292Y-93273497D01*
X160231529Y-93387064D01*
X160256563Y-93428727D01*
X160306965Y-93488794D01*
X160372963Y-93567448D01*
X160372965Y-93567450D01*
X160372967Y-93567452D01*
X160509640Y-93686259D01*
X160663215Y-93782224D01*
X160829912Y-93852982D01*
X161005626Y-93896792D01*
X161186029Y-93912576D01*
X161366680Y-93899943D01*
X161543132Y-93859207D01*
X161711038Y-93791368D01*
X161866265Y-93698099D01*
X162004990Y-93581695D01*
X162123797Y-93445022D01*
X162219762Y-93291447D01*
X162290520Y-93124750D01*
X162334330Y-92949036D01*
X162393692Y-92270535D01*
X162381059Y-92089884D01*
X162340323Y-91913432D01*
X162272484Y-91745525D01*
X162261700Y-91727578D01*
X162179218Y-91590304D01*
X162179215Y-91590299D01*
X162096297Y-91491480D01*
X162062814Y-91451576D01*
X161933470Y-91339141D01*
X161926138Y-91332767D01*
X161772563Y-91236801D01*
X161772560Y-91236799D01*
X161772559Y-91236799D01*
X161605866Y-91166043D01*
X161552478Y-91152732D01*
X161430152Y-91122233D01*
X161430150Y-91122232D01*
X161430147Y-91122232D01*
X161430141Y-91122231D01*
X161249750Y-91106449D01*
X161069096Y-91119082D01*
X160892643Y-91159818D01*
X160724736Y-91227659D01*
X160724735Y-91227660D01*
X160569518Y-91320923D01*
X160430787Y-91437330D01*
X160311980Y-91574004D01*
X160216017Y-91727576D01*
X160216016Y-91727578D01*
X160145258Y-91894275D01*
X160101447Y-92069993D01*
X160101446Y-92069999D01*
X160042085Y-92748489D01*
X154492146Y-92748489D01*
X154421355Y-92685774D01*
X154215319Y-92543558D01*
X154192317Y-92527681D01*
X154192315Y-92527680D01*
X154192311Y-92527677D01*
X154107728Y-92483284D01*
X153945884Y-92398341D01*
X153685662Y-92299651D01*
X153567537Y-92270536D01*
X153415435Y-92233046D01*
X153277295Y-92216273D01*
X153139158Y-92199500D01*
X153139155Y-92199500D01*
X153039562Y-92199500D01*
X140539562Y-92199500D01*
X140460438Y-92199500D01*
X140456143Y-92199500D01*
X140448514Y-92200000D01*
X139251486Y-92200000D01*
X139243857Y-92199500D01*
X139239562Y-92199500D01*
X133055886Y-92199500D01*
X133023792Y-92195275D01*
X132556218Y-92069989D01*
X129159415Y-91159818D01*
X120392406Y-88810704D01*
X120332746Y-88774339D01*
X120302217Y-88711492D01*
X120300500Y-88690929D01*
X120300500Y-87799996D01*
X125319508Y-87799996D01*
X125319508Y-87800003D01*
X125339352Y-87925300D01*
X125339352Y-87925301D01*
X125348784Y-87943812D01*
X125396950Y-88038342D01*
X125396952Y-88038344D01*
X125396954Y-88038347D01*
X125486652Y-88128045D01*
X125486654Y-88128046D01*
X125486658Y-88128050D01*
X125599696Y-88185646D01*
X125599697Y-88185646D01*
X125599699Y-88185647D01*
X125724997Y-88205492D01*
X125725000Y-88205492D01*
X125751384Y-88201313D01*
X125820677Y-88210267D01*
X125858463Y-88236104D01*
X126903704Y-89281346D01*
X127936508Y-90314150D01*
X127936511Y-90314154D01*
X127943579Y-90321222D01*
X128003778Y-90381421D01*
X128003783Y-90381423D01*
X128017234Y-90386995D01*
X128017235Y-90386995D01*
X128082430Y-90414000D01*
X128082431Y-90414000D01*
X128082433Y-90414001D01*
X128082434Y-90414001D01*
X128182001Y-90414001D01*
X128182009Y-90414000D01*
X130796245Y-90414000D01*
X130863284Y-90433685D01*
X130883926Y-90450319D01*
X130961652Y-90528045D01*
X130961654Y-90528046D01*
X130961658Y-90528050D01*
X131074696Y-90585646D01*
X131074697Y-90585646D01*
X131074699Y-90585647D01*
X131199997Y-90605492D01*
X131200000Y-90605492D01*
X131200003Y-90605492D01*
X131325300Y-90585647D01*
X131325301Y-90585647D01*
X131325302Y-90585646D01*
X131325304Y-90585646D01*
X131438342Y-90528050D01*
X131466394Y-90499998D01*
X133694532Y-90499998D01*
X133694532Y-90500001D01*
X133714364Y-90726686D01*
X133714366Y-90726697D01*
X133773258Y-90946488D01*
X133773261Y-90946497D01*
X133869431Y-91152732D01*
X133869432Y-91152734D01*
X133999954Y-91339141D01*
X134160858Y-91500045D01*
X134160861Y-91500047D01*
X134347266Y-91630568D01*
X134553504Y-91726739D01*
X134553509Y-91726740D01*
X134553511Y-91726741D01*
X134556635Y-91727578D01*
X134773308Y-91785635D01*
X134935230Y-91799801D01*
X134999998Y-91805468D01*
X135000000Y-91805468D01*
X135000002Y-91805468D01*
X135056673Y-91800509D01*
X135226692Y-91785635D01*
X135446496Y-91726739D01*
X135652734Y-91630568D01*
X135839139Y-91500047D01*
X136000047Y-91339139D01*
X136130568Y-91152734D01*
X136226739Y-90946496D01*
X136285635Y-90726692D01*
X136305468Y-90500000D01*
X136301121Y-90450319D01*
X136290184Y-90325301D01*
X136285635Y-90273308D01*
X136226739Y-90053504D01*
X136130568Y-89847266D01*
X136018239Y-89686842D01*
X136000045Y-89660858D01*
X135839141Y-89499954D01*
X135652734Y-89369432D01*
X135652732Y-89369431D01*
X135446497Y-89273261D01*
X135446488Y-89273258D01*
X135226697Y-89214366D01*
X135226693Y-89214365D01*
X135226692Y-89214365D01*
X135226691Y-89214364D01*
X135226686Y-89214364D01*
X135000002Y-89194532D01*
X134999998Y-89194532D01*
X134773313Y-89214364D01*
X134773302Y-89214366D01*
X134553511Y-89273258D01*
X134553502Y-89273261D01*
X134347267Y-89369431D01*
X134347265Y-89369432D01*
X134160858Y-89499954D01*
X133999954Y-89660858D01*
X133869432Y-89847265D01*
X133869431Y-89847267D01*
X133773261Y-90053502D01*
X133773258Y-90053511D01*
X133714366Y-90273302D01*
X133714364Y-90273313D01*
X133694532Y-90499998D01*
X131466394Y-90499998D01*
X131528050Y-90438342D01*
X131585646Y-90325304D01*
X131585646Y-90325302D01*
X131585647Y-90325301D01*
X131585647Y-90325300D01*
X131605492Y-90200003D01*
X131605492Y-90199996D01*
X131585647Y-90074699D01*
X131585647Y-90074698D01*
X131585646Y-90074696D01*
X131528050Y-89961658D01*
X131528046Y-89961654D01*
X131528045Y-89961652D01*
X131438347Y-89871954D01*
X131438344Y-89871952D01*
X131438342Y-89871950D01*
X131325304Y-89814354D01*
X131325303Y-89814353D01*
X131325300Y-89814352D01*
X131200003Y-89794508D01*
X131199997Y-89794508D01*
X131074699Y-89814352D01*
X131074698Y-89814352D01*
X131012674Y-89845956D01*
X130961658Y-89871950D01*
X130961657Y-89871951D01*
X130961652Y-89871954D01*
X130883926Y-89949681D01*
X130822603Y-89983166D01*
X130796245Y-89986000D01*
X128265004Y-89986000D01*
X128197965Y-89966315D01*
X128177323Y-89949681D01*
X126777641Y-88550000D01*
X145616457Y-88550000D01*
X146312022Y-88550000D01*
X146267967Y-88626306D01*
X146237300Y-88740756D01*
X146237300Y-88859244D01*
X146267967Y-88973694D01*
X146312022Y-89050000D01*
X145616457Y-89050000D01*
X145627650Y-89106274D01*
X145627651Y-89106276D01*
X145706800Y-89297358D01*
X145706805Y-89297368D01*
X145821710Y-89469335D01*
X145821713Y-89469339D01*
X145967960Y-89615586D01*
X145967964Y-89615589D01*
X146139931Y-89730494D01*
X146139941Y-89730499D01*
X146331025Y-89809649D01*
X146331033Y-89809651D01*
X146533879Y-89849999D01*
X146533883Y-89850000D01*
X146737300Y-89850000D01*
X146737300Y-89250000D01*
X147237300Y-89250000D01*
X147237300Y-89850000D01*
X147440717Y-89850000D01*
X147440720Y-89849999D01*
X147643566Y-89809651D01*
X147643574Y-89809649D01*
X147834658Y-89730499D01*
X147834668Y-89730494D01*
X148006635Y-89615589D01*
X148006639Y-89615586D01*
X148152886Y-89469339D01*
X148152889Y-89469335D01*
X148267794Y-89297368D01*
X148267799Y-89297358D01*
X148346948Y-89106276D01*
X148346949Y-89106274D01*
X148358143Y-89050000D01*
X147662578Y-89050000D01*
X147706633Y-88973694D01*
X147737300Y-88859244D01*
X147737300Y-88740756D01*
X147706633Y-88626306D01*
X147662578Y-88550000D01*
X148358143Y-88550000D01*
X148346949Y-88493725D01*
X148346948Y-88493723D01*
X148267799Y-88302641D01*
X148267794Y-88302631D01*
X148152889Y-88130664D01*
X148152886Y-88130660D01*
X148006639Y-87984413D01*
X148006635Y-87984410D01*
X147834668Y-87869505D01*
X147834658Y-87869500D01*
X147643574Y-87790350D01*
X147643566Y-87790348D01*
X147440720Y-87750000D01*
X147237300Y-87750000D01*
X147237300Y-88350000D01*
X146737300Y-88350000D01*
X146737300Y-87750000D01*
X146533879Y-87750000D01*
X146331033Y-87790348D01*
X146331025Y-87790350D01*
X146139941Y-87869500D01*
X146139931Y-87869505D01*
X145967964Y-87984410D01*
X145967960Y-87984413D01*
X145821713Y-88130660D01*
X145821710Y-88130664D01*
X145706805Y-88302631D01*
X145706800Y-88302641D01*
X145627651Y-88493723D01*
X145627650Y-88493725D01*
X145616457Y-88550000D01*
X126777641Y-88550000D01*
X126161105Y-87933464D01*
X126127620Y-87872141D01*
X126126313Y-87826384D01*
X126130492Y-87800000D01*
X126130492Y-87799996D01*
X126110647Y-87674699D01*
X126110647Y-87674698D01*
X126099566Y-87652950D01*
X126053050Y-87561658D01*
X126053046Y-87561654D01*
X126053045Y-87561652D01*
X125963347Y-87471954D01*
X125963344Y-87471952D01*
X125963342Y-87471950D01*
X125850304Y-87414354D01*
X125850303Y-87414353D01*
X125850300Y-87414352D01*
X125725003Y-87394508D01*
X125724997Y-87394508D01*
X125599699Y-87414352D01*
X125599698Y-87414352D01*
X125524337Y-87452751D01*
X125486658Y-87471950D01*
X125486657Y-87471951D01*
X125486652Y-87471954D01*
X125396954Y-87561652D01*
X125396951Y-87561657D01*
X125339352Y-87674698D01*
X125339352Y-87674699D01*
X125319508Y-87799996D01*
X120300500Y-87799996D01*
X120300500Y-86423639D01*
X149268151Y-86423639D01*
X149268151Y-86423646D01*
X149287995Y-86548943D01*
X149287995Y-86548944D01*
X149301828Y-86576092D01*
X149345593Y-86661985D01*
X149345595Y-86661987D01*
X149345597Y-86661990D01*
X149435295Y-86751688D01*
X149435297Y-86751689D01*
X149435301Y-86751693D01*
X149548339Y-86809289D01*
X149548340Y-86809289D01*
X149548342Y-86809290D01*
X149673640Y-86829135D01*
X149673643Y-86829135D01*
X149700027Y-86824956D01*
X149769320Y-86833910D01*
X149807107Y-86859748D01*
X149999681Y-87052322D01*
X150033166Y-87113645D01*
X150036000Y-87140003D01*
X150036000Y-89010130D01*
X150035999Y-89010144D01*
X150035999Y-89105267D01*
X150049493Y-89137845D01*
X150049494Y-89137846D01*
X150057034Y-89156049D01*
X150062438Y-89169095D01*
X150070349Y-89235945D01*
X150063158Y-89281347D01*
X150063158Y-89281353D01*
X150083002Y-89406650D01*
X150083002Y-89406651D01*
X150101455Y-89442867D01*
X150140600Y-89519692D01*
X150140602Y-89519694D01*
X150140604Y-89519697D01*
X150230302Y-89609395D01*
X150230304Y-89609396D01*
X150230308Y-89609400D01*
X150343346Y-89666996D01*
X150343347Y-89666996D01*
X150343349Y-89666997D01*
X150468647Y-89686842D01*
X150468650Y-89686842D01*
X150468653Y-89686842D01*
X150593950Y-89666997D01*
X150593951Y-89666997D01*
X150593952Y-89666996D01*
X150593954Y-89666996D01*
X150706992Y-89609400D01*
X150796700Y-89519692D01*
X150854296Y-89406654D01*
X150854296Y-89406652D01*
X150854297Y-89406651D01*
X150854297Y-89406650D01*
X150874142Y-89281353D01*
X150874142Y-89281346D01*
X150854297Y-89156049D01*
X150854297Y-89156048D01*
X150845023Y-89137847D01*
X150796700Y-89043008D01*
X150796696Y-89043004D01*
X150796695Y-89043002D01*
X150706997Y-88953304D01*
X150706994Y-88953302D01*
X150706992Y-88953300D01*
X150593954Y-88895704D01*
X150593952Y-88895703D01*
X150593951Y-88895703D01*
X150568599Y-88891687D01*
X150505465Y-88861756D01*
X150468535Y-88802443D01*
X150464000Y-88769214D01*
X150464000Y-87057009D01*
X150464001Y-87057000D01*
X150464001Y-86957433D01*
X150450505Y-86924853D01*
X150431421Y-86878778D01*
X150371222Y-86818579D01*
X150364161Y-86811518D01*
X150364146Y-86811505D01*
X150109748Y-86557107D01*
X150076263Y-86495784D01*
X150074956Y-86450027D01*
X150079135Y-86423643D01*
X150079135Y-86423639D01*
X150059290Y-86298342D01*
X150059290Y-86298341D01*
X150048224Y-86276623D01*
X150001693Y-86185301D01*
X150001689Y-86185297D01*
X150001688Y-86185295D01*
X149911990Y-86095597D01*
X149911987Y-86095595D01*
X149911985Y-86095593D01*
X149798947Y-86037997D01*
X149798946Y-86037996D01*
X149798943Y-86037995D01*
X149673646Y-86018151D01*
X149673640Y-86018151D01*
X149548342Y-86037995D01*
X149548341Y-86037995D01*
X149481703Y-86071950D01*
X149435301Y-86095593D01*
X149435300Y-86095594D01*
X149435295Y-86095597D01*
X149345597Y-86185295D01*
X149345594Y-86185300D01*
X149287995Y-86298341D01*
X149287995Y-86298342D01*
X149268151Y-86423639D01*
X120300500Y-86423639D01*
X120300500Y-79016164D01*
X120320185Y-78949125D01*
X120351565Y-78915882D01*
X121170003Y-78320655D01*
X121235796Y-78297145D01*
X121303857Y-78312937D01*
X121330615Y-78333258D01*
X121352482Y-78355125D01*
X121352492Y-78355133D01*
X124541508Y-81544150D01*
X124541511Y-81544154D01*
X124548579Y-81551222D01*
X124608778Y-81611421D01*
X124628362Y-81619532D01*
X124628365Y-81619535D01*
X124628365Y-81619534D01*
X124687433Y-81644001D01*
X124687434Y-81644001D01*
X124787001Y-81644001D01*
X124787009Y-81644000D01*
X124955745Y-81644000D01*
X125022784Y-81663685D01*
X125043426Y-81680319D01*
X125121152Y-81758045D01*
X125121154Y-81758046D01*
X125121158Y-81758050D01*
X125234196Y-81815646D01*
X125234197Y-81815646D01*
X125234199Y-81815647D01*
X125359497Y-81835492D01*
X125359500Y-81835492D01*
X125359502Y-81835492D01*
X125442602Y-81822330D01*
X125511895Y-81831284D01*
X125565347Y-81876281D01*
X125585987Y-81943032D01*
X125586000Y-81944803D01*
X125586000Y-82170863D01*
X125566315Y-82237902D01*
X125513511Y-82283657D01*
X125459758Y-82291385D01*
X125459758Y-82294508D01*
X125449997Y-82294508D01*
X125324699Y-82314352D01*
X125324698Y-82314352D01*
X125269329Y-82342565D01*
X125211658Y-82371950D01*
X125211657Y-82371951D01*
X125211652Y-82371954D01*
X125121954Y-82461652D01*
X125121951Y-82461657D01*
X125121950Y-82461658D01*
X125107392Y-82490229D01*
X125064352Y-82574698D01*
X125064352Y-82574699D01*
X125044508Y-82699996D01*
X125044508Y-82700003D01*
X125064352Y-82825300D01*
X125064352Y-82825301D01*
X125076935Y-82849996D01*
X125121950Y-82938342D01*
X125121952Y-82938344D01*
X125121954Y-82938347D01*
X125211652Y-83028045D01*
X125211654Y-83028046D01*
X125211658Y-83028050D01*
X125324696Y-83085646D01*
X125324697Y-83085646D01*
X125324699Y-83085647D01*
X125449997Y-83105492D01*
X125450000Y-83105492D01*
X125450003Y-83105492D01*
X125575300Y-83085647D01*
X125575301Y-83085647D01*
X125575302Y-83085646D01*
X125575304Y-83085646D01*
X125688342Y-83028050D01*
X125778050Y-82938342D01*
X125835646Y-82825304D01*
X125835646Y-82825302D01*
X125835647Y-82825301D01*
X125835647Y-82825300D01*
X125855492Y-82700003D01*
X125855492Y-82699997D01*
X125851313Y-82673613D01*
X125860268Y-82604320D01*
X125886102Y-82566537D01*
X125909300Y-82543340D01*
X125909308Y-82543334D01*
X125921220Y-82531421D01*
X125921222Y-82531421D01*
X125981421Y-82471222D01*
X126005576Y-82412905D01*
X126014001Y-82392567D01*
X126014001Y-82307433D01*
X126014001Y-82297444D01*
X126014000Y-82297430D01*
X126014000Y-82199999D01*
X135719534Y-82199999D01*
X135719534Y-82200000D01*
X135739312Y-82350234D01*
X135739313Y-82350236D01*
X135790867Y-82474699D01*
X135797302Y-82490233D01*
X135889549Y-82610451D01*
X135889550Y-82610452D01*
X135889555Y-82610458D01*
X135891422Y-82612325D01*
X135892492Y-82614285D01*
X135894497Y-82616898D01*
X135894089Y-82617210D01*
X135924903Y-82673650D01*
X135919914Y-82743341D01*
X135894405Y-82783032D01*
X135894497Y-82783102D01*
X135893659Y-82784193D01*
X135891422Y-82787675D01*
X135889555Y-82789541D01*
X135889549Y-82789549D01*
X135800583Y-82905492D01*
X135797300Y-82909770D01*
X135739313Y-83049763D01*
X135739312Y-83049765D01*
X135719534Y-83199999D01*
X135719534Y-83200000D01*
X135739312Y-83350234D01*
X135739313Y-83350236D01*
X135797302Y-83490233D01*
X135889549Y-83610451D01*
X136009767Y-83702698D01*
X136149764Y-83760687D01*
X136224882Y-83770576D01*
X136299999Y-83780466D01*
X136300000Y-83780466D01*
X136300001Y-83780466D01*
X136350078Y-83773873D01*
X136450236Y-83760687D01*
X136590233Y-83702698D01*
X136710451Y-83610451D01*
X136802698Y-83490233D01*
X136860687Y-83350236D01*
X136880466Y-83200000D01*
X136860687Y-83049764D01*
X136802698Y-82909767D01*
X136710451Y-82789549D01*
X136710448Y-82789546D01*
X136710446Y-82789544D01*
X136708583Y-82787681D01*
X136707513Y-82785721D01*
X136705503Y-82783102D01*
X136705911Y-82782788D01*
X136675098Y-82726358D01*
X136680082Y-82656666D01*
X136705594Y-82616968D01*
X136705503Y-82616898D01*
X136706347Y-82615797D01*
X136708583Y-82612319D01*
X136710446Y-82610455D01*
X136710446Y-82610454D01*
X136710451Y-82610451D01*
X136802698Y-82490233D01*
X136860687Y-82350236D01*
X136880466Y-82200000D01*
X136860687Y-82049764D01*
X136802698Y-81909767D01*
X136710451Y-81789549D01*
X136590233Y-81697302D01*
X136590229Y-81697300D01*
X136450236Y-81639313D01*
X136450234Y-81639312D01*
X136300001Y-81619534D01*
X136299999Y-81619534D01*
X136149765Y-81639312D01*
X136149763Y-81639313D01*
X136009770Y-81697300D01*
X136009767Y-81697301D01*
X136009767Y-81697302D01*
X135889549Y-81789549D01*
X135800111Y-81906107D01*
X135797300Y-81909770D01*
X135739313Y-82049763D01*
X135739312Y-82049765D01*
X135719534Y-82199999D01*
X126014000Y-82199999D01*
X126014000Y-81304547D01*
X126014001Y-81304538D01*
X126014001Y-81204972D01*
X126014001Y-81204971D01*
X125999896Y-81170920D01*
X125981421Y-81126316D01*
X125921222Y-81066117D01*
X125914161Y-81059056D01*
X125914146Y-81059043D01*
X125733595Y-80878492D01*
X125733587Y-80878482D01*
X125663186Y-80808081D01*
X125663184Y-80808079D01*
X125663180Y-80808077D01*
X125663178Y-80808076D01*
X125616541Y-80788758D01*
X125616538Y-80788758D01*
X125584529Y-80775499D01*
X125499395Y-80775499D01*
X125484961Y-80775499D01*
X125484953Y-80775500D01*
X124788713Y-80775500D01*
X124721674Y-80755815D01*
X124701032Y-80739181D01*
X124461850Y-80499999D01*
X135719534Y-80499999D01*
X135719534Y-80500000D01*
X135739312Y-80650234D01*
X135739313Y-80650236D01*
X135783045Y-80755815D01*
X135797302Y-80790233D01*
X135889549Y-80910451D01*
X136009767Y-81002698D01*
X136149764Y-81060687D01*
X136190994Y-81066115D01*
X136299999Y-81080466D01*
X136300000Y-81080466D01*
X136300001Y-81080466D01*
X136350078Y-81073873D01*
X136450236Y-81060687D01*
X136590233Y-81002698D01*
X136710451Y-80910451D01*
X136802698Y-80790233D01*
X136860687Y-80650236D01*
X136880466Y-80500000D01*
X136860687Y-80349764D01*
X136802698Y-80209767D01*
X136802697Y-80209766D01*
X136798636Y-80202732D01*
X136800395Y-80201716D01*
X136779131Y-80146732D01*
X136793162Y-80078286D01*
X136825369Y-80042641D01*
X136824868Y-80042140D01*
X136833500Y-80033506D01*
X136833504Y-80033504D01*
X136866767Y-79983722D01*
X136875500Y-79939820D01*
X136875500Y-79060180D01*
X136875500Y-79060177D01*
X136866768Y-79016282D01*
X136866767Y-79016281D01*
X136866767Y-79016278D01*
X136833504Y-78966496D01*
X136833503Y-78966495D01*
X136783724Y-78933234D01*
X136783717Y-78933231D01*
X136739822Y-78924500D01*
X136739820Y-78924500D01*
X135860180Y-78924500D01*
X135860178Y-78924500D01*
X135816282Y-78933231D01*
X135816275Y-78933234D01*
X135766496Y-78966495D01*
X135766495Y-78966496D01*
X135733234Y-79016275D01*
X135733231Y-79016282D01*
X135724500Y-79060177D01*
X135724500Y-79060180D01*
X135724500Y-79939820D01*
X135724500Y-79939822D01*
X135724499Y-79939822D01*
X135733231Y-79983717D01*
X135733234Y-79983724D01*
X135766495Y-80033503D01*
X135775132Y-80042140D01*
X135774285Y-80042986D01*
X135810994Y-80086909D01*
X135819703Y-80156234D01*
X135799974Y-80201929D01*
X135801364Y-80202732D01*
X135797300Y-80209769D01*
X135739313Y-80349763D01*
X135739312Y-80349765D01*
X135719534Y-80499999D01*
X124461850Y-80499999D01*
X122411850Y-78449999D01*
X131866759Y-78449999D01*
X131866759Y-78450000D01*
X132569670Y-78450000D01*
X132549925Y-78469745D01*
X132500556Y-78555255D01*
X132475000Y-78650630D01*
X132475000Y-78749370D01*
X132500556Y-78844745D01*
X132549925Y-78930255D01*
X132569670Y-78950000D01*
X131866759Y-78950000D01*
X131910357Y-79055254D01*
X131910362Y-79055264D01*
X131992436Y-79178096D01*
X131992439Y-79178100D01*
X132096899Y-79282560D01*
X132096903Y-79282563D01*
X132219735Y-79364637D01*
X132219745Y-79364642D01*
X132356232Y-79421177D01*
X132356240Y-79421179D01*
X132501126Y-79449999D01*
X132501129Y-79450000D01*
X132600000Y-79450000D01*
X132600000Y-78980330D01*
X132619745Y-79000075D01*
X132705255Y-79049444D01*
X132800630Y-79075000D01*
X132899370Y-79075000D01*
X132994745Y-79049444D01*
X133080255Y-79000075D01*
X133100000Y-78980330D01*
X133100000Y-79450000D01*
X133198871Y-79450000D01*
X133198873Y-79449999D01*
X133343759Y-79421179D01*
X133343767Y-79421177D01*
X133480254Y-79364642D01*
X133480264Y-79364637D01*
X133603096Y-79282563D01*
X133603100Y-79282560D01*
X133707560Y-79178100D01*
X133707563Y-79178096D01*
X133789637Y-79055264D01*
X133789642Y-79055254D01*
X133833241Y-78950000D01*
X133130330Y-78950000D01*
X133150075Y-78930255D01*
X133199444Y-78844745D01*
X133225000Y-78749370D01*
X133225000Y-78650630D01*
X133199444Y-78555255D01*
X133150075Y-78469745D01*
X133130330Y-78450000D01*
X133833241Y-78450000D01*
X133833240Y-78449999D01*
X133789642Y-78344745D01*
X133789637Y-78344735D01*
X133707563Y-78221903D01*
X133707560Y-78221899D01*
X133603100Y-78117439D01*
X133603096Y-78117436D01*
X133480264Y-78035362D01*
X133480254Y-78035357D01*
X133343767Y-77978822D01*
X133343759Y-77978820D01*
X133198872Y-77950000D01*
X133100000Y-77950000D01*
X133100000Y-78419670D01*
X133080255Y-78399925D01*
X132994745Y-78350556D01*
X132899370Y-78325000D01*
X132800630Y-78325000D01*
X132705255Y-78350556D01*
X132619745Y-78399925D01*
X132600000Y-78419670D01*
X132600000Y-77950000D01*
X132501128Y-77950000D01*
X132356240Y-77978820D01*
X132356232Y-77978822D01*
X132219745Y-78035357D01*
X132219735Y-78035362D01*
X132096903Y-78117436D01*
X132096899Y-78117439D01*
X131992439Y-78221899D01*
X131992436Y-78221903D01*
X131910362Y-78344735D01*
X131910357Y-78344745D01*
X131866759Y-78449999D01*
X122411850Y-78449999D01*
X121967819Y-78005968D01*
X121934334Y-77944645D01*
X121931500Y-77918287D01*
X121931500Y-77256874D01*
X121951185Y-77189835D01*
X122003989Y-77144080D01*
X122073147Y-77134136D01*
X122136703Y-77163161D01*
X122143181Y-77169193D01*
X122144796Y-77170808D01*
X122283225Y-77257789D01*
X122437539Y-77311786D01*
X122437542Y-77311786D01*
X122437544Y-77311787D01*
X122599996Y-77330091D01*
X122600000Y-77330091D01*
X122600004Y-77330091D01*
X122762455Y-77311787D01*
X122762456Y-77311786D01*
X122762461Y-77311786D01*
X122916775Y-77257789D01*
X123055204Y-77170808D01*
X123170808Y-77055204D01*
X123257789Y-76916775D01*
X123311786Y-76762461D01*
X123311787Y-76762455D01*
X123330091Y-76600003D01*
X123330091Y-76599996D01*
X123311787Y-76437544D01*
X123311786Y-76437542D01*
X123311786Y-76437539D01*
X123270124Y-76318475D01*
X131824500Y-76318475D01*
X131824500Y-77081517D01*
X131832834Y-77134136D01*
X131839354Y-77175304D01*
X131896950Y-77288342D01*
X131896952Y-77288344D01*
X131896954Y-77288347D01*
X131986652Y-77378045D01*
X131986654Y-77378046D01*
X131986658Y-77378050D01*
X132098917Y-77435249D01*
X132099698Y-77435647D01*
X132193475Y-77450499D01*
X132193481Y-77450500D01*
X133506518Y-77450499D01*
X133600304Y-77435646D01*
X133713342Y-77378050D01*
X133803050Y-77288342D01*
X133860646Y-77175304D01*
X133860646Y-77175302D01*
X133860647Y-77175301D01*
X133873314Y-77095323D01*
X133875500Y-77081519D01*
X133875499Y-76318482D01*
X133860646Y-76224696D01*
X133803050Y-76111658D01*
X133803046Y-76111654D01*
X133803045Y-76111652D01*
X133713347Y-76021954D01*
X133713344Y-76021952D01*
X133713342Y-76021950D01*
X133615212Y-75971950D01*
X133600301Y-75964352D01*
X133506524Y-75949500D01*
X132193482Y-75949500D01*
X132112519Y-75962323D01*
X132099696Y-75964354D01*
X131986658Y-76021950D01*
X131986657Y-76021951D01*
X131986652Y-76021954D01*
X131896954Y-76111652D01*
X131896951Y-76111657D01*
X131896950Y-76111658D01*
X131888271Y-76128692D01*
X131839352Y-76224698D01*
X131824500Y-76318475D01*
X123270124Y-76318475D01*
X123257789Y-76283225D01*
X123170808Y-76144796D01*
X123055204Y-76029192D01*
X123043680Y-76021951D01*
X122916774Y-75942210D01*
X122762455Y-75888212D01*
X122600004Y-75869909D01*
X122599996Y-75869909D01*
X122437544Y-75888212D01*
X122283225Y-75942210D01*
X122144795Y-76029192D01*
X122143181Y-76030807D01*
X122141881Y-76031516D01*
X122139353Y-76033533D01*
X122138999Y-76033090D01*
X122081858Y-76064292D01*
X122012166Y-76059308D01*
X121956233Y-76017436D01*
X121931816Y-75951972D01*
X121931500Y-75943126D01*
X121931500Y-74256874D01*
X121951185Y-74189835D01*
X122003989Y-74144080D01*
X122073147Y-74134136D01*
X122136703Y-74163161D01*
X122143181Y-74169193D01*
X122144796Y-74170808D01*
X122283225Y-74257789D01*
X122437539Y-74311786D01*
X122437542Y-74311786D01*
X122437544Y-74311787D01*
X122599996Y-74330091D01*
X122600000Y-74330091D01*
X122600004Y-74330091D01*
X122762455Y-74311787D01*
X122762456Y-74311786D01*
X122762461Y-74311786D01*
X122916775Y-74257789D01*
X123055204Y-74170808D01*
X123170808Y-74055204D01*
X123257789Y-73916775D01*
X123311786Y-73762461D01*
X123311787Y-73762455D01*
X123330091Y-73600003D01*
X123330091Y-73599996D01*
X123316571Y-73480000D01*
X133964750Y-73480000D01*
X133983524Y-73622603D01*
X133983670Y-73623708D01*
X133983671Y-73623712D01*
X134039137Y-73757622D01*
X134039138Y-73757624D01*
X134039139Y-73757625D01*
X134127379Y-73872621D01*
X134195988Y-73925267D01*
X134237189Y-73981693D01*
X134244500Y-74023641D01*
X134244500Y-74161774D01*
X134276216Y-74238342D01*
X134286443Y-74263032D01*
X136935730Y-76912320D01*
X136969214Y-76973641D01*
X136964230Y-77043333D01*
X136935729Y-77087680D01*
X136553866Y-77469543D01*
X136492543Y-77503028D01*
X136485583Y-77504335D01*
X136381211Y-77520865D01*
X136305850Y-77559264D01*
X136268171Y-77578463D01*
X136268170Y-77578464D01*
X136268165Y-77578467D01*
X136178467Y-77668165D01*
X136178464Y-77668170D01*
X136178463Y-77668171D01*
X136165381Y-77693846D01*
X136120865Y-77781211D01*
X136120865Y-77781212D01*
X136101021Y-77906509D01*
X136101021Y-77906516D01*
X136120865Y-78031813D01*
X136120865Y-78031814D01*
X136133978Y-78057549D01*
X136178463Y-78144855D01*
X136178465Y-78144857D01*
X136178467Y-78144860D01*
X136268165Y-78234558D01*
X136268167Y-78234559D01*
X136268171Y-78234563D01*
X136381209Y-78292159D01*
X136381210Y-78292159D01*
X136381212Y-78292160D01*
X136506510Y-78312005D01*
X136506513Y-78312005D01*
X136506516Y-78312005D01*
X136631813Y-78292160D01*
X136631814Y-78292160D01*
X136631815Y-78292159D01*
X136631817Y-78292159D01*
X136744855Y-78234563D01*
X136834563Y-78144855D01*
X136892159Y-78031817D01*
X136892159Y-78031815D01*
X136892160Y-78031814D01*
X136895176Y-78022533D01*
X136897598Y-78023320D01*
X136921374Y-77973156D01*
X136980682Y-77936219D01*
X137050544Y-77937211D01*
X137101606Y-77967999D01*
X137173133Y-78039526D01*
X137173135Y-78039527D01*
X137173139Y-78039531D01*
X137286177Y-78097127D01*
X137286178Y-78097127D01*
X137286180Y-78097128D01*
X137411478Y-78116973D01*
X137411481Y-78116973D01*
X137411484Y-78116973D01*
X137536781Y-78097128D01*
X137536782Y-78097128D01*
X137536783Y-78097127D01*
X137536785Y-78097127D01*
X137649823Y-78039531D01*
X137685526Y-78003828D01*
X137727555Y-77961800D01*
X137788878Y-77928315D01*
X137815236Y-77925481D01*
X143472516Y-77925481D01*
X143539555Y-77945166D01*
X143585310Y-77997970D01*
X143595254Y-78067128D01*
X143566229Y-78130684D01*
X143560197Y-78137162D01*
X142183119Y-79514238D01*
X142183108Y-79514247D01*
X142183109Y-79514248D01*
X142118579Y-79578778D01*
X142099494Y-79624854D01*
X142085999Y-79657431D01*
X142085999Y-79757000D01*
X142086000Y-79757009D01*
X142086000Y-83559997D01*
X142066315Y-83627036D01*
X142049681Y-83647678D01*
X140847678Y-84849681D01*
X140786355Y-84883166D01*
X140759997Y-84886000D01*
X139603755Y-84886000D01*
X139536716Y-84866315D01*
X139516074Y-84849681D01*
X139438347Y-84771954D01*
X139438344Y-84771952D01*
X139438342Y-84771950D01*
X139325304Y-84714354D01*
X139325303Y-84714353D01*
X139325300Y-84714352D01*
X139200003Y-84694508D01*
X139199997Y-84694508D01*
X139074699Y-84714352D01*
X139074698Y-84714352D01*
X138999337Y-84752751D01*
X138961658Y-84771950D01*
X138961657Y-84771951D01*
X138961652Y-84771954D01*
X138871954Y-84861652D01*
X138871951Y-84861657D01*
X138871950Y-84861658D01*
X138860991Y-84883166D01*
X138814352Y-84974698D01*
X138814352Y-84974699D01*
X138794508Y-85099996D01*
X138794508Y-85100003D01*
X138814352Y-85225300D01*
X138814352Y-85225301D01*
X138814354Y-85225304D01*
X138871950Y-85338342D01*
X138871952Y-85338344D01*
X138871954Y-85338347D01*
X138961652Y-85428045D01*
X138961654Y-85428046D01*
X138961658Y-85428050D01*
X139074696Y-85485646D01*
X139074697Y-85485646D01*
X139074699Y-85485647D01*
X139199997Y-85505492D01*
X139200000Y-85505492D01*
X139200003Y-85505492D01*
X139325300Y-85485647D01*
X139325301Y-85485647D01*
X139325302Y-85485646D01*
X139325304Y-85485646D01*
X139438342Y-85428050D01*
X139438347Y-85428045D01*
X139516074Y-85350319D01*
X139577397Y-85316834D01*
X139603755Y-85314000D01*
X140842991Y-85314000D01*
X140842999Y-85314001D01*
X140857433Y-85314001D01*
X140942567Y-85314001D01*
X140975146Y-85300505D01*
X141021222Y-85281421D01*
X141081421Y-85221222D01*
X141081421Y-85221219D01*
X141093336Y-85209305D01*
X141093339Y-85209300D01*
X142409300Y-83893340D01*
X142409308Y-83893334D01*
X142421220Y-83881421D01*
X142421222Y-83881421D01*
X142481421Y-83821222D01*
X142506495Y-83760687D01*
X142506496Y-83760686D01*
X142514000Y-83742569D01*
X142514001Y-83742567D01*
X142514001Y-83657433D01*
X142514001Y-83647444D01*
X142514000Y-83647430D01*
X142514000Y-82424827D01*
X142533685Y-82357788D01*
X142586489Y-82312033D01*
X142655647Y-82302089D01*
X142694295Y-82314343D01*
X142802088Y-82369267D01*
X142802089Y-82369267D01*
X142802091Y-82369268D01*
X142889907Y-82383176D01*
X142953040Y-82413104D01*
X142989971Y-82472415D01*
X142992432Y-82490448D01*
X142992981Y-82490362D01*
X143014352Y-82625300D01*
X143014352Y-82625301D01*
X143014354Y-82625304D01*
X143071950Y-82738342D01*
X143071952Y-82738344D01*
X143071954Y-82738347D01*
X143161652Y-82828045D01*
X143161654Y-82828046D01*
X143161658Y-82828050D01*
X143274696Y-82885646D01*
X143274697Y-82885646D01*
X143274699Y-82885647D01*
X143399997Y-82905492D01*
X143400000Y-82905492D01*
X143400003Y-82905492D01*
X143525300Y-82885647D01*
X143525301Y-82885647D01*
X143525302Y-82885646D01*
X143525304Y-82885646D01*
X143638342Y-82828050D01*
X143728050Y-82738342D01*
X143785646Y-82625304D01*
X143785646Y-82625302D01*
X143785647Y-82625301D01*
X143785647Y-82625300D01*
X143805492Y-82500003D01*
X143805492Y-82499999D01*
X143801313Y-82473615D01*
X143810267Y-82404321D01*
X143836105Y-82366535D01*
X144013015Y-82189625D01*
X144218894Y-81983746D01*
X144218898Y-81983744D01*
X144236336Y-81966306D01*
X144236337Y-81966306D01*
X144296536Y-81906107D01*
X144314639Y-81862401D01*
X144329116Y-81827452D01*
X144329116Y-81742318D01*
X144329116Y-81732329D01*
X144329115Y-81732315D01*
X144329115Y-80927955D01*
X144348800Y-80860916D01*
X144365434Y-80840274D01*
X145002890Y-80202819D01*
X145064213Y-80169334D01*
X145090571Y-80166500D01*
X151451070Y-80166500D01*
X151451078Y-80166501D01*
X151465512Y-80166501D01*
X151550644Y-80166501D01*
X151550646Y-80166501D01*
X151590264Y-80150090D01*
X151629301Y-80133921D01*
X151643249Y-80119972D01*
X151704569Y-80086487D01*
X151774261Y-80091470D01*
X151803812Y-80107333D01*
X151809603Y-80111540D01*
X151809607Y-80111542D01*
X151809609Y-80111544D01*
X151922647Y-80169140D01*
X151922648Y-80169140D01*
X151922650Y-80169141D01*
X152047948Y-80188986D01*
X152047951Y-80188986D01*
X152047954Y-80188986D01*
X152173251Y-80169141D01*
X152173252Y-80169141D01*
X152173253Y-80169140D01*
X152173255Y-80169140D01*
X152286293Y-80111544D01*
X152376001Y-80021836D01*
X152433597Y-79908798D01*
X152433597Y-79908796D01*
X152433598Y-79908795D01*
X152433598Y-79908794D01*
X152453443Y-79783497D01*
X152453443Y-79783490D01*
X152433598Y-79658193D01*
X152433598Y-79658192D01*
X152416611Y-79624854D01*
X152376001Y-79545152D01*
X152375997Y-79545148D01*
X152375996Y-79545146D01*
X152336987Y-79506137D01*
X152303502Y-79444814D01*
X152308486Y-79375122D01*
X152336987Y-79330775D01*
X152345246Y-79322515D01*
X152345251Y-79322510D01*
X152402847Y-79209472D01*
X152402847Y-79209470D01*
X152402848Y-79209469D01*
X152402848Y-79209468D01*
X152422693Y-79084171D01*
X152422693Y-79084164D01*
X152402848Y-78958867D01*
X152402848Y-78958866D01*
X152399231Y-78951767D01*
X152345251Y-78845826D01*
X152345247Y-78845822D01*
X152345246Y-78845820D01*
X152308175Y-78808749D01*
X152274690Y-78747426D01*
X152279674Y-78677734D01*
X152308175Y-78633387D01*
X152346147Y-78595414D01*
X152346152Y-78595409D01*
X152403748Y-78482371D01*
X152403748Y-78482369D01*
X152403749Y-78482368D01*
X152403749Y-78482367D01*
X152423594Y-78357070D01*
X152423594Y-78357063D01*
X152403749Y-78231766D01*
X152403749Y-78231765D01*
X152398722Y-78221899D01*
X152346152Y-78118725D01*
X152346148Y-78118721D01*
X152346147Y-78118719D01*
X152256449Y-78029021D01*
X152256445Y-78029018D01*
X152256444Y-78029017D01*
X152256441Y-78029015D01*
X152256439Y-78029014D01*
X152252579Y-78027047D01*
X152248737Y-78023418D01*
X152248552Y-78023284D01*
X152248569Y-78023260D01*
X152201784Y-77979072D01*
X152184990Y-77911251D01*
X152207529Y-77845116D01*
X152252579Y-77806080D01*
X152268341Y-77798050D01*
X152358049Y-77708342D01*
X152415645Y-77595304D01*
X152415645Y-77595302D01*
X152415646Y-77595301D01*
X152415646Y-77595300D01*
X152435491Y-77470003D01*
X152435491Y-77469996D01*
X152415646Y-77344699D01*
X152415646Y-77344698D01*
X152398876Y-77311786D01*
X152358049Y-77231658D01*
X152358045Y-77231654D01*
X152358044Y-77231652D01*
X152268346Y-77141954D01*
X152268343Y-77141952D01*
X152268341Y-77141950D01*
X152155303Y-77084354D01*
X152155302Y-77084353D01*
X152155299Y-77084352D01*
X152030002Y-77064508D01*
X152029996Y-77064508D01*
X151904698Y-77084352D01*
X151904697Y-77084352D01*
X151831748Y-77121522D01*
X151791657Y-77141950D01*
X151791655Y-77141951D01*
X151782962Y-77146381D01*
X151781476Y-77143466D01*
X151731563Y-77161269D01*
X151663511Y-77145435D01*
X151614823Y-77095323D01*
X151600500Y-77037470D01*
X151600500Y-76941854D01*
X151620185Y-76874815D01*
X151636815Y-76854177D01*
X152274619Y-76216372D01*
X152335942Y-76182888D01*
X152405634Y-76187872D01*
X152449981Y-76216373D01*
X153063181Y-76829573D01*
X153096666Y-76890896D01*
X153099500Y-76917254D01*
X153099500Y-81762745D01*
X153079815Y-81829784D01*
X153063181Y-81850426D01*
X151779522Y-83134084D01*
X151779518Y-83134090D01*
X151726793Y-83225411D01*
X151724051Y-83235646D01*
X151710531Y-83286105D01*
X151699500Y-83327273D01*
X151699500Y-84175553D01*
X151679815Y-84242592D01*
X151673876Y-84251039D01*
X151619139Y-84322374D01*
X151619138Y-84322376D01*
X151563671Y-84456287D01*
X151563670Y-84456291D01*
X151545722Y-84592620D01*
X151544750Y-84600000D01*
X151559156Y-84709425D01*
X151562091Y-84731714D01*
X151551326Y-84800750D01*
X151504946Y-84853005D01*
X151437677Y-84871891D01*
X151370876Y-84851411D01*
X151351471Y-84835581D01*
X148766837Y-82250948D01*
X148733352Y-82189625D01*
X148738336Y-82119933D01*
X148744034Y-82106971D01*
X148773182Y-82049765D01*
X148785646Y-82025304D01*
X148792228Y-81983748D01*
X148805492Y-81900003D01*
X148805492Y-81899996D01*
X148785647Y-81774699D01*
X148785647Y-81774698D01*
X148780238Y-81764083D01*
X148728050Y-81661658D01*
X148728046Y-81661654D01*
X148728045Y-81661652D01*
X148638347Y-81571954D01*
X148638344Y-81571952D01*
X148638342Y-81571950D01*
X148525304Y-81514354D01*
X148525303Y-81514353D01*
X148525300Y-81514352D01*
X148400003Y-81494508D01*
X148399997Y-81494508D01*
X148274699Y-81514352D01*
X148274698Y-81514352D01*
X148160357Y-81572613D01*
X148091688Y-81585509D01*
X148026947Y-81559233D01*
X147986690Y-81502126D01*
X147983698Y-81432321D01*
X147985575Y-81425755D01*
X148005492Y-81300003D01*
X148005492Y-81299996D01*
X147985647Y-81174699D01*
X147985647Y-81174698D01*
X147983722Y-81170920D01*
X147928050Y-81061658D01*
X147928046Y-81061654D01*
X147928045Y-81061652D01*
X147838347Y-80971954D01*
X147838344Y-80971952D01*
X147838342Y-80971950D01*
X147725304Y-80914354D01*
X147725303Y-80914353D01*
X147725300Y-80914352D01*
X147600003Y-80894508D01*
X147599997Y-80894508D01*
X147474699Y-80914352D01*
X147474698Y-80914352D01*
X147399337Y-80952751D01*
X147361658Y-80971950D01*
X147361657Y-80971951D01*
X147361652Y-80971954D01*
X147271954Y-81061652D01*
X147271949Y-81061659D01*
X147210483Y-81182291D01*
X147162508Y-81233086D01*
X147094687Y-81249881D01*
X147028553Y-81227343D01*
X146989514Y-81182290D01*
X146985646Y-81174698D01*
X146985646Y-81174696D01*
X146928050Y-81061658D01*
X146928048Y-81061656D01*
X146928045Y-81061652D01*
X146838347Y-80971954D01*
X146838344Y-80971952D01*
X146838342Y-80971950D01*
X146725304Y-80914354D01*
X146725303Y-80914353D01*
X146725300Y-80914352D01*
X146600003Y-80894508D01*
X146599997Y-80894508D01*
X146474699Y-80914352D01*
X146474698Y-80914352D01*
X146399337Y-80952751D01*
X146361658Y-80971950D01*
X146361657Y-80971951D01*
X146361652Y-80971954D01*
X146271954Y-81061652D01*
X146271952Y-81061656D01*
X146271950Y-81061658D01*
X146269679Y-81066115D01*
X146214352Y-81174698D01*
X146214352Y-81174699D01*
X146194508Y-81299996D01*
X146194508Y-81300003D01*
X146214352Y-81425300D01*
X146214352Y-81425301D01*
X146217929Y-81432321D01*
X146271950Y-81538342D01*
X146271952Y-81538344D01*
X146271954Y-81538347D01*
X146361652Y-81628045D01*
X146361654Y-81628046D01*
X146361658Y-81628050D01*
X146474696Y-81685646D01*
X146474697Y-81685646D01*
X146474699Y-81685647D01*
X146599997Y-81705492D01*
X146600000Y-81705492D01*
X146600003Y-81705492D01*
X146725300Y-81685647D01*
X146725301Y-81685646D01*
X146725304Y-81685646D01*
X146746077Y-81675061D01*
X146814743Y-81662165D01*
X146879484Y-81688440D01*
X146890051Y-81697864D01*
X149592686Y-84400500D01*
X152214336Y-87022150D01*
X152214339Y-87022154D01*
X152221407Y-87029222D01*
X152281606Y-87089421D01*
X152304643Y-87098963D01*
X152360261Y-87122001D01*
X152360262Y-87122001D01*
X152459829Y-87122001D01*
X152459837Y-87122000D01*
X155367997Y-87122000D01*
X155435036Y-87141685D01*
X155455678Y-87158319D01*
X155463894Y-87166535D01*
X155497379Y-87227858D01*
X155498687Y-87273611D01*
X155494508Y-87300000D01*
X155494508Y-87300003D01*
X155514352Y-87425300D01*
X155514352Y-87425301D01*
X155516755Y-87430017D01*
X155571950Y-87538342D01*
X155571952Y-87538344D01*
X155571954Y-87538347D01*
X155661652Y-87628045D01*
X155661654Y-87628046D01*
X155661658Y-87628050D01*
X155774696Y-87685646D01*
X155774697Y-87685646D01*
X155774699Y-87685647D01*
X155899997Y-87705492D01*
X155900000Y-87705492D01*
X155900003Y-87705492D01*
X156025300Y-87685647D01*
X156025301Y-87685647D01*
X156025302Y-87685646D01*
X156025304Y-87685646D01*
X156138342Y-87628050D01*
X156228050Y-87538342D01*
X156285646Y-87425304D01*
X156285646Y-87425302D01*
X156285647Y-87425301D01*
X156285647Y-87425300D01*
X156305492Y-87300003D01*
X156305492Y-87299997D01*
X156292247Y-87216373D01*
X156301202Y-87147080D01*
X156346198Y-87093628D01*
X156412949Y-87072988D01*
X156480263Y-87091713D01*
X156502401Y-87109294D01*
X156561652Y-87168545D01*
X156561654Y-87168546D01*
X156561658Y-87168550D01*
X156674696Y-87226146D01*
X156674697Y-87226146D01*
X156674699Y-87226147D01*
X156799997Y-87245992D01*
X156800000Y-87245992D01*
X156800003Y-87245992D01*
X156925300Y-87226147D01*
X156925301Y-87226147D01*
X156925302Y-87226146D01*
X156925304Y-87226146D01*
X157038342Y-87168550D01*
X157128050Y-87078842D01*
X157185646Y-86965804D01*
X157196263Y-86898768D01*
X157226191Y-86835636D01*
X157285502Y-86798704D01*
X157338133Y-86795694D01*
X157399997Y-86805492D01*
X157400000Y-86805492D01*
X157400003Y-86805492D01*
X157525300Y-86785647D01*
X157525301Y-86785647D01*
X157525302Y-86785646D01*
X157525304Y-86785646D01*
X157638342Y-86728050D01*
X157728050Y-86638342D01*
X157785646Y-86525304D01*
X157785646Y-86525302D01*
X157785647Y-86525301D01*
X157785647Y-86525300D01*
X157805492Y-86400003D01*
X157805492Y-86399996D01*
X157785647Y-86274699D01*
X157785647Y-86274698D01*
X157784760Y-86272957D01*
X157728050Y-86161658D01*
X157728046Y-86161654D01*
X157728045Y-86161652D01*
X157638347Y-86071954D01*
X157638344Y-86071952D01*
X157638342Y-86071950D01*
X157525304Y-86014354D01*
X157525303Y-86014353D01*
X157525300Y-86014352D01*
X157400003Y-85994508D01*
X157399997Y-85994508D01*
X157274699Y-86014352D01*
X157274698Y-86014352D01*
X157199337Y-86052751D01*
X157161658Y-86071950D01*
X157161657Y-86071951D01*
X157161652Y-86071954D01*
X157083926Y-86149681D01*
X157022603Y-86183166D01*
X156996245Y-86186000D01*
X152753252Y-86186000D01*
X152686213Y-86166315D01*
X152665571Y-86149681D01*
X151864418Y-85348528D01*
X151830933Y-85287205D01*
X151835917Y-85217513D01*
X151877789Y-85161580D01*
X151943253Y-85137163D01*
X151968274Y-85137907D01*
X152100000Y-85155250D01*
X152243709Y-85136330D01*
X152377625Y-85080861D01*
X152492621Y-84992621D01*
X152580861Y-84877625D01*
X152636330Y-84743709D01*
X152655250Y-84600000D01*
X152636330Y-84456291D01*
X152580861Y-84322375D01*
X152572530Y-84311518D01*
X152526124Y-84251039D01*
X152500930Y-84185869D01*
X152500500Y-84175553D01*
X152500500Y-83597255D01*
X152520185Y-83530216D01*
X152536819Y-83509574D01*
X153609574Y-82436819D01*
X153670897Y-82403334D01*
X153697255Y-82400500D01*
X156782745Y-82400500D01*
X156849784Y-82420185D01*
X156870426Y-82436819D01*
X158613181Y-84179574D01*
X158646666Y-84240897D01*
X158649500Y-84267255D01*
X158649500Y-86603456D01*
X158629815Y-86670495D01*
X158613181Y-86691137D01*
X156891137Y-88413181D01*
X156829814Y-88446666D01*
X156803456Y-88449500D01*
X154412025Y-88449500D01*
X154344986Y-88429815D01*
X154299231Y-88377011D01*
X154297464Y-88372952D01*
X154268243Y-88302405D01*
X154153275Y-88130342D01*
X154006957Y-87984024D01*
X153919069Y-87925300D01*
X153834898Y-87869059D01*
X153802644Y-87855699D01*
X153643720Y-87789870D01*
X153643712Y-87789868D01*
X153440769Y-87749500D01*
X153440765Y-87749500D01*
X152533835Y-87749500D01*
X152533830Y-87749500D01*
X152330887Y-87789868D01*
X152330879Y-87789870D01*
X152139703Y-87869058D01*
X151967642Y-87984024D01*
X151821324Y-88130342D01*
X151706358Y-88302403D01*
X151627170Y-88493579D01*
X151627168Y-88493587D01*
X151586800Y-88696530D01*
X151586800Y-88903469D01*
X151627168Y-89106412D01*
X151627170Y-89106420D01*
X151706358Y-89297596D01*
X151821324Y-89469657D01*
X151967642Y-89615975D01*
X151967645Y-89615977D01*
X152139702Y-89730941D01*
X152330880Y-89810130D01*
X152517582Y-89847267D01*
X152533830Y-89850499D01*
X152533834Y-89850500D01*
X152533835Y-89850500D01*
X153440766Y-89850500D01*
X153440767Y-89850499D01*
X153643720Y-89810130D01*
X153834898Y-89730941D01*
X154006955Y-89615977D01*
X154153277Y-89469655D01*
X154268241Y-89297598D01*
X154268337Y-89297368D01*
X154297464Y-89227048D01*
X154341305Y-89172644D01*
X154407599Y-89150579D01*
X154412025Y-89150500D01*
X156266656Y-89150500D01*
X156333695Y-89170185D01*
X156379450Y-89222989D01*
X156389394Y-89292147D01*
X156360369Y-89355703D01*
X156337779Y-89376075D01*
X156160858Y-89499954D01*
X155999954Y-89660858D01*
X155869432Y-89847265D01*
X155869431Y-89847267D01*
X155773261Y-90053502D01*
X155773258Y-90053511D01*
X155714366Y-90273302D01*
X155714364Y-90273313D01*
X155694532Y-90499998D01*
X155694532Y-90500001D01*
X155714364Y-90726686D01*
X155714366Y-90726697D01*
X155773258Y-90946488D01*
X155773261Y-90946497D01*
X155869431Y-91152732D01*
X155869432Y-91152734D01*
X155999954Y-91339141D01*
X156160858Y-91500045D01*
X156160861Y-91500047D01*
X156347266Y-91630568D01*
X156553504Y-91726739D01*
X156553509Y-91726740D01*
X156553511Y-91726741D01*
X156556635Y-91727578D01*
X156773308Y-91785635D01*
X156935230Y-91799801D01*
X156999998Y-91805468D01*
X157000000Y-91805468D01*
X157000002Y-91805468D01*
X157056673Y-91800509D01*
X157226692Y-91785635D01*
X157446496Y-91726739D01*
X157652734Y-91630568D01*
X157839139Y-91500047D01*
X158000047Y-91339139D01*
X158130568Y-91152734D01*
X158226739Y-90946496D01*
X158285635Y-90726692D01*
X158305468Y-90500000D01*
X158301121Y-90450319D01*
X158290184Y-90325301D01*
X158285635Y-90273308D01*
X158226739Y-90053504D01*
X158130568Y-89847266D01*
X158018239Y-89686842D01*
X158000045Y-89660858D01*
X157839141Y-89499954D01*
X157652734Y-89369432D01*
X157652732Y-89369431D01*
X157446497Y-89273261D01*
X157446488Y-89273258D01*
X157319494Y-89239231D01*
X157259833Y-89202866D01*
X157229304Y-89140019D01*
X157237599Y-89070644D01*
X157263903Y-89031778D01*
X159195686Y-87099996D01*
X160594508Y-87099996D01*
X160594508Y-87100003D01*
X160614352Y-87225300D01*
X160614352Y-87225301D01*
X160615655Y-87227858D01*
X160671950Y-87338342D01*
X160671952Y-87338344D01*
X160671954Y-87338347D01*
X160761652Y-87428045D01*
X160761656Y-87428048D01*
X160761658Y-87428050D01*
X160761660Y-87428051D01*
X160765518Y-87430017D01*
X160769356Y-87433642D01*
X160769550Y-87433783D01*
X160769531Y-87433808D01*
X160816313Y-87477992D01*
X160833106Y-87545814D01*
X160810567Y-87611948D01*
X160765518Y-87650983D01*
X160761660Y-87652948D01*
X160761652Y-87652954D01*
X160671954Y-87742652D01*
X160671951Y-87742657D01*
X160671950Y-87742658D01*
X160665916Y-87754501D01*
X160614352Y-87855698D01*
X160614352Y-87855699D01*
X160594508Y-87980996D01*
X160594508Y-87981003D01*
X160614352Y-88106300D01*
X160614352Y-88106301D01*
X160626764Y-88130660D01*
X160671950Y-88219342D01*
X160671952Y-88219344D01*
X160671954Y-88219347D01*
X160761652Y-88309045D01*
X160761654Y-88309046D01*
X160761658Y-88309050D01*
X160874696Y-88366646D01*
X160874697Y-88366646D01*
X160874699Y-88366647D01*
X160999997Y-88386492D01*
X161000000Y-88386492D01*
X161000003Y-88386492D01*
X161125300Y-88366647D01*
X161125301Y-88366647D01*
X161125302Y-88366646D01*
X161125304Y-88366646D01*
X161168179Y-88344800D01*
X169465270Y-88344800D01*
X169465270Y-88344810D01*
X169474742Y-88525564D01*
X169474743Y-88525574D01*
X169512378Y-88702629D01*
X169577247Y-88871617D01*
X169577250Y-88871623D01*
X169667753Y-89028379D01*
X169667758Y-89028386D01*
X169781672Y-89169057D01*
X169916187Y-89290176D01*
X169916192Y-89290180D01*
X170067996Y-89388762D01*
X170233366Y-89462389D01*
X170250058Y-89466862D01*
X170420185Y-88831938D01*
X170534244Y-88862500D01*
X170659314Y-88862500D01*
X170780122Y-88830130D01*
X170967259Y-88722086D01*
X170753595Y-89519493D01*
X170768999Y-89518686D01*
X170769001Y-89518686D01*
X170946059Y-89481051D01*
X171115047Y-89416182D01*
X171115053Y-89416179D01*
X171704821Y-89075676D01*
X171704828Y-89075671D01*
X171845498Y-88961758D01*
X171966622Y-88827237D01*
X171966625Y-88827232D01*
X171975020Y-88814303D01*
X171177612Y-88600638D01*
X171364750Y-88492595D01*
X171453188Y-88404157D01*
X171515723Y-88295843D01*
X171546284Y-88181784D01*
X172181207Y-88351912D01*
X172185681Y-88335219D01*
X172204601Y-88155199D01*
X172204601Y-88155189D01*
X172195129Y-87974432D01*
X172195128Y-87974428D01*
X172157492Y-87797370D01*
X172092626Y-87628385D01*
X172092621Y-87628376D01*
X172002118Y-87471620D01*
X172002113Y-87471613D01*
X171888199Y-87330942D01*
X171753677Y-87209819D01*
X171601871Y-87111235D01*
X171436517Y-87037614D01*
X171436505Y-87037610D01*
X171419811Y-87033136D01*
X171249684Y-87668060D01*
X171135628Y-87637500D01*
X171010558Y-87637500D01*
X170889750Y-87669870D01*
X170702609Y-87777915D01*
X170916275Y-86980505D01*
X170900870Y-86981312D01*
X170723814Y-87018947D01*
X170554822Y-87083817D01*
X170554817Y-87083820D01*
X169965050Y-87424323D01*
X169965043Y-87424328D01*
X169824372Y-87538242D01*
X169703257Y-87672752D01*
X169703250Y-87672763D01*
X169694851Y-87685695D01*
X170492261Y-87899360D01*
X170305122Y-88007405D01*
X170216684Y-88095843D01*
X170154149Y-88204157D01*
X170123587Y-88318213D01*
X169488662Y-88148086D01*
X169484189Y-88164781D01*
X169465270Y-88344800D01*
X161168179Y-88344800D01*
X161238342Y-88309050D01*
X161251549Y-88295843D01*
X161316074Y-88231319D01*
X161377397Y-88197834D01*
X161403755Y-88195000D01*
X166511991Y-88195000D01*
X166511999Y-88195001D01*
X166526433Y-88195001D01*
X166611567Y-88195001D01*
X166644146Y-88181505D01*
X166690222Y-88162421D01*
X166750421Y-88102222D01*
X166750421Y-88102219D01*
X166762336Y-88090305D01*
X166762339Y-88090300D01*
X169007850Y-85844789D01*
X173794895Y-85844789D01*
X173794895Y-85844797D01*
X173804372Y-86025633D01*
X173804373Y-86025637D01*
X173814218Y-86071951D01*
X173838311Y-86185300D01*
X173842025Y-86202770D01*
X173906922Y-86371835D01*
X173906925Y-86371840D01*
X173997467Y-86528663D01*
X173997472Y-86528670D01*
X174111436Y-86669403D01*
X174246008Y-86790574D01*
X174246014Y-86790579D01*
X174397885Y-86889204D01*
X174397890Y-86889207D01*
X174563326Y-86962864D01*
X174738248Y-87009734D01*
X174918349Y-87028663D01*
X175099194Y-87019185D01*
X175276329Y-86981533D01*
X175445394Y-86916635D01*
X176035235Y-86576089D01*
X176175971Y-86462124D01*
X176297146Y-86327546D01*
X176395776Y-86175668D01*
X176469433Y-86010232D01*
X176516303Y-85835310D01*
X176535232Y-85655210D01*
X176525755Y-85474364D01*
X176488103Y-85297229D01*
X176423205Y-85128165D01*
X176332658Y-84971334D01*
X176218693Y-84830599D01*
X176218691Y-84830597D01*
X176084117Y-84709425D01*
X176084112Y-84709421D01*
X175932238Y-84610794D01*
X175766806Y-84537138D01*
X175766801Y-84537136D01*
X175591877Y-84490265D01*
X175411783Y-84471338D01*
X175411772Y-84471338D01*
X175230936Y-84480814D01*
X175230929Y-84480815D01*
X175053797Y-84518467D01*
X174884735Y-84583364D01*
X174884729Y-84583367D01*
X174294894Y-84923909D01*
X174294887Y-84923914D01*
X174154154Y-85037878D01*
X174032983Y-85172450D01*
X174032978Y-85172456D01*
X173934353Y-85324327D01*
X173860693Y-85489769D01*
X173816366Y-85655203D01*
X173813824Y-85664690D01*
X173800706Y-85789496D01*
X173794895Y-85844789D01*
X169007850Y-85844789D01*
X171566536Y-83286103D01*
X171627857Y-83252620D01*
X171673613Y-83251313D01*
X171699998Y-83255492D01*
X171700000Y-83255492D01*
X171700003Y-83255492D01*
X171825300Y-83235647D01*
X171825301Y-83235647D01*
X171825302Y-83235646D01*
X171825304Y-83235646D01*
X171938342Y-83178050D01*
X172028050Y-83088342D01*
X172085646Y-82975304D01*
X172085646Y-82975302D01*
X172085647Y-82975301D01*
X172085647Y-82975300D01*
X172105492Y-82850003D01*
X172105492Y-82849996D01*
X172085647Y-82724699D01*
X172085647Y-82724698D01*
X172073064Y-82700003D01*
X172028050Y-82611658D01*
X172028046Y-82611654D01*
X172028045Y-82611652D01*
X171938347Y-82521954D01*
X171938343Y-82521951D01*
X171938342Y-82521950D01*
X171895261Y-82499999D01*
X171876446Y-82490412D01*
X171825651Y-82442438D01*
X171808856Y-82374617D01*
X171813231Y-82354867D01*
X171811618Y-82354547D01*
X171814001Y-82342565D01*
X171814001Y-82247444D01*
X171814000Y-82247430D01*
X171814000Y-81253755D01*
X171833685Y-81186716D01*
X171850319Y-81166074D01*
X171928045Y-81088347D01*
X171928050Y-81088342D01*
X171985646Y-80975304D01*
X171985646Y-80975302D01*
X171985647Y-80975301D01*
X171985647Y-80975300D01*
X172005492Y-80850003D01*
X172005492Y-80849996D01*
X171985647Y-80724699D01*
X171985647Y-80724698D01*
X171985646Y-80724696D01*
X171928050Y-80611658D01*
X171928046Y-80611654D01*
X171928045Y-80611652D01*
X171838347Y-80521954D01*
X171838342Y-80521950D01*
X171833628Y-80519548D01*
X171782834Y-80471574D01*
X171766040Y-80403752D01*
X171780045Y-80360911D01*
X171776747Y-80359545D01*
X171781421Y-80348260D01*
X171800505Y-80302184D01*
X171814001Y-80269605D01*
X171814001Y-80184471D01*
X171814001Y-80174482D01*
X171814000Y-80174468D01*
X171814000Y-79253755D01*
X171833685Y-79186716D01*
X171850319Y-79166074D01*
X171928045Y-79088347D01*
X171928050Y-79088342D01*
X171985646Y-78975304D01*
X171985646Y-78975302D01*
X171985647Y-78975301D01*
X171985647Y-78975300D01*
X172005492Y-78850003D01*
X172005492Y-78849996D01*
X171985647Y-78724699D01*
X171985647Y-78724698D01*
X171972782Y-78699450D01*
X171928050Y-78611658D01*
X171928046Y-78611654D01*
X171928045Y-78611652D01*
X171838347Y-78521954D01*
X171838344Y-78521952D01*
X171838342Y-78521950D01*
X171725304Y-78464354D01*
X171725303Y-78464353D01*
X171725300Y-78464352D01*
X171600003Y-78444508D01*
X171599997Y-78444508D01*
X171474699Y-78464352D01*
X171474698Y-78464352D01*
X171399337Y-78502751D01*
X171361658Y-78521950D01*
X171361657Y-78521951D01*
X171361652Y-78521954D01*
X171331181Y-78552426D01*
X171269858Y-78585911D01*
X171200166Y-78580927D01*
X171144233Y-78539055D01*
X171119816Y-78473591D01*
X171119500Y-78464745D01*
X171119500Y-77684503D01*
X171139185Y-77617464D01*
X171155819Y-77596822D01*
X171310074Y-77442567D01*
X171466537Y-77286103D01*
X171527858Y-77252620D01*
X171573615Y-77251313D01*
X171599999Y-77255492D01*
X171600000Y-77255492D01*
X171600003Y-77255492D01*
X171725300Y-77235647D01*
X171725301Y-77235647D01*
X171725302Y-77235646D01*
X171725304Y-77235646D01*
X171838342Y-77178050D01*
X171928050Y-77088342D01*
X171985646Y-76975304D01*
X171985646Y-76975302D01*
X171985647Y-76975301D01*
X171985647Y-76975300D01*
X172005492Y-76850003D01*
X172005492Y-76849996D01*
X171985647Y-76724699D01*
X171985647Y-76724698D01*
X171967967Y-76689999D01*
X171928050Y-76611658D01*
X171928048Y-76611656D01*
X171928045Y-76611652D01*
X171838347Y-76521954D01*
X171838344Y-76521952D01*
X171838342Y-76521950D01*
X171725304Y-76464354D01*
X171725303Y-76464353D01*
X171725300Y-76464352D01*
X171600003Y-76444508D01*
X171599997Y-76444508D01*
X171474699Y-76464352D01*
X171474698Y-76464352D01*
X171399337Y-76502751D01*
X171361658Y-76521950D01*
X171361657Y-76521951D01*
X171361652Y-76521954D01*
X171271954Y-76611652D01*
X171271952Y-76611656D01*
X171271950Y-76611658D01*
X171246172Y-76662250D01*
X171214352Y-76724698D01*
X171214352Y-76724699D01*
X171194508Y-76849996D01*
X171194508Y-76849997D01*
X171194508Y-76850000D01*
X171198687Y-76876384D01*
X171189731Y-76945678D01*
X171163894Y-76983462D01*
X170788619Y-77358738D01*
X170788597Y-77358758D01*
X170724080Y-77423275D01*
X170724079Y-77423278D01*
X170712804Y-77450500D01*
X170704916Y-77469543D01*
X170691499Y-77501932D01*
X170691499Y-77601500D01*
X170691500Y-77601509D01*
X170691500Y-82136077D01*
X170671815Y-82203116D01*
X170655181Y-82223758D01*
X170529258Y-82349681D01*
X170467935Y-82383166D01*
X170441577Y-82386000D01*
X164503755Y-82386000D01*
X164436716Y-82366315D01*
X164416074Y-82349681D01*
X164338347Y-82271954D01*
X164338344Y-82271952D01*
X164338342Y-82271950D01*
X164225304Y-82214354D01*
X164225303Y-82214353D01*
X164225300Y-82214352D01*
X164100003Y-82194508D01*
X164099997Y-82194508D01*
X163974699Y-82214352D01*
X163974698Y-82214352D01*
X163899337Y-82252751D01*
X163861658Y-82271950D01*
X163861657Y-82271951D01*
X163861652Y-82271954D01*
X163771954Y-82361652D01*
X163771951Y-82361657D01*
X163771950Y-82361658D01*
X163756202Y-82392565D01*
X163714352Y-82474698D01*
X163714352Y-82474699D01*
X163694508Y-82599996D01*
X163694508Y-82600003D01*
X163714352Y-82725300D01*
X163714352Y-82725301D01*
X163723544Y-82743341D01*
X163771950Y-82838342D01*
X163771952Y-82838344D01*
X163771954Y-82838347D01*
X163861652Y-82928045D01*
X163861654Y-82928046D01*
X163861658Y-82928050D01*
X163974696Y-82985646D01*
X163974697Y-82985646D01*
X163974699Y-82985647D01*
X164099997Y-83005492D01*
X164100000Y-83005492D01*
X164100003Y-83005492D01*
X164225300Y-82985647D01*
X164225301Y-82985647D01*
X164225302Y-82985646D01*
X164225304Y-82985646D01*
X164338342Y-82928050D01*
X164366207Y-82900185D01*
X164416074Y-82850319D01*
X164477397Y-82816834D01*
X164503755Y-82814000D01*
X170124787Y-82814000D01*
X170191826Y-82833685D01*
X170237581Y-82886489D01*
X170247525Y-82955647D01*
X170218500Y-83019203D01*
X170212468Y-83025681D01*
X166388468Y-86849681D01*
X166327145Y-86883166D01*
X166300787Y-86886000D01*
X161403755Y-86886000D01*
X161336716Y-86866315D01*
X161316074Y-86849681D01*
X161238347Y-86771954D01*
X161238344Y-86771952D01*
X161238342Y-86771950D01*
X161125304Y-86714354D01*
X161125303Y-86714353D01*
X161125300Y-86714352D01*
X161000003Y-86694508D01*
X160999997Y-86694508D01*
X160874699Y-86714352D01*
X160874698Y-86714352D01*
X160801424Y-86751688D01*
X160761658Y-86771950D01*
X160761657Y-86771951D01*
X160761652Y-86771954D01*
X160671954Y-86861652D01*
X160671951Y-86861657D01*
X160671950Y-86861658D01*
X160663227Y-86878778D01*
X160614352Y-86974698D01*
X160614352Y-86974699D01*
X160594508Y-87099996D01*
X159195686Y-87099996D01*
X159280470Y-87015212D01*
X159326614Y-86935288D01*
X159332223Y-86914354D01*
X159350500Y-86846144D01*
X159350500Y-84524500D01*
X159370185Y-84457461D01*
X159422989Y-84411706D01*
X159474500Y-84400500D01*
X161454339Y-84400500D01*
X161521378Y-84420185D01*
X161565058Y-84470595D01*
X161565075Y-84470586D01*
X161565123Y-84470669D01*
X161567133Y-84472989D01*
X161568886Y-84477015D01*
X161569139Y-84477625D01*
X161657379Y-84592621D01*
X161772375Y-84680861D01*
X161906291Y-84736330D01*
X162033280Y-84753048D01*
X162049999Y-84755250D01*
X162050000Y-84755250D01*
X162050001Y-84755250D01*
X162064977Y-84753278D01*
X162193709Y-84736330D01*
X162327625Y-84680861D01*
X162442621Y-84592621D01*
X162530861Y-84477625D01*
X162586330Y-84343709D01*
X162605250Y-84200000D01*
X162586330Y-84056291D01*
X162530861Y-83922375D01*
X162442621Y-83807379D01*
X162327625Y-83719139D01*
X162327624Y-83719138D01*
X162327622Y-83719137D01*
X162193712Y-83663671D01*
X162193710Y-83663670D01*
X162193709Y-83663670D01*
X162055917Y-83645529D01*
X162010100Y-83629975D01*
X162004591Y-83626794D01*
X162004588Y-83626793D01*
X161902727Y-83599500D01*
X161902726Y-83599500D01*
X159217255Y-83599500D01*
X159150216Y-83579815D01*
X159129574Y-83563181D01*
X157245915Y-81679522D01*
X157245913Y-81679520D01*
X157178246Y-81640452D01*
X157154589Y-81626793D01*
X157097218Y-81611421D01*
X157052727Y-81599500D01*
X157052726Y-81599500D01*
X154024500Y-81599500D01*
X153957461Y-81579815D01*
X153911706Y-81527011D01*
X153900500Y-81475500D01*
X153900500Y-78638531D01*
X153920185Y-78571492D01*
X153972989Y-78525737D01*
X154024500Y-78514531D01*
X158083242Y-78514531D01*
X158747273Y-78514531D01*
X158852727Y-78514531D01*
X163332000Y-78514531D01*
X163379449Y-78523968D01*
X163386355Y-78526829D01*
X163513344Y-78543547D01*
X163530063Y-78545749D01*
X163530064Y-78545749D01*
X163530065Y-78545749D01*
X163545041Y-78543777D01*
X163673773Y-78526829D01*
X163807689Y-78471360D01*
X163922685Y-78383120D01*
X164010925Y-78268124D01*
X164066394Y-78134208D01*
X164085314Y-77990499D01*
X164066394Y-77846790D01*
X164020531Y-77736065D01*
X164010926Y-77712876D01*
X164010925Y-77712875D01*
X164010925Y-77712874D01*
X163922685Y-77597878D01*
X163807689Y-77509638D01*
X163807688Y-77509637D01*
X163807686Y-77509636D01*
X163673776Y-77454170D01*
X163673774Y-77454169D01*
X163673773Y-77454169D01*
X163585649Y-77442567D01*
X163530065Y-77435249D01*
X163530063Y-77435249D01*
X163386355Y-77454169D01*
X163386351Y-77454170D01*
X163252441Y-77509636D01*
X163194941Y-77553758D01*
X163137443Y-77597878D01*
X163137442Y-77597879D01*
X163137441Y-77597880D01*
X163085924Y-77665018D01*
X163029496Y-77706220D01*
X162987549Y-77713531D01*
X159324500Y-77713531D01*
X159257461Y-77693846D01*
X159211706Y-77641042D01*
X159200500Y-77589531D01*
X159200500Y-76267253D01*
X159220185Y-76200214D01*
X159236814Y-76179577D01*
X160683069Y-74733321D01*
X160744390Y-74699838D01*
X160754543Y-74698068D01*
X160843709Y-74686330D01*
X160977625Y-74630861D01*
X161092621Y-74542621D01*
X161180861Y-74427625D01*
X161236330Y-74293709D01*
X161254567Y-74155189D01*
X173795398Y-74155189D01*
X173795398Y-74155199D01*
X173814317Y-74335213D01*
X173818791Y-74351912D01*
X174453715Y-74181784D01*
X174484277Y-74295843D01*
X174546812Y-74404157D01*
X174635250Y-74492595D01*
X174822386Y-74600638D01*
X174024979Y-74814302D01*
X174024979Y-74814303D01*
X174033378Y-74827237D01*
X174033379Y-74827239D01*
X174154500Y-74961757D01*
X174295171Y-75075671D01*
X174295178Y-75075676D01*
X174884945Y-75416179D01*
X174884950Y-75416182D01*
X175053942Y-75481052D01*
X175230999Y-75518686D01*
X175246403Y-75519494D01*
X175032738Y-74722084D01*
X175219878Y-74830130D01*
X175340686Y-74862500D01*
X175465756Y-74862500D01*
X175579812Y-74831939D01*
X175749939Y-75466862D01*
X175766626Y-75462392D01*
X175766631Y-75462390D01*
X175932002Y-75388762D01*
X176083805Y-75290180D01*
X176218327Y-75169057D01*
X176332241Y-75028386D01*
X176332246Y-75028379D01*
X176422749Y-74871623D01*
X176422754Y-74871614D01*
X176487620Y-74702629D01*
X176525256Y-74525571D01*
X176525257Y-74525567D01*
X176534729Y-74344810D01*
X176534729Y-74344800D01*
X176515808Y-74164777D01*
X176511336Y-74148086D01*
X176511335Y-74148086D01*
X175876411Y-74318213D01*
X175845851Y-74204157D01*
X175783316Y-74095843D01*
X175694878Y-74007405D01*
X175507738Y-73899359D01*
X176305147Y-73685696D01*
X176296748Y-73672760D01*
X176175623Y-73538238D01*
X176034956Y-73424328D01*
X176034949Y-73424323D01*
X175445181Y-73083820D01*
X175445175Y-73083817D01*
X175276187Y-73018948D01*
X175099129Y-72981312D01*
X175083722Y-72980504D01*
X175297387Y-73777913D01*
X175110250Y-73669870D01*
X174989442Y-73637500D01*
X174864372Y-73637500D01*
X174750314Y-73668061D01*
X174580187Y-73033136D01*
X174563497Y-73037609D01*
X174398124Y-73111237D01*
X174246320Y-73209819D01*
X174246315Y-73209823D01*
X174111800Y-73330942D01*
X173997886Y-73471613D01*
X173997881Y-73471620D01*
X173907378Y-73628376D01*
X173907375Y-73628382D01*
X173842506Y-73797370D01*
X173804871Y-73974425D01*
X173804870Y-73974435D01*
X173795398Y-74155189D01*
X161254567Y-74155189D01*
X161255250Y-74150000D01*
X161236330Y-74006291D01*
X161197133Y-73911660D01*
X161180862Y-73872377D01*
X161180861Y-73872376D01*
X161180861Y-73872375D01*
X161092621Y-73757379D01*
X160977625Y-73669139D01*
X160977624Y-73669138D01*
X160977622Y-73669137D01*
X160843712Y-73613671D01*
X160843710Y-73613670D01*
X160843709Y-73613670D01*
X160739847Y-73599996D01*
X160700001Y-73594750D01*
X160699999Y-73594750D01*
X160556291Y-73613670D01*
X160556287Y-73613671D01*
X160422377Y-73669137D01*
X160307379Y-73757379D01*
X160219137Y-73872377D01*
X160163671Y-74006287D01*
X160163670Y-74006291D01*
X160151933Y-74095437D01*
X160123666Y-74159333D01*
X160116675Y-74166931D01*
X158479522Y-75804084D01*
X158479520Y-75804087D01*
X158426793Y-75895412D01*
X158406285Y-75971950D01*
X158406285Y-75971951D01*
X158399500Y-75997274D01*
X158399500Y-77589531D01*
X158379815Y-77656570D01*
X158327011Y-77702325D01*
X158275500Y-77713531D01*
X154024500Y-77713531D01*
X153957461Y-77693846D01*
X153911706Y-77641042D01*
X153900500Y-77589531D01*
X153900500Y-76647275D01*
X153900499Y-76647271D01*
X153890957Y-76611657D01*
X153890957Y-76611658D01*
X153873207Y-76545412D01*
X153836261Y-76481421D01*
X153836261Y-76481420D01*
X153820482Y-76454090D01*
X153820481Y-76454089D01*
X153820480Y-76454087D01*
X153745913Y-76379520D01*
X153745912Y-76379519D01*
X153741582Y-76375189D01*
X153741571Y-76375179D01*
X153016373Y-75649981D01*
X152982888Y-75588658D01*
X152987872Y-75518966D01*
X153016373Y-75474619D01*
X153289182Y-75201811D01*
X153587264Y-74903729D01*
X153648587Y-74870244D01*
X153674945Y-74867410D01*
X153931431Y-74867410D01*
X153998470Y-74887095D01*
X154006917Y-74893034D01*
X154056459Y-74931049D01*
X154078252Y-74947771D01*
X154212168Y-75003240D01*
X154339157Y-75019958D01*
X154355876Y-75022160D01*
X154355877Y-75022160D01*
X154355878Y-75022160D01*
X154370854Y-75020188D01*
X154499586Y-75003240D01*
X154633502Y-74947771D01*
X154748498Y-74859531D01*
X154836738Y-74744535D01*
X154892207Y-74610619D01*
X154911127Y-74466910D01*
X154892207Y-74323201D01*
X154842898Y-74204157D01*
X154836739Y-74189287D01*
X154836738Y-74189286D01*
X154836738Y-74189285D01*
X154748498Y-74074289D01*
X154633502Y-73986049D01*
X154633501Y-73986048D01*
X154633499Y-73986047D01*
X154499589Y-73930581D01*
X154499587Y-73930580D01*
X154499586Y-73930580D01*
X154394721Y-73916774D01*
X154355878Y-73911660D01*
X154355876Y-73911660D01*
X154212168Y-73930580D01*
X154212164Y-73930581D01*
X154078253Y-73986048D01*
X154078251Y-73986049D01*
X154006917Y-74040786D01*
X153941748Y-74065980D01*
X153931431Y-74066410D01*
X153674945Y-74066410D01*
X153607906Y-74046725D01*
X153587264Y-74030091D01*
X153424119Y-73866946D01*
X153390634Y-73805623D01*
X153387800Y-73779265D01*
X153387800Y-72362799D01*
X153407485Y-72295760D01*
X153460289Y-72250005D01*
X153487599Y-72241184D01*
X153643720Y-72210130D01*
X153834898Y-72130941D01*
X154006955Y-72015977D01*
X154153277Y-71869655D01*
X154268241Y-71697598D01*
X154347430Y-71506420D01*
X154387800Y-71303465D01*
X154387800Y-71139803D01*
X154407485Y-71072764D01*
X154460289Y-71027009D01*
X154529447Y-71017065D01*
X154593003Y-71046090D01*
X154599481Y-71052122D01*
X155518523Y-71971164D01*
X155552008Y-72032487D01*
X155547024Y-72102179D01*
X155541327Y-72115140D01*
X155507476Y-72181574D01*
X155507476Y-72181575D01*
X155487632Y-72306872D01*
X155487632Y-72306879D01*
X155507476Y-72432176D01*
X155507476Y-72432177D01*
X155507478Y-72432180D01*
X155565074Y-72545218D01*
X155565076Y-72545220D01*
X155565078Y-72545223D01*
X155654776Y-72634921D01*
X155654778Y-72634922D01*
X155654782Y-72634926D01*
X155767820Y-72692522D01*
X155767821Y-72692522D01*
X155767823Y-72692523D01*
X155893121Y-72712368D01*
X155893124Y-72712368D01*
X155893126Y-72712368D01*
X156025949Y-72691331D01*
X156095243Y-72700286D01*
X156148695Y-72745282D01*
X156169334Y-72812033D01*
X156169347Y-72813804D01*
X156169347Y-74253739D01*
X156169346Y-74253753D01*
X156169346Y-74348875D01*
X156182827Y-74381422D01*
X156201923Y-74427525D01*
X156201924Y-74427527D01*
X156201926Y-74427531D01*
X156201928Y-74427533D01*
X156272329Y-74497934D01*
X156272339Y-74497942D01*
X156552413Y-74778017D01*
X156585898Y-74839340D01*
X156587206Y-74885093D01*
X156583027Y-74911481D01*
X156583027Y-74911484D01*
X156602871Y-75036781D01*
X156602871Y-75036782D01*
X156602873Y-75036785D01*
X156660469Y-75149823D01*
X156660471Y-75149825D01*
X156660473Y-75149828D01*
X156750171Y-75239526D01*
X156750173Y-75239527D01*
X156750177Y-75239531D01*
X156863215Y-75297127D01*
X156863216Y-75297127D01*
X156863218Y-75297128D01*
X156988516Y-75316973D01*
X156988519Y-75316973D01*
X156988522Y-75316973D01*
X157113819Y-75297128D01*
X157113820Y-75297128D01*
X157113821Y-75297127D01*
X157113823Y-75297127D01*
X157226861Y-75239531D01*
X157316569Y-75149823D01*
X157374165Y-75036785D01*
X157374165Y-75036783D01*
X157374166Y-75036782D01*
X157374166Y-75036781D01*
X157394011Y-74911484D01*
X157394011Y-74911477D01*
X157374166Y-74786180D01*
X157374166Y-74786179D01*
X157352947Y-74744535D01*
X157316569Y-74673139D01*
X157316565Y-74673135D01*
X157316564Y-74673133D01*
X157292592Y-74649161D01*
X157259107Y-74587838D01*
X157264091Y-74518146D01*
X157292592Y-74473799D01*
X157328050Y-74438342D01*
X157385646Y-74325304D01*
X157385646Y-74325302D01*
X157385647Y-74325301D01*
X157385647Y-74325300D01*
X157405492Y-74200003D01*
X157405492Y-74199996D01*
X157397150Y-74147326D01*
X157406105Y-74078033D01*
X157451101Y-74024581D01*
X157500220Y-74005457D01*
X157625304Y-73985646D01*
X157627696Y-73984426D01*
X157630918Y-73983821D01*
X157634583Y-73982631D01*
X157634736Y-73983104D01*
X157696365Y-73971529D01*
X157761106Y-73997803D01*
X157801365Y-74054909D01*
X157806467Y-74075512D01*
X157814352Y-74125301D01*
X157839693Y-74175035D01*
X157871950Y-74238342D01*
X157871952Y-74238344D01*
X157871954Y-74238347D01*
X157961652Y-74328045D01*
X157961654Y-74328046D01*
X157961658Y-74328050D01*
X158074696Y-74385646D01*
X158074697Y-74385646D01*
X158074699Y-74385647D01*
X158199997Y-74405492D01*
X158200000Y-74405492D01*
X158200003Y-74405492D01*
X158325300Y-74385647D01*
X158325301Y-74385647D01*
X158325302Y-74385646D01*
X158325304Y-74385646D01*
X158438342Y-74328050D01*
X158528050Y-74238342D01*
X158585646Y-74125304D01*
X158585646Y-74125302D01*
X158585647Y-74125301D01*
X158585647Y-74125300D01*
X158605492Y-74000003D01*
X158605492Y-73999996D01*
X158585647Y-73874699D01*
X158585647Y-73874698D01*
X158577927Y-73859547D01*
X158528050Y-73761658D01*
X158528046Y-73761654D01*
X158528045Y-73761652D01*
X158450319Y-73683926D01*
X158416834Y-73622603D01*
X158414000Y-73596245D01*
X158414000Y-72970169D01*
X158414001Y-72970160D01*
X158414001Y-72870594D01*
X158414001Y-72870593D01*
X158397820Y-72831531D01*
X158381421Y-72791938D01*
X158321222Y-72731739D01*
X158321220Y-72731738D01*
X158314154Y-72724672D01*
X158314154Y-72724671D01*
X158314146Y-72724665D01*
X157244690Y-71655209D01*
X169464767Y-71655209D01*
X169483696Y-71835310D01*
X169483696Y-71835313D01*
X169483697Y-71835314D01*
X169520097Y-71971164D01*
X169530566Y-72010232D01*
X169584112Y-72130499D01*
X169604225Y-72175672D01*
X169702850Y-72327543D01*
X169702855Y-72327549D01*
X169816533Y-72453799D01*
X169824029Y-72462124D01*
X169964764Y-72576089D01*
X170554606Y-72916635D01*
X170723670Y-72981533D01*
X170900806Y-73019185D01*
X171081651Y-73028662D01*
X171261751Y-73009734D01*
X171436674Y-72962863D01*
X171602109Y-72889206D01*
X171753987Y-72790576D01*
X171888565Y-72669401D01*
X172002530Y-72528666D01*
X172093077Y-72371835D01*
X172157975Y-72202771D01*
X172195627Y-72025636D01*
X172205104Y-71844790D01*
X172186175Y-71664690D01*
X172139305Y-71489768D01*
X172065648Y-71324332D01*
X172058939Y-71314001D01*
X171967020Y-71172456D01*
X171967016Y-71172451D01*
X171845843Y-71037875D01*
X171845841Y-71037874D01*
X171705115Y-70923917D01*
X171705111Y-70923914D01*
X171705107Y-70923911D01*
X171576536Y-70849680D01*
X171115270Y-70583367D01*
X171115265Y-70583364D01*
X171011098Y-70543378D01*
X170946201Y-70518467D01*
X170845811Y-70497128D01*
X170769067Y-70480815D01*
X170769063Y-70480814D01*
X170588227Y-70471337D01*
X170588219Y-70471337D01*
X170532926Y-70477148D01*
X170408120Y-70490266D01*
X170408117Y-70490266D01*
X170408115Y-70490267D01*
X170233199Y-70537135D01*
X170067757Y-70610795D01*
X169915886Y-70709420D01*
X169915880Y-70709425D01*
X169781308Y-70830596D01*
X169667344Y-70971329D01*
X169667339Y-70971336D01*
X169576797Y-71128159D01*
X169576794Y-71128164D01*
X169511897Y-71297229D01*
X169474245Y-71474362D01*
X169474244Y-71474366D01*
X169466647Y-71619333D01*
X169464767Y-71655209D01*
X157244690Y-71655209D01*
X156556598Y-70967117D01*
X156523113Y-70905794D01*
X156528097Y-70836102D01*
X156569969Y-70780169D01*
X156635433Y-70755752D01*
X156676370Y-70759660D01*
X156773308Y-70785635D01*
X156924105Y-70798828D01*
X156999998Y-70805468D01*
X157000000Y-70805468D01*
X157000002Y-70805468D01*
X157075895Y-70798828D01*
X157226692Y-70785635D01*
X157446496Y-70726739D01*
X157652734Y-70630568D01*
X157839139Y-70500047D01*
X158000047Y-70339139D01*
X158130568Y-70152734D01*
X158226739Y-69946496D01*
X158285635Y-69726692D01*
X158305468Y-69500000D01*
X158285635Y-69273308D01*
X158226739Y-69053504D01*
X158130568Y-68847266D01*
X158012509Y-68678659D01*
X158000045Y-68660858D01*
X157839141Y-68499954D01*
X157652734Y-68369432D01*
X157652732Y-68369431D01*
X157446497Y-68273261D01*
X157446488Y-68273258D01*
X157226697Y-68214366D01*
X157226693Y-68214365D01*
X157226692Y-68214365D01*
X157226691Y-68214364D01*
X157226686Y-68214364D01*
X157000002Y-68194532D01*
X156999998Y-68194532D01*
X156773313Y-68214364D01*
X156773302Y-68214366D01*
X156553511Y-68273258D01*
X156553502Y-68273261D01*
X156347267Y-68369431D01*
X156347265Y-68369432D01*
X156160858Y-68499954D01*
X155999954Y-68660858D01*
X155869432Y-68847265D01*
X155869431Y-68847267D01*
X155773261Y-69053502D01*
X155773258Y-69053511D01*
X155714366Y-69273302D01*
X155714364Y-69273313D01*
X155694532Y-69499998D01*
X155694532Y-69500001D01*
X155714364Y-69726686D01*
X155714366Y-69726697D01*
X155740338Y-69823627D01*
X155738675Y-69893477D01*
X155699512Y-69951339D01*
X155635283Y-69978843D01*
X155566381Y-69967256D01*
X155532882Y-69943401D01*
X154571973Y-68982492D01*
X154571965Y-68982482D01*
X154501561Y-68912078D01*
X154455488Y-68892995D01*
X154455486Y-68892993D01*
X154455486Y-68892994D01*
X154422907Y-68879499D01*
X154337773Y-68879499D01*
X154323339Y-68879499D01*
X154323331Y-68879500D01*
X150685879Y-68879500D01*
X150685871Y-68879499D01*
X150671437Y-68879499D01*
X150586303Y-68879499D01*
X150586301Y-68879499D01*
X150553723Y-68892993D01*
X150553723Y-68892994D01*
X150507650Y-68912078D01*
X150507648Y-68912079D01*
X148883119Y-70536608D01*
X148883108Y-70536617D01*
X148883109Y-70536618D01*
X148818576Y-70601151D01*
X148801423Y-70642565D01*
X148801423Y-70642566D01*
X148785999Y-70679800D01*
X148785999Y-70779370D01*
X148786000Y-70779379D01*
X148786000Y-71782366D01*
X148766315Y-71849405D01*
X148749681Y-71870047D01*
X147274542Y-73345185D01*
X147213219Y-73378670D01*
X147143527Y-73373686D01*
X147130573Y-73367991D01*
X147035616Y-73319608D01*
X147025303Y-73314353D01*
X147025300Y-73314352D01*
X146900003Y-73294508D01*
X146899997Y-73294508D01*
X146774699Y-73314352D01*
X146774698Y-73314352D01*
X146731642Y-73336291D01*
X146661658Y-73371950D01*
X146661657Y-73371951D01*
X146661652Y-73371954D01*
X146571954Y-73461652D01*
X146571951Y-73461657D01*
X146514352Y-73574698D01*
X146514352Y-73574699D01*
X146494508Y-73699996D01*
X146494508Y-73700003D01*
X146514352Y-73825300D01*
X146514352Y-73825301D01*
X146514354Y-73825304D01*
X146571950Y-73938342D01*
X146571952Y-73938344D01*
X146571954Y-73938347D01*
X146661652Y-74028045D01*
X146661654Y-74028046D01*
X146661658Y-74028050D01*
X146701193Y-74048194D01*
X146751988Y-74096168D01*
X146768783Y-74163989D01*
X146746246Y-74230124D01*
X146732578Y-74246359D01*
X144929258Y-76049681D01*
X144867935Y-76083166D01*
X144841577Y-76086000D01*
X144403755Y-76086000D01*
X144336716Y-76066315D01*
X144316074Y-76049681D01*
X144238347Y-75971954D01*
X144238344Y-75971952D01*
X144238342Y-75971950D01*
X144125304Y-75914354D01*
X144125303Y-75914353D01*
X144125300Y-75914352D01*
X144000003Y-75894508D01*
X143999997Y-75894508D01*
X143874699Y-75914352D01*
X143874698Y-75914352D01*
X143818228Y-75943126D01*
X143761658Y-75971950D01*
X143761657Y-75971951D01*
X143761652Y-75971954D01*
X143671954Y-76061652D01*
X143671951Y-76061657D01*
X143671950Y-76061658D01*
X143660991Y-76083166D01*
X143614352Y-76174698D01*
X143614352Y-76174699D01*
X143594508Y-76299996D01*
X143594508Y-76300003D01*
X143614352Y-76425300D01*
X143614352Y-76425301D01*
X143624139Y-76444508D01*
X143671950Y-76538342D01*
X143671952Y-76538344D01*
X143671954Y-76538347D01*
X143761652Y-76628045D01*
X143761654Y-76628046D01*
X143761658Y-76628050D01*
X143874696Y-76685646D01*
X143874697Y-76685646D01*
X143874699Y-76685647D01*
X143999997Y-76705492D01*
X144000000Y-76705492D01*
X144000003Y-76705492D01*
X144125300Y-76685647D01*
X144125301Y-76685647D01*
X144125302Y-76685646D01*
X144125304Y-76685646D01*
X144238342Y-76628050D01*
X144266396Y-76599996D01*
X144316074Y-76550319D01*
X144377397Y-76516834D01*
X144403755Y-76514000D01*
X144524787Y-76514000D01*
X144591826Y-76533685D01*
X144637581Y-76586489D01*
X144647525Y-76655647D01*
X144618500Y-76719203D01*
X144612468Y-76725681D01*
X143876987Y-77461162D01*
X143815664Y-77494647D01*
X143789306Y-77497481D01*
X139617819Y-77497481D01*
X139550780Y-77477796D01*
X139505025Y-77424992D01*
X139495081Y-77355834D01*
X139507334Y-77317186D01*
X139509480Y-77312975D01*
X139509481Y-77312971D01*
X139529326Y-77187674D01*
X139529326Y-77187667D01*
X139509481Y-77062370D01*
X139509481Y-77062369D01*
X139505830Y-77055204D01*
X139451884Y-76949329D01*
X139451880Y-76949325D01*
X139451879Y-76949323D01*
X139362181Y-76859625D01*
X139362178Y-76859623D01*
X139362176Y-76859621D01*
X139249138Y-76802025D01*
X139249137Y-76802024D01*
X139249134Y-76802023D01*
X139140137Y-76784760D01*
X139103753Y-76770520D01*
X139103506Y-76771117D01*
X139080917Y-76761761D01*
X139080914Y-76761758D01*
X139080914Y-76761759D01*
X138990963Y-76724500D01*
X137578504Y-76724500D01*
X137511465Y-76704815D01*
X137490823Y-76688181D01*
X134878298Y-74075656D01*
X134844813Y-74014333D01*
X134849797Y-73944641D01*
X134890491Y-73889601D01*
X134912621Y-73872621D01*
X135000861Y-73757625D01*
X135056330Y-73623709D01*
X135075250Y-73480000D01*
X135056330Y-73336291D01*
X135003946Y-73209823D01*
X135000862Y-73202377D01*
X135000861Y-73202376D01*
X135000861Y-73202375D01*
X134912621Y-73087379D01*
X134797625Y-72999139D01*
X134797624Y-72999138D01*
X134797622Y-72999137D01*
X134663712Y-72943671D01*
X134663710Y-72943670D01*
X134663709Y-72943670D01*
X134562543Y-72930351D01*
X134520001Y-72924750D01*
X134519999Y-72924750D01*
X134376291Y-72943670D01*
X134376287Y-72943671D01*
X134242377Y-72999137D01*
X134127379Y-73087379D01*
X134039137Y-73202377D01*
X133983671Y-73336287D01*
X133983670Y-73336291D01*
X133967166Y-73461652D01*
X133964750Y-73480000D01*
X123316571Y-73480000D01*
X123311787Y-73437544D01*
X123311786Y-73437542D01*
X123311786Y-73437539D01*
X123257789Y-73283225D01*
X123170808Y-73144796D01*
X123055204Y-73029192D01*
X122993445Y-72990386D01*
X122916774Y-72942210D01*
X122762455Y-72888212D01*
X122600004Y-72869909D01*
X122599996Y-72869909D01*
X122437544Y-72888212D01*
X122283222Y-72942211D01*
X122236791Y-72971386D01*
X122169554Y-72990386D01*
X122102719Y-72970018D01*
X122057506Y-72916750D01*
X122048269Y-72847493D01*
X122077941Y-72784237D01*
X122083123Y-72778727D01*
X124098735Y-70763115D01*
X124154316Y-70731024D01*
X133093700Y-68335724D01*
X133125794Y-68331500D01*
X134029951Y-68331500D01*
X134096990Y-68351185D01*
X134142745Y-68403989D01*
X134152689Y-68473147D01*
X134123664Y-68536703D01*
X134117632Y-68543181D01*
X133999954Y-68660858D01*
X133869432Y-68847265D01*
X133869431Y-68847267D01*
X133773261Y-69053502D01*
X133773258Y-69053511D01*
X133714366Y-69273302D01*
X133714364Y-69273313D01*
X133694532Y-69499998D01*
X133694532Y-69500001D01*
X133714364Y-69726686D01*
X133714366Y-69726697D01*
X133735521Y-69805648D01*
X133733858Y-69875498D01*
X133694695Y-69933360D01*
X133630467Y-69960864D01*
X133561565Y-69949277D01*
X133528065Y-69925422D01*
X133521224Y-69918581D01*
X133521222Y-69918579D01*
X133465504Y-69895500D01*
X133442569Y-69885999D01*
X133442567Y-69885999D01*
X133357433Y-69885999D01*
X133342999Y-69885999D01*
X133342991Y-69886000D01*
X132995686Y-69886000D01*
X132939391Y-69872485D01*
X132938343Y-69871951D01*
X132938342Y-69871950D01*
X132825304Y-69814354D01*
X132825303Y-69814353D01*
X132825300Y-69814352D01*
X132700003Y-69794508D01*
X132699997Y-69794508D01*
X132574699Y-69814352D01*
X132574698Y-69814352D01*
X132530072Y-69837091D01*
X132461658Y-69871950D01*
X132461657Y-69871951D01*
X132461652Y-69871954D01*
X132371954Y-69961652D01*
X132371951Y-69961657D01*
X132371950Y-69961658D01*
X132354366Y-69996169D01*
X132314352Y-70074698D01*
X132314352Y-70074699D01*
X132294508Y-70199996D01*
X132294508Y-70200003D01*
X132314352Y-70325300D01*
X132314352Y-70325301D01*
X132326850Y-70349829D01*
X132371950Y-70438342D01*
X132371952Y-70438344D01*
X132371954Y-70438347D01*
X132461652Y-70528045D01*
X132461654Y-70528046D01*
X132461658Y-70528050D01*
X132574696Y-70585646D01*
X132574697Y-70585646D01*
X132574699Y-70585647D01*
X132699997Y-70605492D01*
X132700000Y-70605492D01*
X132700003Y-70605492D01*
X132825300Y-70585647D01*
X132825301Y-70585647D01*
X132825302Y-70585646D01*
X132825304Y-70585646D01*
X132938342Y-70528050D01*
X133028050Y-70438342D01*
X133049630Y-70395989D01*
X133056909Y-70381704D01*
X133104883Y-70330909D01*
X133167393Y-70314000D01*
X133259997Y-70314000D01*
X133327036Y-70333685D01*
X133347677Y-70350318D01*
X133782991Y-70785633D01*
X134211508Y-71214150D01*
X134211511Y-71214154D01*
X134218579Y-71221222D01*
X134278778Y-71281421D01*
X134301815Y-71290963D01*
X134357433Y-71314001D01*
X134357434Y-71314001D01*
X134457001Y-71314001D01*
X134457009Y-71314000D01*
X138542991Y-71314000D01*
X138542999Y-71314001D01*
X138557433Y-71314001D01*
X138642567Y-71314001D01*
X138675146Y-71300505D01*
X138721222Y-71281421D01*
X138781421Y-71221222D01*
X138781421Y-71221219D01*
X138793336Y-71209305D01*
X138793339Y-71209300D01*
X138966536Y-71036103D01*
X139027857Y-71002620D01*
X139073613Y-71001313D01*
X139099998Y-71005492D01*
X139100000Y-71005492D01*
X139100003Y-71005492D01*
X139225300Y-70985647D01*
X139225301Y-70985647D01*
X139225302Y-70985646D01*
X139225304Y-70985646D01*
X139295263Y-70950000D01*
X145616457Y-70950000D01*
X146312022Y-70950000D01*
X146267967Y-71026306D01*
X146237300Y-71140756D01*
X146237300Y-71259244D01*
X146267967Y-71373694D01*
X146312022Y-71450000D01*
X145616457Y-71450000D01*
X145627650Y-71506274D01*
X145627651Y-71506276D01*
X145706800Y-71697358D01*
X145706805Y-71697368D01*
X145821710Y-71869335D01*
X145821713Y-71869339D01*
X145967960Y-72015586D01*
X145967964Y-72015589D01*
X146139931Y-72130494D01*
X146139941Y-72130499D01*
X146331025Y-72209649D01*
X146331033Y-72209651D01*
X146533879Y-72249999D01*
X146533883Y-72250000D01*
X146737300Y-72250000D01*
X146737300Y-71650000D01*
X147237300Y-71650000D01*
X147237300Y-72250000D01*
X147440717Y-72250000D01*
X147440720Y-72249999D01*
X147643566Y-72209651D01*
X147643574Y-72209649D01*
X147834658Y-72130499D01*
X147834668Y-72130494D01*
X148006635Y-72015589D01*
X148006639Y-72015586D01*
X148152886Y-71869339D01*
X148152889Y-71869335D01*
X148267794Y-71697368D01*
X148267799Y-71697358D01*
X148346948Y-71506276D01*
X148346949Y-71506274D01*
X148358143Y-71450000D01*
X147662578Y-71450000D01*
X147706633Y-71373694D01*
X147737300Y-71259244D01*
X147737300Y-71140756D01*
X147706633Y-71026306D01*
X147662578Y-70950000D01*
X148358143Y-70950000D01*
X148346949Y-70893725D01*
X148346948Y-70893723D01*
X148267799Y-70702641D01*
X148267794Y-70702631D01*
X148152889Y-70530664D01*
X148152886Y-70530660D01*
X148006639Y-70384413D01*
X148006635Y-70384410D01*
X147834668Y-70269505D01*
X147834658Y-70269500D01*
X147643574Y-70190350D01*
X147643566Y-70190348D01*
X147440720Y-70150000D01*
X147237300Y-70150000D01*
X147237300Y-70750000D01*
X146737300Y-70750000D01*
X146737300Y-70150000D01*
X146533879Y-70150000D01*
X146331033Y-70190348D01*
X146331025Y-70190350D01*
X146139941Y-70269500D01*
X146139931Y-70269505D01*
X145967964Y-70384410D01*
X145967960Y-70384413D01*
X145821713Y-70530660D01*
X145821710Y-70530664D01*
X145706805Y-70702631D01*
X145706800Y-70702641D01*
X145627651Y-70893723D01*
X145627650Y-70893725D01*
X145616457Y-70950000D01*
X139295263Y-70950000D01*
X139338342Y-70928050D01*
X139428050Y-70838342D01*
X139485646Y-70725304D01*
X139503401Y-70613197D01*
X139533329Y-70550066D01*
X139592641Y-70513134D01*
X139645272Y-70510125D01*
X139688516Y-70516974D01*
X139688518Y-70516974D01*
X139688521Y-70516974D01*
X139813818Y-70497129D01*
X139813819Y-70497129D01*
X139813820Y-70497128D01*
X139813822Y-70497128D01*
X139926860Y-70439532D01*
X140016568Y-70349824D01*
X140074164Y-70236786D01*
X140085094Y-70167774D01*
X140115022Y-70104641D01*
X140174333Y-70067710D01*
X140188156Y-70064702D01*
X140257180Y-70053770D01*
X140370218Y-69996174D01*
X140459926Y-69906466D01*
X140517522Y-69793428D01*
X140517522Y-69793426D01*
X140517523Y-69793425D01*
X140517523Y-69793424D01*
X140537368Y-69668127D01*
X140537368Y-69668120D01*
X140517523Y-69542823D01*
X140517523Y-69542822D01*
X140517522Y-69542820D01*
X140459926Y-69429782D01*
X140459922Y-69429778D01*
X140459921Y-69429776D01*
X140370223Y-69340078D01*
X140370220Y-69340076D01*
X140370218Y-69340074D01*
X140257180Y-69282478D01*
X140257179Y-69282477D01*
X140257176Y-69282476D01*
X140131879Y-69262632D01*
X140131877Y-69262632D01*
X140131876Y-69262632D01*
X140123972Y-69263883D01*
X140105487Y-69266811D01*
X140036193Y-69257854D01*
X139998411Y-69232018D01*
X138778574Y-68012181D01*
X138745089Y-67950858D01*
X138750073Y-67881166D01*
X138791945Y-67825233D01*
X138857409Y-67800816D01*
X138866255Y-67800500D01*
X139243857Y-67800500D01*
X139251486Y-67800000D01*
X140448514Y-67800000D01*
X140456143Y-67800500D01*
X140460438Y-67800500D01*
X153139158Y-67800500D01*
X153197378Y-67793430D01*
X153415435Y-67766954D01*
X153685657Y-67700350D01*
X153945880Y-67601660D01*
X154192311Y-67472323D01*
X154421355Y-67314226D01*
X154492151Y-67251506D01*
X160042587Y-67251506D01*
X160101940Y-67929917D01*
X160101940Y-67929919D01*
X160145734Y-68105565D01*
X160216463Y-68272193D01*
X160224633Y-68285269D01*
X160224634Y-68285270D01*
X160755281Y-67652869D01*
X160774115Y-67868137D01*
X160816891Y-67985664D01*
X160888628Y-68088116D01*
X160979082Y-68164015D01*
X160556564Y-68667554D01*
X160569798Y-68678659D01*
X160569800Y-68678660D01*
X160724965Y-68771893D01*
X160892800Y-68839703D01*
X161069170Y-68880420D01*
X161249746Y-68893048D01*
X161430059Y-68877273D01*
X161430065Y-68877272D01*
X161605703Y-68833481D01*
X161772332Y-68762752D01*
X161925836Y-68666831D01*
X162062451Y-68548075D01*
X162062453Y-68548073D01*
X162073562Y-68534833D01*
X162073561Y-68534832D01*
X161570025Y-68112314D01*
X161645925Y-68021861D01*
X161698782Y-67908508D01*
X161720500Y-67785339D01*
X161701666Y-67570071D01*
X162334064Y-68100717D01*
X162334065Y-68100717D01*
X162339845Y-68086412D01*
X162380562Y-67910044D01*
X162393190Y-67729468D01*
X162333837Y-67051056D01*
X162333837Y-67051054D01*
X162290043Y-66875408D01*
X162219316Y-66708783D01*
X162211142Y-66695703D01*
X161680496Y-67328101D01*
X161661663Y-67112837D01*
X161618887Y-66995310D01*
X161547150Y-66892858D01*
X161456694Y-66816956D01*
X161879213Y-66313418D01*
X161865977Y-66302312D01*
X161865967Y-66302305D01*
X161710813Y-66209080D01*
X161542981Y-66141272D01*
X161366607Y-66100553D01*
X161186031Y-66087925D01*
X161005718Y-66103700D01*
X161005716Y-66103700D01*
X160830070Y-66147494D01*
X160663446Y-66218221D01*
X160663444Y-66218222D01*
X160509940Y-66314143D01*
X160373327Y-66432897D01*
X160373322Y-66432902D01*
X160362214Y-66446139D01*
X160362214Y-66446140D01*
X160865752Y-66868659D01*
X160789853Y-66959113D01*
X160736996Y-67072466D01*
X160715278Y-67195635D01*
X160734111Y-67410902D01*
X160101711Y-66880255D01*
X160095935Y-66894552D01*
X160095934Y-66894556D01*
X160055215Y-67070930D01*
X160042587Y-67251506D01*
X154492151Y-67251506D01*
X154629673Y-67129673D01*
X154814226Y-66921355D01*
X154972323Y-66692311D01*
X155101660Y-66445880D01*
X155200350Y-66185657D01*
X155266954Y-65915435D01*
X155300500Y-65639155D01*
X155300500Y-65500000D01*
X155300500Y-65452405D01*
X155300500Y-62270536D01*
X159606307Y-62270536D01*
X159665668Y-62949026D01*
X159665669Y-62949032D01*
X159665669Y-62949035D01*
X159665670Y-62949037D01*
X159709480Y-63124750D01*
X159780238Y-63291447D01*
X159876203Y-63445023D01*
X159926673Y-63503082D01*
X159995009Y-63581695D01*
X160035880Y-63615989D01*
X160133735Y-63698099D01*
X160133740Y-63698102D01*
X160288957Y-63791365D01*
X160288958Y-63791366D01*
X160288960Y-63791366D01*
X160288962Y-63791368D01*
X160397106Y-63835062D01*
X160456865Y-63859207D01*
X160456866Y-63859207D01*
X160456868Y-63859208D01*
X160633320Y-63899944D01*
X160813971Y-63912576D01*
X160813971Y-63912575D01*
X160813972Y-63912576D01*
X160994363Y-63896794D01*
X160994363Y-63896793D01*
X160994374Y-63896793D01*
X161170088Y-63852983D01*
X161336785Y-63782225D01*
X161490360Y-63686259D01*
X161627033Y-63567453D01*
X161743437Y-63428727D01*
X161836706Y-63273501D01*
X161904545Y-63105594D01*
X161945281Y-62929142D01*
X161957914Y-62748491D01*
X161957868Y-62747969D01*
X161898553Y-62070000D01*
X161898552Y-62069994D01*
X161898552Y-62069990D01*
X161854742Y-61894276D01*
X161783984Y-61727579D01*
X161688019Y-61574004D01*
X161569212Y-61437331D01*
X161569210Y-61437329D01*
X161569208Y-61437327D01*
X161516004Y-61392685D01*
X161430487Y-61320927D01*
X161430482Y-61320924D01*
X161430481Y-61320923D01*
X161275257Y-61227656D01*
X161107352Y-61159818D01*
X161107354Y-61159818D01*
X160930903Y-61119083D01*
X160750249Y-61106449D01*
X160605862Y-61119083D01*
X160569848Y-61122234D01*
X160569846Y-61122234D01*
X160394133Y-61166044D01*
X160227436Y-61236802D01*
X160227434Y-61236803D01*
X160073867Y-61332763D01*
X159937185Y-61451577D01*
X159820781Y-61590304D01*
X159727514Y-61745528D01*
X159659676Y-61913432D01*
X159618941Y-62089882D01*
X159606307Y-62270536D01*
X155300500Y-62270536D01*
X155300500Y-59924500D01*
X155320185Y-59857461D01*
X155372989Y-59811706D01*
X155424500Y-59800500D01*
X156254242Y-59800500D01*
X156300328Y-59800500D01*
X156303324Y-59800535D01*
G37*
%TD.AperFunction*%
%TD*%
M02*
