M48
; DRILL file {KiCad 8.0.3} date 2024-06-14T00:30:16+0900
; FORMAT={-:-/ absolute / inch / decimal}
; #@! TF.CreationDate,2024-06-14T00:30:16+09:00
; #@! TF.GenerationSoftware,Kicad,Pcbnew,8.0.3
; #@! TF.FileFunction,MixedPlating,1,2
FMAT,2
INCH
; #@! TA.AperFunction,Plated,PTH,ViaDrill
T1C0.0118
; #@! TA.AperFunction,Plated,PTH,ComponentDrill
T2C0.0138
; #@! TA.AperFunction,Plated,PTH,ViaDrill
T3C0.0157
; #@! TA.AperFunction,Plated,PTH,ComponentDrill
T4C0.0295
; #@! TA.AperFunction,Plated,PTH,ComponentDrill
T5C0.0354
; #@! TA.AperFunction,Plated,PTH,ComponentDrill
T6C0.0374
%
G90
G05
T1
X4.9354Y-3.2059
X4.939Y-3.2559
X4.9498Y-3.4567
X5.1535Y-3.5866
X5.1654Y-3.5512
X5.2244Y-2.7638
X5.2283Y-3.6063
X5.2441Y-2.7953
X5.3366Y-1.6367
X5.3484Y-1.811
X5.3484Y-2.1161
X5.3504Y-4.3543
X5.3504Y-4.4961
X5.3504Y-4.6575
X5.3543Y-4.189
X5.3602Y-1.9508
X5.3743Y-3.0672
X5.3813Y-3.9493
X5.3848Y-3.9248
X5.3858Y-2.4094
X5.3858Y-3.8661
X5.3976Y-2.3402
X5.402Y-4.6752
X5.4035Y-2.128
X5.4075Y-1.8209
X5.4094Y-3.6063
X5.4099Y-3.0595
X5.4173Y-3.8425
X5.4291Y-4.3681
X5.4724Y-3.8976
X5.4764Y-2.7795
X5.4773Y-3.0389
X5.4803Y-3.3504
X5.4995Y-2.7603
X5.517Y-2.7428
X5.5335Y-1.9552
X5.5354Y-1.6442
X5.5374Y-4.1954
X5.5394Y-3.5472
X5.5394Y-3.6063
X5.563Y-3.9409
X5.5689Y-2.3937
X5.5709Y-2.9094
X5.5787Y-3.1181
X5.5866Y-2.128
X5.5866Y-3.0354
X5.5906Y-1.815
X5.5906Y-4.6752
X5.5984Y-3.0866
X5.6024Y-4.3661
X5.6063Y-3.4409
X5.6253Y-3.1867
X5.6271Y-3.2277
X5.6299Y-3.0354
X5.6457Y-3.248
X5.6465Y-3.2044
X5.6496Y-2.8425
X5.6693Y-3.0039
X5.685Y-3.5472
X5.6933Y-3.0827
X5.6969Y-2.9764
X5.7323Y-3.0551
X5.7441Y-3.6102
X5.752Y-2.9213
X5.7677Y-3.0787
X5.7717Y-3.2008
X5.7795Y-2.9961
X5.7835Y-2.9016
X5.7992Y-3.2913
X5.811Y-3.2008
X5.8238Y-3.0127
X5.8319Y-3.076
X5.8425Y-2.9331
X5.8425Y-3.2244
X5.8504Y-3.311
X5.8523Y-3.0555
X5.8526Y-2.9656
X5.876Y-3.0413
X5.8927Y-3.4025
X5.9016Y-3.3543
X5.9055Y-3.1732
X5.9055Y-3.2598
X5.924Y-3.515
X5.9331Y-3.2303
X5.9331Y-3.6142
X5.9444Y-2.7835
X5.9528Y-3.3031
X5.9547Y-3.0193
X5.9849Y-3.1135
X5.985Y-3.0849
X5.9854Y-3.05
X5.9861Y-3.1411
X5.9921Y-2.937
X6.0118Y-3.2008
X6.0157Y-3.3543
X6.0433Y-2.9724
X6.0512Y-3.311
X6.0866Y-3.4567
X6.0984Y-3.0394
X6.0984Y-3.1181
X6.0984Y-3.1929
X6.1024Y-3.2598
X6.1024Y-3.5748
X6.1161Y-2.8935
X6.1375Y-2.8467
X6.1378Y-3.437
X6.1654Y-3.3465
X6.1693Y-3.2598
X6.1732Y-3.4189
X6.1807Y-2.9493
X6.1811Y-2.9213
X6.1969Y-3.4016
X6.2008Y-2.8976
X6.2047Y-3.1496
X6.2126Y-3.0394
X6.2126Y-3.1142
X6.2165Y-3.4213
X6.2283Y-2.9134
X6.252Y-3.5276
X6.2677Y-2.5118
X6.2756Y-3.4764
X6.2992Y-3.2441
X6.311Y-3.0433
X6.311Y-3.1142
X6.3228Y-3.5276
X6.3386Y-3.4291
X6.3386Y-3.4638
X6.3583Y-3.4465
X6.3976Y-2.4291
X6.4528Y-3.3228
X6.4567Y-3.5
X6.4606Y-2.9724
X6.4606Y-3.252
X6.4724Y-3.0354
X6.4724Y-3.122
X6.5354Y-3.1811
X6.5433Y-3.3976
X6.685Y-2.9724
X6.6929Y-3.0354
X6.6969Y-3.2283
X6.7559Y-3.0256
X6.7559Y-3.1043
X6.7559Y-3.1831
X6.7598Y-3.2618
T2
X5.3661Y-3.1299
X5.3661Y-3.1693
X5.3661Y-3.2362
X5.3661Y-3.2756
T3
X4.7559Y-3.378
X4.7795Y-3.1496
X4.8622Y-3.0748
X4.8622Y-3.2362
X4.8701Y-2.8504
X4.9291Y-3.1496
X4.9528Y-3.3701
X4.9882Y-3.0709
X5.0276Y-3.3858
X5.0315Y-3.2638
X5.0709Y-3.1063
X5.0748Y-2.8425
X5.0748Y-3.1969
X5.0906Y-3.374
X5.1063Y-2.7559
X5.1417Y-3.1929
X5.189Y-3.2559
X5.2205Y-3.3583
X5.2244Y-2.8425
X5.2717Y-3.3701
X5.2874Y-3.189
X5.2961Y-2.8929
X5.315Y-3.0394
X5.315Y-3.0827
X5.3504Y-2.252
X5.3504Y-2.4724
X5.3543Y-4.0472
X5.3681Y-3.8287
X5.4094Y-3.5472
X5.4134Y-3.4134
X5.4488Y-2.8268
X5.4488Y-2.8819
X5.4724Y-2.4016
X5.4961Y-3.3071
X5.5236Y-3.3898
X5.5276Y-2.8504
X5.5374Y-4.5025
X5.5551Y-3.1654
X5.5551Y-3.2323
X5.563Y-3.2874
X5.5748Y-2.7441
X5.6063Y-3.3504
X5.6457Y-3.2913
X5.7126Y-3.4055
X5.8228Y-2.7362
X5.9882Y-3.3307
X6.077Y-2.9318
X6.1378Y-2.3976
X6.1575Y-3.6772
X6.1575Y-3.9055
X6.1654Y-3.4567
X6.2047Y-2.5945
X6.2047Y-2.6654
X6.2402Y-2.3976
X6.2992Y-2.8425
X6.3268Y-2.9193
X6.3799Y-3.315
X6.3898Y-3.3937
X6.4094Y-3.5866
X6.4252Y-3.6929
X6.4382Y-3.0705
X6.4646Y-2.5433
X6.4685Y-2.8425
X6.4724Y-2.6654
X6.6378Y-3.2874
X6.685Y-2.689
X6.6929Y-3.1339
X6.7205Y-3.6929
X6.7244Y-2.9055
X6.7913Y-3.5787
X6.7953Y-2.7638
X6.8386Y-3.3268
X6.9213Y-3.1417
X6.9567Y-3.3071
T4
X5.2303Y-3.0197
X5.2303Y-3.0984
T5
X5.4803Y-1.6744
X5.4803Y-1.7744
X5.4803Y-1.9815
X5.4803Y-2.0815
X5.4803Y-4.2217
X5.4803Y-4.3217
X5.4803Y-4.5287
X5.4803Y-4.6287
X5.6575Y-1.6744
X5.6575Y-1.7744
X5.6575Y-1.9815
X5.6575Y-2.0815
X5.6575Y-4.2217
X5.6575Y-4.3217
X5.6575Y-4.5287
X5.6575Y-4.6287
T5
G00X5.7751Y-2.8031
M15
G01X5.7987Y-2.8031
M16
G05
G00X5.7751Y-3.4961
M15
G01X5.7987Y-3.4961
M16
G05
G00X6.0113Y-2.8031
M15
G01X6.0349Y-2.8031
M16
G05
G00X6.0113Y-3.4961
M15
G01X6.0349Y-3.4961
M16
G05
T6
G00X6.3291Y-2.4502
M15
G01X6.3309Y-2.4718
M16
G05
G00X6.3309Y-3.8274
M15
G01X6.3291Y-3.849
M16
G05
G00X6.3462Y-2.6463
M15
G01X6.3481Y-2.6679
M16
G05
G00X6.3481Y-3.6313
M15
G01X6.3462Y-3.6529
M16
G05
G00X6.7164Y-2.8194
M15
G01X6.7352Y-2.8302
M16
G05
G00X6.7352Y-3.469
M15
G01X6.7164Y-3.4798
M16
G05
G00X6.8869Y-2.9178
M15
G01X6.9056Y-2.9286
M16
G05
G00X6.9056Y-3.3706
M15
G01X6.8869Y-3.3814
M16
G05
M30
