%TF.GenerationSoftware,KiCad,Pcbnew,8.0.3*%
%TF.CreationDate,2024-06-14T00:30:10+09:00*%
%TF.ProjectId,makyi_mouse,6d616b79-695f-46d6-9f75-73652e6b6963,rev?*%
%TF.SameCoordinates,Original*%
%TF.FileFunction,Paste,Bot*%
%TF.FilePolarity,Positive*%
%FSLAX46Y46*%
G04 Gerber Fmt 4.6, Leading zero omitted, Abs format (unit mm)*
G04 Created by KiCad (PCBNEW 8.0.3) date 2024-06-14 00:30:10*
%MOMM*%
%LPD*%
G01*
G04 APERTURE LIST*
G04 Aperture macros list*
%AMRoundRect*
0 Rectangle with rounded corners*
0 $1 Rounding radius*
0 $2 $3 $4 $5 $6 $7 $8 $9 X,Y pos of 4 corners*
0 Add a 4 corners polygon primitive as box body*
4,1,4,$2,$3,$4,$5,$6,$7,$8,$9,$2,$3,0*
0 Add four circle primitives for the rounded corners*
1,1,$1+$1,$2,$3*
1,1,$1+$1,$4,$5*
1,1,$1+$1,$6,$7*
1,1,$1+$1,$8,$9*
0 Add four rect primitives between the rounded corners*
20,1,$1+$1,$2,$3,$4,$5,0*
20,1,$1+$1,$4,$5,$6,$7,0*
20,1,$1+$1,$6,$7,$8,$9,0*
20,1,$1+$1,$8,$9,$2,$3,0*%
G04 Aperture macros list end*
%ADD10R,1.500000X1.000000*%
%ADD11R,2.200000X1.200000*%
%ADD12R,1.500000X0.700000*%
%ADD13RoundRect,0.155000X0.155000X-0.212500X0.155000X0.212500X-0.155000X0.212500X-0.155000X-0.212500X0*%
%ADD14RoundRect,0.135000X0.135000X0.185000X-0.135000X0.185000X-0.135000X-0.185000X0.135000X-0.185000X0*%
%ADD15RoundRect,0.150000X-0.150000X0.512500X-0.150000X-0.512500X0.150000X-0.512500X0.150000X0.512500X0*%
%ADD16RoundRect,0.140000X-0.140000X-0.170000X0.140000X-0.170000X0.140000X0.170000X-0.140000X0.170000X0*%
%ADD17RoundRect,0.135000X-0.185000X0.135000X-0.185000X-0.135000X0.185000X-0.135000X0.185000X0.135000X0*%
%ADD18RoundRect,0.155000X-0.155000X0.212500X-0.155000X-0.212500X0.155000X-0.212500X0.155000X0.212500X0*%
G04 APERTURE END LIST*
D10*
%TO.C,J9*%
X135500000Y-51600000D03*
D11*
X135000000Y-54100000D03*
X135000000Y-49100000D03*
%TD*%
D10*
%TO.C,J7*%
X135500000Y-116300000D03*
D11*
X135000000Y-118800000D03*
X135000000Y-113800000D03*
%TD*%
%TO.C,J13*%
X135000000Y-57000000D03*
D12*
X135500000Y-59000000D03*
X135500000Y-61000000D03*
D11*
X135000000Y-63000000D03*
%TD*%
D10*
%TO.C,J2*%
X135500000Y-43800000D03*
D11*
X135000000Y-46300000D03*
X135000000Y-41300000D03*
%TD*%
D10*
%TO.C,J4*%
X135500000Y-108500000D03*
D11*
X135000000Y-111000000D03*
X135000000Y-106000000D03*
%TD*%
D13*
%TO.C,C16*%
X141300000Y-99617500D03*
X141300000Y-98482500D03*
%TD*%
D14*
%TO.C,R13*%
X142010000Y-110400000D03*
X140990000Y-110400000D03*
%TD*%
D15*
%TO.C,U6*%
X140650000Y-114362500D03*
X141600000Y-114362500D03*
X142550000Y-114362500D03*
X142550000Y-116637500D03*
X141600000Y-116637500D03*
X140650000Y-116637500D03*
%TD*%
D16*
%TO.C,C9*%
X137070000Y-43800000D03*
X138030000Y-43800000D03*
%TD*%
D14*
%TO.C,R16*%
X142010000Y-118200000D03*
X140990000Y-118200000D03*
%TD*%
D17*
%TO.C,R12*%
X137400000Y-109790000D03*
X137400000Y-110810000D03*
%TD*%
%TO.C,R18*%
X137400000Y-52890000D03*
X137400000Y-53910000D03*
%TD*%
D18*
%TO.C,C17*%
X141300000Y-61332500D03*
X141300000Y-62467500D03*
%TD*%
D14*
%TO.C,R19*%
X141710000Y-53500000D03*
X140690000Y-53500000D03*
%TD*%
D15*
%TO.C,U5*%
X140650000Y-106562500D03*
X141600000Y-106562500D03*
X142550000Y-106562500D03*
X142550000Y-108837500D03*
X141600000Y-108837500D03*
X140650000Y-108837500D03*
%TD*%
%TO.C,U7*%
X140600000Y-49662500D03*
X141550000Y-49662500D03*
X142500000Y-49662500D03*
X142500000Y-51937500D03*
X141550000Y-51937500D03*
X140600000Y-51937500D03*
%TD*%
D17*
%TO.C,R15*%
X137300000Y-117690000D03*
X137300000Y-118710000D03*
%TD*%
D14*
%TO.C,R10*%
X141760000Y-45600000D03*
X140740000Y-45600000D03*
%TD*%
D16*
%TO.C,C11*%
X137020000Y-108600000D03*
X137980000Y-108600000D03*
%TD*%
D15*
%TO.C,U4*%
X140600000Y-41762500D03*
X141550000Y-41762500D03*
X142500000Y-41762500D03*
X142500000Y-44037500D03*
X141550000Y-44037500D03*
X140600000Y-44037500D03*
%TD*%
D16*
%TO.C,C13*%
X137020000Y-116500000D03*
X137980000Y-116500000D03*
%TD*%
%TO.C,C15*%
X137120000Y-51600000D03*
X138080000Y-51600000D03*
%TD*%
D11*
%TO.C,J11*%
X135000000Y-103000000D03*
X135000000Y-103000000D03*
D12*
X135500000Y-101000000D03*
X135500000Y-99000000D03*
D11*
X135000000Y-97000000D03*
%TD*%
D17*
%TO.C,R9*%
X137050000Y-44790000D03*
X137050000Y-45810000D03*
%TD*%
M02*
