%TF.GenerationSoftware,KiCad,Pcbnew,8.0.3*%
%TF.CreationDate,2024-06-14T00:30:10+09:00*%
%TF.ProjectId,makyi_mouse,6d616b79-695f-46d6-9f75-73652e6b6963,rev?*%
%TF.SameCoordinates,Original*%
%TF.FileFunction,Paste,Top*%
%TF.FilePolarity,Positive*%
%FSLAX46Y46*%
G04 Gerber Fmt 4.6, Leading zero omitted, Abs format (unit mm)*
G04 Created by KiCad (PCBNEW 8.0.3) date 2024-06-14 00:30:10*
%MOMM*%
%LPD*%
G01*
G04 APERTURE LIST*
G04 Aperture macros list*
%AMRoundRect*
0 Rectangle with rounded corners*
0 $1 Rounding radius*
0 $2 $3 $4 $5 $6 $7 $8 $9 X,Y pos of 4 corners*
0 Add a 4 corners polygon primitive as box body*
4,1,4,$2,$3,$4,$5,$6,$7,$8,$9,$2,$3,0*
0 Add four circle primitives for the rounded corners*
1,1,$1+$1,$2,$3*
1,1,$1+$1,$4,$5*
1,1,$1+$1,$6,$7*
1,1,$1+$1,$8,$9*
0 Add four rect primitives between the rounded corners*
20,1,$1+$1,$2,$3,$4,$5,0*
20,1,$1+$1,$4,$5,$6,$7,0*
20,1,$1+$1,$6,$7,$8,$9,0*
20,1,$1+$1,$8,$9,$2,$3,0*%
%AMRotRect*
0 Rectangle, with rotation*
0 The origin of the aperture is its center*
0 $1 length*
0 $2 width*
0 $3 Rotation angle, in degrees counterclockwise*
0 Add horizontal line*
21,1,$1,$2,0,0,$3*%
%AMOutline5P*
0 Free polygon, 5 corners , with rotation*
0 The origin of the aperture is its center*
0 number of corners: always 5*
0 $1 to $10 corner X, Y*
0 $11 Rotation angle, in degrees counterclockwise*
0 create outline with 5 corners*
4,1,5,$1,$2,$3,$4,$5,$6,$7,$8,$9,$10,$1,$2,$11*%
%AMOutline6P*
0 Free polygon, 6 corners , with rotation*
0 The origin of the aperture is its center*
0 number of corners: always 6*
0 $1 to $12 corner X, Y*
0 $13 Rotation angle, in degrees counterclockwise*
0 create outline with 6 corners*
4,1,6,$1,$2,$3,$4,$5,$6,$7,$8,$9,$10,$11,$12,$1,$2,$13*%
%AMOutline7P*
0 Free polygon, 7 corners , with rotation*
0 The origin of the aperture is its center*
0 number of corners: always 7*
0 $1 to $14 corner X, Y*
0 $15 Rotation angle, in degrees counterclockwise*
0 create outline with 7 corners*
4,1,7,$1,$2,$3,$4,$5,$6,$7,$8,$9,$10,$11,$12,$13,$14,$1,$2,$15*%
%AMOutline8P*
0 Free polygon, 8 corners , with rotation*
0 The origin of the aperture is its center*
0 number of corners: always 8*
0 $1 to $16 corner X, Y*
0 $17 Rotation angle, in degrees counterclockwise*
0 create outline with 8 corners*
4,1,8,$1,$2,$3,$4,$5,$6,$7,$8,$9,$10,$11,$12,$13,$14,$15,$16,$1,$2,$17*%
G04 Aperture macros list end*
%ADD10RoundRect,0.135000X0.135000X0.185000X-0.135000X0.185000X-0.135000X-0.185000X0.135000X-0.185000X0*%
%ADD11RoundRect,0.140000X0.140000X0.170000X-0.140000X0.170000X-0.140000X-0.170000X0.140000X-0.170000X0*%
%ADD12RoundRect,0.135000X-0.135000X-0.185000X0.135000X-0.185000X0.135000X0.185000X-0.135000X0.185000X0*%
%ADD13RoundRect,0.135000X-0.185000X0.135000X-0.185000X-0.135000X0.185000X-0.135000X0.185000X0.135000X0*%
%ADD14RoundRect,0.140000X-0.170000X0.140000X-0.170000X-0.140000X0.170000X-0.140000X0.170000X0.140000X0*%
%ADD15R,1.500000X1.000000*%
%ADD16R,2.200000X1.200000*%
%ADD17RoundRect,0.140000X-0.140000X-0.170000X0.140000X-0.170000X0.140000X0.170000X-0.140000X0.170000X0*%
%ADD18RoundRect,0.160000X0.222500X0.160000X-0.222500X0.160000X-0.222500X-0.160000X0.222500X-0.160000X0*%
%ADD19RoundRect,0.150000X0.587500X0.150000X-0.587500X0.150000X-0.587500X-0.150000X0.587500X-0.150000X0*%
%ADD20RoundRect,0.225000X-0.375000X0.225000X-0.375000X-0.225000X0.375000X-0.225000X0.375000X0.225000X0*%
%ADD21RotRect,2.000000X1.000000X175.000000*%
%ADD22R,0.950000X1.170000*%
%ADD23R,0.500000X0.250000*%
%ADD24RotRect,2.000000X1.000000X120.000000*%
%ADD25RotRect,2.000000X1.000000X240.000000*%
%ADD26RoundRect,0.050000X-0.300000X-0.050000X0.300000X-0.050000X0.300000X0.050000X-0.300000X0.050000X0*%
%ADD27RoundRect,0.050000X-0.250000X-0.050000X0.250000X-0.050000X0.250000X0.050000X-0.250000X0.050000X0*%
%ADD28RoundRect,0.050000X0.050000X-0.250000X0.050000X0.250000X-0.050000X0.250000X-0.050000X-0.250000X0*%
%ADD29RoundRect,0.050000X0.250000X0.050000X-0.250000X0.050000X-0.250000X-0.050000X0.250000X-0.050000X0*%
%ADD30RoundRect,0.050000X-0.050000X0.250000X-0.050000X-0.250000X0.050000X-0.250000X0.050000X0.250000X0*%
%ADD31RoundRect,0.177500X-0.177500X0.177500X-0.177500X-0.177500X0.177500X-0.177500X0.177500X0.177500X0*%
%ADD32RoundRect,0.062500X-0.062500X0.325000X-0.062500X-0.325000X0.062500X-0.325000X0.062500X0.325000X0*%
%ADD33RoundRect,0.062500X-0.325000X0.062500X-0.325000X-0.062500X0.325000X-0.062500X0.325000X0.062500X0*%
%ADD34RoundRect,0.250000X0.650000X-0.325000X0.650000X0.325000X-0.650000X0.325000X-0.650000X-0.325000X0*%
%ADD35RoundRect,0.249999X0.395001X0.395001X-0.395001X0.395001X-0.395001X-0.395001X0.395001X-0.395001X0*%
%ADD36RoundRect,0.062500X0.400000X0.062500X-0.400000X0.062500X-0.400000X-0.062500X0.400000X-0.062500X0*%
%ADD37RoundRect,0.062500X0.062500X0.400000X-0.062500X0.400000X-0.062500X-0.400000X0.062500X-0.400000X0*%
%ADD38RoundRect,0.140000X0.170000X-0.140000X0.170000X0.140000X-0.170000X0.140000X-0.170000X-0.140000X0*%
%ADD39R,0.550000X2.000000*%
%ADD40R,0.250000X0.800000*%
%ADD41R,0.250000X0.680000*%
%ADD42Outline5P,-0.700000X0.380000X-0.280000X0.800000X0.700000X0.800000X0.700000X-0.800000X-0.700000X-0.800000X90.000000*%
%ADD43RoundRect,0.087500X0.087500X-0.225000X0.087500X0.225000X-0.087500X0.225000X-0.087500X-0.225000X0*%
%ADD44RoundRect,0.087500X0.225000X-0.087500X0.225000X0.087500X-0.225000X0.087500X-0.225000X-0.087500X0*%
%ADD45RoundRect,0.050000X0.300000X0.050000X-0.300000X0.050000X-0.300000X-0.050000X0.300000X-0.050000X0*%
%ADD46R,1.500000X0.700000*%
%ADD47RoundRect,0.150000X-0.512500X-0.150000X0.512500X-0.150000X0.512500X0.150000X-0.512500X0.150000X0*%
%ADD48RotRect,2.000000X1.000000X185.000000*%
%ADD49R,0.600000X1.500000*%
%ADD50RoundRect,0.160000X-0.222500X-0.160000X0.222500X-0.160000X0.222500X0.160000X-0.222500X0.160000X0*%
%ADD51R,2.400000X0.760000*%
%ADD52Outline5P,-0.130000X0.195000X0.000000X0.195000X0.130000X0.065000X0.130000X-0.195000X-0.130000X-0.195000X90.000000*%
%ADD53RotRect,0.500000X0.500000X135.000000*%
%ADD54Outline5P,-0.130000X0.065000X0.000000X0.195000X0.130000X0.195000X0.130000X-0.195000X-0.130000X-0.195000X90.000000*%
%ADD55Outline5P,-0.130000X0.195000X0.130000X0.195000X0.130000X-0.195000X0.000000X-0.195000X-0.130000X-0.065000X90.000000*%
%ADD56Outline5P,-0.130000X0.195000X0.130000X0.195000X0.130000X-0.065000X0.000000X-0.195000X-0.130000X-0.195000X90.000000*%
%ADD57RotRect,0.550000X2.000000X15.000000*%
%ADD58R,1.450000X2.400000*%
%ADD59R,1.200000X1.000000*%
G04 APERTURE END LIST*
D10*
%TO.C,R33*%
X138610000Y-82600000D03*
X137590000Y-82600000D03*
%TD*%
D11*
%TO.C,C18*%
X145780000Y-81800000D03*
X144820000Y-81800000D03*
%TD*%
D12*
%TO.C,R3*%
X141090000Y-76200000D03*
X142110000Y-76200000D03*
%TD*%
D13*
%TO.C,R14*%
X136900000Y-117690000D03*
X136900000Y-118710000D03*
%TD*%
D14*
%TO.C,C27*%
X131800000Y-90200000D03*
X131800000Y-91160000D03*
%TD*%
D15*
%TO.C,J9*%
X135500000Y-51600000D03*
D16*
X135000000Y-54100000D03*
X135000000Y-49100000D03*
%TD*%
D17*
%TO.C,C25*%
X163370000Y-78500000D03*
X164330000Y-78500000D03*
%TD*%
D18*
%TO.C,D8*%
X175772500Y-80800000D03*
X174627500Y-80800000D03*
%TD*%
D10*
%TO.C,R22*%
X145610000Y-82900000D03*
X144590000Y-82900000D03*
%TD*%
D19*
%TO.C,Q1*%
X131937500Y-88050000D03*
X131937500Y-86150000D03*
X130062500Y-87100000D03*
%TD*%
D20*
%TO.C,D2*%
X127800000Y-84450000D03*
X127800000Y-87750000D03*
%TD*%
D13*
%TO.C,R11*%
X137000000Y-109790000D03*
X137000000Y-110810000D03*
%TD*%
%TO.C,R5*%
X133500000Y-86790000D03*
X133500000Y-87810000D03*
%TD*%
D21*
%TO.C,J6*%
X159754757Y-94891055D03*
X162245243Y-95108945D03*
%TD*%
D11*
%TO.C,C4*%
X150730000Y-76750000D03*
X149770000Y-76750000D03*
%TD*%
D12*
%TO.C,R35*%
X134890000Y-85400000D03*
X135910000Y-85400000D03*
%TD*%
%TO.C,R25*%
X172290000Y-82800000D03*
X173310000Y-82800000D03*
%TD*%
%TO.C,R26*%
X172290000Y-80800000D03*
X173310000Y-80800000D03*
%TD*%
D22*
%TO.C,U3*%
X141050000Y-80565000D03*
X141050000Y-81935000D03*
D23*
X140100000Y-80000000D03*
X140100000Y-80500000D03*
X140100000Y-81000000D03*
X140100000Y-81500000D03*
X140100000Y-82000000D03*
X140100000Y-82500000D03*
X142000000Y-82500000D03*
X142000000Y-82000000D03*
X142000000Y-81500000D03*
X142000000Y-81000000D03*
X142000000Y-80500000D03*
X142000000Y-80000000D03*
%TD*%
D13*
%TO.C,R17*%
X136900000Y-52890000D03*
X136900000Y-53910000D03*
%TD*%
D24*
%TO.C,J3*%
X172375000Y-85917468D03*
X173625000Y-88082532D03*
%TD*%
D25*
%TO.C,J5*%
X172375000Y-74082532D03*
X173625000Y-71917468D03*
%TD*%
D26*
%TO.C,U14*%
X137650000Y-78200000D03*
D27*
X137600000Y-78600000D03*
D28*
X137800000Y-79200000D03*
X138200000Y-79200000D03*
X138600000Y-79200000D03*
D29*
X138800000Y-78600000D03*
X138800000Y-78200000D03*
D30*
X138600000Y-77600000D03*
X138200000Y-77600000D03*
X137800000Y-77600000D03*
%TD*%
D12*
%TO.C,R4*%
X141090000Y-75200000D03*
X142110000Y-75200000D03*
%TD*%
D31*
%TO.C,U9*%
X139440000Y-60560000D03*
X138560000Y-60560000D03*
X139440000Y-61440000D03*
X138560000Y-61440000D03*
D32*
X139750000Y-59537500D03*
X139250000Y-59537500D03*
X138750000Y-59537500D03*
X138250000Y-59537500D03*
D33*
X137537500Y-60250000D03*
X137537500Y-60750000D03*
X137537500Y-61250000D03*
X137537500Y-61750000D03*
D32*
X138250000Y-62462500D03*
X138750000Y-62462500D03*
X139250000Y-62462500D03*
X139750000Y-62462500D03*
D33*
X140462500Y-61750000D03*
X140462500Y-61250000D03*
X140462500Y-60750000D03*
X140462500Y-60250000D03*
%TD*%
D12*
%TO.C,R30*%
X137490000Y-80100000D03*
X138510000Y-80100000D03*
%TD*%
D34*
%TO.C,C7*%
X136600000Y-75375000D03*
X136600000Y-72425000D03*
%TD*%
D14*
%TO.C,C8*%
X141550000Y-45020000D03*
X141550000Y-45980000D03*
%TD*%
D12*
%TO.C,R7*%
X143590000Y-78800000D03*
X144610000Y-78800000D03*
%TD*%
D35*
%TO.C,U11*%
X160000000Y-82400000D03*
X160000000Y-80800000D03*
X160000000Y-79200000D03*
X160000000Y-77600000D03*
X158400000Y-82400000D03*
X158400000Y-80800000D03*
X158400000Y-79200000D03*
X158400000Y-77600000D03*
X156800000Y-82400000D03*
X156800000Y-80800000D03*
X156800000Y-79200000D03*
X156800000Y-77600000D03*
X155200000Y-82400000D03*
X155200000Y-80800000D03*
X155200000Y-79200000D03*
X155200000Y-77600000D03*
D36*
X161487500Y-83200000D03*
X161487500Y-82800000D03*
X161487500Y-82400000D03*
X161487500Y-82000000D03*
X161487500Y-81600000D03*
X161487500Y-81200000D03*
X161487500Y-80800000D03*
X161487500Y-80400000D03*
X161487500Y-80000000D03*
X161487500Y-79600000D03*
X161487500Y-79200000D03*
X161487500Y-78800000D03*
X161487500Y-78400000D03*
X161487500Y-78000000D03*
X161487500Y-77600000D03*
X161487500Y-77200000D03*
X161487500Y-76800000D03*
D37*
X160800000Y-76112500D03*
X160400000Y-76112500D03*
X160000000Y-76112500D03*
X159600000Y-76112500D03*
X159200000Y-76112500D03*
X158800000Y-76112500D03*
X158400000Y-76112500D03*
X158000000Y-76112500D03*
X157600000Y-76112500D03*
X157200000Y-76112500D03*
X156800000Y-76112500D03*
X156400000Y-76112500D03*
X156000000Y-76112500D03*
X155600000Y-76112500D03*
X155200000Y-76112500D03*
X154800000Y-76112500D03*
X154400000Y-76112500D03*
D36*
X153712500Y-76800000D03*
X153712500Y-77200000D03*
X153712500Y-77600000D03*
X153712500Y-78000000D03*
X153712500Y-78400000D03*
X153712500Y-78800000D03*
X153712500Y-79200000D03*
X153712500Y-79600000D03*
X153712500Y-80000000D03*
X153712500Y-80400000D03*
X153712500Y-80800000D03*
X153712500Y-81200000D03*
X153712500Y-81600000D03*
X153712500Y-82000000D03*
X153712500Y-82400000D03*
X153712500Y-82800000D03*
X153712500Y-83200000D03*
D37*
X154400000Y-83887500D03*
X154800000Y-83887500D03*
X155200000Y-83887500D03*
X155600000Y-83887500D03*
X156000000Y-83887500D03*
X156400000Y-83887500D03*
X156800000Y-83887500D03*
X157200000Y-83887500D03*
X157600000Y-83887500D03*
X158000000Y-83887500D03*
X158400000Y-83887500D03*
X158800000Y-83887500D03*
X159200000Y-83887500D03*
X159600000Y-83887500D03*
X160000000Y-83887500D03*
X160400000Y-83887500D03*
X160800000Y-83887500D03*
%TD*%
D10*
%TO.C,R23*%
X145610000Y-83900000D03*
X144590000Y-83900000D03*
%TD*%
D14*
%TO.C,C14*%
X141400000Y-53020000D03*
X141400000Y-53980000D03*
%TD*%
D17*
%TO.C,C22*%
X160670000Y-74750000D03*
X161630000Y-74750000D03*
%TD*%
D15*
%TO.C,J7*%
X135500000Y-116300000D03*
D16*
X135000000Y-118800000D03*
X135000000Y-113800000D03*
%TD*%
D12*
%TO.C,R20*%
X144790000Y-79800000D03*
X145810000Y-79800000D03*
%TD*%
D38*
%TO.C,C24*%
X152100000Y-84080000D03*
X152100000Y-83120000D03*
%TD*%
D12*
%TO.C,R28*%
X172290000Y-76790000D03*
X173310000Y-76790000D03*
%TD*%
D39*
%TO.C,SW2*%
X122475000Y-87800000D03*
X125725000Y-87800000D03*
%TD*%
D40*
%TO.C,U10*%
X146550000Y-85100000D03*
X147050000Y-85100000D03*
X147550000Y-85100000D03*
X148050000Y-85100000D03*
X148050000Y-82100000D03*
X147550000Y-82100000D03*
X147050000Y-82100000D03*
D41*
X146550000Y-82100000D03*
D42*
X147300000Y-83600000D03*
%TD*%
D43*
%TO.C,U2*%
X149250000Y-81162500D03*
X149750000Y-81162500D03*
X150250000Y-81162500D03*
X150750000Y-81162500D03*
D44*
X150912500Y-80500000D03*
X150912500Y-80000000D03*
X150912500Y-79500000D03*
D43*
X150750000Y-78837500D03*
X150250000Y-78837500D03*
X149750000Y-78837500D03*
X149250000Y-78837500D03*
D44*
X149087500Y-79500000D03*
X149087500Y-80000000D03*
X149087500Y-80500000D03*
%TD*%
D12*
%TO.C,R6*%
X143590000Y-77800000D03*
X144610000Y-77800000D03*
%TD*%
D45*
%TO.C,U12*%
X138450000Y-84500000D03*
D29*
X138500000Y-84100000D03*
D30*
X138300000Y-83500000D03*
X137900000Y-83500000D03*
X137500000Y-83500000D03*
D27*
X137300000Y-84100000D03*
X137300000Y-84500000D03*
D28*
X137500000Y-85100000D03*
X137900000Y-85100000D03*
X138300000Y-85100000D03*
%TD*%
D11*
%TO.C,C5*%
X150730000Y-77750000D03*
X149770000Y-77750000D03*
%TD*%
D10*
%TO.C,R31*%
X139310000Y-76500000D03*
X138290000Y-76500000D03*
%TD*%
D16*
%TO.C,J13*%
X135000000Y-57000000D03*
X135000000Y-57000000D03*
D46*
X135500000Y-59000000D03*
X135500000Y-61000000D03*
D16*
X135000000Y-63000000D03*
%TD*%
D47*
%TO.C,Q2*%
X127162500Y-72550000D03*
X127162500Y-74450000D03*
X129437500Y-73500000D03*
%TD*%
D31*
%TO.C,U8*%
X139440000Y-98560000D03*
X138560000Y-98560000D03*
X139440000Y-99440000D03*
X138560000Y-99440000D03*
D32*
X139750000Y-97537500D03*
X139250000Y-97537500D03*
X138750000Y-97537500D03*
X138250000Y-97537500D03*
D33*
X137537500Y-98250000D03*
X137537500Y-98750000D03*
X137537500Y-99250000D03*
X137537500Y-99750000D03*
D32*
X138250000Y-100462500D03*
X138750000Y-100462500D03*
X139250000Y-100462500D03*
X139750000Y-100462500D03*
D33*
X140462500Y-99750000D03*
X140462500Y-99250000D03*
X140462500Y-98750000D03*
X140462500Y-98250000D03*
%TD*%
D48*
%TO.C,J8*%
X159754757Y-65108945D03*
X162245243Y-64891055D03*
%TD*%
D15*
%TO.C,J2*%
X135500000Y-43800000D03*
D16*
X135000000Y-46300000D03*
X135000000Y-41300000D03*
%TD*%
D49*
%TO.C,J10*%
X150987300Y-70200000D03*
X148987300Y-70200000D03*
X150987300Y-72200000D03*
X148987300Y-72200000D03*
%TD*%
D10*
%TO.C,R34*%
X135910000Y-84400000D03*
X134890000Y-84400000D03*
%TD*%
D12*
%TO.C,R32*%
X135990000Y-76700000D03*
X137010000Y-76700000D03*
%TD*%
D14*
%TO.C,C26*%
X161400000Y-85220000D03*
X161400000Y-86180000D03*
%TD*%
D10*
%TO.C,R29*%
X158410000Y-87800000D03*
X157390000Y-87800000D03*
%TD*%
D34*
%TO.C,C28*%
X157000000Y-63875000D03*
X157000000Y-60925000D03*
%TD*%
D17*
%TO.C,C21*%
X162820000Y-83500000D03*
X163780000Y-83500000D03*
%TD*%
D50*
%TO.C,D1*%
X123527500Y-70900000D03*
X124672500Y-70900000D03*
%TD*%
D51*
%TO.C,J14*%
X125450000Y-83970000D03*
X121550000Y-83970000D03*
X125450000Y-82700000D03*
X121550000Y-82700000D03*
X125450000Y-81430000D03*
X121550000Y-81430000D03*
%TD*%
D14*
%TO.C,C12*%
X141500000Y-117720000D03*
X141500000Y-118680000D03*
%TD*%
D13*
%TO.C,R8*%
X136850000Y-44790000D03*
X136850000Y-45810000D03*
%TD*%
D18*
%TO.C,D10*%
X175800000Y-76810000D03*
X174655000Y-76810000D03*
%TD*%
D10*
%TO.C,R1*%
X127510000Y-71300000D03*
X126490000Y-71300000D03*
%TD*%
D38*
%TO.C,C2*%
X134000000Y-73480000D03*
X134000000Y-72520000D03*
%TD*%
D52*
%TO.C,U1*%
X132905000Y-73825000D03*
D53*
X132500000Y-73500000D03*
D54*
X132905000Y-73175000D03*
D55*
X132095000Y-73175000D03*
D56*
X132095000Y-73825000D03*
%TD*%
D38*
%TO.C,C1*%
X131000000Y-73480000D03*
X131000000Y-72520000D03*
%TD*%
D15*
%TO.C,J4*%
X135500000Y-108500000D03*
D16*
X135000000Y-111000000D03*
X135000000Y-106000000D03*
%TD*%
D18*
%TO.C,D7*%
X175800000Y-82790000D03*
X174655000Y-82790000D03*
%TD*%
D11*
%TO.C,C23*%
X154330000Y-74850000D03*
X153370000Y-74850000D03*
%TD*%
D57*
%TO.C,SW3*%
X128630371Y-70120581D03*
X131769629Y-69279419D03*
%TD*%
D49*
%TO.C,J12*%
X150987300Y-87800000D03*
X148987300Y-87800000D03*
X150987300Y-89800000D03*
X148987300Y-89800000D03*
%TD*%
D12*
%TO.C,R21*%
X144790000Y-80800000D03*
X145810000Y-80800000D03*
%TD*%
D14*
%TO.C,C19*%
X160100000Y-85190000D03*
X160100000Y-86150000D03*
%TD*%
D10*
%TO.C,R2*%
X126810000Y-70300000D03*
X125790000Y-70300000D03*
%TD*%
%TO.C,R24*%
X145610000Y-84900000D03*
X144590000Y-84900000D03*
%TD*%
D38*
%TO.C,C20*%
X155350000Y-74830000D03*
X155350000Y-73870000D03*
%TD*%
D58*
%TO.C,BZ1*%
X129775000Y-83300000D03*
X133425000Y-83300000D03*
%TD*%
D12*
%TO.C,R27*%
X172290000Y-78790000D03*
X173310000Y-78790000D03*
%TD*%
D59*
%TO.C,SW1*%
X125200000Y-72600000D03*
X125200000Y-75100000D03*
X125200000Y-77600000D03*
%TD*%
D38*
%TO.C,C3*%
X143100000Y-76280000D03*
X143100000Y-75320000D03*
%TD*%
D18*
%TO.C,D9*%
X175800000Y-78800000D03*
X174655000Y-78800000D03*
%TD*%
D14*
%TO.C,C6*%
X152050000Y-80620000D03*
X152050000Y-81580000D03*
%TD*%
%TO.C,C10*%
X141600000Y-109820000D03*
X141600000Y-110780000D03*
%TD*%
D16*
%TO.C,J11*%
X135000000Y-103000000D03*
D46*
X135500000Y-101000000D03*
X135500000Y-99000000D03*
D16*
X135000000Y-97000000D03*
%TD*%
M02*
