%TF.GenerationSoftware,KiCad,Pcbnew,8.0.3*%
%TF.CreationDate,2024-06-14T00:30:10+09:00*%
%TF.ProjectId,makyi_mouse,6d616b79-695f-46d6-9f75-73652e6b6963,rev?*%
%TF.SameCoordinates,Original*%
%TF.FileFunction,Legend,Top*%
%TF.FilePolarity,Positive*%
%FSLAX46Y46*%
G04 Gerber Fmt 4.6, Leading zero omitted, Abs format (unit mm)*
G04 Created by KiCad (PCBNEW 8.0.3) date 2024-06-14 00:30:10*
%MOMM*%
%LPD*%
G01*
G04 APERTURE LIST*
%ADD10C,0.150000*%
%ADD11C,0.100000*%
%ADD12C,0.120000*%
%ADD13C,0.200000*%
G04 APERTURE END LIST*
D10*
X177759875Y-87214285D02*
X177093208Y-87214285D01*
X177188446Y-87214285D02*
X177140827Y-87166666D01*
X177140827Y-87166666D02*
X177093208Y-87071428D01*
X177093208Y-87071428D02*
X177093208Y-86928571D01*
X177093208Y-86928571D02*
X177140827Y-86833333D01*
X177140827Y-86833333D02*
X177236065Y-86785714D01*
X177236065Y-86785714D02*
X177759875Y-86785714D01*
X177236065Y-86785714D02*
X177140827Y-86738095D01*
X177140827Y-86738095D02*
X177093208Y-86642857D01*
X177093208Y-86642857D02*
X177093208Y-86500000D01*
X177093208Y-86500000D02*
X177140827Y-86404761D01*
X177140827Y-86404761D02*
X177236065Y-86357142D01*
X177236065Y-86357142D02*
X177759875Y-86357142D01*
X177759875Y-85880952D02*
X177093208Y-85880952D01*
X177188446Y-85880952D02*
X177140827Y-85833333D01*
X177140827Y-85833333D02*
X177093208Y-85738095D01*
X177093208Y-85738095D02*
X177093208Y-85595238D01*
X177093208Y-85595238D02*
X177140827Y-85500000D01*
X177140827Y-85500000D02*
X177236065Y-85452381D01*
X177236065Y-85452381D02*
X177759875Y-85452381D01*
X177236065Y-85452381D02*
X177140827Y-85404762D01*
X177140827Y-85404762D02*
X177093208Y-85309524D01*
X177093208Y-85309524D02*
X177093208Y-85166667D01*
X177093208Y-85166667D02*
X177140827Y-85071428D01*
X177140827Y-85071428D02*
X177236065Y-85023809D01*
X177236065Y-85023809D02*
X177759875Y-85023809D01*
X177759875Y-84119048D02*
X177236065Y-84119048D01*
X177236065Y-84119048D02*
X177140827Y-84166667D01*
X177140827Y-84166667D02*
X177093208Y-84261905D01*
X177093208Y-84261905D02*
X177093208Y-84452381D01*
X177093208Y-84452381D02*
X177140827Y-84547619D01*
X177712256Y-84119048D02*
X177759875Y-84214286D01*
X177759875Y-84214286D02*
X177759875Y-84452381D01*
X177759875Y-84452381D02*
X177712256Y-84547619D01*
X177712256Y-84547619D02*
X177617017Y-84595238D01*
X177617017Y-84595238D02*
X177521779Y-84595238D01*
X177521779Y-84595238D02*
X177426541Y-84547619D01*
X177426541Y-84547619D02*
X177378922Y-84452381D01*
X177378922Y-84452381D02*
X177378922Y-84214286D01*
X177378922Y-84214286D02*
X177331303Y-84119048D01*
X177759875Y-83214286D02*
X177236065Y-83214286D01*
X177236065Y-83214286D02*
X177140827Y-83261905D01*
X177140827Y-83261905D02*
X177093208Y-83357143D01*
X177093208Y-83357143D02*
X177093208Y-83547619D01*
X177093208Y-83547619D02*
X177140827Y-83642857D01*
X177712256Y-83214286D02*
X177759875Y-83309524D01*
X177759875Y-83309524D02*
X177759875Y-83547619D01*
X177759875Y-83547619D02*
X177712256Y-83642857D01*
X177712256Y-83642857D02*
X177617017Y-83690476D01*
X177617017Y-83690476D02*
X177521779Y-83690476D01*
X177521779Y-83690476D02*
X177426541Y-83642857D01*
X177426541Y-83642857D02*
X177378922Y-83547619D01*
X177378922Y-83547619D02*
X177378922Y-83309524D01*
X177378922Y-83309524D02*
X177331303Y-83214286D01*
X177759875Y-82738095D02*
X176759875Y-82738095D01*
X177378922Y-82642857D02*
X177759875Y-82357143D01*
X177093208Y-82357143D02*
X177474160Y-82738095D01*
X177759875Y-81928571D02*
X176759875Y-81928571D01*
X177378922Y-81833333D02*
X177759875Y-81547619D01*
X177093208Y-81547619D02*
X177474160Y-81928571D01*
X177093208Y-81214285D02*
X177759875Y-80976190D01*
X177093208Y-80738095D02*
X177759875Y-80976190D01*
X177759875Y-80976190D02*
X177997970Y-81071428D01*
X177997970Y-81071428D02*
X178045589Y-81119047D01*
X178045589Y-81119047D02*
X178093208Y-81214285D01*
X177093208Y-80452380D02*
X177759875Y-80214285D01*
X177093208Y-79976190D02*
X177759875Y-80214285D01*
X177759875Y-80214285D02*
X177997970Y-80309523D01*
X177997970Y-80309523D02*
X178045589Y-80357142D01*
X178045589Y-80357142D02*
X178093208Y-80452380D01*
X177759875Y-79595237D02*
X177093208Y-79595237D01*
X176759875Y-79595237D02*
X176807494Y-79642856D01*
X176807494Y-79642856D02*
X176855113Y-79595237D01*
X176855113Y-79595237D02*
X176807494Y-79547618D01*
X176807494Y-79547618D02*
X176759875Y-79595237D01*
X176759875Y-79595237D02*
X176855113Y-79595237D01*
X177759875Y-79119047D02*
X177093208Y-79119047D01*
X176759875Y-79119047D02*
X176807494Y-79166666D01*
X176807494Y-79166666D02*
X176855113Y-79119047D01*
X176855113Y-79119047D02*
X176807494Y-79071428D01*
X176807494Y-79071428D02*
X176759875Y-79119047D01*
X176759875Y-79119047D02*
X176855113Y-79119047D01*
X177759875Y-77880952D02*
X177093208Y-77880952D01*
X177188446Y-77880952D02*
X177140827Y-77833333D01*
X177140827Y-77833333D02*
X177093208Y-77738095D01*
X177093208Y-77738095D02*
X177093208Y-77595238D01*
X177093208Y-77595238D02*
X177140827Y-77500000D01*
X177140827Y-77500000D02*
X177236065Y-77452381D01*
X177236065Y-77452381D02*
X177759875Y-77452381D01*
X177236065Y-77452381D02*
X177140827Y-77404762D01*
X177140827Y-77404762D02*
X177093208Y-77309524D01*
X177093208Y-77309524D02*
X177093208Y-77166667D01*
X177093208Y-77166667D02*
X177140827Y-77071428D01*
X177140827Y-77071428D02*
X177236065Y-77023809D01*
X177236065Y-77023809D02*
X177759875Y-77023809D01*
X177759875Y-76404762D02*
X177712256Y-76500000D01*
X177712256Y-76500000D02*
X177664636Y-76547619D01*
X177664636Y-76547619D02*
X177569398Y-76595238D01*
X177569398Y-76595238D02*
X177283684Y-76595238D01*
X177283684Y-76595238D02*
X177188446Y-76547619D01*
X177188446Y-76547619D02*
X177140827Y-76500000D01*
X177140827Y-76500000D02*
X177093208Y-76404762D01*
X177093208Y-76404762D02*
X177093208Y-76261905D01*
X177093208Y-76261905D02*
X177140827Y-76166667D01*
X177140827Y-76166667D02*
X177188446Y-76119048D01*
X177188446Y-76119048D02*
X177283684Y-76071429D01*
X177283684Y-76071429D02*
X177569398Y-76071429D01*
X177569398Y-76071429D02*
X177664636Y-76119048D01*
X177664636Y-76119048D02*
X177712256Y-76166667D01*
X177712256Y-76166667D02*
X177759875Y-76261905D01*
X177759875Y-76261905D02*
X177759875Y-76404762D01*
X177093208Y-75214286D02*
X177759875Y-75214286D01*
X177093208Y-75642857D02*
X177617017Y-75642857D01*
X177617017Y-75642857D02*
X177712256Y-75595238D01*
X177712256Y-75595238D02*
X177759875Y-75500000D01*
X177759875Y-75500000D02*
X177759875Y-75357143D01*
X177759875Y-75357143D02*
X177712256Y-75261905D01*
X177712256Y-75261905D02*
X177664636Y-75214286D01*
X177712256Y-74785714D02*
X177759875Y-74690476D01*
X177759875Y-74690476D02*
X177759875Y-74500000D01*
X177759875Y-74500000D02*
X177712256Y-74404762D01*
X177712256Y-74404762D02*
X177617017Y-74357143D01*
X177617017Y-74357143D02*
X177569398Y-74357143D01*
X177569398Y-74357143D02*
X177474160Y-74404762D01*
X177474160Y-74404762D02*
X177426541Y-74500000D01*
X177426541Y-74500000D02*
X177426541Y-74642857D01*
X177426541Y-74642857D02*
X177378922Y-74738095D01*
X177378922Y-74738095D02*
X177283684Y-74785714D01*
X177283684Y-74785714D02*
X177236065Y-74785714D01*
X177236065Y-74785714D02*
X177140827Y-74738095D01*
X177140827Y-74738095D02*
X177093208Y-74642857D01*
X177093208Y-74642857D02*
X177093208Y-74500000D01*
X177093208Y-74500000D02*
X177140827Y-74404762D01*
X177712256Y-73547619D02*
X177759875Y-73642857D01*
X177759875Y-73642857D02*
X177759875Y-73833333D01*
X177759875Y-73833333D02*
X177712256Y-73928571D01*
X177712256Y-73928571D02*
X177617017Y-73976190D01*
X177617017Y-73976190D02*
X177236065Y-73976190D01*
X177236065Y-73976190D02*
X177140827Y-73928571D01*
X177140827Y-73928571D02*
X177093208Y-73833333D01*
X177093208Y-73833333D02*
X177093208Y-73642857D01*
X177093208Y-73642857D02*
X177140827Y-73547619D01*
X177140827Y-73547619D02*
X177236065Y-73500000D01*
X177236065Y-73500000D02*
X177331303Y-73500000D01*
X177331303Y-73500000D02*
X177426541Y-73976190D01*
X178369819Y-82238094D02*
X179369819Y-81904761D01*
X179369819Y-81904761D02*
X178369819Y-81571428D01*
X178465057Y-81285713D02*
X178417438Y-81238094D01*
X178417438Y-81238094D02*
X178369819Y-81142856D01*
X178369819Y-81142856D02*
X178369819Y-80904761D01*
X178369819Y-80904761D02*
X178417438Y-80809523D01*
X178417438Y-80809523D02*
X178465057Y-80761904D01*
X178465057Y-80761904D02*
X178560295Y-80714285D01*
X178560295Y-80714285D02*
X178655533Y-80714285D01*
X178655533Y-80714285D02*
X178798390Y-80761904D01*
X178798390Y-80761904D02*
X179369819Y-81333332D01*
X179369819Y-81333332D02*
X179369819Y-80714285D01*
X179274580Y-80285713D02*
X179322200Y-80238094D01*
X179322200Y-80238094D02*
X179369819Y-80285713D01*
X179369819Y-80285713D02*
X179322200Y-80333332D01*
X179322200Y-80333332D02*
X179274580Y-80285713D01*
X179274580Y-80285713D02*
X179369819Y-80285713D01*
X178369819Y-79619047D02*
X178369819Y-79523809D01*
X178369819Y-79523809D02*
X178417438Y-79428571D01*
X178417438Y-79428571D02*
X178465057Y-79380952D01*
X178465057Y-79380952D02*
X178560295Y-79333333D01*
X178560295Y-79333333D02*
X178750771Y-79285714D01*
X178750771Y-79285714D02*
X178988866Y-79285714D01*
X178988866Y-79285714D02*
X179179342Y-79333333D01*
X179179342Y-79333333D02*
X179274580Y-79380952D01*
X179274580Y-79380952D02*
X179322200Y-79428571D01*
X179322200Y-79428571D02*
X179369819Y-79523809D01*
X179369819Y-79523809D02*
X179369819Y-79619047D01*
X179369819Y-79619047D02*
X179322200Y-79714285D01*
X179322200Y-79714285D02*
X179274580Y-79761904D01*
X179274580Y-79761904D02*
X179179342Y-79809523D01*
X179179342Y-79809523D02*
X178988866Y-79857142D01*
X178988866Y-79857142D02*
X178750771Y-79857142D01*
X178750771Y-79857142D02*
X178560295Y-79809523D01*
X178560295Y-79809523D02*
X178465057Y-79761904D01*
X178465057Y-79761904D02*
X178417438Y-79714285D01*
X178417438Y-79714285D02*
X178369819Y-79619047D01*
X179274580Y-78857142D02*
X179322200Y-78809523D01*
X179322200Y-78809523D02*
X179369819Y-78857142D01*
X179369819Y-78857142D02*
X179322200Y-78904761D01*
X179322200Y-78904761D02*
X179274580Y-78857142D01*
X179274580Y-78857142D02*
X179369819Y-78857142D01*
X178369819Y-78190476D02*
X178369819Y-78095238D01*
X178369819Y-78095238D02*
X178417438Y-78000000D01*
X178417438Y-78000000D02*
X178465057Y-77952381D01*
X178465057Y-77952381D02*
X178560295Y-77904762D01*
X178560295Y-77904762D02*
X178750771Y-77857143D01*
X178750771Y-77857143D02*
X178988866Y-77857143D01*
X178988866Y-77857143D02*
X179179342Y-77904762D01*
X179179342Y-77904762D02*
X179274580Y-77952381D01*
X179274580Y-77952381D02*
X179322200Y-78000000D01*
X179322200Y-78000000D02*
X179369819Y-78095238D01*
X179369819Y-78095238D02*
X179369819Y-78190476D01*
X179369819Y-78190476D02*
X179322200Y-78285714D01*
X179322200Y-78285714D02*
X179274580Y-78333333D01*
X179274580Y-78333333D02*
X179179342Y-78380952D01*
X179179342Y-78380952D02*
X178988866Y-78428571D01*
X178988866Y-78428571D02*
X178750771Y-78428571D01*
X178750771Y-78428571D02*
X178560295Y-78380952D01*
X178560295Y-78380952D02*
X178465057Y-78333333D01*
X178465057Y-78333333D02*
X178417438Y-78285714D01*
X178417438Y-78285714D02*
X178369819Y-78190476D01*
X120730180Y-87108207D02*
X121206371Y-86774874D01*
X120730180Y-86536779D02*
X121730180Y-86536779D01*
X121730180Y-86536779D02*
X121730180Y-86917731D01*
X121730180Y-86917731D02*
X121682561Y-87012969D01*
X121682561Y-87012969D02*
X121634942Y-87060588D01*
X121634942Y-87060588D02*
X121539704Y-87108207D01*
X121539704Y-87108207D02*
X121396847Y-87108207D01*
X121396847Y-87108207D02*
X121301609Y-87060588D01*
X121301609Y-87060588D02*
X121253990Y-87012969D01*
X121253990Y-87012969D02*
X121206371Y-86917731D01*
X121206371Y-86917731D02*
X121206371Y-86536779D01*
X120777800Y-87489160D02*
X120730180Y-87632017D01*
X120730180Y-87632017D02*
X120730180Y-87870112D01*
X120730180Y-87870112D02*
X120777800Y-87965350D01*
X120777800Y-87965350D02*
X120825419Y-88012969D01*
X120825419Y-88012969D02*
X120920657Y-88060588D01*
X120920657Y-88060588D02*
X121015895Y-88060588D01*
X121015895Y-88060588D02*
X121111133Y-88012969D01*
X121111133Y-88012969D02*
X121158752Y-87965350D01*
X121158752Y-87965350D02*
X121206371Y-87870112D01*
X121206371Y-87870112D02*
X121253990Y-87679636D01*
X121253990Y-87679636D02*
X121301609Y-87584398D01*
X121301609Y-87584398D02*
X121349228Y-87536779D01*
X121349228Y-87536779D02*
X121444466Y-87489160D01*
X121444466Y-87489160D02*
X121539704Y-87489160D01*
X121539704Y-87489160D02*
X121634942Y-87536779D01*
X121634942Y-87536779D02*
X121682561Y-87584398D01*
X121682561Y-87584398D02*
X121730180Y-87679636D01*
X121730180Y-87679636D02*
X121730180Y-87917731D01*
X121730180Y-87917731D02*
X121682561Y-88060588D01*
X121730180Y-88346303D02*
X121730180Y-88917731D01*
X120730180Y-88632017D02*
X121730180Y-88632017D01*
X139857142Y-84354819D02*
X139523809Y-83878628D01*
X139285714Y-84354819D02*
X139285714Y-83354819D01*
X139285714Y-83354819D02*
X139666666Y-83354819D01*
X139666666Y-83354819D02*
X139761904Y-83402438D01*
X139761904Y-83402438D02*
X139809523Y-83450057D01*
X139809523Y-83450057D02*
X139857142Y-83545295D01*
X139857142Y-83545295D02*
X139857142Y-83688152D01*
X139857142Y-83688152D02*
X139809523Y-83783390D01*
X139809523Y-83783390D02*
X139761904Y-83831009D01*
X139761904Y-83831009D02*
X139666666Y-83878628D01*
X139666666Y-83878628D02*
X139285714Y-83878628D01*
X140190476Y-83354819D02*
X140809523Y-83354819D01*
X140809523Y-83354819D02*
X140476190Y-83735771D01*
X140476190Y-83735771D02*
X140619047Y-83735771D01*
X140619047Y-83735771D02*
X140714285Y-83783390D01*
X140714285Y-83783390D02*
X140761904Y-83831009D01*
X140761904Y-83831009D02*
X140809523Y-83926247D01*
X140809523Y-83926247D02*
X140809523Y-84164342D01*
X140809523Y-84164342D02*
X140761904Y-84259580D01*
X140761904Y-84259580D02*
X140714285Y-84307200D01*
X140714285Y-84307200D02*
X140619047Y-84354819D01*
X140619047Y-84354819D02*
X140333333Y-84354819D01*
X140333333Y-84354819D02*
X140238095Y-84307200D01*
X140238095Y-84307200D02*
X140190476Y-84259580D01*
X141142857Y-83354819D02*
X141761904Y-83354819D01*
X141761904Y-83354819D02*
X141428571Y-83735771D01*
X141428571Y-83735771D02*
X141571428Y-83735771D01*
X141571428Y-83735771D02*
X141666666Y-83783390D01*
X141666666Y-83783390D02*
X141714285Y-83831009D01*
X141714285Y-83831009D02*
X141761904Y-83926247D01*
X141761904Y-83926247D02*
X141761904Y-84164342D01*
X141761904Y-84164342D02*
X141714285Y-84259580D01*
X141714285Y-84259580D02*
X141666666Y-84307200D01*
X141666666Y-84307200D02*
X141571428Y-84354819D01*
X141571428Y-84354819D02*
X141285714Y-84354819D01*
X141285714Y-84354819D02*
X141190476Y-84307200D01*
X141190476Y-84307200D02*
X141142857Y-84259580D01*
X143759580Y-83342857D02*
X143807200Y-83390476D01*
X143807200Y-83390476D02*
X143854819Y-83533333D01*
X143854819Y-83533333D02*
X143854819Y-83628571D01*
X143854819Y-83628571D02*
X143807200Y-83771428D01*
X143807200Y-83771428D02*
X143711961Y-83866666D01*
X143711961Y-83866666D02*
X143616723Y-83914285D01*
X143616723Y-83914285D02*
X143426247Y-83961904D01*
X143426247Y-83961904D02*
X143283390Y-83961904D01*
X143283390Y-83961904D02*
X143092914Y-83914285D01*
X143092914Y-83914285D02*
X142997676Y-83866666D01*
X142997676Y-83866666D02*
X142902438Y-83771428D01*
X142902438Y-83771428D02*
X142854819Y-83628571D01*
X142854819Y-83628571D02*
X142854819Y-83533333D01*
X142854819Y-83533333D02*
X142902438Y-83390476D01*
X142902438Y-83390476D02*
X142950057Y-83342857D01*
X143854819Y-82390476D02*
X143854819Y-82961904D01*
X143854819Y-82676190D02*
X142854819Y-82676190D01*
X142854819Y-82676190D02*
X142997676Y-82771428D01*
X142997676Y-82771428D02*
X143092914Y-82866666D01*
X143092914Y-82866666D02*
X143140533Y-82961904D01*
X143283390Y-81819047D02*
X143235771Y-81914285D01*
X143235771Y-81914285D02*
X143188152Y-81961904D01*
X143188152Y-81961904D02*
X143092914Y-82009523D01*
X143092914Y-82009523D02*
X143045295Y-82009523D01*
X143045295Y-82009523D02*
X142950057Y-81961904D01*
X142950057Y-81961904D02*
X142902438Y-81914285D01*
X142902438Y-81914285D02*
X142854819Y-81819047D01*
X142854819Y-81819047D02*
X142854819Y-81628571D01*
X142854819Y-81628571D02*
X142902438Y-81533333D01*
X142902438Y-81533333D02*
X142950057Y-81485714D01*
X142950057Y-81485714D02*
X143045295Y-81438095D01*
X143045295Y-81438095D02*
X143092914Y-81438095D01*
X143092914Y-81438095D02*
X143188152Y-81485714D01*
X143188152Y-81485714D02*
X143235771Y-81533333D01*
X143235771Y-81533333D02*
X143283390Y-81628571D01*
X143283390Y-81628571D02*
X143283390Y-81819047D01*
X143283390Y-81819047D02*
X143331009Y-81914285D01*
X143331009Y-81914285D02*
X143378628Y-81961904D01*
X143378628Y-81961904D02*
X143473866Y-82009523D01*
X143473866Y-82009523D02*
X143664342Y-82009523D01*
X143664342Y-82009523D02*
X143759580Y-81961904D01*
X143759580Y-81961904D02*
X143807200Y-81914285D01*
X143807200Y-81914285D02*
X143854819Y-81819047D01*
X143854819Y-81819047D02*
X143854819Y-81628571D01*
X143854819Y-81628571D02*
X143807200Y-81533333D01*
X143807200Y-81533333D02*
X143759580Y-81485714D01*
X143759580Y-81485714D02*
X143664342Y-81438095D01*
X143664342Y-81438095D02*
X143473866Y-81438095D01*
X143473866Y-81438095D02*
X143378628Y-81485714D01*
X143378628Y-81485714D02*
X143331009Y-81533333D01*
X143331009Y-81533333D02*
X143283390Y-81628571D01*
X143533333Y-74054819D02*
X143200000Y-73578628D01*
X142961905Y-74054819D02*
X142961905Y-73054819D01*
X142961905Y-73054819D02*
X143342857Y-73054819D01*
X143342857Y-73054819D02*
X143438095Y-73102438D01*
X143438095Y-73102438D02*
X143485714Y-73150057D01*
X143485714Y-73150057D02*
X143533333Y-73245295D01*
X143533333Y-73245295D02*
X143533333Y-73388152D01*
X143533333Y-73388152D02*
X143485714Y-73483390D01*
X143485714Y-73483390D02*
X143438095Y-73531009D01*
X143438095Y-73531009D02*
X143342857Y-73578628D01*
X143342857Y-73578628D02*
X142961905Y-73578628D01*
X143866667Y-73054819D02*
X144485714Y-73054819D01*
X144485714Y-73054819D02*
X144152381Y-73435771D01*
X144152381Y-73435771D02*
X144295238Y-73435771D01*
X144295238Y-73435771D02*
X144390476Y-73483390D01*
X144390476Y-73483390D02*
X144438095Y-73531009D01*
X144438095Y-73531009D02*
X144485714Y-73626247D01*
X144485714Y-73626247D02*
X144485714Y-73864342D01*
X144485714Y-73864342D02*
X144438095Y-73959580D01*
X144438095Y-73959580D02*
X144390476Y-74007200D01*
X144390476Y-74007200D02*
X144295238Y-74054819D01*
X144295238Y-74054819D02*
X144009524Y-74054819D01*
X144009524Y-74054819D02*
X143914286Y-74007200D01*
X143914286Y-74007200D02*
X143866667Y-73959580D01*
X131454819Y-119542857D02*
X130978628Y-119876190D01*
X131454819Y-120114285D02*
X130454819Y-120114285D01*
X130454819Y-120114285D02*
X130454819Y-119733333D01*
X130454819Y-119733333D02*
X130502438Y-119638095D01*
X130502438Y-119638095D02*
X130550057Y-119590476D01*
X130550057Y-119590476D02*
X130645295Y-119542857D01*
X130645295Y-119542857D02*
X130788152Y-119542857D01*
X130788152Y-119542857D02*
X130883390Y-119590476D01*
X130883390Y-119590476D02*
X130931009Y-119638095D01*
X130931009Y-119638095D02*
X130978628Y-119733333D01*
X130978628Y-119733333D02*
X130978628Y-120114285D01*
X131454819Y-118590476D02*
X131454819Y-119161904D01*
X131454819Y-118876190D02*
X130454819Y-118876190D01*
X130454819Y-118876190D02*
X130597676Y-118971428D01*
X130597676Y-118971428D02*
X130692914Y-119066666D01*
X130692914Y-119066666D02*
X130740533Y-119161904D01*
X130788152Y-117733333D02*
X131454819Y-117733333D01*
X130407200Y-117971428D02*
X131121485Y-118209523D01*
X131121485Y-118209523D02*
X131121485Y-117590476D01*
X129257142Y-90759580D02*
X129209523Y-90807200D01*
X129209523Y-90807200D02*
X129066666Y-90854819D01*
X129066666Y-90854819D02*
X128971428Y-90854819D01*
X128971428Y-90854819D02*
X128828571Y-90807200D01*
X128828571Y-90807200D02*
X128733333Y-90711961D01*
X128733333Y-90711961D02*
X128685714Y-90616723D01*
X128685714Y-90616723D02*
X128638095Y-90426247D01*
X128638095Y-90426247D02*
X128638095Y-90283390D01*
X128638095Y-90283390D02*
X128685714Y-90092914D01*
X128685714Y-90092914D02*
X128733333Y-89997676D01*
X128733333Y-89997676D02*
X128828571Y-89902438D01*
X128828571Y-89902438D02*
X128971428Y-89854819D01*
X128971428Y-89854819D02*
X129066666Y-89854819D01*
X129066666Y-89854819D02*
X129209523Y-89902438D01*
X129209523Y-89902438D02*
X129257142Y-89950057D01*
X129638095Y-89950057D02*
X129685714Y-89902438D01*
X129685714Y-89902438D02*
X129780952Y-89854819D01*
X129780952Y-89854819D02*
X130019047Y-89854819D01*
X130019047Y-89854819D02*
X130114285Y-89902438D01*
X130114285Y-89902438D02*
X130161904Y-89950057D01*
X130161904Y-89950057D02*
X130209523Y-90045295D01*
X130209523Y-90045295D02*
X130209523Y-90140533D01*
X130209523Y-90140533D02*
X130161904Y-90283390D01*
X130161904Y-90283390D02*
X129590476Y-90854819D01*
X129590476Y-90854819D02*
X130209523Y-90854819D01*
X130542857Y-89854819D02*
X131209523Y-89854819D01*
X131209523Y-89854819D02*
X130780952Y-90854819D01*
X132454819Y-51933333D02*
X133169104Y-51933333D01*
X133169104Y-51933333D02*
X133311961Y-51980952D01*
X133311961Y-51980952D02*
X133407200Y-52076190D01*
X133407200Y-52076190D02*
X133454819Y-52219047D01*
X133454819Y-52219047D02*
X133454819Y-52314285D01*
X133454819Y-51409523D02*
X133454819Y-51219047D01*
X133454819Y-51219047D02*
X133407200Y-51123809D01*
X133407200Y-51123809D02*
X133359580Y-51076190D01*
X133359580Y-51076190D02*
X133216723Y-50980952D01*
X133216723Y-50980952D02*
X133026247Y-50933333D01*
X133026247Y-50933333D02*
X132645295Y-50933333D01*
X132645295Y-50933333D02*
X132550057Y-50980952D01*
X132550057Y-50980952D02*
X132502438Y-51028571D01*
X132502438Y-51028571D02*
X132454819Y-51123809D01*
X132454819Y-51123809D02*
X132454819Y-51314285D01*
X132454819Y-51314285D02*
X132502438Y-51409523D01*
X132502438Y-51409523D02*
X132550057Y-51457142D01*
X132550057Y-51457142D02*
X132645295Y-51504761D01*
X132645295Y-51504761D02*
X132883390Y-51504761D01*
X132883390Y-51504761D02*
X132978628Y-51457142D01*
X132978628Y-51457142D02*
X133026247Y-51409523D01*
X133026247Y-51409523D02*
X133073866Y-51314285D01*
X133073866Y-51314285D02*
X133073866Y-51123809D01*
X133073866Y-51123809D02*
X133026247Y-51028571D01*
X133026247Y-51028571D02*
X132978628Y-50980952D01*
X132978628Y-50980952D02*
X132883390Y-50933333D01*
X163207142Y-77699580D02*
X163159523Y-77747200D01*
X163159523Y-77747200D02*
X163016666Y-77794819D01*
X163016666Y-77794819D02*
X162921428Y-77794819D01*
X162921428Y-77794819D02*
X162778571Y-77747200D01*
X162778571Y-77747200D02*
X162683333Y-77651961D01*
X162683333Y-77651961D02*
X162635714Y-77556723D01*
X162635714Y-77556723D02*
X162588095Y-77366247D01*
X162588095Y-77366247D02*
X162588095Y-77223390D01*
X162588095Y-77223390D02*
X162635714Y-77032914D01*
X162635714Y-77032914D02*
X162683333Y-76937676D01*
X162683333Y-76937676D02*
X162778571Y-76842438D01*
X162778571Y-76842438D02*
X162921428Y-76794819D01*
X162921428Y-76794819D02*
X163016666Y-76794819D01*
X163016666Y-76794819D02*
X163159523Y-76842438D01*
X163159523Y-76842438D02*
X163207142Y-76890057D01*
X163588095Y-76890057D02*
X163635714Y-76842438D01*
X163635714Y-76842438D02*
X163730952Y-76794819D01*
X163730952Y-76794819D02*
X163969047Y-76794819D01*
X163969047Y-76794819D02*
X164064285Y-76842438D01*
X164064285Y-76842438D02*
X164111904Y-76890057D01*
X164111904Y-76890057D02*
X164159523Y-76985295D01*
X164159523Y-76985295D02*
X164159523Y-77080533D01*
X164159523Y-77080533D02*
X164111904Y-77223390D01*
X164111904Y-77223390D02*
X163540476Y-77794819D01*
X163540476Y-77794819D02*
X164159523Y-77794819D01*
X165064285Y-76794819D02*
X164588095Y-76794819D01*
X164588095Y-76794819D02*
X164540476Y-77271009D01*
X164540476Y-77271009D02*
X164588095Y-77223390D01*
X164588095Y-77223390D02*
X164683333Y-77175771D01*
X164683333Y-77175771D02*
X164921428Y-77175771D01*
X164921428Y-77175771D02*
X165016666Y-77223390D01*
X165016666Y-77223390D02*
X165064285Y-77271009D01*
X165064285Y-77271009D02*
X165111904Y-77366247D01*
X165111904Y-77366247D02*
X165111904Y-77604342D01*
X165111904Y-77604342D02*
X165064285Y-77699580D01*
X165064285Y-77699580D02*
X165016666Y-77747200D01*
X165016666Y-77747200D02*
X164921428Y-77794819D01*
X164921428Y-77794819D02*
X164683333Y-77794819D01*
X164683333Y-77794819D02*
X164588095Y-77747200D01*
X164588095Y-77747200D02*
X164540476Y-77699580D01*
X146449942Y-116404761D02*
X146497561Y-116309523D01*
X146497561Y-116309523D02*
X146592800Y-116214285D01*
X146592800Y-116214285D02*
X146735657Y-116071428D01*
X146735657Y-116071428D02*
X146783276Y-115976190D01*
X146783276Y-115976190D02*
X146783276Y-115880952D01*
X146545180Y-115928571D02*
X146592800Y-115833333D01*
X146592800Y-115833333D02*
X146688038Y-115738095D01*
X146688038Y-115738095D02*
X146878514Y-115690476D01*
X146878514Y-115690476D02*
X147211847Y-115690476D01*
X147211847Y-115690476D02*
X147402323Y-115738095D01*
X147402323Y-115738095D02*
X147497561Y-115833333D01*
X147497561Y-115833333D02*
X147545180Y-115928571D01*
X147545180Y-115928571D02*
X147545180Y-116119047D01*
X147545180Y-116119047D02*
X147497561Y-116214285D01*
X147497561Y-116214285D02*
X147402323Y-116309523D01*
X147402323Y-116309523D02*
X147211847Y-116357142D01*
X147211847Y-116357142D02*
X146878514Y-116357142D01*
X146878514Y-116357142D02*
X146688038Y-116309523D01*
X146688038Y-116309523D02*
X146592800Y-116214285D01*
X146592800Y-116214285D02*
X146545180Y-116119047D01*
X146545180Y-116119047D02*
X146545180Y-115928571D01*
X147545180Y-117261904D02*
X147545180Y-116785714D01*
X147545180Y-116785714D02*
X147068990Y-116738095D01*
X147068990Y-116738095D02*
X147116609Y-116785714D01*
X147116609Y-116785714D02*
X147164228Y-116880952D01*
X147164228Y-116880952D02*
X147164228Y-117119047D01*
X147164228Y-117119047D02*
X147116609Y-117214285D01*
X147116609Y-117214285D02*
X147068990Y-117261904D01*
X147068990Y-117261904D02*
X146973752Y-117309523D01*
X146973752Y-117309523D02*
X146735657Y-117309523D01*
X146735657Y-117309523D02*
X146640419Y-117261904D01*
X146640419Y-117261904D02*
X146592800Y-117214285D01*
X146592800Y-117214285D02*
X146545180Y-117119047D01*
X146545180Y-117119047D02*
X146545180Y-116880952D01*
X146545180Y-116880952D02*
X146592800Y-116785714D01*
X146592800Y-116785714D02*
X146640419Y-116738095D01*
X168861905Y-81254819D02*
X168861905Y-80254819D01*
X168861905Y-80254819D02*
X169100000Y-80254819D01*
X169100000Y-80254819D02*
X169242857Y-80302438D01*
X169242857Y-80302438D02*
X169338095Y-80397676D01*
X169338095Y-80397676D02*
X169385714Y-80492914D01*
X169385714Y-80492914D02*
X169433333Y-80683390D01*
X169433333Y-80683390D02*
X169433333Y-80826247D01*
X169433333Y-80826247D02*
X169385714Y-81016723D01*
X169385714Y-81016723D02*
X169338095Y-81111961D01*
X169338095Y-81111961D02*
X169242857Y-81207200D01*
X169242857Y-81207200D02*
X169100000Y-81254819D01*
X169100000Y-81254819D02*
X168861905Y-81254819D01*
X170004762Y-80683390D02*
X169909524Y-80635771D01*
X169909524Y-80635771D02*
X169861905Y-80588152D01*
X169861905Y-80588152D02*
X169814286Y-80492914D01*
X169814286Y-80492914D02*
X169814286Y-80445295D01*
X169814286Y-80445295D02*
X169861905Y-80350057D01*
X169861905Y-80350057D02*
X169909524Y-80302438D01*
X169909524Y-80302438D02*
X170004762Y-80254819D01*
X170004762Y-80254819D02*
X170195238Y-80254819D01*
X170195238Y-80254819D02*
X170290476Y-80302438D01*
X170290476Y-80302438D02*
X170338095Y-80350057D01*
X170338095Y-80350057D02*
X170385714Y-80445295D01*
X170385714Y-80445295D02*
X170385714Y-80492914D01*
X170385714Y-80492914D02*
X170338095Y-80588152D01*
X170338095Y-80588152D02*
X170290476Y-80635771D01*
X170290476Y-80635771D02*
X170195238Y-80683390D01*
X170195238Y-80683390D02*
X170004762Y-80683390D01*
X170004762Y-80683390D02*
X169909524Y-80731009D01*
X169909524Y-80731009D02*
X169861905Y-80778628D01*
X169861905Y-80778628D02*
X169814286Y-80873866D01*
X169814286Y-80873866D02*
X169814286Y-81064342D01*
X169814286Y-81064342D02*
X169861905Y-81159580D01*
X169861905Y-81159580D02*
X169909524Y-81207200D01*
X169909524Y-81207200D02*
X170004762Y-81254819D01*
X170004762Y-81254819D02*
X170195238Y-81254819D01*
X170195238Y-81254819D02*
X170290476Y-81207200D01*
X170290476Y-81207200D02*
X170338095Y-81159580D01*
X170338095Y-81159580D02*
X170385714Y-81064342D01*
X170385714Y-81064342D02*
X170385714Y-80873866D01*
X170385714Y-80873866D02*
X170338095Y-80778628D01*
X170338095Y-80778628D02*
X170290476Y-80731009D01*
X170290476Y-80731009D02*
X170195238Y-80683390D01*
X143257142Y-86954819D02*
X142923809Y-86478628D01*
X142685714Y-86954819D02*
X142685714Y-85954819D01*
X142685714Y-85954819D02*
X143066666Y-85954819D01*
X143066666Y-85954819D02*
X143161904Y-86002438D01*
X143161904Y-86002438D02*
X143209523Y-86050057D01*
X143209523Y-86050057D02*
X143257142Y-86145295D01*
X143257142Y-86145295D02*
X143257142Y-86288152D01*
X143257142Y-86288152D02*
X143209523Y-86383390D01*
X143209523Y-86383390D02*
X143161904Y-86431009D01*
X143161904Y-86431009D02*
X143066666Y-86478628D01*
X143066666Y-86478628D02*
X142685714Y-86478628D01*
X143638095Y-86050057D02*
X143685714Y-86002438D01*
X143685714Y-86002438D02*
X143780952Y-85954819D01*
X143780952Y-85954819D02*
X144019047Y-85954819D01*
X144019047Y-85954819D02*
X144114285Y-86002438D01*
X144114285Y-86002438D02*
X144161904Y-86050057D01*
X144161904Y-86050057D02*
X144209523Y-86145295D01*
X144209523Y-86145295D02*
X144209523Y-86240533D01*
X144209523Y-86240533D02*
X144161904Y-86383390D01*
X144161904Y-86383390D02*
X143590476Y-86954819D01*
X143590476Y-86954819D02*
X144209523Y-86954819D01*
X144590476Y-86050057D02*
X144638095Y-86002438D01*
X144638095Y-86002438D02*
X144733333Y-85954819D01*
X144733333Y-85954819D02*
X144971428Y-85954819D01*
X144971428Y-85954819D02*
X145066666Y-86002438D01*
X145066666Y-86002438D02*
X145114285Y-86050057D01*
X145114285Y-86050057D02*
X145161904Y-86145295D01*
X145161904Y-86145295D02*
X145161904Y-86240533D01*
X145161904Y-86240533D02*
X145114285Y-86383390D01*
X145114285Y-86383390D02*
X144542857Y-86954819D01*
X144542857Y-86954819D02*
X145161904Y-86954819D01*
X129304761Y-89650057D02*
X129209523Y-89602438D01*
X129209523Y-89602438D02*
X129114285Y-89507200D01*
X129114285Y-89507200D02*
X128971428Y-89364342D01*
X128971428Y-89364342D02*
X128876190Y-89316723D01*
X128876190Y-89316723D02*
X128780952Y-89316723D01*
X128828571Y-89554819D02*
X128733333Y-89507200D01*
X128733333Y-89507200D02*
X128638095Y-89411961D01*
X128638095Y-89411961D02*
X128590476Y-89221485D01*
X128590476Y-89221485D02*
X128590476Y-88888152D01*
X128590476Y-88888152D02*
X128638095Y-88697676D01*
X128638095Y-88697676D02*
X128733333Y-88602438D01*
X128733333Y-88602438D02*
X128828571Y-88554819D01*
X128828571Y-88554819D02*
X129019047Y-88554819D01*
X129019047Y-88554819D02*
X129114285Y-88602438D01*
X129114285Y-88602438D02*
X129209523Y-88697676D01*
X129209523Y-88697676D02*
X129257142Y-88888152D01*
X129257142Y-88888152D02*
X129257142Y-89221485D01*
X129257142Y-89221485D02*
X129209523Y-89411961D01*
X129209523Y-89411961D02*
X129114285Y-89507200D01*
X129114285Y-89507200D02*
X129019047Y-89554819D01*
X129019047Y-89554819D02*
X128828571Y-89554819D01*
X130209523Y-89554819D02*
X129638095Y-89554819D01*
X129923809Y-89554819D02*
X129923809Y-88554819D01*
X129923809Y-88554819D02*
X129828571Y-88697676D01*
X129828571Y-88697676D02*
X129733333Y-88792914D01*
X129733333Y-88792914D02*
X129638095Y-88840533D01*
X128254819Y-90138094D02*
X127254819Y-90138094D01*
X127254819Y-90138094D02*
X127254819Y-89899999D01*
X127254819Y-89899999D02*
X127302438Y-89757142D01*
X127302438Y-89757142D02*
X127397676Y-89661904D01*
X127397676Y-89661904D02*
X127492914Y-89614285D01*
X127492914Y-89614285D02*
X127683390Y-89566666D01*
X127683390Y-89566666D02*
X127826247Y-89566666D01*
X127826247Y-89566666D02*
X128016723Y-89614285D01*
X128016723Y-89614285D02*
X128111961Y-89661904D01*
X128111961Y-89661904D02*
X128207200Y-89757142D01*
X128207200Y-89757142D02*
X128254819Y-89899999D01*
X128254819Y-89899999D02*
X128254819Y-90138094D01*
X127350057Y-89185713D02*
X127302438Y-89138094D01*
X127302438Y-89138094D02*
X127254819Y-89042856D01*
X127254819Y-89042856D02*
X127254819Y-88804761D01*
X127254819Y-88804761D02*
X127302438Y-88709523D01*
X127302438Y-88709523D02*
X127350057Y-88661904D01*
X127350057Y-88661904D02*
X127445295Y-88614285D01*
X127445295Y-88614285D02*
X127540533Y-88614285D01*
X127540533Y-88614285D02*
X127683390Y-88661904D01*
X127683390Y-88661904D02*
X128254819Y-89233332D01*
X128254819Y-89233332D02*
X128254819Y-88614285D01*
X133254819Y-111542857D02*
X132778628Y-111876190D01*
X133254819Y-112114285D02*
X132254819Y-112114285D01*
X132254819Y-112114285D02*
X132254819Y-111733333D01*
X132254819Y-111733333D02*
X132302438Y-111638095D01*
X132302438Y-111638095D02*
X132350057Y-111590476D01*
X132350057Y-111590476D02*
X132445295Y-111542857D01*
X132445295Y-111542857D02*
X132588152Y-111542857D01*
X132588152Y-111542857D02*
X132683390Y-111590476D01*
X132683390Y-111590476D02*
X132731009Y-111638095D01*
X132731009Y-111638095D02*
X132778628Y-111733333D01*
X132778628Y-111733333D02*
X132778628Y-112114285D01*
X133254819Y-110590476D02*
X133254819Y-111161904D01*
X133254819Y-110876190D02*
X132254819Y-110876190D01*
X132254819Y-110876190D02*
X132397676Y-110971428D01*
X132397676Y-110971428D02*
X132492914Y-111066666D01*
X132492914Y-111066666D02*
X132540533Y-111161904D01*
X133254819Y-109638095D02*
X133254819Y-110209523D01*
X133254819Y-109923809D02*
X132254819Y-109923809D01*
X132254819Y-109923809D02*
X132397676Y-110019047D01*
X132397676Y-110019047D02*
X132492914Y-110114285D01*
X132492914Y-110114285D02*
X132540533Y-110209523D01*
X148045180Y-107961905D02*
X149045180Y-107961905D01*
X149045180Y-107961905D02*
X149045180Y-108200000D01*
X149045180Y-108200000D02*
X148997561Y-108342857D01*
X148997561Y-108342857D02*
X148902323Y-108438095D01*
X148902323Y-108438095D02*
X148807085Y-108485714D01*
X148807085Y-108485714D02*
X148616609Y-108533333D01*
X148616609Y-108533333D02*
X148473752Y-108533333D01*
X148473752Y-108533333D02*
X148283276Y-108485714D01*
X148283276Y-108485714D02*
X148188038Y-108438095D01*
X148188038Y-108438095D02*
X148092800Y-108342857D01*
X148092800Y-108342857D02*
X148045180Y-108200000D01*
X148045180Y-108200000D02*
X148045180Y-107961905D01*
X148711847Y-109390476D02*
X148045180Y-109390476D01*
X149092800Y-109152381D02*
X148378514Y-108914286D01*
X148378514Y-108914286D02*
X148378514Y-109533333D01*
X135054819Y-87466666D02*
X134578628Y-87799999D01*
X135054819Y-88038094D02*
X134054819Y-88038094D01*
X134054819Y-88038094D02*
X134054819Y-87657142D01*
X134054819Y-87657142D02*
X134102438Y-87561904D01*
X134102438Y-87561904D02*
X134150057Y-87514285D01*
X134150057Y-87514285D02*
X134245295Y-87466666D01*
X134245295Y-87466666D02*
X134388152Y-87466666D01*
X134388152Y-87466666D02*
X134483390Y-87514285D01*
X134483390Y-87514285D02*
X134531009Y-87561904D01*
X134531009Y-87561904D02*
X134578628Y-87657142D01*
X134578628Y-87657142D02*
X134578628Y-88038094D01*
X134054819Y-86561904D02*
X134054819Y-87038094D01*
X134054819Y-87038094D02*
X134531009Y-87085713D01*
X134531009Y-87085713D02*
X134483390Y-87038094D01*
X134483390Y-87038094D02*
X134435771Y-86942856D01*
X134435771Y-86942856D02*
X134435771Y-86704761D01*
X134435771Y-86704761D02*
X134483390Y-86609523D01*
X134483390Y-86609523D02*
X134531009Y-86561904D01*
X134531009Y-86561904D02*
X134626247Y-86514285D01*
X134626247Y-86514285D02*
X134864342Y-86514285D01*
X134864342Y-86514285D02*
X134959580Y-86561904D01*
X134959580Y-86561904D02*
X135007200Y-86609523D01*
X135007200Y-86609523D02*
X135054819Y-86704761D01*
X135054819Y-86704761D02*
X135054819Y-86942856D01*
X135054819Y-86942856D02*
X135007200Y-87038094D01*
X135007200Y-87038094D02*
X134959580Y-87085713D01*
X158127841Y-97084549D02*
X158839409Y-97146803D01*
X158839409Y-97146803D02*
X158977572Y-97206692D01*
X158977572Y-97206692D02*
X159064147Y-97309868D01*
X159064147Y-97309868D02*
X159099134Y-97456332D01*
X159099134Y-97456332D02*
X159090834Y-97551207D01*
X158206696Y-96183230D02*
X158190095Y-96372981D01*
X158190095Y-96372981D02*
X158229233Y-96472007D01*
X158229233Y-96472007D02*
X158272520Y-96523595D01*
X158272520Y-96523595D02*
X158406533Y-96630922D01*
X158406533Y-96630922D02*
X158592134Y-96694961D01*
X158592134Y-96694961D02*
X158971637Y-96728163D01*
X158971637Y-96728163D02*
X159070663Y-96689025D01*
X159070663Y-96689025D02*
X159122251Y-96645738D01*
X159122251Y-96645738D02*
X159177989Y-96555012D01*
X159177989Y-96555012D02*
X159194591Y-96365261D01*
X159194591Y-96365261D02*
X159155453Y-96266235D01*
X159155453Y-96266235D02*
X159112166Y-96214647D01*
X159112166Y-96214647D02*
X159021440Y-96158909D01*
X159021440Y-96158909D02*
X158784251Y-96138157D01*
X158784251Y-96138157D02*
X158685225Y-96177295D01*
X158685225Y-96177295D02*
X158633637Y-96220582D01*
X158633637Y-96220582D02*
X158577899Y-96311308D01*
X158577899Y-96311308D02*
X158561298Y-96501059D01*
X158561298Y-96501059D02*
X158600435Y-96600085D01*
X158600435Y-96600085D02*
X158643722Y-96651673D01*
X158643722Y-96651673D02*
X158734448Y-96707411D01*
X148133333Y-75459580D02*
X148085714Y-75507200D01*
X148085714Y-75507200D02*
X147942857Y-75554819D01*
X147942857Y-75554819D02*
X147847619Y-75554819D01*
X147847619Y-75554819D02*
X147704762Y-75507200D01*
X147704762Y-75507200D02*
X147609524Y-75411961D01*
X147609524Y-75411961D02*
X147561905Y-75316723D01*
X147561905Y-75316723D02*
X147514286Y-75126247D01*
X147514286Y-75126247D02*
X147514286Y-74983390D01*
X147514286Y-74983390D02*
X147561905Y-74792914D01*
X147561905Y-74792914D02*
X147609524Y-74697676D01*
X147609524Y-74697676D02*
X147704762Y-74602438D01*
X147704762Y-74602438D02*
X147847619Y-74554819D01*
X147847619Y-74554819D02*
X147942857Y-74554819D01*
X147942857Y-74554819D02*
X148085714Y-74602438D01*
X148085714Y-74602438D02*
X148133333Y-74650057D01*
X148990476Y-74888152D02*
X148990476Y-75554819D01*
X148752381Y-74507200D02*
X148514286Y-75221485D01*
X148514286Y-75221485D02*
X149133333Y-75221485D01*
X135857142Y-88254819D02*
X135523809Y-87778628D01*
X135285714Y-88254819D02*
X135285714Y-87254819D01*
X135285714Y-87254819D02*
X135666666Y-87254819D01*
X135666666Y-87254819D02*
X135761904Y-87302438D01*
X135761904Y-87302438D02*
X135809523Y-87350057D01*
X135809523Y-87350057D02*
X135857142Y-87445295D01*
X135857142Y-87445295D02*
X135857142Y-87588152D01*
X135857142Y-87588152D02*
X135809523Y-87683390D01*
X135809523Y-87683390D02*
X135761904Y-87731009D01*
X135761904Y-87731009D02*
X135666666Y-87778628D01*
X135666666Y-87778628D02*
X135285714Y-87778628D01*
X136190476Y-87254819D02*
X136809523Y-87254819D01*
X136809523Y-87254819D02*
X136476190Y-87635771D01*
X136476190Y-87635771D02*
X136619047Y-87635771D01*
X136619047Y-87635771D02*
X136714285Y-87683390D01*
X136714285Y-87683390D02*
X136761904Y-87731009D01*
X136761904Y-87731009D02*
X136809523Y-87826247D01*
X136809523Y-87826247D02*
X136809523Y-88064342D01*
X136809523Y-88064342D02*
X136761904Y-88159580D01*
X136761904Y-88159580D02*
X136714285Y-88207200D01*
X136714285Y-88207200D02*
X136619047Y-88254819D01*
X136619047Y-88254819D02*
X136333333Y-88254819D01*
X136333333Y-88254819D02*
X136238095Y-88207200D01*
X136238095Y-88207200D02*
X136190476Y-88159580D01*
X137714285Y-87254819D02*
X137238095Y-87254819D01*
X137238095Y-87254819D02*
X137190476Y-87731009D01*
X137190476Y-87731009D02*
X137238095Y-87683390D01*
X137238095Y-87683390D02*
X137333333Y-87635771D01*
X137333333Y-87635771D02*
X137571428Y-87635771D01*
X137571428Y-87635771D02*
X137666666Y-87683390D01*
X137666666Y-87683390D02*
X137714285Y-87731009D01*
X137714285Y-87731009D02*
X137761904Y-87826247D01*
X137761904Y-87826247D02*
X137761904Y-88064342D01*
X137761904Y-88064342D02*
X137714285Y-88159580D01*
X137714285Y-88159580D02*
X137666666Y-88207200D01*
X137666666Y-88207200D02*
X137571428Y-88254819D01*
X137571428Y-88254819D02*
X137333333Y-88254819D01*
X137333333Y-88254819D02*
X137238095Y-88207200D01*
X137238095Y-88207200D02*
X137190476Y-88159580D01*
X166557142Y-83304819D02*
X166223809Y-82828628D01*
X165985714Y-83304819D02*
X165985714Y-82304819D01*
X165985714Y-82304819D02*
X166366666Y-82304819D01*
X166366666Y-82304819D02*
X166461904Y-82352438D01*
X166461904Y-82352438D02*
X166509523Y-82400057D01*
X166509523Y-82400057D02*
X166557142Y-82495295D01*
X166557142Y-82495295D02*
X166557142Y-82638152D01*
X166557142Y-82638152D02*
X166509523Y-82733390D01*
X166509523Y-82733390D02*
X166461904Y-82781009D01*
X166461904Y-82781009D02*
X166366666Y-82828628D01*
X166366666Y-82828628D02*
X165985714Y-82828628D01*
X166938095Y-82400057D02*
X166985714Y-82352438D01*
X166985714Y-82352438D02*
X167080952Y-82304819D01*
X167080952Y-82304819D02*
X167319047Y-82304819D01*
X167319047Y-82304819D02*
X167414285Y-82352438D01*
X167414285Y-82352438D02*
X167461904Y-82400057D01*
X167461904Y-82400057D02*
X167509523Y-82495295D01*
X167509523Y-82495295D02*
X167509523Y-82590533D01*
X167509523Y-82590533D02*
X167461904Y-82733390D01*
X167461904Y-82733390D02*
X166890476Y-83304819D01*
X166890476Y-83304819D02*
X167509523Y-83304819D01*
X168414285Y-82304819D02*
X167938095Y-82304819D01*
X167938095Y-82304819D02*
X167890476Y-82781009D01*
X167890476Y-82781009D02*
X167938095Y-82733390D01*
X167938095Y-82733390D02*
X168033333Y-82685771D01*
X168033333Y-82685771D02*
X168271428Y-82685771D01*
X168271428Y-82685771D02*
X168366666Y-82733390D01*
X168366666Y-82733390D02*
X168414285Y-82781009D01*
X168414285Y-82781009D02*
X168461904Y-82876247D01*
X168461904Y-82876247D02*
X168461904Y-83114342D01*
X168461904Y-83114342D02*
X168414285Y-83209580D01*
X168414285Y-83209580D02*
X168366666Y-83257200D01*
X168366666Y-83257200D02*
X168271428Y-83304819D01*
X168271428Y-83304819D02*
X168033333Y-83304819D01*
X168033333Y-83304819D02*
X167938095Y-83257200D01*
X167938095Y-83257200D02*
X167890476Y-83209580D01*
X166557142Y-81304819D02*
X166223809Y-80828628D01*
X165985714Y-81304819D02*
X165985714Y-80304819D01*
X165985714Y-80304819D02*
X166366666Y-80304819D01*
X166366666Y-80304819D02*
X166461904Y-80352438D01*
X166461904Y-80352438D02*
X166509523Y-80400057D01*
X166509523Y-80400057D02*
X166557142Y-80495295D01*
X166557142Y-80495295D02*
X166557142Y-80638152D01*
X166557142Y-80638152D02*
X166509523Y-80733390D01*
X166509523Y-80733390D02*
X166461904Y-80781009D01*
X166461904Y-80781009D02*
X166366666Y-80828628D01*
X166366666Y-80828628D02*
X165985714Y-80828628D01*
X166938095Y-80400057D02*
X166985714Y-80352438D01*
X166985714Y-80352438D02*
X167080952Y-80304819D01*
X167080952Y-80304819D02*
X167319047Y-80304819D01*
X167319047Y-80304819D02*
X167414285Y-80352438D01*
X167414285Y-80352438D02*
X167461904Y-80400057D01*
X167461904Y-80400057D02*
X167509523Y-80495295D01*
X167509523Y-80495295D02*
X167509523Y-80590533D01*
X167509523Y-80590533D02*
X167461904Y-80733390D01*
X167461904Y-80733390D02*
X166890476Y-81304819D01*
X166890476Y-81304819D02*
X167509523Y-81304819D01*
X168366666Y-80304819D02*
X168176190Y-80304819D01*
X168176190Y-80304819D02*
X168080952Y-80352438D01*
X168080952Y-80352438D02*
X168033333Y-80400057D01*
X168033333Y-80400057D02*
X167938095Y-80542914D01*
X167938095Y-80542914D02*
X167890476Y-80733390D01*
X167890476Y-80733390D02*
X167890476Y-81114342D01*
X167890476Y-81114342D02*
X167938095Y-81209580D01*
X167938095Y-81209580D02*
X167985714Y-81257200D01*
X167985714Y-81257200D02*
X168080952Y-81304819D01*
X168080952Y-81304819D02*
X168271428Y-81304819D01*
X168271428Y-81304819D02*
X168366666Y-81257200D01*
X168366666Y-81257200D02*
X168414285Y-81209580D01*
X168414285Y-81209580D02*
X168461904Y-81114342D01*
X168461904Y-81114342D02*
X168461904Y-80876247D01*
X168461904Y-80876247D02*
X168414285Y-80781009D01*
X168414285Y-80781009D02*
X168366666Y-80733390D01*
X168366666Y-80733390D02*
X168271428Y-80685771D01*
X168271428Y-80685771D02*
X168080952Y-80685771D01*
X168080952Y-80685771D02*
X167985714Y-80733390D01*
X167985714Y-80733390D02*
X167938095Y-80781009D01*
X167938095Y-80781009D02*
X167890476Y-80876247D01*
X142054819Y-79261904D02*
X142864342Y-79261904D01*
X142864342Y-79261904D02*
X142959580Y-79214285D01*
X142959580Y-79214285D02*
X143007200Y-79166666D01*
X143007200Y-79166666D02*
X143054819Y-79071428D01*
X143054819Y-79071428D02*
X143054819Y-78880952D01*
X143054819Y-78880952D02*
X143007200Y-78785714D01*
X143007200Y-78785714D02*
X142959580Y-78738095D01*
X142959580Y-78738095D02*
X142864342Y-78690476D01*
X142864342Y-78690476D02*
X142054819Y-78690476D01*
X142054819Y-78309523D02*
X142054819Y-77690476D01*
X142054819Y-77690476D02*
X142435771Y-78023809D01*
X142435771Y-78023809D02*
X142435771Y-77880952D01*
X142435771Y-77880952D02*
X142483390Y-77785714D01*
X142483390Y-77785714D02*
X142531009Y-77738095D01*
X142531009Y-77738095D02*
X142626247Y-77690476D01*
X142626247Y-77690476D02*
X142864342Y-77690476D01*
X142864342Y-77690476D02*
X142959580Y-77738095D01*
X142959580Y-77738095D02*
X143007200Y-77785714D01*
X143007200Y-77785714D02*
X143054819Y-77880952D01*
X143054819Y-77880952D02*
X143054819Y-78166666D01*
X143054819Y-78166666D02*
X143007200Y-78261904D01*
X143007200Y-78261904D02*
X142959580Y-78309523D01*
X133354819Y-54642857D02*
X132878628Y-54976190D01*
X133354819Y-55214285D02*
X132354819Y-55214285D01*
X132354819Y-55214285D02*
X132354819Y-54833333D01*
X132354819Y-54833333D02*
X132402438Y-54738095D01*
X132402438Y-54738095D02*
X132450057Y-54690476D01*
X132450057Y-54690476D02*
X132545295Y-54642857D01*
X132545295Y-54642857D02*
X132688152Y-54642857D01*
X132688152Y-54642857D02*
X132783390Y-54690476D01*
X132783390Y-54690476D02*
X132831009Y-54738095D01*
X132831009Y-54738095D02*
X132878628Y-54833333D01*
X132878628Y-54833333D02*
X132878628Y-55214285D01*
X133354819Y-53690476D02*
X133354819Y-54261904D01*
X133354819Y-53976190D02*
X132354819Y-53976190D01*
X132354819Y-53976190D02*
X132497676Y-54071428D01*
X132497676Y-54071428D02*
X132592914Y-54166666D01*
X132592914Y-54166666D02*
X132640533Y-54261904D01*
X132354819Y-53357142D02*
X132354819Y-52690476D01*
X132354819Y-52690476D02*
X133354819Y-53119047D01*
X169838734Y-85794526D02*
X170195877Y-86413115D01*
X170195877Y-86413115D02*
X170226066Y-86560643D01*
X170226066Y-86560643D02*
X170191206Y-86690740D01*
X170191206Y-86690740D02*
X170091298Y-86803408D01*
X170091298Y-86803408D02*
X170008819Y-86851027D01*
X170168648Y-85604049D02*
X170704759Y-85294526D01*
X170704759Y-85294526D02*
X170606560Y-85791107D01*
X170606560Y-85791107D02*
X170730278Y-85719678D01*
X170730278Y-85719678D02*
X170836566Y-85713298D01*
X170836566Y-85713298D02*
X170901615Y-85730728D01*
X170901615Y-85730728D02*
X170990474Y-85789397D01*
X170990474Y-85789397D02*
X171109521Y-85995594D01*
X171109521Y-85995594D02*
X171115901Y-86101882D01*
X171115901Y-86101882D02*
X171098471Y-86166931D01*
X171098471Y-86166931D02*
X171039802Y-86255789D01*
X171039802Y-86255789D02*
X170792366Y-86398646D01*
X170792366Y-86398646D02*
X170686078Y-86405026D01*
X170686078Y-86405026D02*
X170621029Y-86387596D01*
X167868971Y-73553871D02*
X168226114Y-72935281D01*
X168226114Y-72935281D02*
X168338782Y-72835373D01*
X168338782Y-72835373D02*
X168468880Y-72800513D01*
X168468880Y-72800513D02*
X168616407Y-72830703D01*
X168616407Y-72830703D02*
X168698886Y-72878322D01*
X167044185Y-73077680D02*
X167456578Y-73315775D01*
X167456578Y-73315775D02*
X167735913Y-72927192D01*
X167735913Y-72927192D02*
X167670864Y-72944622D01*
X167670864Y-72944622D02*
X167564576Y-72938242D01*
X167564576Y-72938242D02*
X167358379Y-72819194D01*
X167358379Y-72819194D02*
X167299710Y-72730336D01*
X167299710Y-72730336D02*
X167282280Y-72665287D01*
X167282280Y-72665287D02*
X167288660Y-72558999D01*
X167288660Y-72558999D02*
X167407708Y-72352802D01*
X167407708Y-72352802D02*
X167496566Y-72294133D01*
X167496566Y-72294133D02*
X167561615Y-72276704D01*
X167561615Y-72276704D02*
X167667903Y-72283083D01*
X167667903Y-72283083D02*
X167874099Y-72402131D01*
X167874099Y-72402131D02*
X167932769Y-72490989D01*
X167932769Y-72490989D02*
X167950198Y-72556038D01*
X138161905Y-74854819D02*
X138161905Y-75664342D01*
X138161905Y-75664342D02*
X138209524Y-75759580D01*
X138209524Y-75759580D02*
X138257143Y-75807200D01*
X138257143Y-75807200D02*
X138352381Y-75854819D01*
X138352381Y-75854819D02*
X138542857Y-75854819D01*
X138542857Y-75854819D02*
X138638095Y-75807200D01*
X138638095Y-75807200D02*
X138685714Y-75759580D01*
X138685714Y-75759580D02*
X138733333Y-75664342D01*
X138733333Y-75664342D02*
X138733333Y-74854819D01*
X139733333Y-75854819D02*
X139161905Y-75854819D01*
X139447619Y-75854819D02*
X139447619Y-74854819D01*
X139447619Y-74854819D02*
X139352381Y-74997676D01*
X139352381Y-74997676D02*
X139257143Y-75092914D01*
X139257143Y-75092914D02*
X139161905Y-75140533D01*
X140590476Y-75188152D02*
X140590476Y-75854819D01*
X140352381Y-74807200D02*
X140114286Y-75521485D01*
X140114286Y-75521485D02*
X140733333Y-75521485D01*
X143533333Y-72754819D02*
X143200000Y-72278628D01*
X142961905Y-72754819D02*
X142961905Y-71754819D01*
X142961905Y-71754819D02*
X143342857Y-71754819D01*
X143342857Y-71754819D02*
X143438095Y-71802438D01*
X143438095Y-71802438D02*
X143485714Y-71850057D01*
X143485714Y-71850057D02*
X143533333Y-71945295D01*
X143533333Y-71945295D02*
X143533333Y-72088152D01*
X143533333Y-72088152D02*
X143485714Y-72183390D01*
X143485714Y-72183390D02*
X143438095Y-72231009D01*
X143438095Y-72231009D02*
X143342857Y-72278628D01*
X143342857Y-72278628D02*
X142961905Y-72278628D01*
X144390476Y-72088152D02*
X144390476Y-72754819D01*
X144152381Y-71707200D02*
X143914286Y-72421485D01*
X143914286Y-72421485D02*
X144533333Y-72421485D01*
X142454819Y-61861904D02*
X143264342Y-61861904D01*
X143264342Y-61861904D02*
X143359580Y-61814285D01*
X143359580Y-61814285D02*
X143407200Y-61766666D01*
X143407200Y-61766666D02*
X143454819Y-61671428D01*
X143454819Y-61671428D02*
X143454819Y-61480952D01*
X143454819Y-61480952D02*
X143407200Y-61385714D01*
X143407200Y-61385714D02*
X143359580Y-61338095D01*
X143359580Y-61338095D02*
X143264342Y-61290476D01*
X143264342Y-61290476D02*
X142454819Y-61290476D01*
X143454819Y-60766666D02*
X143454819Y-60576190D01*
X143454819Y-60576190D02*
X143407200Y-60480952D01*
X143407200Y-60480952D02*
X143359580Y-60433333D01*
X143359580Y-60433333D02*
X143216723Y-60338095D01*
X143216723Y-60338095D02*
X143026247Y-60290476D01*
X143026247Y-60290476D02*
X142645295Y-60290476D01*
X142645295Y-60290476D02*
X142550057Y-60338095D01*
X142550057Y-60338095D02*
X142502438Y-60385714D01*
X142502438Y-60385714D02*
X142454819Y-60480952D01*
X142454819Y-60480952D02*
X142454819Y-60671428D01*
X142454819Y-60671428D02*
X142502438Y-60766666D01*
X142502438Y-60766666D02*
X142550057Y-60814285D01*
X142550057Y-60814285D02*
X142645295Y-60861904D01*
X142645295Y-60861904D02*
X142883390Y-60861904D01*
X142883390Y-60861904D02*
X142978628Y-60814285D01*
X142978628Y-60814285D02*
X143026247Y-60766666D01*
X143026247Y-60766666D02*
X143073866Y-60671428D01*
X143073866Y-60671428D02*
X143073866Y-60480952D01*
X143073866Y-60480952D02*
X143026247Y-60385714D01*
X143026247Y-60385714D02*
X142978628Y-60338095D01*
X142978628Y-60338095D02*
X142883390Y-60290476D01*
X139957142Y-79054819D02*
X139623809Y-78578628D01*
X139385714Y-79054819D02*
X139385714Y-78054819D01*
X139385714Y-78054819D02*
X139766666Y-78054819D01*
X139766666Y-78054819D02*
X139861904Y-78102438D01*
X139861904Y-78102438D02*
X139909523Y-78150057D01*
X139909523Y-78150057D02*
X139957142Y-78245295D01*
X139957142Y-78245295D02*
X139957142Y-78388152D01*
X139957142Y-78388152D02*
X139909523Y-78483390D01*
X139909523Y-78483390D02*
X139861904Y-78531009D01*
X139861904Y-78531009D02*
X139766666Y-78578628D01*
X139766666Y-78578628D02*
X139385714Y-78578628D01*
X140290476Y-78054819D02*
X140909523Y-78054819D01*
X140909523Y-78054819D02*
X140576190Y-78435771D01*
X140576190Y-78435771D02*
X140719047Y-78435771D01*
X140719047Y-78435771D02*
X140814285Y-78483390D01*
X140814285Y-78483390D02*
X140861904Y-78531009D01*
X140861904Y-78531009D02*
X140909523Y-78626247D01*
X140909523Y-78626247D02*
X140909523Y-78864342D01*
X140909523Y-78864342D02*
X140861904Y-78959580D01*
X140861904Y-78959580D02*
X140814285Y-79007200D01*
X140814285Y-79007200D02*
X140719047Y-79054819D01*
X140719047Y-79054819D02*
X140433333Y-79054819D01*
X140433333Y-79054819D02*
X140338095Y-79007200D01*
X140338095Y-79007200D02*
X140290476Y-78959580D01*
X141528571Y-78054819D02*
X141623809Y-78054819D01*
X141623809Y-78054819D02*
X141719047Y-78102438D01*
X141719047Y-78102438D02*
X141766666Y-78150057D01*
X141766666Y-78150057D02*
X141814285Y-78245295D01*
X141814285Y-78245295D02*
X141861904Y-78435771D01*
X141861904Y-78435771D02*
X141861904Y-78673866D01*
X141861904Y-78673866D02*
X141814285Y-78864342D01*
X141814285Y-78864342D02*
X141766666Y-78959580D01*
X141766666Y-78959580D02*
X141719047Y-79007200D01*
X141719047Y-79007200D02*
X141623809Y-79054819D01*
X141623809Y-79054819D02*
X141528571Y-79054819D01*
X141528571Y-79054819D02*
X141433333Y-79007200D01*
X141433333Y-79007200D02*
X141385714Y-78959580D01*
X141385714Y-78959580D02*
X141338095Y-78864342D01*
X141338095Y-78864342D02*
X141290476Y-78673866D01*
X141290476Y-78673866D02*
X141290476Y-78435771D01*
X141290476Y-78435771D02*
X141338095Y-78245295D01*
X141338095Y-78245295D02*
X141385714Y-78150057D01*
X141385714Y-78150057D02*
X141433333Y-78102438D01*
X141433333Y-78102438D02*
X141528571Y-78054819D01*
X137333333Y-71059580D02*
X137285714Y-71107200D01*
X137285714Y-71107200D02*
X137142857Y-71154819D01*
X137142857Y-71154819D02*
X137047619Y-71154819D01*
X137047619Y-71154819D02*
X136904762Y-71107200D01*
X136904762Y-71107200D02*
X136809524Y-71011961D01*
X136809524Y-71011961D02*
X136761905Y-70916723D01*
X136761905Y-70916723D02*
X136714286Y-70726247D01*
X136714286Y-70726247D02*
X136714286Y-70583390D01*
X136714286Y-70583390D02*
X136761905Y-70392914D01*
X136761905Y-70392914D02*
X136809524Y-70297676D01*
X136809524Y-70297676D02*
X136904762Y-70202438D01*
X136904762Y-70202438D02*
X137047619Y-70154819D01*
X137047619Y-70154819D02*
X137142857Y-70154819D01*
X137142857Y-70154819D02*
X137285714Y-70202438D01*
X137285714Y-70202438D02*
X137333333Y-70250057D01*
X137666667Y-70154819D02*
X138333333Y-70154819D01*
X138333333Y-70154819D02*
X137904762Y-71154819D01*
X148459580Y-46166666D02*
X148507200Y-46214285D01*
X148507200Y-46214285D02*
X148554819Y-46357142D01*
X148554819Y-46357142D02*
X148554819Y-46452380D01*
X148554819Y-46452380D02*
X148507200Y-46595237D01*
X148507200Y-46595237D02*
X148411961Y-46690475D01*
X148411961Y-46690475D02*
X148316723Y-46738094D01*
X148316723Y-46738094D02*
X148126247Y-46785713D01*
X148126247Y-46785713D02*
X147983390Y-46785713D01*
X147983390Y-46785713D02*
X147792914Y-46738094D01*
X147792914Y-46738094D02*
X147697676Y-46690475D01*
X147697676Y-46690475D02*
X147602438Y-46595237D01*
X147602438Y-46595237D02*
X147554819Y-46452380D01*
X147554819Y-46452380D02*
X147554819Y-46357142D01*
X147554819Y-46357142D02*
X147602438Y-46214285D01*
X147602438Y-46214285D02*
X147650057Y-46166666D01*
X147983390Y-45595237D02*
X147935771Y-45690475D01*
X147935771Y-45690475D02*
X147888152Y-45738094D01*
X147888152Y-45738094D02*
X147792914Y-45785713D01*
X147792914Y-45785713D02*
X147745295Y-45785713D01*
X147745295Y-45785713D02*
X147650057Y-45738094D01*
X147650057Y-45738094D02*
X147602438Y-45690475D01*
X147602438Y-45690475D02*
X147554819Y-45595237D01*
X147554819Y-45595237D02*
X147554819Y-45404761D01*
X147554819Y-45404761D02*
X147602438Y-45309523D01*
X147602438Y-45309523D02*
X147650057Y-45261904D01*
X147650057Y-45261904D02*
X147745295Y-45214285D01*
X147745295Y-45214285D02*
X147792914Y-45214285D01*
X147792914Y-45214285D02*
X147888152Y-45261904D01*
X147888152Y-45261904D02*
X147935771Y-45309523D01*
X147935771Y-45309523D02*
X147983390Y-45404761D01*
X147983390Y-45404761D02*
X147983390Y-45595237D01*
X147983390Y-45595237D02*
X148031009Y-45690475D01*
X148031009Y-45690475D02*
X148078628Y-45738094D01*
X148078628Y-45738094D02*
X148173866Y-45785713D01*
X148173866Y-45785713D02*
X148364342Y-45785713D01*
X148364342Y-45785713D02*
X148459580Y-45738094D01*
X148459580Y-45738094D02*
X148507200Y-45690475D01*
X148507200Y-45690475D02*
X148554819Y-45595237D01*
X148554819Y-45595237D02*
X148554819Y-45404761D01*
X148554819Y-45404761D02*
X148507200Y-45309523D01*
X148507200Y-45309523D02*
X148459580Y-45261904D01*
X148459580Y-45261904D02*
X148364342Y-45214285D01*
X148364342Y-45214285D02*
X148173866Y-45214285D01*
X148173866Y-45214285D02*
X148078628Y-45261904D01*
X148078628Y-45261904D02*
X148031009Y-45309523D01*
X148031009Y-45309523D02*
X147983390Y-45404761D01*
X145833333Y-76854819D02*
X145500000Y-76378628D01*
X145261905Y-76854819D02*
X145261905Y-75854819D01*
X145261905Y-75854819D02*
X145642857Y-75854819D01*
X145642857Y-75854819D02*
X145738095Y-75902438D01*
X145738095Y-75902438D02*
X145785714Y-75950057D01*
X145785714Y-75950057D02*
X145833333Y-76045295D01*
X145833333Y-76045295D02*
X145833333Y-76188152D01*
X145833333Y-76188152D02*
X145785714Y-76283390D01*
X145785714Y-76283390D02*
X145738095Y-76331009D01*
X145738095Y-76331009D02*
X145642857Y-76378628D01*
X145642857Y-76378628D02*
X145261905Y-76378628D01*
X146166667Y-75854819D02*
X146833333Y-75854819D01*
X146833333Y-75854819D02*
X146404762Y-76854819D01*
X156361905Y-84764819D02*
X156361905Y-85574342D01*
X156361905Y-85574342D02*
X156409524Y-85669580D01*
X156409524Y-85669580D02*
X156457143Y-85717200D01*
X156457143Y-85717200D02*
X156552381Y-85764819D01*
X156552381Y-85764819D02*
X156742857Y-85764819D01*
X156742857Y-85764819D02*
X156838095Y-85717200D01*
X156838095Y-85717200D02*
X156885714Y-85669580D01*
X156885714Y-85669580D02*
X156933333Y-85574342D01*
X156933333Y-85574342D02*
X156933333Y-84764819D01*
X157933333Y-85764819D02*
X157361905Y-85764819D01*
X157647619Y-85764819D02*
X157647619Y-84764819D01*
X157647619Y-84764819D02*
X157552381Y-84907676D01*
X157552381Y-84907676D02*
X157457143Y-85002914D01*
X157457143Y-85002914D02*
X157361905Y-85050533D01*
X158885714Y-85764819D02*
X158314286Y-85764819D01*
X158600000Y-85764819D02*
X158600000Y-84764819D01*
X158600000Y-84764819D02*
X158504762Y-84907676D01*
X158504762Y-84907676D02*
X158409524Y-85002914D01*
X158409524Y-85002914D02*
X158314286Y-85050533D01*
X143257142Y-88354819D02*
X142923809Y-87878628D01*
X142685714Y-88354819D02*
X142685714Y-87354819D01*
X142685714Y-87354819D02*
X143066666Y-87354819D01*
X143066666Y-87354819D02*
X143161904Y-87402438D01*
X143161904Y-87402438D02*
X143209523Y-87450057D01*
X143209523Y-87450057D02*
X143257142Y-87545295D01*
X143257142Y-87545295D02*
X143257142Y-87688152D01*
X143257142Y-87688152D02*
X143209523Y-87783390D01*
X143209523Y-87783390D02*
X143161904Y-87831009D01*
X143161904Y-87831009D02*
X143066666Y-87878628D01*
X143066666Y-87878628D02*
X142685714Y-87878628D01*
X143638095Y-87450057D02*
X143685714Y-87402438D01*
X143685714Y-87402438D02*
X143780952Y-87354819D01*
X143780952Y-87354819D02*
X144019047Y-87354819D01*
X144019047Y-87354819D02*
X144114285Y-87402438D01*
X144114285Y-87402438D02*
X144161904Y-87450057D01*
X144161904Y-87450057D02*
X144209523Y-87545295D01*
X144209523Y-87545295D02*
X144209523Y-87640533D01*
X144209523Y-87640533D02*
X144161904Y-87783390D01*
X144161904Y-87783390D02*
X143590476Y-88354819D01*
X143590476Y-88354819D02*
X144209523Y-88354819D01*
X144542857Y-87354819D02*
X145161904Y-87354819D01*
X145161904Y-87354819D02*
X144828571Y-87735771D01*
X144828571Y-87735771D02*
X144971428Y-87735771D01*
X144971428Y-87735771D02*
X145066666Y-87783390D01*
X145066666Y-87783390D02*
X145114285Y-87831009D01*
X145114285Y-87831009D02*
X145161904Y-87926247D01*
X145161904Y-87926247D02*
X145161904Y-88164342D01*
X145161904Y-88164342D02*
X145114285Y-88259580D01*
X145114285Y-88259580D02*
X145066666Y-88307200D01*
X145066666Y-88307200D02*
X144971428Y-88354819D01*
X144971428Y-88354819D02*
X144685714Y-88354819D01*
X144685714Y-88354819D02*
X144590476Y-88307200D01*
X144590476Y-88307200D02*
X144542857Y-88259580D01*
X146859580Y-54942857D02*
X146907200Y-54990476D01*
X146907200Y-54990476D02*
X146954819Y-55133333D01*
X146954819Y-55133333D02*
X146954819Y-55228571D01*
X146954819Y-55228571D02*
X146907200Y-55371428D01*
X146907200Y-55371428D02*
X146811961Y-55466666D01*
X146811961Y-55466666D02*
X146716723Y-55514285D01*
X146716723Y-55514285D02*
X146526247Y-55561904D01*
X146526247Y-55561904D02*
X146383390Y-55561904D01*
X146383390Y-55561904D02*
X146192914Y-55514285D01*
X146192914Y-55514285D02*
X146097676Y-55466666D01*
X146097676Y-55466666D02*
X146002438Y-55371428D01*
X146002438Y-55371428D02*
X145954819Y-55228571D01*
X145954819Y-55228571D02*
X145954819Y-55133333D01*
X145954819Y-55133333D02*
X146002438Y-54990476D01*
X146002438Y-54990476D02*
X146050057Y-54942857D01*
X146954819Y-53990476D02*
X146954819Y-54561904D01*
X146954819Y-54276190D02*
X145954819Y-54276190D01*
X145954819Y-54276190D02*
X146097676Y-54371428D01*
X146097676Y-54371428D02*
X146192914Y-54466666D01*
X146192914Y-54466666D02*
X146240533Y-54561904D01*
X146288152Y-53133333D02*
X146954819Y-53133333D01*
X145907200Y-53371428D02*
X146621485Y-53609523D01*
X146621485Y-53609523D02*
X146621485Y-52990476D01*
X160507142Y-73949580D02*
X160459523Y-73997200D01*
X160459523Y-73997200D02*
X160316666Y-74044819D01*
X160316666Y-74044819D02*
X160221428Y-74044819D01*
X160221428Y-74044819D02*
X160078571Y-73997200D01*
X160078571Y-73997200D02*
X159983333Y-73901961D01*
X159983333Y-73901961D02*
X159935714Y-73806723D01*
X159935714Y-73806723D02*
X159888095Y-73616247D01*
X159888095Y-73616247D02*
X159888095Y-73473390D01*
X159888095Y-73473390D02*
X159935714Y-73282914D01*
X159935714Y-73282914D02*
X159983333Y-73187676D01*
X159983333Y-73187676D02*
X160078571Y-73092438D01*
X160078571Y-73092438D02*
X160221428Y-73044819D01*
X160221428Y-73044819D02*
X160316666Y-73044819D01*
X160316666Y-73044819D02*
X160459523Y-73092438D01*
X160459523Y-73092438D02*
X160507142Y-73140057D01*
X160888095Y-73140057D02*
X160935714Y-73092438D01*
X160935714Y-73092438D02*
X161030952Y-73044819D01*
X161030952Y-73044819D02*
X161269047Y-73044819D01*
X161269047Y-73044819D02*
X161364285Y-73092438D01*
X161364285Y-73092438D02*
X161411904Y-73140057D01*
X161411904Y-73140057D02*
X161459523Y-73235295D01*
X161459523Y-73235295D02*
X161459523Y-73330533D01*
X161459523Y-73330533D02*
X161411904Y-73473390D01*
X161411904Y-73473390D02*
X160840476Y-74044819D01*
X160840476Y-74044819D02*
X161459523Y-74044819D01*
X161840476Y-73140057D02*
X161888095Y-73092438D01*
X161888095Y-73092438D02*
X161983333Y-73044819D01*
X161983333Y-73044819D02*
X162221428Y-73044819D01*
X162221428Y-73044819D02*
X162316666Y-73092438D01*
X162316666Y-73092438D02*
X162364285Y-73140057D01*
X162364285Y-73140057D02*
X162411904Y-73235295D01*
X162411904Y-73235295D02*
X162411904Y-73330533D01*
X162411904Y-73330533D02*
X162364285Y-73473390D01*
X162364285Y-73473390D02*
X161792857Y-74044819D01*
X161792857Y-74044819D02*
X162411904Y-74044819D01*
X132454819Y-116633333D02*
X133169104Y-116633333D01*
X133169104Y-116633333D02*
X133311961Y-116680952D01*
X133311961Y-116680952D02*
X133407200Y-116776190D01*
X133407200Y-116776190D02*
X133454819Y-116919047D01*
X133454819Y-116919047D02*
X133454819Y-117014285D01*
X132454819Y-116252380D02*
X132454819Y-115585714D01*
X132454819Y-115585714D02*
X133454819Y-116014285D01*
X145857142Y-78054819D02*
X145523809Y-77578628D01*
X145285714Y-78054819D02*
X145285714Y-77054819D01*
X145285714Y-77054819D02*
X145666666Y-77054819D01*
X145666666Y-77054819D02*
X145761904Y-77102438D01*
X145761904Y-77102438D02*
X145809523Y-77150057D01*
X145809523Y-77150057D02*
X145857142Y-77245295D01*
X145857142Y-77245295D02*
X145857142Y-77388152D01*
X145857142Y-77388152D02*
X145809523Y-77483390D01*
X145809523Y-77483390D02*
X145761904Y-77531009D01*
X145761904Y-77531009D02*
X145666666Y-77578628D01*
X145666666Y-77578628D02*
X145285714Y-77578628D01*
X146238095Y-77150057D02*
X146285714Y-77102438D01*
X146285714Y-77102438D02*
X146380952Y-77054819D01*
X146380952Y-77054819D02*
X146619047Y-77054819D01*
X146619047Y-77054819D02*
X146714285Y-77102438D01*
X146714285Y-77102438D02*
X146761904Y-77150057D01*
X146761904Y-77150057D02*
X146809523Y-77245295D01*
X146809523Y-77245295D02*
X146809523Y-77340533D01*
X146809523Y-77340533D02*
X146761904Y-77483390D01*
X146761904Y-77483390D02*
X146190476Y-78054819D01*
X146190476Y-78054819D02*
X146809523Y-78054819D01*
X147428571Y-77054819D02*
X147523809Y-77054819D01*
X147523809Y-77054819D02*
X147619047Y-77102438D01*
X147619047Y-77102438D02*
X147666666Y-77150057D01*
X147666666Y-77150057D02*
X147714285Y-77245295D01*
X147714285Y-77245295D02*
X147761904Y-77435771D01*
X147761904Y-77435771D02*
X147761904Y-77673866D01*
X147761904Y-77673866D02*
X147714285Y-77864342D01*
X147714285Y-77864342D02*
X147666666Y-77959580D01*
X147666666Y-77959580D02*
X147619047Y-78007200D01*
X147619047Y-78007200D02*
X147523809Y-78054819D01*
X147523809Y-78054819D02*
X147428571Y-78054819D01*
X147428571Y-78054819D02*
X147333333Y-78007200D01*
X147333333Y-78007200D02*
X147285714Y-77959580D01*
X147285714Y-77959580D02*
X147238095Y-77864342D01*
X147238095Y-77864342D02*
X147190476Y-77673866D01*
X147190476Y-77673866D02*
X147190476Y-77435771D01*
X147190476Y-77435771D02*
X147238095Y-77245295D01*
X147238095Y-77245295D02*
X147285714Y-77150057D01*
X147285714Y-77150057D02*
X147333333Y-77102438D01*
X147333333Y-77102438D02*
X147428571Y-77054819D01*
X151299580Y-84242857D02*
X151347200Y-84290476D01*
X151347200Y-84290476D02*
X151394819Y-84433333D01*
X151394819Y-84433333D02*
X151394819Y-84528571D01*
X151394819Y-84528571D02*
X151347200Y-84671428D01*
X151347200Y-84671428D02*
X151251961Y-84766666D01*
X151251961Y-84766666D02*
X151156723Y-84814285D01*
X151156723Y-84814285D02*
X150966247Y-84861904D01*
X150966247Y-84861904D02*
X150823390Y-84861904D01*
X150823390Y-84861904D02*
X150632914Y-84814285D01*
X150632914Y-84814285D02*
X150537676Y-84766666D01*
X150537676Y-84766666D02*
X150442438Y-84671428D01*
X150442438Y-84671428D02*
X150394819Y-84528571D01*
X150394819Y-84528571D02*
X150394819Y-84433333D01*
X150394819Y-84433333D02*
X150442438Y-84290476D01*
X150442438Y-84290476D02*
X150490057Y-84242857D01*
X150490057Y-83861904D02*
X150442438Y-83814285D01*
X150442438Y-83814285D02*
X150394819Y-83719047D01*
X150394819Y-83719047D02*
X150394819Y-83480952D01*
X150394819Y-83480952D02*
X150442438Y-83385714D01*
X150442438Y-83385714D02*
X150490057Y-83338095D01*
X150490057Y-83338095D02*
X150585295Y-83290476D01*
X150585295Y-83290476D02*
X150680533Y-83290476D01*
X150680533Y-83290476D02*
X150823390Y-83338095D01*
X150823390Y-83338095D02*
X151394819Y-83909523D01*
X151394819Y-83909523D02*
X151394819Y-83290476D01*
X150728152Y-82433333D02*
X151394819Y-82433333D01*
X150347200Y-82671428D02*
X151061485Y-82909523D01*
X151061485Y-82909523D02*
X151061485Y-82290476D01*
X166557142Y-77304819D02*
X166223809Y-76828628D01*
X165985714Y-77304819D02*
X165985714Y-76304819D01*
X165985714Y-76304819D02*
X166366666Y-76304819D01*
X166366666Y-76304819D02*
X166461904Y-76352438D01*
X166461904Y-76352438D02*
X166509523Y-76400057D01*
X166509523Y-76400057D02*
X166557142Y-76495295D01*
X166557142Y-76495295D02*
X166557142Y-76638152D01*
X166557142Y-76638152D02*
X166509523Y-76733390D01*
X166509523Y-76733390D02*
X166461904Y-76781009D01*
X166461904Y-76781009D02*
X166366666Y-76828628D01*
X166366666Y-76828628D02*
X165985714Y-76828628D01*
X166938095Y-76400057D02*
X166985714Y-76352438D01*
X166985714Y-76352438D02*
X167080952Y-76304819D01*
X167080952Y-76304819D02*
X167319047Y-76304819D01*
X167319047Y-76304819D02*
X167414285Y-76352438D01*
X167414285Y-76352438D02*
X167461904Y-76400057D01*
X167461904Y-76400057D02*
X167509523Y-76495295D01*
X167509523Y-76495295D02*
X167509523Y-76590533D01*
X167509523Y-76590533D02*
X167461904Y-76733390D01*
X167461904Y-76733390D02*
X166890476Y-77304819D01*
X166890476Y-77304819D02*
X167509523Y-77304819D01*
X168080952Y-76733390D02*
X167985714Y-76685771D01*
X167985714Y-76685771D02*
X167938095Y-76638152D01*
X167938095Y-76638152D02*
X167890476Y-76542914D01*
X167890476Y-76542914D02*
X167890476Y-76495295D01*
X167890476Y-76495295D02*
X167938095Y-76400057D01*
X167938095Y-76400057D02*
X167985714Y-76352438D01*
X167985714Y-76352438D02*
X168080952Y-76304819D01*
X168080952Y-76304819D02*
X168271428Y-76304819D01*
X168271428Y-76304819D02*
X168366666Y-76352438D01*
X168366666Y-76352438D02*
X168414285Y-76400057D01*
X168414285Y-76400057D02*
X168461904Y-76495295D01*
X168461904Y-76495295D02*
X168461904Y-76542914D01*
X168461904Y-76542914D02*
X168414285Y-76638152D01*
X168414285Y-76638152D02*
X168366666Y-76685771D01*
X168366666Y-76685771D02*
X168271428Y-76733390D01*
X168271428Y-76733390D02*
X168080952Y-76733390D01*
X168080952Y-76733390D02*
X167985714Y-76781009D01*
X167985714Y-76781009D02*
X167938095Y-76828628D01*
X167938095Y-76828628D02*
X167890476Y-76923866D01*
X167890476Y-76923866D02*
X167890476Y-77114342D01*
X167890476Y-77114342D02*
X167938095Y-77209580D01*
X167938095Y-77209580D02*
X167985714Y-77257200D01*
X167985714Y-77257200D02*
X168080952Y-77304819D01*
X168080952Y-77304819D02*
X168271428Y-77304819D01*
X168271428Y-77304819D02*
X168366666Y-77257200D01*
X168366666Y-77257200D02*
X168414285Y-77209580D01*
X168414285Y-77209580D02*
X168461904Y-77114342D01*
X168461904Y-77114342D02*
X168461904Y-76923866D01*
X168461904Y-76923866D02*
X168414285Y-76828628D01*
X168414285Y-76828628D02*
X168366666Y-76781009D01*
X168366666Y-76781009D02*
X168271428Y-76733390D01*
X122766667Y-88207200D02*
X122909524Y-88254819D01*
X122909524Y-88254819D02*
X123147619Y-88254819D01*
X123147619Y-88254819D02*
X123242857Y-88207200D01*
X123242857Y-88207200D02*
X123290476Y-88159580D01*
X123290476Y-88159580D02*
X123338095Y-88064342D01*
X123338095Y-88064342D02*
X123338095Y-87969104D01*
X123338095Y-87969104D02*
X123290476Y-87873866D01*
X123290476Y-87873866D02*
X123242857Y-87826247D01*
X123242857Y-87826247D02*
X123147619Y-87778628D01*
X123147619Y-87778628D02*
X122957143Y-87731009D01*
X122957143Y-87731009D02*
X122861905Y-87683390D01*
X122861905Y-87683390D02*
X122814286Y-87635771D01*
X122814286Y-87635771D02*
X122766667Y-87540533D01*
X122766667Y-87540533D02*
X122766667Y-87445295D01*
X122766667Y-87445295D02*
X122814286Y-87350057D01*
X122814286Y-87350057D02*
X122861905Y-87302438D01*
X122861905Y-87302438D02*
X122957143Y-87254819D01*
X122957143Y-87254819D02*
X123195238Y-87254819D01*
X123195238Y-87254819D02*
X123338095Y-87302438D01*
X123671429Y-87254819D02*
X123909524Y-88254819D01*
X123909524Y-88254819D02*
X124100000Y-87540533D01*
X124100000Y-87540533D02*
X124290476Y-88254819D01*
X124290476Y-88254819D02*
X124528572Y-87254819D01*
X124861905Y-87350057D02*
X124909524Y-87302438D01*
X124909524Y-87302438D02*
X125004762Y-87254819D01*
X125004762Y-87254819D02*
X125242857Y-87254819D01*
X125242857Y-87254819D02*
X125338095Y-87302438D01*
X125338095Y-87302438D02*
X125385714Y-87350057D01*
X125385714Y-87350057D02*
X125433333Y-87445295D01*
X125433333Y-87445295D02*
X125433333Y-87540533D01*
X125433333Y-87540533D02*
X125385714Y-87683390D01*
X125385714Y-87683390D02*
X124814286Y-88254819D01*
X124814286Y-88254819D02*
X125433333Y-88254819D01*
X148654819Y-84838094D02*
X149464342Y-84838094D01*
X149464342Y-84838094D02*
X149559580Y-84790475D01*
X149559580Y-84790475D02*
X149607200Y-84742856D01*
X149607200Y-84742856D02*
X149654819Y-84647618D01*
X149654819Y-84647618D02*
X149654819Y-84457142D01*
X149654819Y-84457142D02*
X149607200Y-84361904D01*
X149607200Y-84361904D02*
X149559580Y-84314285D01*
X149559580Y-84314285D02*
X149464342Y-84266666D01*
X149464342Y-84266666D02*
X148654819Y-84266666D01*
X149654819Y-83266666D02*
X149654819Y-83838094D01*
X149654819Y-83552380D02*
X148654819Y-83552380D01*
X148654819Y-83552380D02*
X148797676Y-83647618D01*
X148797676Y-83647618D02*
X148892914Y-83742856D01*
X148892914Y-83742856D02*
X148940533Y-83838094D01*
X148654819Y-82647618D02*
X148654819Y-82552380D01*
X148654819Y-82552380D02*
X148702438Y-82457142D01*
X148702438Y-82457142D02*
X148750057Y-82409523D01*
X148750057Y-82409523D02*
X148845295Y-82361904D01*
X148845295Y-82361904D02*
X149035771Y-82314285D01*
X149035771Y-82314285D02*
X149273866Y-82314285D01*
X149273866Y-82314285D02*
X149464342Y-82361904D01*
X149464342Y-82361904D02*
X149559580Y-82409523D01*
X149559580Y-82409523D02*
X149607200Y-82457142D01*
X149607200Y-82457142D02*
X149654819Y-82552380D01*
X149654819Y-82552380D02*
X149654819Y-82647618D01*
X149654819Y-82647618D02*
X149607200Y-82742856D01*
X149607200Y-82742856D02*
X149559580Y-82790475D01*
X149559580Y-82790475D02*
X149464342Y-82838094D01*
X149464342Y-82838094D02*
X149273866Y-82885713D01*
X149273866Y-82885713D02*
X149035771Y-82885713D01*
X149035771Y-82885713D02*
X148845295Y-82838094D01*
X148845295Y-82838094D02*
X148750057Y-82790475D01*
X148750057Y-82790475D02*
X148702438Y-82742856D01*
X148702438Y-82742856D02*
X148654819Y-82647618D01*
X147254819Y-81061904D02*
X148064342Y-81061904D01*
X148064342Y-81061904D02*
X148159580Y-81014285D01*
X148159580Y-81014285D02*
X148207200Y-80966666D01*
X148207200Y-80966666D02*
X148254819Y-80871428D01*
X148254819Y-80871428D02*
X148254819Y-80680952D01*
X148254819Y-80680952D02*
X148207200Y-80585714D01*
X148207200Y-80585714D02*
X148159580Y-80538095D01*
X148159580Y-80538095D02*
X148064342Y-80490476D01*
X148064342Y-80490476D02*
X147254819Y-80490476D01*
X147350057Y-80061904D02*
X147302438Y-80014285D01*
X147302438Y-80014285D02*
X147254819Y-79919047D01*
X147254819Y-79919047D02*
X147254819Y-79680952D01*
X147254819Y-79680952D02*
X147302438Y-79585714D01*
X147302438Y-79585714D02*
X147350057Y-79538095D01*
X147350057Y-79538095D02*
X147445295Y-79490476D01*
X147445295Y-79490476D02*
X147540533Y-79490476D01*
X147540533Y-79490476D02*
X147683390Y-79538095D01*
X147683390Y-79538095D02*
X148254819Y-80109523D01*
X148254819Y-80109523D02*
X148254819Y-79490476D01*
X145833333Y-75654819D02*
X145500000Y-75178628D01*
X145261905Y-75654819D02*
X145261905Y-74654819D01*
X145261905Y-74654819D02*
X145642857Y-74654819D01*
X145642857Y-74654819D02*
X145738095Y-74702438D01*
X145738095Y-74702438D02*
X145785714Y-74750057D01*
X145785714Y-74750057D02*
X145833333Y-74845295D01*
X145833333Y-74845295D02*
X145833333Y-74988152D01*
X145833333Y-74988152D02*
X145785714Y-75083390D01*
X145785714Y-75083390D02*
X145738095Y-75131009D01*
X145738095Y-75131009D02*
X145642857Y-75178628D01*
X145642857Y-75178628D02*
X145261905Y-75178628D01*
X146690476Y-74654819D02*
X146500000Y-74654819D01*
X146500000Y-74654819D02*
X146404762Y-74702438D01*
X146404762Y-74702438D02*
X146357143Y-74750057D01*
X146357143Y-74750057D02*
X146261905Y-74892914D01*
X146261905Y-74892914D02*
X146214286Y-75083390D01*
X146214286Y-75083390D02*
X146214286Y-75464342D01*
X146214286Y-75464342D02*
X146261905Y-75559580D01*
X146261905Y-75559580D02*
X146309524Y-75607200D01*
X146309524Y-75607200D02*
X146404762Y-75654819D01*
X146404762Y-75654819D02*
X146595238Y-75654819D01*
X146595238Y-75654819D02*
X146690476Y-75607200D01*
X146690476Y-75607200D02*
X146738095Y-75559580D01*
X146738095Y-75559580D02*
X146785714Y-75464342D01*
X146785714Y-75464342D02*
X146785714Y-75226247D01*
X146785714Y-75226247D02*
X146738095Y-75131009D01*
X146738095Y-75131009D02*
X146690476Y-75083390D01*
X146690476Y-75083390D02*
X146595238Y-75035771D01*
X146595238Y-75035771D02*
X146404762Y-75035771D01*
X146404762Y-75035771D02*
X146309524Y-75083390D01*
X146309524Y-75083390D02*
X146261905Y-75131009D01*
X146261905Y-75131009D02*
X146214286Y-75226247D01*
X140938094Y-86745180D02*
X140938094Y-85935657D01*
X140938094Y-85935657D02*
X140890475Y-85840419D01*
X140890475Y-85840419D02*
X140842856Y-85792800D01*
X140842856Y-85792800D02*
X140747618Y-85745180D01*
X140747618Y-85745180D02*
X140557142Y-85745180D01*
X140557142Y-85745180D02*
X140461904Y-85792800D01*
X140461904Y-85792800D02*
X140414285Y-85840419D01*
X140414285Y-85840419D02*
X140366666Y-85935657D01*
X140366666Y-85935657D02*
X140366666Y-86745180D01*
X139366666Y-85745180D02*
X139938094Y-85745180D01*
X139652380Y-85745180D02*
X139652380Y-86745180D01*
X139652380Y-86745180D02*
X139747618Y-86602323D01*
X139747618Y-86602323D02*
X139842856Y-86507085D01*
X139842856Y-86507085D02*
X139938094Y-86459466D01*
X138985713Y-86649942D02*
X138938094Y-86697561D01*
X138938094Y-86697561D02*
X138842856Y-86745180D01*
X138842856Y-86745180D02*
X138604761Y-86745180D01*
X138604761Y-86745180D02*
X138509523Y-86697561D01*
X138509523Y-86697561D02*
X138461904Y-86649942D01*
X138461904Y-86649942D02*
X138414285Y-86554704D01*
X138414285Y-86554704D02*
X138414285Y-86459466D01*
X138414285Y-86459466D02*
X138461904Y-86316609D01*
X138461904Y-86316609D02*
X139033332Y-85745180D01*
X139033332Y-85745180D02*
X138414285Y-85745180D01*
X148133333Y-76759580D02*
X148085714Y-76807200D01*
X148085714Y-76807200D02*
X147942857Y-76854819D01*
X147942857Y-76854819D02*
X147847619Y-76854819D01*
X147847619Y-76854819D02*
X147704762Y-76807200D01*
X147704762Y-76807200D02*
X147609524Y-76711961D01*
X147609524Y-76711961D02*
X147561905Y-76616723D01*
X147561905Y-76616723D02*
X147514286Y-76426247D01*
X147514286Y-76426247D02*
X147514286Y-76283390D01*
X147514286Y-76283390D02*
X147561905Y-76092914D01*
X147561905Y-76092914D02*
X147609524Y-75997676D01*
X147609524Y-75997676D02*
X147704762Y-75902438D01*
X147704762Y-75902438D02*
X147847619Y-75854819D01*
X147847619Y-75854819D02*
X147942857Y-75854819D01*
X147942857Y-75854819D02*
X148085714Y-75902438D01*
X148085714Y-75902438D02*
X148133333Y-75950057D01*
X149038095Y-75854819D02*
X148561905Y-75854819D01*
X148561905Y-75854819D02*
X148514286Y-76331009D01*
X148514286Y-76331009D02*
X148561905Y-76283390D01*
X148561905Y-76283390D02*
X148657143Y-76235771D01*
X148657143Y-76235771D02*
X148895238Y-76235771D01*
X148895238Y-76235771D02*
X148990476Y-76283390D01*
X148990476Y-76283390D02*
X149038095Y-76331009D01*
X149038095Y-76331009D02*
X149085714Y-76426247D01*
X149085714Y-76426247D02*
X149085714Y-76664342D01*
X149085714Y-76664342D02*
X149038095Y-76759580D01*
X149038095Y-76759580D02*
X148990476Y-76807200D01*
X148990476Y-76807200D02*
X148895238Y-76854819D01*
X148895238Y-76854819D02*
X148657143Y-76854819D01*
X148657143Y-76854819D02*
X148561905Y-76807200D01*
X148561905Y-76807200D02*
X148514286Y-76759580D01*
X140757142Y-73054819D02*
X140423809Y-72578628D01*
X140185714Y-73054819D02*
X140185714Y-72054819D01*
X140185714Y-72054819D02*
X140566666Y-72054819D01*
X140566666Y-72054819D02*
X140661904Y-72102438D01*
X140661904Y-72102438D02*
X140709523Y-72150057D01*
X140709523Y-72150057D02*
X140757142Y-72245295D01*
X140757142Y-72245295D02*
X140757142Y-72388152D01*
X140757142Y-72388152D02*
X140709523Y-72483390D01*
X140709523Y-72483390D02*
X140661904Y-72531009D01*
X140661904Y-72531009D02*
X140566666Y-72578628D01*
X140566666Y-72578628D02*
X140185714Y-72578628D01*
X141090476Y-72054819D02*
X141709523Y-72054819D01*
X141709523Y-72054819D02*
X141376190Y-72435771D01*
X141376190Y-72435771D02*
X141519047Y-72435771D01*
X141519047Y-72435771D02*
X141614285Y-72483390D01*
X141614285Y-72483390D02*
X141661904Y-72531009D01*
X141661904Y-72531009D02*
X141709523Y-72626247D01*
X141709523Y-72626247D02*
X141709523Y-72864342D01*
X141709523Y-72864342D02*
X141661904Y-72959580D01*
X141661904Y-72959580D02*
X141614285Y-73007200D01*
X141614285Y-73007200D02*
X141519047Y-73054819D01*
X141519047Y-73054819D02*
X141233333Y-73054819D01*
X141233333Y-73054819D02*
X141138095Y-73007200D01*
X141138095Y-73007200D02*
X141090476Y-72959580D01*
X142661904Y-73054819D02*
X142090476Y-73054819D01*
X142376190Y-73054819D02*
X142376190Y-72054819D01*
X142376190Y-72054819D02*
X142280952Y-72197676D01*
X142280952Y-72197676D02*
X142185714Y-72292914D01*
X142185714Y-72292914D02*
X142090476Y-72340533D01*
X132454819Y-60809523D02*
X133169104Y-60809523D01*
X133169104Y-60809523D02*
X133311961Y-60857142D01*
X133311961Y-60857142D02*
X133407200Y-60952380D01*
X133407200Y-60952380D02*
X133454819Y-61095237D01*
X133454819Y-61095237D02*
X133454819Y-61190475D01*
X133454819Y-59809523D02*
X133454819Y-60380951D01*
X133454819Y-60095237D02*
X132454819Y-60095237D01*
X132454819Y-60095237D02*
X132597676Y-60190475D01*
X132597676Y-60190475D02*
X132692914Y-60285713D01*
X132692914Y-60285713D02*
X132740533Y-60380951D01*
X132454819Y-59476189D02*
X132454819Y-58857142D01*
X132454819Y-58857142D02*
X132835771Y-59190475D01*
X132835771Y-59190475D02*
X132835771Y-59047618D01*
X132835771Y-59047618D02*
X132883390Y-58952380D01*
X132883390Y-58952380D02*
X132931009Y-58904761D01*
X132931009Y-58904761D02*
X133026247Y-58857142D01*
X133026247Y-58857142D02*
X133264342Y-58857142D01*
X133264342Y-58857142D02*
X133359580Y-58904761D01*
X133359580Y-58904761D02*
X133407200Y-58952380D01*
X133407200Y-58952380D02*
X133454819Y-59047618D01*
X133454819Y-59047618D02*
X133454819Y-59333332D01*
X133454819Y-59333332D02*
X133407200Y-59428570D01*
X133407200Y-59428570D02*
X133359580Y-59476189D01*
X128404761Y-76550057D02*
X128309523Y-76502438D01*
X128309523Y-76502438D02*
X128214285Y-76407200D01*
X128214285Y-76407200D02*
X128071428Y-76264342D01*
X128071428Y-76264342D02*
X127976190Y-76216723D01*
X127976190Y-76216723D02*
X127880952Y-76216723D01*
X127928571Y-76454819D02*
X127833333Y-76407200D01*
X127833333Y-76407200D02*
X127738095Y-76311961D01*
X127738095Y-76311961D02*
X127690476Y-76121485D01*
X127690476Y-76121485D02*
X127690476Y-75788152D01*
X127690476Y-75788152D02*
X127738095Y-75597676D01*
X127738095Y-75597676D02*
X127833333Y-75502438D01*
X127833333Y-75502438D02*
X127928571Y-75454819D01*
X127928571Y-75454819D02*
X128119047Y-75454819D01*
X128119047Y-75454819D02*
X128214285Y-75502438D01*
X128214285Y-75502438D02*
X128309523Y-75597676D01*
X128309523Y-75597676D02*
X128357142Y-75788152D01*
X128357142Y-75788152D02*
X128357142Y-76121485D01*
X128357142Y-76121485D02*
X128309523Y-76311961D01*
X128309523Y-76311961D02*
X128214285Y-76407200D01*
X128214285Y-76407200D02*
X128119047Y-76454819D01*
X128119047Y-76454819D02*
X127928571Y-76454819D01*
X128738095Y-75550057D02*
X128785714Y-75502438D01*
X128785714Y-75502438D02*
X128880952Y-75454819D01*
X128880952Y-75454819D02*
X129119047Y-75454819D01*
X129119047Y-75454819D02*
X129214285Y-75502438D01*
X129214285Y-75502438D02*
X129261904Y-75550057D01*
X129261904Y-75550057D02*
X129309523Y-75645295D01*
X129309523Y-75645295D02*
X129309523Y-75740533D01*
X129309523Y-75740533D02*
X129261904Y-75883390D01*
X129261904Y-75883390D02*
X128690476Y-76454819D01*
X128690476Y-76454819D02*
X129309523Y-76454819D01*
X148745180Y-50961905D02*
X149745180Y-50961905D01*
X149745180Y-50961905D02*
X149745180Y-51200000D01*
X149745180Y-51200000D02*
X149697561Y-51342857D01*
X149697561Y-51342857D02*
X149602323Y-51438095D01*
X149602323Y-51438095D02*
X149507085Y-51485714D01*
X149507085Y-51485714D02*
X149316609Y-51533333D01*
X149316609Y-51533333D02*
X149173752Y-51533333D01*
X149173752Y-51533333D02*
X148983276Y-51485714D01*
X148983276Y-51485714D02*
X148888038Y-51438095D01*
X148888038Y-51438095D02*
X148792800Y-51342857D01*
X148792800Y-51342857D02*
X148745180Y-51200000D01*
X148745180Y-51200000D02*
X148745180Y-50961905D01*
X149745180Y-52390476D02*
X149745180Y-52200000D01*
X149745180Y-52200000D02*
X149697561Y-52104762D01*
X149697561Y-52104762D02*
X149649942Y-52057143D01*
X149649942Y-52057143D02*
X149507085Y-51961905D01*
X149507085Y-51961905D02*
X149316609Y-51914286D01*
X149316609Y-51914286D02*
X148935657Y-51914286D01*
X148935657Y-51914286D02*
X148840419Y-51961905D01*
X148840419Y-51961905D02*
X148792800Y-52009524D01*
X148792800Y-52009524D02*
X148745180Y-52104762D01*
X148745180Y-52104762D02*
X148745180Y-52295238D01*
X148745180Y-52295238D02*
X148792800Y-52390476D01*
X148792800Y-52390476D02*
X148840419Y-52438095D01*
X148840419Y-52438095D02*
X148935657Y-52485714D01*
X148935657Y-52485714D02*
X149173752Y-52485714D01*
X149173752Y-52485714D02*
X149268990Y-52438095D01*
X149268990Y-52438095D02*
X149316609Y-52390476D01*
X149316609Y-52390476D02*
X149364228Y-52295238D01*
X149364228Y-52295238D02*
X149364228Y-52104762D01*
X149364228Y-52104762D02*
X149316609Y-52009524D01*
X149316609Y-52009524D02*
X149268990Y-51961905D01*
X149268990Y-51961905D02*
X149173752Y-51914286D01*
X142454819Y-99761904D02*
X143264342Y-99761904D01*
X143264342Y-99761904D02*
X143359580Y-99714285D01*
X143359580Y-99714285D02*
X143407200Y-99666666D01*
X143407200Y-99666666D02*
X143454819Y-99571428D01*
X143454819Y-99571428D02*
X143454819Y-99380952D01*
X143454819Y-99380952D02*
X143407200Y-99285714D01*
X143407200Y-99285714D02*
X143359580Y-99238095D01*
X143359580Y-99238095D02*
X143264342Y-99190476D01*
X143264342Y-99190476D02*
X142454819Y-99190476D01*
X142883390Y-98571428D02*
X142835771Y-98666666D01*
X142835771Y-98666666D02*
X142788152Y-98714285D01*
X142788152Y-98714285D02*
X142692914Y-98761904D01*
X142692914Y-98761904D02*
X142645295Y-98761904D01*
X142645295Y-98761904D02*
X142550057Y-98714285D01*
X142550057Y-98714285D02*
X142502438Y-98666666D01*
X142502438Y-98666666D02*
X142454819Y-98571428D01*
X142454819Y-98571428D02*
X142454819Y-98380952D01*
X142454819Y-98380952D02*
X142502438Y-98285714D01*
X142502438Y-98285714D02*
X142550057Y-98238095D01*
X142550057Y-98238095D02*
X142645295Y-98190476D01*
X142645295Y-98190476D02*
X142692914Y-98190476D01*
X142692914Y-98190476D02*
X142788152Y-98238095D01*
X142788152Y-98238095D02*
X142835771Y-98285714D01*
X142835771Y-98285714D02*
X142883390Y-98380952D01*
X142883390Y-98380952D02*
X142883390Y-98571428D01*
X142883390Y-98571428D02*
X142931009Y-98666666D01*
X142931009Y-98666666D02*
X142978628Y-98714285D01*
X142978628Y-98714285D02*
X143073866Y-98761904D01*
X143073866Y-98761904D02*
X143264342Y-98761904D01*
X143264342Y-98761904D02*
X143359580Y-98714285D01*
X143359580Y-98714285D02*
X143407200Y-98666666D01*
X143407200Y-98666666D02*
X143454819Y-98571428D01*
X143454819Y-98571428D02*
X143454819Y-98380952D01*
X143454819Y-98380952D02*
X143407200Y-98285714D01*
X143407200Y-98285714D02*
X143359580Y-98238095D01*
X143359580Y-98238095D02*
X143264342Y-98190476D01*
X143264342Y-98190476D02*
X143073866Y-98190476D01*
X143073866Y-98190476D02*
X142978628Y-98238095D01*
X142978628Y-98238095D02*
X142931009Y-98285714D01*
X142931009Y-98285714D02*
X142883390Y-98380952D01*
X158485945Y-67179580D02*
X159197513Y-67117326D01*
X159197513Y-67117326D02*
X159343976Y-67152313D01*
X159343976Y-67152313D02*
X159447153Y-67238888D01*
X159447153Y-67238888D02*
X159507041Y-67377052D01*
X159507041Y-67377052D02*
X159515342Y-67471927D01*
X158858932Y-66525536D02*
X158819795Y-66624561D01*
X158819795Y-66624561D02*
X158776507Y-66676150D01*
X158776507Y-66676150D02*
X158685782Y-66731888D01*
X158685782Y-66731888D02*
X158638344Y-66736038D01*
X158638344Y-66736038D02*
X158539318Y-66696901D01*
X158539318Y-66696901D02*
X158487730Y-66653613D01*
X158487730Y-66653613D02*
X158431991Y-66562888D01*
X158431991Y-66562888D02*
X158415390Y-66373137D01*
X158415390Y-66373137D02*
X158454528Y-66274111D01*
X158454528Y-66274111D02*
X158497815Y-66222523D01*
X158497815Y-66222523D02*
X158588541Y-66166784D01*
X158588541Y-66166784D02*
X158635979Y-66162634D01*
X158635979Y-66162634D02*
X158735004Y-66201771D01*
X158735004Y-66201771D02*
X158786593Y-66245059D01*
X158786593Y-66245059D02*
X158842331Y-66335784D01*
X158842331Y-66335784D02*
X158858932Y-66525536D01*
X158858932Y-66525536D02*
X158914670Y-66616261D01*
X158914670Y-66616261D02*
X158966259Y-66659549D01*
X158966259Y-66659549D02*
X159065285Y-66698686D01*
X159065285Y-66698686D02*
X159255036Y-66682085D01*
X159255036Y-66682085D02*
X159345761Y-66626346D01*
X159345761Y-66626346D02*
X159389049Y-66574758D01*
X159389049Y-66574758D02*
X159428186Y-66475732D01*
X159428186Y-66475732D02*
X159411585Y-66285981D01*
X159411585Y-66285981D02*
X159355847Y-66195255D01*
X159355847Y-66195255D02*
X159304259Y-66151968D01*
X159304259Y-66151968D02*
X159205233Y-66112831D01*
X159205233Y-66112831D02*
X159015481Y-66129432D01*
X159015481Y-66129432D02*
X158924756Y-66185170D01*
X158924756Y-66185170D02*
X158881468Y-66236758D01*
X158881468Y-66236758D02*
X158842331Y-66335784D01*
X132454819Y-44133333D02*
X133169104Y-44133333D01*
X133169104Y-44133333D02*
X133311961Y-44180952D01*
X133311961Y-44180952D02*
X133407200Y-44276190D01*
X133407200Y-44276190D02*
X133454819Y-44419047D01*
X133454819Y-44419047D02*
X133454819Y-44514285D01*
X132550057Y-43704761D02*
X132502438Y-43657142D01*
X132502438Y-43657142D02*
X132454819Y-43561904D01*
X132454819Y-43561904D02*
X132454819Y-43323809D01*
X132454819Y-43323809D02*
X132502438Y-43228571D01*
X132502438Y-43228571D02*
X132550057Y-43180952D01*
X132550057Y-43180952D02*
X132645295Y-43133333D01*
X132645295Y-43133333D02*
X132740533Y-43133333D01*
X132740533Y-43133333D02*
X132883390Y-43180952D01*
X132883390Y-43180952D02*
X133454819Y-43752380D01*
X133454819Y-43752380D02*
X133454819Y-43133333D01*
X149190476Y-67954819D02*
X149190476Y-68669104D01*
X149190476Y-68669104D02*
X149142857Y-68811961D01*
X149142857Y-68811961D02*
X149047619Y-68907200D01*
X149047619Y-68907200D02*
X148904762Y-68954819D01*
X148904762Y-68954819D02*
X148809524Y-68954819D01*
X150190476Y-68954819D02*
X149619048Y-68954819D01*
X149904762Y-68954819D02*
X149904762Y-67954819D01*
X149904762Y-67954819D02*
X149809524Y-68097676D01*
X149809524Y-68097676D02*
X149714286Y-68192914D01*
X149714286Y-68192914D02*
X149619048Y-68240533D01*
X150809524Y-67954819D02*
X150904762Y-67954819D01*
X150904762Y-67954819D02*
X151000000Y-68002438D01*
X151000000Y-68002438D02*
X151047619Y-68050057D01*
X151047619Y-68050057D02*
X151095238Y-68145295D01*
X151095238Y-68145295D02*
X151142857Y-68335771D01*
X151142857Y-68335771D02*
X151142857Y-68573866D01*
X151142857Y-68573866D02*
X151095238Y-68764342D01*
X151095238Y-68764342D02*
X151047619Y-68859580D01*
X151047619Y-68859580D02*
X151000000Y-68907200D01*
X151000000Y-68907200D02*
X150904762Y-68954819D01*
X150904762Y-68954819D02*
X150809524Y-68954819D01*
X150809524Y-68954819D02*
X150714286Y-68907200D01*
X150714286Y-68907200D02*
X150666667Y-68859580D01*
X150666667Y-68859580D02*
X150619048Y-68764342D01*
X150619048Y-68764342D02*
X150571429Y-68573866D01*
X150571429Y-68573866D02*
X150571429Y-68335771D01*
X150571429Y-68335771D02*
X150619048Y-68145295D01*
X150619048Y-68145295D02*
X150666667Y-68050057D01*
X150666667Y-68050057D02*
X150714286Y-68002438D01*
X150714286Y-68002438D02*
X150809524Y-67954819D01*
X146449942Y-43704761D02*
X146497561Y-43609523D01*
X146497561Y-43609523D02*
X146592800Y-43514285D01*
X146592800Y-43514285D02*
X146735657Y-43371428D01*
X146735657Y-43371428D02*
X146783276Y-43276190D01*
X146783276Y-43276190D02*
X146783276Y-43180952D01*
X146545180Y-43228571D02*
X146592800Y-43133333D01*
X146592800Y-43133333D02*
X146688038Y-43038095D01*
X146688038Y-43038095D02*
X146878514Y-42990476D01*
X146878514Y-42990476D02*
X147211847Y-42990476D01*
X147211847Y-42990476D02*
X147402323Y-43038095D01*
X147402323Y-43038095D02*
X147497561Y-43133333D01*
X147497561Y-43133333D02*
X147545180Y-43228571D01*
X147545180Y-43228571D02*
X147545180Y-43419047D01*
X147545180Y-43419047D02*
X147497561Y-43514285D01*
X147497561Y-43514285D02*
X147402323Y-43609523D01*
X147402323Y-43609523D02*
X147211847Y-43657142D01*
X147211847Y-43657142D02*
X146878514Y-43657142D01*
X146878514Y-43657142D02*
X146688038Y-43609523D01*
X146688038Y-43609523D02*
X146592800Y-43514285D01*
X146592800Y-43514285D02*
X146545180Y-43419047D01*
X146545180Y-43419047D02*
X146545180Y-43228571D01*
X147545180Y-43990476D02*
X147545180Y-44609523D01*
X147545180Y-44609523D02*
X147164228Y-44276190D01*
X147164228Y-44276190D02*
X147164228Y-44419047D01*
X147164228Y-44419047D02*
X147116609Y-44514285D01*
X147116609Y-44514285D02*
X147068990Y-44561904D01*
X147068990Y-44561904D02*
X146973752Y-44609523D01*
X146973752Y-44609523D02*
X146735657Y-44609523D01*
X146735657Y-44609523D02*
X146640419Y-44561904D01*
X146640419Y-44561904D02*
X146592800Y-44514285D01*
X146592800Y-44514285D02*
X146545180Y-44419047D01*
X146545180Y-44419047D02*
X146545180Y-44133333D01*
X146545180Y-44133333D02*
X146592800Y-44038095D01*
X146592800Y-44038095D02*
X146640419Y-43990476D01*
X135857142Y-87054819D02*
X135523809Y-86578628D01*
X135285714Y-87054819D02*
X135285714Y-86054819D01*
X135285714Y-86054819D02*
X135666666Y-86054819D01*
X135666666Y-86054819D02*
X135761904Y-86102438D01*
X135761904Y-86102438D02*
X135809523Y-86150057D01*
X135809523Y-86150057D02*
X135857142Y-86245295D01*
X135857142Y-86245295D02*
X135857142Y-86388152D01*
X135857142Y-86388152D02*
X135809523Y-86483390D01*
X135809523Y-86483390D02*
X135761904Y-86531009D01*
X135761904Y-86531009D02*
X135666666Y-86578628D01*
X135666666Y-86578628D02*
X135285714Y-86578628D01*
X136190476Y-86054819D02*
X136809523Y-86054819D01*
X136809523Y-86054819D02*
X136476190Y-86435771D01*
X136476190Y-86435771D02*
X136619047Y-86435771D01*
X136619047Y-86435771D02*
X136714285Y-86483390D01*
X136714285Y-86483390D02*
X136761904Y-86531009D01*
X136761904Y-86531009D02*
X136809523Y-86626247D01*
X136809523Y-86626247D02*
X136809523Y-86864342D01*
X136809523Y-86864342D02*
X136761904Y-86959580D01*
X136761904Y-86959580D02*
X136714285Y-87007200D01*
X136714285Y-87007200D02*
X136619047Y-87054819D01*
X136619047Y-87054819D02*
X136333333Y-87054819D01*
X136333333Y-87054819D02*
X136238095Y-87007200D01*
X136238095Y-87007200D02*
X136190476Y-86959580D01*
X137666666Y-86388152D02*
X137666666Y-87054819D01*
X137428571Y-86007200D02*
X137190476Y-86721485D01*
X137190476Y-86721485D02*
X137809523Y-86721485D01*
X148045180Y-115761905D02*
X149045180Y-115761905D01*
X149045180Y-115761905D02*
X149045180Y-116000000D01*
X149045180Y-116000000D02*
X148997561Y-116142857D01*
X148997561Y-116142857D02*
X148902323Y-116238095D01*
X148902323Y-116238095D02*
X148807085Y-116285714D01*
X148807085Y-116285714D02*
X148616609Y-116333333D01*
X148616609Y-116333333D02*
X148473752Y-116333333D01*
X148473752Y-116333333D02*
X148283276Y-116285714D01*
X148283276Y-116285714D02*
X148188038Y-116238095D01*
X148188038Y-116238095D02*
X148092800Y-116142857D01*
X148092800Y-116142857D02*
X148045180Y-116000000D01*
X148045180Y-116000000D02*
X148045180Y-115761905D01*
X149045180Y-117238095D02*
X149045180Y-116761905D01*
X149045180Y-116761905D02*
X148568990Y-116714286D01*
X148568990Y-116714286D02*
X148616609Y-116761905D01*
X148616609Y-116761905D02*
X148664228Y-116857143D01*
X148664228Y-116857143D02*
X148664228Y-117095238D01*
X148664228Y-117095238D02*
X148616609Y-117190476D01*
X148616609Y-117190476D02*
X148568990Y-117238095D01*
X148568990Y-117238095D02*
X148473752Y-117285714D01*
X148473752Y-117285714D02*
X148235657Y-117285714D01*
X148235657Y-117285714D02*
X148140419Y-117238095D01*
X148140419Y-117238095D02*
X148092800Y-117190476D01*
X148092800Y-117190476D02*
X148045180Y-117095238D01*
X148045180Y-117095238D02*
X148045180Y-116857143D01*
X148045180Y-116857143D02*
X148092800Y-116761905D01*
X148092800Y-116761905D02*
X148140419Y-116714286D01*
X138857142Y-74254819D02*
X138523809Y-73778628D01*
X138285714Y-74254819D02*
X138285714Y-73254819D01*
X138285714Y-73254819D02*
X138666666Y-73254819D01*
X138666666Y-73254819D02*
X138761904Y-73302438D01*
X138761904Y-73302438D02*
X138809523Y-73350057D01*
X138809523Y-73350057D02*
X138857142Y-73445295D01*
X138857142Y-73445295D02*
X138857142Y-73588152D01*
X138857142Y-73588152D02*
X138809523Y-73683390D01*
X138809523Y-73683390D02*
X138761904Y-73731009D01*
X138761904Y-73731009D02*
X138666666Y-73778628D01*
X138666666Y-73778628D02*
X138285714Y-73778628D01*
X139190476Y-73254819D02*
X139809523Y-73254819D01*
X139809523Y-73254819D02*
X139476190Y-73635771D01*
X139476190Y-73635771D02*
X139619047Y-73635771D01*
X139619047Y-73635771D02*
X139714285Y-73683390D01*
X139714285Y-73683390D02*
X139761904Y-73731009D01*
X139761904Y-73731009D02*
X139809523Y-73826247D01*
X139809523Y-73826247D02*
X139809523Y-74064342D01*
X139809523Y-74064342D02*
X139761904Y-74159580D01*
X139761904Y-74159580D02*
X139714285Y-74207200D01*
X139714285Y-74207200D02*
X139619047Y-74254819D01*
X139619047Y-74254819D02*
X139333333Y-74254819D01*
X139333333Y-74254819D02*
X139238095Y-74207200D01*
X139238095Y-74207200D02*
X139190476Y-74159580D01*
X140190476Y-73350057D02*
X140238095Y-73302438D01*
X140238095Y-73302438D02*
X140333333Y-73254819D01*
X140333333Y-73254819D02*
X140571428Y-73254819D01*
X140571428Y-73254819D02*
X140666666Y-73302438D01*
X140666666Y-73302438D02*
X140714285Y-73350057D01*
X140714285Y-73350057D02*
X140761904Y-73445295D01*
X140761904Y-73445295D02*
X140761904Y-73540533D01*
X140761904Y-73540533D02*
X140714285Y-73683390D01*
X140714285Y-73683390D02*
X140142857Y-74254819D01*
X140142857Y-74254819D02*
X140761904Y-74254819D01*
X164459580Y-86672857D02*
X164507200Y-86720476D01*
X164507200Y-86720476D02*
X164554819Y-86863333D01*
X164554819Y-86863333D02*
X164554819Y-86958571D01*
X164554819Y-86958571D02*
X164507200Y-87101428D01*
X164507200Y-87101428D02*
X164411961Y-87196666D01*
X164411961Y-87196666D02*
X164316723Y-87244285D01*
X164316723Y-87244285D02*
X164126247Y-87291904D01*
X164126247Y-87291904D02*
X163983390Y-87291904D01*
X163983390Y-87291904D02*
X163792914Y-87244285D01*
X163792914Y-87244285D02*
X163697676Y-87196666D01*
X163697676Y-87196666D02*
X163602438Y-87101428D01*
X163602438Y-87101428D02*
X163554819Y-86958571D01*
X163554819Y-86958571D02*
X163554819Y-86863333D01*
X163554819Y-86863333D02*
X163602438Y-86720476D01*
X163602438Y-86720476D02*
X163650057Y-86672857D01*
X163650057Y-86291904D02*
X163602438Y-86244285D01*
X163602438Y-86244285D02*
X163554819Y-86149047D01*
X163554819Y-86149047D02*
X163554819Y-85910952D01*
X163554819Y-85910952D02*
X163602438Y-85815714D01*
X163602438Y-85815714D02*
X163650057Y-85768095D01*
X163650057Y-85768095D02*
X163745295Y-85720476D01*
X163745295Y-85720476D02*
X163840533Y-85720476D01*
X163840533Y-85720476D02*
X163983390Y-85768095D01*
X163983390Y-85768095D02*
X164554819Y-86339523D01*
X164554819Y-86339523D02*
X164554819Y-85720476D01*
X163554819Y-84863333D02*
X163554819Y-85053809D01*
X163554819Y-85053809D02*
X163602438Y-85149047D01*
X163602438Y-85149047D02*
X163650057Y-85196666D01*
X163650057Y-85196666D02*
X163792914Y-85291904D01*
X163792914Y-85291904D02*
X163983390Y-85339523D01*
X163983390Y-85339523D02*
X164364342Y-85339523D01*
X164364342Y-85339523D02*
X164459580Y-85291904D01*
X164459580Y-85291904D02*
X164507200Y-85244285D01*
X164507200Y-85244285D02*
X164554819Y-85149047D01*
X164554819Y-85149047D02*
X164554819Y-84958571D01*
X164554819Y-84958571D02*
X164507200Y-84863333D01*
X164507200Y-84863333D02*
X164459580Y-84815714D01*
X164459580Y-84815714D02*
X164364342Y-84768095D01*
X164364342Y-84768095D02*
X164126247Y-84768095D01*
X164126247Y-84768095D02*
X164031009Y-84815714D01*
X164031009Y-84815714D02*
X163983390Y-84863333D01*
X163983390Y-84863333D02*
X163935771Y-84958571D01*
X163935771Y-84958571D02*
X163935771Y-85149047D01*
X163935771Y-85149047D02*
X163983390Y-85244285D01*
X163983390Y-85244285D02*
X164031009Y-85291904D01*
X164031009Y-85291904D02*
X164126247Y-85339523D01*
X159957142Y-89424819D02*
X159623809Y-88948628D01*
X159385714Y-89424819D02*
X159385714Y-88424819D01*
X159385714Y-88424819D02*
X159766666Y-88424819D01*
X159766666Y-88424819D02*
X159861904Y-88472438D01*
X159861904Y-88472438D02*
X159909523Y-88520057D01*
X159909523Y-88520057D02*
X159957142Y-88615295D01*
X159957142Y-88615295D02*
X159957142Y-88758152D01*
X159957142Y-88758152D02*
X159909523Y-88853390D01*
X159909523Y-88853390D02*
X159861904Y-88901009D01*
X159861904Y-88901009D02*
X159766666Y-88948628D01*
X159766666Y-88948628D02*
X159385714Y-88948628D01*
X160338095Y-88520057D02*
X160385714Y-88472438D01*
X160385714Y-88472438D02*
X160480952Y-88424819D01*
X160480952Y-88424819D02*
X160719047Y-88424819D01*
X160719047Y-88424819D02*
X160814285Y-88472438D01*
X160814285Y-88472438D02*
X160861904Y-88520057D01*
X160861904Y-88520057D02*
X160909523Y-88615295D01*
X160909523Y-88615295D02*
X160909523Y-88710533D01*
X160909523Y-88710533D02*
X160861904Y-88853390D01*
X160861904Y-88853390D02*
X160290476Y-89424819D01*
X160290476Y-89424819D02*
X160909523Y-89424819D01*
X161385714Y-89424819D02*
X161576190Y-89424819D01*
X161576190Y-89424819D02*
X161671428Y-89377200D01*
X161671428Y-89377200D02*
X161719047Y-89329580D01*
X161719047Y-89329580D02*
X161814285Y-89186723D01*
X161814285Y-89186723D02*
X161861904Y-88996247D01*
X161861904Y-88996247D02*
X161861904Y-88615295D01*
X161861904Y-88615295D02*
X161814285Y-88520057D01*
X161814285Y-88520057D02*
X161766666Y-88472438D01*
X161766666Y-88472438D02*
X161671428Y-88424819D01*
X161671428Y-88424819D02*
X161480952Y-88424819D01*
X161480952Y-88424819D02*
X161385714Y-88472438D01*
X161385714Y-88472438D02*
X161338095Y-88520057D01*
X161338095Y-88520057D02*
X161290476Y-88615295D01*
X161290476Y-88615295D02*
X161290476Y-88853390D01*
X161290476Y-88853390D02*
X161338095Y-88948628D01*
X161338095Y-88948628D02*
X161385714Y-88996247D01*
X161385714Y-88996247D02*
X161480952Y-89043866D01*
X161480952Y-89043866D02*
X161671428Y-89043866D01*
X161671428Y-89043866D02*
X161766666Y-88996247D01*
X161766666Y-88996247D02*
X161814285Y-88948628D01*
X161814285Y-88948628D02*
X161861904Y-88853390D01*
X156257142Y-66059580D02*
X156209523Y-66107200D01*
X156209523Y-66107200D02*
X156066666Y-66154819D01*
X156066666Y-66154819D02*
X155971428Y-66154819D01*
X155971428Y-66154819D02*
X155828571Y-66107200D01*
X155828571Y-66107200D02*
X155733333Y-66011961D01*
X155733333Y-66011961D02*
X155685714Y-65916723D01*
X155685714Y-65916723D02*
X155638095Y-65726247D01*
X155638095Y-65726247D02*
X155638095Y-65583390D01*
X155638095Y-65583390D02*
X155685714Y-65392914D01*
X155685714Y-65392914D02*
X155733333Y-65297676D01*
X155733333Y-65297676D02*
X155828571Y-65202438D01*
X155828571Y-65202438D02*
X155971428Y-65154819D01*
X155971428Y-65154819D02*
X156066666Y-65154819D01*
X156066666Y-65154819D02*
X156209523Y-65202438D01*
X156209523Y-65202438D02*
X156257142Y-65250057D01*
X156638095Y-65250057D02*
X156685714Y-65202438D01*
X156685714Y-65202438D02*
X156780952Y-65154819D01*
X156780952Y-65154819D02*
X157019047Y-65154819D01*
X157019047Y-65154819D02*
X157114285Y-65202438D01*
X157114285Y-65202438D02*
X157161904Y-65250057D01*
X157161904Y-65250057D02*
X157209523Y-65345295D01*
X157209523Y-65345295D02*
X157209523Y-65440533D01*
X157209523Y-65440533D02*
X157161904Y-65583390D01*
X157161904Y-65583390D02*
X156590476Y-66154819D01*
X156590476Y-66154819D02*
X157209523Y-66154819D01*
X157780952Y-65583390D02*
X157685714Y-65535771D01*
X157685714Y-65535771D02*
X157638095Y-65488152D01*
X157638095Y-65488152D02*
X157590476Y-65392914D01*
X157590476Y-65392914D02*
X157590476Y-65345295D01*
X157590476Y-65345295D02*
X157638095Y-65250057D01*
X157638095Y-65250057D02*
X157685714Y-65202438D01*
X157685714Y-65202438D02*
X157780952Y-65154819D01*
X157780952Y-65154819D02*
X157971428Y-65154819D01*
X157971428Y-65154819D02*
X158066666Y-65202438D01*
X158066666Y-65202438D02*
X158114285Y-65250057D01*
X158114285Y-65250057D02*
X158161904Y-65345295D01*
X158161904Y-65345295D02*
X158161904Y-65392914D01*
X158161904Y-65392914D02*
X158114285Y-65488152D01*
X158114285Y-65488152D02*
X158066666Y-65535771D01*
X158066666Y-65535771D02*
X157971428Y-65583390D01*
X157971428Y-65583390D02*
X157780952Y-65583390D01*
X157780952Y-65583390D02*
X157685714Y-65631009D01*
X157685714Y-65631009D02*
X157638095Y-65678628D01*
X157638095Y-65678628D02*
X157590476Y-65773866D01*
X157590476Y-65773866D02*
X157590476Y-65964342D01*
X157590476Y-65964342D02*
X157638095Y-66059580D01*
X157638095Y-66059580D02*
X157685714Y-66107200D01*
X157685714Y-66107200D02*
X157780952Y-66154819D01*
X157780952Y-66154819D02*
X157971428Y-66154819D01*
X157971428Y-66154819D02*
X158066666Y-66107200D01*
X158066666Y-66107200D02*
X158114285Y-66059580D01*
X158114285Y-66059580D02*
X158161904Y-65964342D01*
X158161904Y-65964342D02*
X158161904Y-65773866D01*
X158161904Y-65773866D02*
X158114285Y-65678628D01*
X158114285Y-65678628D02*
X158066666Y-65631009D01*
X158066666Y-65631009D02*
X157971428Y-65583390D01*
X163157142Y-82659580D02*
X163109523Y-82707200D01*
X163109523Y-82707200D02*
X162966666Y-82754819D01*
X162966666Y-82754819D02*
X162871428Y-82754819D01*
X162871428Y-82754819D02*
X162728571Y-82707200D01*
X162728571Y-82707200D02*
X162633333Y-82611961D01*
X162633333Y-82611961D02*
X162585714Y-82516723D01*
X162585714Y-82516723D02*
X162538095Y-82326247D01*
X162538095Y-82326247D02*
X162538095Y-82183390D01*
X162538095Y-82183390D02*
X162585714Y-81992914D01*
X162585714Y-81992914D02*
X162633333Y-81897676D01*
X162633333Y-81897676D02*
X162728571Y-81802438D01*
X162728571Y-81802438D02*
X162871428Y-81754819D01*
X162871428Y-81754819D02*
X162966666Y-81754819D01*
X162966666Y-81754819D02*
X163109523Y-81802438D01*
X163109523Y-81802438D02*
X163157142Y-81850057D01*
X163538095Y-81850057D02*
X163585714Y-81802438D01*
X163585714Y-81802438D02*
X163680952Y-81754819D01*
X163680952Y-81754819D02*
X163919047Y-81754819D01*
X163919047Y-81754819D02*
X164014285Y-81802438D01*
X164014285Y-81802438D02*
X164061904Y-81850057D01*
X164061904Y-81850057D02*
X164109523Y-81945295D01*
X164109523Y-81945295D02*
X164109523Y-82040533D01*
X164109523Y-82040533D02*
X164061904Y-82183390D01*
X164061904Y-82183390D02*
X163490476Y-82754819D01*
X163490476Y-82754819D02*
X164109523Y-82754819D01*
X165061904Y-82754819D02*
X164490476Y-82754819D01*
X164776190Y-82754819D02*
X164776190Y-81754819D01*
X164776190Y-81754819D02*
X164680952Y-81897676D01*
X164680952Y-81897676D02*
X164585714Y-81992914D01*
X164585714Y-81992914D02*
X164490476Y-82040533D01*
X122461905Y-69354819D02*
X122461905Y-68354819D01*
X122461905Y-68354819D02*
X122700000Y-68354819D01*
X122700000Y-68354819D02*
X122842857Y-68402438D01*
X122842857Y-68402438D02*
X122938095Y-68497676D01*
X122938095Y-68497676D02*
X122985714Y-68592914D01*
X122985714Y-68592914D02*
X123033333Y-68783390D01*
X123033333Y-68783390D02*
X123033333Y-68926247D01*
X123033333Y-68926247D02*
X122985714Y-69116723D01*
X122985714Y-69116723D02*
X122938095Y-69211961D01*
X122938095Y-69211961D02*
X122842857Y-69307200D01*
X122842857Y-69307200D02*
X122700000Y-69354819D01*
X122700000Y-69354819D02*
X122461905Y-69354819D01*
X123985714Y-69354819D02*
X123414286Y-69354819D01*
X123700000Y-69354819D02*
X123700000Y-68354819D01*
X123700000Y-68354819D02*
X123604762Y-68497676D01*
X123604762Y-68497676D02*
X123509524Y-68592914D01*
X123509524Y-68592914D02*
X123414286Y-68640533D01*
X126554819Y-80509523D02*
X127269104Y-80509523D01*
X127269104Y-80509523D02*
X127411961Y-80557142D01*
X127411961Y-80557142D02*
X127507200Y-80652380D01*
X127507200Y-80652380D02*
X127554819Y-80795237D01*
X127554819Y-80795237D02*
X127554819Y-80890475D01*
X127554819Y-79509523D02*
X127554819Y-80080951D01*
X127554819Y-79795237D02*
X126554819Y-79795237D01*
X126554819Y-79795237D02*
X126697676Y-79890475D01*
X126697676Y-79890475D02*
X126792914Y-79985713D01*
X126792914Y-79985713D02*
X126840533Y-80080951D01*
X126888152Y-78652380D02*
X127554819Y-78652380D01*
X126507200Y-78890475D02*
X127221485Y-79128570D01*
X127221485Y-79128570D02*
X127221485Y-78509523D01*
X145059580Y-121642857D02*
X145107200Y-121690476D01*
X145107200Y-121690476D02*
X145154819Y-121833333D01*
X145154819Y-121833333D02*
X145154819Y-121928571D01*
X145154819Y-121928571D02*
X145107200Y-122071428D01*
X145107200Y-122071428D02*
X145011961Y-122166666D01*
X145011961Y-122166666D02*
X144916723Y-122214285D01*
X144916723Y-122214285D02*
X144726247Y-122261904D01*
X144726247Y-122261904D02*
X144583390Y-122261904D01*
X144583390Y-122261904D02*
X144392914Y-122214285D01*
X144392914Y-122214285D02*
X144297676Y-122166666D01*
X144297676Y-122166666D02*
X144202438Y-122071428D01*
X144202438Y-122071428D02*
X144154819Y-121928571D01*
X144154819Y-121928571D02*
X144154819Y-121833333D01*
X144154819Y-121833333D02*
X144202438Y-121690476D01*
X144202438Y-121690476D02*
X144250057Y-121642857D01*
X145154819Y-120690476D02*
X145154819Y-121261904D01*
X145154819Y-120976190D02*
X144154819Y-120976190D01*
X144154819Y-120976190D02*
X144297676Y-121071428D01*
X144297676Y-121071428D02*
X144392914Y-121166666D01*
X144392914Y-121166666D02*
X144440533Y-121261904D01*
X144250057Y-120309523D02*
X144202438Y-120261904D01*
X144202438Y-120261904D02*
X144154819Y-120166666D01*
X144154819Y-120166666D02*
X144154819Y-119928571D01*
X144154819Y-119928571D02*
X144202438Y-119833333D01*
X144202438Y-119833333D02*
X144250057Y-119785714D01*
X144250057Y-119785714D02*
X144345295Y-119738095D01*
X144345295Y-119738095D02*
X144440533Y-119738095D01*
X144440533Y-119738095D02*
X144583390Y-119785714D01*
X144583390Y-119785714D02*
X145154819Y-120357142D01*
X145154819Y-120357142D02*
X145154819Y-119738095D01*
X132854819Y-46466666D02*
X132378628Y-46799999D01*
X132854819Y-47038094D02*
X131854819Y-47038094D01*
X131854819Y-47038094D02*
X131854819Y-46657142D01*
X131854819Y-46657142D02*
X131902438Y-46561904D01*
X131902438Y-46561904D02*
X131950057Y-46514285D01*
X131950057Y-46514285D02*
X132045295Y-46466666D01*
X132045295Y-46466666D02*
X132188152Y-46466666D01*
X132188152Y-46466666D02*
X132283390Y-46514285D01*
X132283390Y-46514285D02*
X132331009Y-46561904D01*
X132331009Y-46561904D02*
X132378628Y-46657142D01*
X132378628Y-46657142D02*
X132378628Y-47038094D01*
X132283390Y-45895237D02*
X132235771Y-45990475D01*
X132235771Y-45990475D02*
X132188152Y-46038094D01*
X132188152Y-46038094D02*
X132092914Y-46085713D01*
X132092914Y-46085713D02*
X132045295Y-46085713D01*
X132045295Y-46085713D02*
X131950057Y-46038094D01*
X131950057Y-46038094D02*
X131902438Y-45990475D01*
X131902438Y-45990475D02*
X131854819Y-45895237D01*
X131854819Y-45895237D02*
X131854819Y-45704761D01*
X131854819Y-45704761D02*
X131902438Y-45609523D01*
X131902438Y-45609523D02*
X131950057Y-45561904D01*
X131950057Y-45561904D02*
X132045295Y-45514285D01*
X132045295Y-45514285D02*
X132092914Y-45514285D01*
X132092914Y-45514285D02*
X132188152Y-45561904D01*
X132188152Y-45561904D02*
X132235771Y-45609523D01*
X132235771Y-45609523D02*
X132283390Y-45704761D01*
X132283390Y-45704761D02*
X132283390Y-45895237D01*
X132283390Y-45895237D02*
X132331009Y-45990475D01*
X132331009Y-45990475D02*
X132378628Y-46038094D01*
X132378628Y-46038094D02*
X132473866Y-46085713D01*
X132473866Y-46085713D02*
X132664342Y-46085713D01*
X132664342Y-46085713D02*
X132759580Y-46038094D01*
X132759580Y-46038094D02*
X132807200Y-45990475D01*
X132807200Y-45990475D02*
X132854819Y-45895237D01*
X132854819Y-45895237D02*
X132854819Y-45704761D01*
X132854819Y-45704761D02*
X132807200Y-45609523D01*
X132807200Y-45609523D02*
X132759580Y-45561904D01*
X132759580Y-45561904D02*
X132664342Y-45514285D01*
X132664342Y-45514285D02*
X132473866Y-45514285D01*
X132473866Y-45514285D02*
X132378628Y-45561904D01*
X132378628Y-45561904D02*
X132331009Y-45609523D01*
X132331009Y-45609523D02*
X132283390Y-45704761D01*
X168885714Y-77304819D02*
X168885714Y-76304819D01*
X168885714Y-76304819D02*
X169123809Y-76304819D01*
X169123809Y-76304819D02*
X169266666Y-76352438D01*
X169266666Y-76352438D02*
X169361904Y-76447676D01*
X169361904Y-76447676D02*
X169409523Y-76542914D01*
X169409523Y-76542914D02*
X169457142Y-76733390D01*
X169457142Y-76733390D02*
X169457142Y-76876247D01*
X169457142Y-76876247D02*
X169409523Y-77066723D01*
X169409523Y-77066723D02*
X169361904Y-77161961D01*
X169361904Y-77161961D02*
X169266666Y-77257200D01*
X169266666Y-77257200D02*
X169123809Y-77304819D01*
X169123809Y-77304819D02*
X168885714Y-77304819D01*
X170409523Y-77304819D02*
X169838095Y-77304819D01*
X170123809Y-77304819D02*
X170123809Y-76304819D01*
X170123809Y-76304819D02*
X170028571Y-76447676D01*
X170028571Y-76447676D02*
X169933333Y-76542914D01*
X169933333Y-76542914D02*
X169838095Y-76590533D01*
X171028571Y-76304819D02*
X171123809Y-76304819D01*
X171123809Y-76304819D02*
X171219047Y-76352438D01*
X171219047Y-76352438D02*
X171266666Y-76400057D01*
X171266666Y-76400057D02*
X171314285Y-76495295D01*
X171314285Y-76495295D02*
X171361904Y-76685771D01*
X171361904Y-76685771D02*
X171361904Y-76923866D01*
X171361904Y-76923866D02*
X171314285Y-77114342D01*
X171314285Y-77114342D02*
X171266666Y-77209580D01*
X171266666Y-77209580D02*
X171219047Y-77257200D01*
X171219047Y-77257200D02*
X171123809Y-77304819D01*
X171123809Y-77304819D02*
X171028571Y-77304819D01*
X171028571Y-77304819D02*
X170933333Y-77257200D01*
X170933333Y-77257200D02*
X170885714Y-77209580D01*
X170885714Y-77209580D02*
X170838095Y-77114342D01*
X170838095Y-77114342D02*
X170790476Y-76923866D01*
X170790476Y-76923866D02*
X170790476Y-76685771D01*
X170790476Y-76685771D02*
X170838095Y-76495295D01*
X170838095Y-76495295D02*
X170885714Y-76400057D01*
X170885714Y-76400057D02*
X170933333Y-76352438D01*
X170933333Y-76352438D02*
X171028571Y-76304819D01*
X147945180Y-43061905D02*
X148945180Y-43061905D01*
X148945180Y-43061905D02*
X148945180Y-43300000D01*
X148945180Y-43300000D02*
X148897561Y-43442857D01*
X148897561Y-43442857D02*
X148802323Y-43538095D01*
X148802323Y-43538095D02*
X148707085Y-43585714D01*
X148707085Y-43585714D02*
X148516609Y-43633333D01*
X148516609Y-43633333D02*
X148373752Y-43633333D01*
X148373752Y-43633333D02*
X148183276Y-43585714D01*
X148183276Y-43585714D02*
X148088038Y-43538095D01*
X148088038Y-43538095D02*
X147992800Y-43442857D01*
X147992800Y-43442857D02*
X147945180Y-43300000D01*
X147945180Y-43300000D02*
X147945180Y-43061905D01*
X148945180Y-43966667D02*
X148945180Y-44585714D01*
X148945180Y-44585714D02*
X148564228Y-44252381D01*
X148564228Y-44252381D02*
X148564228Y-44395238D01*
X148564228Y-44395238D02*
X148516609Y-44490476D01*
X148516609Y-44490476D02*
X148468990Y-44538095D01*
X148468990Y-44538095D02*
X148373752Y-44585714D01*
X148373752Y-44585714D02*
X148135657Y-44585714D01*
X148135657Y-44585714D02*
X148040419Y-44538095D01*
X148040419Y-44538095D02*
X147992800Y-44490476D01*
X147992800Y-44490476D02*
X147945180Y-44395238D01*
X147945180Y-44395238D02*
X147945180Y-44109524D01*
X147945180Y-44109524D02*
X147992800Y-44014286D01*
X147992800Y-44014286D02*
X148040419Y-43966667D01*
X126933333Y-68254819D02*
X126600000Y-67778628D01*
X126361905Y-68254819D02*
X126361905Y-67254819D01*
X126361905Y-67254819D02*
X126742857Y-67254819D01*
X126742857Y-67254819D02*
X126838095Y-67302438D01*
X126838095Y-67302438D02*
X126885714Y-67350057D01*
X126885714Y-67350057D02*
X126933333Y-67445295D01*
X126933333Y-67445295D02*
X126933333Y-67588152D01*
X126933333Y-67588152D02*
X126885714Y-67683390D01*
X126885714Y-67683390D02*
X126838095Y-67731009D01*
X126838095Y-67731009D02*
X126742857Y-67778628D01*
X126742857Y-67778628D02*
X126361905Y-67778628D01*
X127885714Y-68254819D02*
X127314286Y-68254819D01*
X127600000Y-68254819D02*
X127600000Y-67254819D01*
X127600000Y-67254819D02*
X127504762Y-67397676D01*
X127504762Y-67397676D02*
X127409524Y-67492914D01*
X127409524Y-67492914D02*
X127314286Y-67540533D01*
X132833333Y-71259580D02*
X132785714Y-71307200D01*
X132785714Y-71307200D02*
X132642857Y-71354819D01*
X132642857Y-71354819D02*
X132547619Y-71354819D01*
X132547619Y-71354819D02*
X132404762Y-71307200D01*
X132404762Y-71307200D02*
X132309524Y-71211961D01*
X132309524Y-71211961D02*
X132261905Y-71116723D01*
X132261905Y-71116723D02*
X132214286Y-70926247D01*
X132214286Y-70926247D02*
X132214286Y-70783390D01*
X132214286Y-70783390D02*
X132261905Y-70592914D01*
X132261905Y-70592914D02*
X132309524Y-70497676D01*
X132309524Y-70497676D02*
X132404762Y-70402438D01*
X132404762Y-70402438D02*
X132547619Y-70354819D01*
X132547619Y-70354819D02*
X132642857Y-70354819D01*
X132642857Y-70354819D02*
X132785714Y-70402438D01*
X132785714Y-70402438D02*
X132833333Y-70450057D01*
X133214286Y-70450057D02*
X133261905Y-70402438D01*
X133261905Y-70402438D02*
X133357143Y-70354819D01*
X133357143Y-70354819D02*
X133595238Y-70354819D01*
X133595238Y-70354819D02*
X133690476Y-70402438D01*
X133690476Y-70402438D02*
X133738095Y-70450057D01*
X133738095Y-70450057D02*
X133785714Y-70545295D01*
X133785714Y-70545295D02*
X133785714Y-70640533D01*
X133785714Y-70640533D02*
X133738095Y-70783390D01*
X133738095Y-70783390D02*
X133166667Y-71354819D01*
X133166667Y-71354819D02*
X133785714Y-71354819D01*
X131738095Y-71654819D02*
X131738095Y-72464342D01*
X131738095Y-72464342D02*
X131785714Y-72559580D01*
X131785714Y-72559580D02*
X131833333Y-72607200D01*
X131833333Y-72607200D02*
X131928571Y-72654819D01*
X131928571Y-72654819D02*
X132119047Y-72654819D01*
X132119047Y-72654819D02*
X132214285Y-72607200D01*
X132214285Y-72607200D02*
X132261904Y-72559580D01*
X132261904Y-72559580D02*
X132309523Y-72464342D01*
X132309523Y-72464342D02*
X132309523Y-71654819D01*
X133309523Y-72654819D02*
X132738095Y-72654819D01*
X133023809Y-72654819D02*
X133023809Y-71654819D01*
X133023809Y-71654819D02*
X132928571Y-71797676D01*
X132928571Y-71797676D02*
X132833333Y-71892914D01*
X132833333Y-71892914D02*
X132738095Y-71940533D01*
X130633333Y-71859580D02*
X130585714Y-71907200D01*
X130585714Y-71907200D02*
X130442857Y-71954819D01*
X130442857Y-71954819D02*
X130347619Y-71954819D01*
X130347619Y-71954819D02*
X130204762Y-71907200D01*
X130204762Y-71907200D02*
X130109524Y-71811961D01*
X130109524Y-71811961D02*
X130061905Y-71716723D01*
X130061905Y-71716723D02*
X130014286Y-71526247D01*
X130014286Y-71526247D02*
X130014286Y-71383390D01*
X130014286Y-71383390D02*
X130061905Y-71192914D01*
X130061905Y-71192914D02*
X130109524Y-71097676D01*
X130109524Y-71097676D02*
X130204762Y-71002438D01*
X130204762Y-71002438D02*
X130347619Y-70954819D01*
X130347619Y-70954819D02*
X130442857Y-70954819D01*
X130442857Y-70954819D02*
X130585714Y-71002438D01*
X130585714Y-71002438D02*
X130633333Y-71050057D01*
X131585714Y-71954819D02*
X131014286Y-71954819D01*
X131300000Y-71954819D02*
X131300000Y-70954819D01*
X131300000Y-70954819D02*
X131204762Y-71097676D01*
X131204762Y-71097676D02*
X131109524Y-71192914D01*
X131109524Y-71192914D02*
X131014286Y-71240533D01*
X132454819Y-108833333D02*
X133169104Y-108833333D01*
X133169104Y-108833333D02*
X133311961Y-108880952D01*
X133311961Y-108880952D02*
X133407200Y-108976190D01*
X133407200Y-108976190D02*
X133454819Y-109119047D01*
X133454819Y-109119047D02*
X133454819Y-109214285D01*
X132788152Y-107928571D02*
X133454819Y-107928571D01*
X132407200Y-108166666D02*
X133121485Y-108404761D01*
X133121485Y-108404761D02*
X133121485Y-107785714D01*
X168861905Y-83404819D02*
X168861905Y-82404819D01*
X168861905Y-82404819D02*
X169100000Y-82404819D01*
X169100000Y-82404819D02*
X169242857Y-82452438D01*
X169242857Y-82452438D02*
X169338095Y-82547676D01*
X169338095Y-82547676D02*
X169385714Y-82642914D01*
X169385714Y-82642914D02*
X169433333Y-82833390D01*
X169433333Y-82833390D02*
X169433333Y-82976247D01*
X169433333Y-82976247D02*
X169385714Y-83166723D01*
X169385714Y-83166723D02*
X169338095Y-83261961D01*
X169338095Y-83261961D02*
X169242857Y-83357200D01*
X169242857Y-83357200D02*
X169100000Y-83404819D01*
X169100000Y-83404819D02*
X168861905Y-83404819D01*
X169766667Y-82404819D02*
X170433333Y-82404819D01*
X170433333Y-82404819D02*
X170004762Y-83404819D01*
X150857142Y-75259580D02*
X150809523Y-75307200D01*
X150809523Y-75307200D02*
X150666666Y-75354819D01*
X150666666Y-75354819D02*
X150571428Y-75354819D01*
X150571428Y-75354819D02*
X150428571Y-75307200D01*
X150428571Y-75307200D02*
X150333333Y-75211961D01*
X150333333Y-75211961D02*
X150285714Y-75116723D01*
X150285714Y-75116723D02*
X150238095Y-74926247D01*
X150238095Y-74926247D02*
X150238095Y-74783390D01*
X150238095Y-74783390D02*
X150285714Y-74592914D01*
X150285714Y-74592914D02*
X150333333Y-74497676D01*
X150333333Y-74497676D02*
X150428571Y-74402438D01*
X150428571Y-74402438D02*
X150571428Y-74354819D01*
X150571428Y-74354819D02*
X150666666Y-74354819D01*
X150666666Y-74354819D02*
X150809523Y-74402438D01*
X150809523Y-74402438D02*
X150857142Y-74450057D01*
X151238095Y-74450057D02*
X151285714Y-74402438D01*
X151285714Y-74402438D02*
X151380952Y-74354819D01*
X151380952Y-74354819D02*
X151619047Y-74354819D01*
X151619047Y-74354819D02*
X151714285Y-74402438D01*
X151714285Y-74402438D02*
X151761904Y-74450057D01*
X151761904Y-74450057D02*
X151809523Y-74545295D01*
X151809523Y-74545295D02*
X151809523Y-74640533D01*
X151809523Y-74640533D02*
X151761904Y-74783390D01*
X151761904Y-74783390D02*
X151190476Y-75354819D01*
X151190476Y-75354819D02*
X151809523Y-75354819D01*
X152142857Y-74354819D02*
X152761904Y-74354819D01*
X152761904Y-74354819D02*
X152428571Y-74735771D01*
X152428571Y-74735771D02*
X152571428Y-74735771D01*
X152571428Y-74735771D02*
X152666666Y-74783390D01*
X152666666Y-74783390D02*
X152714285Y-74831009D01*
X152714285Y-74831009D02*
X152761904Y-74926247D01*
X152761904Y-74926247D02*
X152761904Y-75164342D01*
X152761904Y-75164342D02*
X152714285Y-75259580D01*
X152714285Y-75259580D02*
X152666666Y-75307200D01*
X152666666Y-75307200D02*
X152571428Y-75354819D01*
X152571428Y-75354819D02*
X152285714Y-75354819D01*
X152285714Y-75354819D02*
X152190476Y-75307200D01*
X152190476Y-75307200D02*
X152142857Y-75259580D01*
X135490476Y-78394819D02*
X135490476Y-77394819D01*
X135490476Y-77394819D02*
X135823809Y-78109104D01*
X135823809Y-78109104D02*
X136157142Y-77394819D01*
X136157142Y-77394819D02*
X136157142Y-78394819D01*
X137157142Y-78394819D02*
X136585714Y-78394819D01*
X136871428Y-78394819D02*
X136871428Y-77394819D01*
X136871428Y-77394819D02*
X136776190Y-77537676D01*
X136776190Y-77537676D02*
X136680952Y-77632914D01*
X136680952Y-77632914D02*
X136585714Y-77680533D01*
X128396324Y-68120194D02*
X128546638Y-68129217D01*
X128546638Y-68129217D02*
X128776620Y-68067593D01*
X128776620Y-68067593D02*
X128856289Y-67996947D01*
X128856289Y-67996947D02*
X128889960Y-67938626D01*
X128889960Y-67938626D02*
X128911307Y-67834308D01*
X128911307Y-67834308D02*
X128886658Y-67742315D01*
X128886658Y-67742315D02*
X128816012Y-67662647D01*
X128816012Y-67662647D02*
X128757691Y-67628976D01*
X128757691Y-67628976D02*
X128653373Y-67607628D01*
X128653373Y-67607628D02*
X128457063Y-67610931D01*
X128457063Y-67610931D02*
X128352745Y-67589584D01*
X128352745Y-67589584D02*
X128294424Y-67555912D01*
X128294424Y-67555912D02*
X128223778Y-67476244D01*
X128223778Y-67476244D02*
X128199129Y-67384251D01*
X128199129Y-67384251D02*
X128220476Y-67279933D01*
X128220476Y-67279933D02*
X128254147Y-67221612D01*
X128254147Y-67221612D02*
X128333816Y-67150966D01*
X128333816Y-67150966D02*
X128563798Y-67089343D01*
X128563798Y-67089343D02*
X128714112Y-67098365D01*
X129023763Y-66966095D02*
X129512564Y-67870398D01*
X129512564Y-67870398D02*
X129511679Y-67131152D01*
X129511679Y-67131152D02*
X129880536Y-67771800D01*
X129880536Y-67771800D02*
X129851699Y-66744251D01*
X130127678Y-66670302D02*
X130725632Y-66510081D01*
X130725632Y-66510081D02*
X130502254Y-66964326D01*
X130502254Y-66964326D02*
X130640244Y-66927352D01*
X130640244Y-66927352D02*
X130744561Y-66948699D01*
X130744561Y-66948699D02*
X130802882Y-66982370D01*
X130802882Y-66982370D02*
X130873528Y-67062039D01*
X130873528Y-67062039D02*
X130935152Y-67292021D01*
X130935152Y-67292021D02*
X130913805Y-67396339D01*
X130913805Y-67396339D02*
X130880133Y-67454660D01*
X130880133Y-67454660D02*
X130800465Y-67525306D01*
X130800465Y-67525306D02*
X130524486Y-67599254D01*
X130524486Y-67599254D02*
X130420169Y-67577907D01*
X130420169Y-67577907D02*
X130361847Y-67544235D01*
X149190476Y-85254819D02*
X149190476Y-85969104D01*
X149190476Y-85969104D02*
X149142857Y-86111961D01*
X149142857Y-86111961D02*
X149047619Y-86207200D01*
X149047619Y-86207200D02*
X148904762Y-86254819D01*
X148904762Y-86254819D02*
X148809524Y-86254819D01*
X150190476Y-86254819D02*
X149619048Y-86254819D01*
X149904762Y-86254819D02*
X149904762Y-85254819D01*
X149904762Y-85254819D02*
X149809524Y-85397676D01*
X149809524Y-85397676D02*
X149714286Y-85492914D01*
X149714286Y-85492914D02*
X149619048Y-85540533D01*
X150571429Y-85350057D02*
X150619048Y-85302438D01*
X150619048Y-85302438D02*
X150714286Y-85254819D01*
X150714286Y-85254819D02*
X150952381Y-85254819D01*
X150952381Y-85254819D02*
X151047619Y-85302438D01*
X151047619Y-85302438D02*
X151095238Y-85350057D01*
X151095238Y-85350057D02*
X151142857Y-85445295D01*
X151142857Y-85445295D02*
X151142857Y-85540533D01*
X151142857Y-85540533D02*
X151095238Y-85683390D01*
X151095238Y-85683390D02*
X150523810Y-86254819D01*
X150523810Y-86254819D02*
X151142857Y-86254819D01*
X128554819Y-78233333D02*
X129269104Y-78233333D01*
X129269104Y-78233333D02*
X129411961Y-78280952D01*
X129411961Y-78280952D02*
X129507200Y-78376190D01*
X129507200Y-78376190D02*
X129554819Y-78519047D01*
X129554819Y-78519047D02*
X129554819Y-78614285D01*
X129554819Y-77233333D02*
X129554819Y-77804761D01*
X129554819Y-77519047D02*
X128554819Y-77519047D01*
X128554819Y-77519047D02*
X128697676Y-77614285D01*
X128697676Y-77614285D02*
X128792914Y-77709523D01*
X128792914Y-77709523D02*
X128840533Y-77804761D01*
X146449942Y-108604761D02*
X146497561Y-108509523D01*
X146497561Y-108509523D02*
X146592800Y-108414285D01*
X146592800Y-108414285D02*
X146735657Y-108271428D01*
X146735657Y-108271428D02*
X146783276Y-108176190D01*
X146783276Y-108176190D02*
X146783276Y-108080952D01*
X146545180Y-108128571D02*
X146592800Y-108033333D01*
X146592800Y-108033333D02*
X146688038Y-107938095D01*
X146688038Y-107938095D02*
X146878514Y-107890476D01*
X146878514Y-107890476D02*
X147211847Y-107890476D01*
X147211847Y-107890476D02*
X147402323Y-107938095D01*
X147402323Y-107938095D02*
X147497561Y-108033333D01*
X147497561Y-108033333D02*
X147545180Y-108128571D01*
X147545180Y-108128571D02*
X147545180Y-108319047D01*
X147545180Y-108319047D02*
X147497561Y-108414285D01*
X147497561Y-108414285D02*
X147402323Y-108509523D01*
X147402323Y-108509523D02*
X147211847Y-108557142D01*
X147211847Y-108557142D02*
X146878514Y-108557142D01*
X146878514Y-108557142D02*
X146688038Y-108509523D01*
X146688038Y-108509523D02*
X146592800Y-108414285D01*
X146592800Y-108414285D02*
X146545180Y-108319047D01*
X146545180Y-108319047D02*
X146545180Y-108128571D01*
X147211847Y-109414285D02*
X146545180Y-109414285D01*
X147592800Y-109176190D02*
X146878514Y-108938095D01*
X146878514Y-108938095D02*
X146878514Y-109557142D01*
X145857142Y-79254819D02*
X145523809Y-78778628D01*
X145285714Y-79254819D02*
X145285714Y-78254819D01*
X145285714Y-78254819D02*
X145666666Y-78254819D01*
X145666666Y-78254819D02*
X145761904Y-78302438D01*
X145761904Y-78302438D02*
X145809523Y-78350057D01*
X145809523Y-78350057D02*
X145857142Y-78445295D01*
X145857142Y-78445295D02*
X145857142Y-78588152D01*
X145857142Y-78588152D02*
X145809523Y-78683390D01*
X145809523Y-78683390D02*
X145761904Y-78731009D01*
X145761904Y-78731009D02*
X145666666Y-78778628D01*
X145666666Y-78778628D02*
X145285714Y-78778628D01*
X146238095Y-78350057D02*
X146285714Y-78302438D01*
X146285714Y-78302438D02*
X146380952Y-78254819D01*
X146380952Y-78254819D02*
X146619047Y-78254819D01*
X146619047Y-78254819D02*
X146714285Y-78302438D01*
X146714285Y-78302438D02*
X146761904Y-78350057D01*
X146761904Y-78350057D02*
X146809523Y-78445295D01*
X146809523Y-78445295D02*
X146809523Y-78540533D01*
X146809523Y-78540533D02*
X146761904Y-78683390D01*
X146761904Y-78683390D02*
X146190476Y-79254819D01*
X146190476Y-79254819D02*
X146809523Y-79254819D01*
X147761904Y-79254819D02*
X147190476Y-79254819D01*
X147476190Y-79254819D02*
X147476190Y-78254819D01*
X147476190Y-78254819D02*
X147380952Y-78397676D01*
X147380952Y-78397676D02*
X147285714Y-78492914D01*
X147285714Y-78492914D02*
X147190476Y-78540533D01*
X163059580Y-86642857D02*
X163107200Y-86690476D01*
X163107200Y-86690476D02*
X163154819Y-86833333D01*
X163154819Y-86833333D02*
X163154819Y-86928571D01*
X163154819Y-86928571D02*
X163107200Y-87071428D01*
X163107200Y-87071428D02*
X163011961Y-87166666D01*
X163011961Y-87166666D02*
X162916723Y-87214285D01*
X162916723Y-87214285D02*
X162726247Y-87261904D01*
X162726247Y-87261904D02*
X162583390Y-87261904D01*
X162583390Y-87261904D02*
X162392914Y-87214285D01*
X162392914Y-87214285D02*
X162297676Y-87166666D01*
X162297676Y-87166666D02*
X162202438Y-87071428D01*
X162202438Y-87071428D02*
X162154819Y-86928571D01*
X162154819Y-86928571D02*
X162154819Y-86833333D01*
X162154819Y-86833333D02*
X162202438Y-86690476D01*
X162202438Y-86690476D02*
X162250057Y-86642857D01*
X163154819Y-85690476D02*
X163154819Y-86261904D01*
X163154819Y-85976190D02*
X162154819Y-85976190D01*
X162154819Y-85976190D02*
X162297676Y-86071428D01*
X162297676Y-86071428D02*
X162392914Y-86166666D01*
X162392914Y-86166666D02*
X162440533Y-86261904D01*
X163154819Y-85214285D02*
X163154819Y-85023809D01*
X163154819Y-85023809D02*
X163107200Y-84928571D01*
X163107200Y-84928571D02*
X163059580Y-84880952D01*
X163059580Y-84880952D02*
X162916723Y-84785714D01*
X162916723Y-84785714D02*
X162726247Y-84738095D01*
X162726247Y-84738095D02*
X162345295Y-84738095D01*
X162345295Y-84738095D02*
X162250057Y-84785714D01*
X162250057Y-84785714D02*
X162202438Y-84833333D01*
X162202438Y-84833333D02*
X162154819Y-84928571D01*
X162154819Y-84928571D02*
X162154819Y-85119047D01*
X162154819Y-85119047D02*
X162202438Y-85214285D01*
X162202438Y-85214285D02*
X162250057Y-85261904D01*
X162250057Y-85261904D02*
X162345295Y-85309523D01*
X162345295Y-85309523D02*
X162583390Y-85309523D01*
X162583390Y-85309523D02*
X162678628Y-85261904D01*
X162678628Y-85261904D02*
X162726247Y-85214285D01*
X162726247Y-85214285D02*
X162773866Y-85119047D01*
X162773866Y-85119047D02*
X162773866Y-84928571D01*
X162773866Y-84928571D02*
X162726247Y-84833333D01*
X162726247Y-84833333D02*
X162678628Y-84785714D01*
X162678628Y-84785714D02*
X162583390Y-84738095D01*
X135354819Y-83709523D02*
X134354819Y-83709523D01*
X134354819Y-83709523D02*
X135069104Y-83376190D01*
X135069104Y-83376190D02*
X134354819Y-83042857D01*
X134354819Y-83042857D02*
X135354819Y-83042857D01*
X134450057Y-82614285D02*
X134402438Y-82566666D01*
X134402438Y-82566666D02*
X134354819Y-82471428D01*
X134354819Y-82471428D02*
X134354819Y-82233333D01*
X134354819Y-82233333D02*
X134402438Y-82138095D01*
X134402438Y-82138095D02*
X134450057Y-82090476D01*
X134450057Y-82090476D02*
X134545295Y-82042857D01*
X134545295Y-82042857D02*
X134640533Y-82042857D01*
X134640533Y-82042857D02*
X134783390Y-82090476D01*
X134783390Y-82090476D02*
X135354819Y-82661904D01*
X135354819Y-82661904D02*
X135354819Y-82042857D01*
X125033333Y-68754819D02*
X124700000Y-68278628D01*
X124461905Y-68754819D02*
X124461905Y-67754819D01*
X124461905Y-67754819D02*
X124842857Y-67754819D01*
X124842857Y-67754819D02*
X124938095Y-67802438D01*
X124938095Y-67802438D02*
X124985714Y-67850057D01*
X124985714Y-67850057D02*
X125033333Y-67945295D01*
X125033333Y-67945295D02*
X125033333Y-68088152D01*
X125033333Y-68088152D02*
X124985714Y-68183390D01*
X124985714Y-68183390D02*
X124938095Y-68231009D01*
X124938095Y-68231009D02*
X124842857Y-68278628D01*
X124842857Y-68278628D02*
X124461905Y-68278628D01*
X125414286Y-67850057D02*
X125461905Y-67802438D01*
X125461905Y-67802438D02*
X125557143Y-67754819D01*
X125557143Y-67754819D02*
X125795238Y-67754819D01*
X125795238Y-67754819D02*
X125890476Y-67802438D01*
X125890476Y-67802438D02*
X125938095Y-67850057D01*
X125938095Y-67850057D02*
X125985714Y-67945295D01*
X125985714Y-67945295D02*
X125985714Y-68040533D01*
X125985714Y-68040533D02*
X125938095Y-68183390D01*
X125938095Y-68183390D02*
X125366667Y-68754819D01*
X125366667Y-68754819D02*
X125985714Y-68754819D01*
X143257142Y-89854819D02*
X142923809Y-89378628D01*
X142685714Y-89854819D02*
X142685714Y-88854819D01*
X142685714Y-88854819D02*
X143066666Y-88854819D01*
X143066666Y-88854819D02*
X143161904Y-88902438D01*
X143161904Y-88902438D02*
X143209523Y-88950057D01*
X143209523Y-88950057D02*
X143257142Y-89045295D01*
X143257142Y-89045295D02*
X143257142Y-89188152D01*
X143257142Y-89188152D02*
X143209523Y-89283390D01*
X143209523Y-89283390D02*
X143161904Y-89331009D01*
X143161904Y-89331009D02*
X143066666Y-89378628D01*
X143066666Y-89378628D02*
X142685714Y-89378628D01*
X143638095Y-88950057D02*
X143685714Y-88902438D01*
X143685714Y-88902438D02*
X143780952Y-88854819D01*
X143780952Y-88854819D02*
X144019047Y-88854819D01*
X144019047Y-88854819D02*
X144114285Y-88902438D01*
X144114285Y-88902438D02*
X144161904Y-88950057D01*
X144161904Y-88950057D02*
X144209523Y-89045295D01*
X144209523Y-89045295D02*
X144209523Y-89140533D01*
X144209523Y-89140533D02*
X144161904Y-89283390D01*
X144161904Y-89283390D02*
X143590476Y-89854819D01*
X143590476Y-89854819D02*
X144209523Y-89854819D01*
X145066666Y-89188152D02*
X145066666Y-89854819D01*
X144828571Y-88807200D02*
X144590476Y-89521485D01*
X144590476Y-89521485D02*
X145209523Y-89521485D01*
X156959580Y-74542857D02*
X157007200Y-74590476D01*
X157007200Y-74590476D02*
X157054819Y-74733333D01*
X157054819Y-74733333D02*
X157054819Y-74828571D01*
X157054819Y-74828571D02*
X157007200Y-74971428D01*
X157007200Y-74971428D02*
X156911961Y-75066666D01*
X156911961Y-75066666D02*
X156816723Y-75114285D01*
X156816723Y-75114285D02*
X156626247Y-75161904D01*
X156626247Y-75161904D02*
X156483390Y-75161904D01*
X156483390Y-75161904D02*
X156292914Y-75114285D01*
X156292914Y-75114285D02*
X156197676Y-75066666D01*
X156197676Y-75066666D02*
X156102438Y-74971428D01*
X156102438Y-74971428D02*
X156054819Y-74828571D01*
X156054819Y-74828571D02*
X156054819Y-74733333D01*
X156054819Y-74733333D02*
X156102438Y-74590476D01*
X156102438Y-74590476D02*
X156150057Y-74542857D01*
X156150057Y-74161904D02*
X156102438Y-74114285D01*
X156102438Y-74114285D02*
X156054819Y-74019047D01*
X156054819Y-74019047D02*
X156054819Y-73780952D01*
X156054819Y-73780952D02*
X156102438Y-73685714D01*
X156102438Y-73685714D02*
X156150057Y-73638095D01*
X156150057Y-73638095D02*
X156245295Y-73590476D01*
X156245295Y-73590476D02*
X156340533Y-73590476D01*
X156340533Y-73590476D02*
X156483390Y-73638095D01*
X156483390Y-73638095D02*
X157054819Y-74209523D01*
X157054819Y-74209523D02*
X157054819Y-73590476D01*
X156054819Y-72971428D02*
X156054819Y-72876190D01*
X156054819Y-72876190D02*
X156102438Y-72780952D01*
X156102438Y-72780952D02*
X156150057Y-72733333D01*
X156150057Y-72733333D02*
X156245295Y-72685714D01*
X156245295Y-72685714D02*
X156435771Y-72638095D01*
X156435771Y-72638095D02*
X156673866Y-72638095D01*
X156673866Y-72638095D02*
X156864342Y-72685714D01*
X156864342Y-72685714D02*
X156959580Y-72733333D01*
X156959580Y-72733333D02*
X157007200Y-72780952D01*
X157007200Y-72780952D02*
X157054819Y-72876190D01*
X157054819Y-72876190D02*
X157054819Y-72971428D01*
X157054819Y-72971428D02*
X157007200Y-73066666D01*
X157007200Y-73066666D02*
X156959580Y-73114285D01*
X156959580Y-73114285D02*
X156864342Y-73161904D01*
X156864342Y-73161904D02*
X156673866Y-73209523D01*
X156673866Y-73209523D02*
X156435771Y-73209523D01*
X156435771Y-73209523D02*
X156245295Y-73161904D01*
X156245295Y-73161904D02*
X156150057Y-73114285D01*
X156150057Y-73114285D02*
X156102438Y-73066666D01*
X156102438Y-73066666D02*
X156054819Y-72971428D01*
X127731009Y-83180952D02*
X127778628Y-83038095D01*
X127778628Y-83038095D02*
X127826247Y-82990476D01*
X127826247Y-82990476D02*
X127921485Y-82942857D01*
X127921485Y-82942857D02*
X128064342Y-82942857D01*
X128064342Y-82942857D02*
X128159580Y-82990476D01*
X128159580Y-82990476D02*
X128207200Y-83038095D01*
X128207200Y-83038095D02*
X128254819Y-83133333D01*
X128254819Y-83133333D02*
X128254819Y-83514285D01*
X128254819Y-83514285D02*
X127254819Y-83514285D01*
X127254819Y-83514285D02*
X127254819Y-83180952D01*
X127254819Y-83180952D02*
X127302438Y-83085714D01*
X127302438Y-83085714D02*
X127350057Y-83038095D01*
X127350057Y-83038095D02*
X127445295Y-82990476D01*
X127445295Y-82990476D02*
X127540533Y-82990476D01*
X127540533Y-82990476D02*
X127635771Y-83038095D01*
X127635771Y-83038095D02*
X127683390Y-83085714D01*
X127683390Y-83085714D02*
X127731009Y-83180952D01*
X127731009Y-83180952D02*
X127731009Y-83514285D01*
X127254819Y-82609523D02*
X127254819Y-81942857D01*
X127254819Y-81942857D02*
X128254819Y-82609523D01*
X128254819Y-82609523D02*
X128254819Y-81942857D01*
X128254819Y-81038095D02*
X128254819Y-81609523D01*
X128254819Y-81323809D02*
X127254819Y-81323809D01*
X127254819Y-81323809D02*
X127397676Y-81419047D01*
X127397676Y-81419047D02*
X127492914Y-81514285D01*
X127492914Y-81514285D02*
X127540533Y-81609523D01*
D11*
X128503884Y-81391466D02*
X129265789Y-81391466D01*
X128884836Y-81772419D02*
X128884836Y-81010514D01*
D10*
X166557142Y-79204819D02*
X166223809Y-78728628D01*
X165985714Y-79204819D02*
X165985714Y-78204819D01*
X165985714Y-78204819D02*
X166366666Y-78204819D01*
X166366666Y-78204819D02*
X166461904Y-78252438D01*
X166461904Y-78252438D02*
X166509523Y-78300057D01*
X166509523Y-78300057D02*
X166557142Y-78395295D01*
X166557142Y-78395295D02*
X166557142Y-78538152D01*
X166557142Y-78538152D02*
X166509523Y-78633390D01*
X166509523Y-78633390D02*
X166461904Y-78681009D01*
X166461904Y-78681009D02*
X166366666Y-78728628D01*
X166366666Y-78728628D02*
X165985714Y-78728628D01*
X166938095Y-78300057D02*
X166985714Y-78252438D01*
X166985714Y-78252438D02*
X167080952Y-78204819D01*
X167080952Y-78204819D02*
X167319047Y-78204819D01*
X167319047Y-78204819D02*
X167414285Y-78252438D01*
X167414285Y-78252438D02*
X167461904Y-78300057D01*
X167461904Y-78300057D02*
X167509523Y-78395295D01*
X167509523Y-78395295D02*
X167509523Y-78490533D01*
X167509523Y-78490533D02*
X167461904Y-78633390D01*
X167461904Y-78633390D02*
X166890476Y-79204819D01*
X166890476Y-79204819D02*
X167509523Y-79204819D01*
X167842857Y-78204819D02*
X168509523Y-78204819D01*
X168509523Y-78204819D02*
X168080952Y-79204819D01*
X126192800Y-75766667D02*
X126145180Y-75909524D01*
X126145180Y-75909524D02*
X126145180Y-76147619D01*
X126145180Y-76147619D02*
X126192800Y-76242857D01*
X126192800Y-76242857D02*
X126240419Y-76290476D01*
X126240419Y-76290476D02*
X126335657Y-76338095D01*
X126335657Y-76338095D02*
X126430895Y-76338095D01*
X126430895Y-76338095D02*
X126526133Y-76290476D01*
X126526133Y-76290476D02*
X126573752Y-76242857D01*
X126573752Y-76242857D02*
X126621371Y-76147619D01*
X126621371Y-76147619D02*
X126668990Y-75957143D01*
X126668990Y-75957143D02*
X126716609Y-75861905D01*
X126716609Y-75861905D02*
X126764228Y-75814286D01*
X126764228Y-75814286D02*
X126859466Y-75766667D01*
X126859466Y-75766667D02*
X126954704Y-75766667D01*
X126954704Y-75766667D02*
X127049942Y-75814286D01*
X127049942Y-75814286D02*
X127097561Y-75861905D01*
X127097561Y-75861905D02*
X127145180Y-75957143D01*
X127145180Y-75957143D02*
X127145180Y-76195238D01*
X127145180Y-76195238D02*
X127097561Y-76338095D01*
X127145180Y-76671429D02*
X126145180Y-76909524D01*
X126145180Y-76909524D02*
X126859466Y-77100000D01*
X126859466Y-77100000D02*
X126145180Y-77290476D01*
X126145180Y-77290476D02*
X127145180Y-77528572D01*
X126145180Y-78433333D02*
X126145180Y-77861905D01*
X126145180Y-78147619D02*
X127145180Y-78147619D01*
X127145180Y-78147619D02*
X127002323Y-78052381D01*
X127002323Y-78052381D02*
X126907085Y-77957143D01*
X126907085Y-77957143D02*
X126859466Y-77861905D01*
X145659580Y-73066666D02*
X145707200Y-73114285D01*
X145707200Y-73114285D02*
X145754819Y-73257142D01*
X145754819Y-73257142D02*
X145754819Y-73352380D01*
X145754819Y-73352380D02*
X145707200Y-73495237D01*
X145707200Y-73495237D02*
X145611961Y-73590475D01*
X145611961Y-73590475D02*
X145516723Y-73638094D01*
X145516723Y-73638094D02*
X145326247Y-73685713D01*
X145326247Y-73685713D02*
X145183390Y-73685713D01*
X145183390Y-73685713D02*
X144992914Y-73638094D01*
X144992914Y-73638094D02*
X144897676Y-73590475D01*
X144897676Y-73590475D02*
X144802438Y-73495237D01*
X144802438Y-73495237D02*
X144754819Y-73352380D01*
X144754819Y-73352380D02*
X144754819Y-73257142D01*
X144754819Y-73257142D02*
X144802438Y-73114285D01*
X144802438Y-73114285D02*
X144850057Y-73066666D01*
X144754819Y-72733332D02*
X144754819Y-72114285D01*
X144754819Y-72114285D02*
X145135771Y-72447618D01*
X145135771Y-72447618D02*
X145135771Y-72304761D01*
X145135771Y-72304761D02*
X145183390Y-72209523D01*
X145183390Y-72209523D02*
X145231009Y-72161904D01*
X145231009Y-72161904D02*
X145326247Y-72114285D01*
X145326247Y-72114285D02*
X145564342Y-72114285D01*
X145564342Y-72114285D02*
X145659580Y-72161904D01*
X145659580Y-72161904D02*
X145707200Y-72209523D01*
X145707200Y-72209523D02*
X145754819Y-72304761D01*
X145754819Y-72304761D02*
X145754819Y-72590475D01*
X145754819Y-72590475D02*
X145707200Y-72685713D01*
X145707200Y-72685713D02*
X145659580Y-72733332D01*
X168861905Y-79204819D02*
X168861905Y-78204819D01*
X168861905Y-78204819D02*
X169100000Y-78204819D01*
X169100000Y-78204819D02*
X169242857Y-78252438D01*
X169242857Y-78252438D02*
X169338095Y-78347676D01*
X169338095Y-78347676D02*
X169385714Y-78442914D01*
X169385714Y-78442914D02*
X169433333Y-78633390D01*
X169433333Y-78633390D02*
X169433333Y-78776247D01*
X169433333Y-78776247D02*
X169385714Y-78966723D01*
X169385714Y-78966723D02*
X169338095Y-79061961D01*
X169338095Y-79061961D02*
X169242857Y-79157200D01*
X169242857Y-79157200D02*
X169100000Y-79204819D01*
X169100000Y-79204819D02*
X168861905Y-79204819D01*
X169909524Y-79204819D02*
X170100000Y-79204819D01*
X170100000Y-79204819D02*
X170195238Y-79157200D01*
X170195238Y-79157200D02*
X170242857Y-79109580D01*
X170242857Y-79109580D02*
X170338095Y-78966723D01*
X170338095Y-78966723D02*
X170385714Y-78776247D01*
X170385714Y-78776247D02*
X170385714Y-78395295D01*
X170385714Y-78395295D02*
X170338095Y-78300057D01*
X170338095Y-78300057D02*
X170290476Y-78252438D01*
X170290476Y-78252438D02*
X170195238Y-78204819D01*
X170195238Y-78204819D02*
X170004762Y-78204819D01*
X170004762Y-78204819D02*
X169909524Y-78252438D01*
X169909524Y-78252438D02*
X169861905Y-78300057D01*
X169861905Y-78300057D02*
X169814286Y-78395295D01*
X169814286Y-78395295D02*
X169814286Y-78633390D01*
X169814286Y-78633390D02*
X169861905Y-78728628D01*
X169861905Y-78728628D02*
X169909524Y-78776247D01*
X169909524Y-78776247D02*
X170004762Y-78823866D01*
X170004762Y-78823866D02*
X170195238Y-78823866D01*
X170195238Y-78823866D02*
X170290476Y-78776247D01*
X170290476Y-78776247D02*
X170338095Y-78728628D01*
X170338095Y-78728628D02*
X170385714Y-78633390D01*
X147249942Y-51604761D02*
X147297561Y-51509523D01*
X147297561Y-51509523D02*
X147392800Y-51414285D01*
X147392800Y-51414285D02*
X147535657Y-51271428D01*
X147535657Y-51271428D02*
X147583276Y-51176190D01*
X147583276Y-51176190D02*
X147583276Y-51080952D01*
X147345180Y-51128571D02*
X147392800Y-51033333D01*
X147392800Y-51033333D02*
X147488038Y-50938095D01*
X147488038Y-50938095D02*
X147678514Y-50890476D01*
X147678514Y-50890476D02*
X148011847Y-50890476D01*
X148011847Y-50890476D02*
X148202323Y-50938095D01*
X148202323Y-50938095D02*
X148297561Y-51033333D01*
X148297561Y-51033333D02*
X148345180Y-51128571D01*
X148345180Y-51128571D02*
X148345180Y-51319047D01*
X148345180Y-51319047D02*
X148297561Y-51414285D01*
X148297561Y-51414285D02*
X148202323Y-51509523D01*
X148202323Y-51509523D02*
X148011847Y-51557142D01*
X148011847Y-51557142D02*
X147678514Y-51557142D01*
X147678514Y-51557142D02*
X147488038Y-51509523D01*
X147488038Y-51509523D02*
X147392800Y-51414285D01*
X147392800Y-51414285D02*
X147345180Y-51319047D01*
X147345180Y-51319047D02*
X147345180Y-51128571D01*
X148345180Y-52414285D02*
X148345180Y-52223809D01*
X148345180Y-52223809D02*
X148297561Y-52128571D01*
X148297561Y-52128571D02*
X148249942Y-52080952D01*
X148249942Y-52080952D02*
X148107085Y-51985714D01*
X148107085Y-51985714D02*
X147916609Y-51938095D01*
X147916609Y-51938095D02*
X147535657Y-51938095D01*
X147535657Y-51938095D02*
X147440419Y-51985714D01*
X147440419Y-51985714D02*
X147392800Y-52033333D01*
X147392800Y-52033333D02*
X147345180Y-52128571D01*
X147345180Y-52128571D02*
X147345180Y-52319047D01*
X147345180Y-52319047D02*
X147392800Y-52414285D01*
X147392800Y-52414285D02*
X147440419Y-52461904D01*
X147440419Y-52461904D02*
X147535657Y-52509523D01*
X147535657Y-52509523D02*
X147773752Y-52509523D01*
X147773752Y-52509523D02*
X147868990Y-52461904D01*
X147868990Y-52461904D02*
X147916609Y-52414285D01*
X147916609Y-52414285D02*
X147964228Y-52319047D01*
X147964228Y-52319047D02*
X147964228Y-52128571D01*
X147964228Y-52128571D02*
X147916609Y-52033333D01*
X147916609Y-52033333D02*
X147868990Y-51985714D01*
X147868990Y-51985714D02*
X147773752Y-51938095D01*
X152659580Y-79266666D02*
X152707200Y-79314285D01*
X152707200Y-79314285D02*
X152754819Y-79457142D01*
X152754819Y-79457142D02*
X152754819Y-79552380D01*
X152754819Y-79552380D02*
X152707200Y-79695237D01*
X152707200Y-79695237D02*
X152611961Y-79790475D01*
X152611961Y-79790475D02*
X152516723Y-79838094D01*
X152516723Y-79838094D02*
X152326247Y-79885713D01*
X152326247Y-79885713D02*
X152183390Y-79885713D01*
X152183390Y-79885713D02*
X151992914Y-79838094D01*
X151992914Y-79838094D02*
X151897676Y-79790475D01*
X151897676Y-79790475D02*
X151802438Y-79695237D01*
X151802438Y-79695237D02*
X151754819Y-79552380D01*
X151754819Y-79552380D02*
X151754819Y-79457142D01*
X151754819Y-79457142D02*
X151802438Y-79314285D01*
X151802438Y-79314285D02*
X151850057Y-79266666D01*
X151754819Y-78409523D02*
X151754819Y-78599999D01*
X151754819Y-78599999D02*
X151802438Y-78695237D01*
X151802438Y-78695237D02*
X151850057Y-78742856D01*
X151850057Y-78742856D02*
X151992914Y-78838094D01*
X151992914Y-78838094D02*
X152183390Y-78885713D01*
X152183390Y-78885713D02*
X152564342Y-78885713D01*
X152564342Y-78885713D02*
X152659580Y-78838094D01*
X152659580Y-78838094D02*
X152707200Y-78790475D01*
X152707200Y-78790475D02*
X152754819Y-78695237D01*
X152754819Y-78695237D02*
X152754819Y-78504761D01*
X152754819Y-78504761D02*
X152707200Y-78409523D01*
X152707200Y-78409523D02*
X152659580Y-78361904D01*
X152659580Y-78361904D02*
X152564342Y-78314285D01*
X152564342Y-78314285D02*
X152326247Y-78314285D01*
X152326247Y-78314285D02*
X152231009Y-78361904D01*
X152231009Y-78361904D02*
X152183390Y-78409523D01*
X152183390Y-78409523D02*
X152135771Y-78504761D01*
X152135771Y-78504761D02*
X152135771Y-78695237D01*
X152135771Y-78695237D02*
X152183390Y-78790475D01*
X152183390Y-78790475D02*
X152231009Y-78838094D01*
X152231009Y-78838094D02*
X152326247Y-78885713D01*
X148759580Y-112242857D02*
X148807200Y-112290476D01*
X148807200Y-112290476D02*
X148854819Y-112433333D01*
X148854819Y-112433333D02*
X148854819Y-112528571D01*
X148854819Y-112528571D02*
X148807200Y-112671428D01*
X148807200Y-112671428D02*
X148711961Y-112766666D01*
X148711961Y-112766666D02*
X148616723Y-112814285D01*
X148616723Y-112814285D02*
X148426247Y-112861904D01*
X148426247Y-112861904D02*
X148283390Y-112861904D01*
X148283390Y-112861904D02*
X148092914Y-112814285D01*
X148092914Y-112814285D02*
X147997676Y-112766666D01*
X147997676Y-112766666D02*
X147902438Y-112671428D01*
X147902438Y-112671428D02*
X147854819Y-112528571D01*
X147854819Y-112528571D02*
X147854819Y-112433333D01*
X147854819Y-112433333D02*
X147902438Y-112290476D01*
X147902438Y-112290476D02*
X147950057Y-112242857D01*
X148854819Y-111290476D02*
X148854819Y-111861904D01*
X148854819Y-111576190D02*
X147854819Y-111576190D01*
X147854819Y-111576190D02*
X147997676Y-111671428D01*
X147997676Y-111671428D02*
X148092914Y-111766666D01*
X148092914Y-111766666D02*
X148140533Y-111861904D01*
X147854819Y-110671428D02*
X147854819Y-110576190D01*
X147854819Y-110576190D02*
X147902438Y-110480952D01*
X147902438Y-110480952D02*
X147950057Y-110433333D01*
X147950057Y-110433333D02*
X148045295Y-110385714D01*
X148045295Y-110385714D02*
X148235771Y-110338095D01*
X148235771Y-110338095D02*
X148473866Y-110338095D01*
X148473866Y-110338095D02*
X148664342Y-110385714D01*
X148664342Y-110385714D02*
X148759580Y-110433333D01*
X148759580Y-110433333D02*
X148807200Y-110480952D01*
X148807200Y-110480952D02*
X148854819Y-110576190D01*
X148854819Y-110576190D02*
X148854819Y-110671428D01*
X148854819Y-110671428D02*
X148807200Y-110766666D01*
X148807200Y-110766666D02*
X148759580Y-110814285D01*
X148759580Y-110814285D02*
X148664342Y-110861904D01*
X148664342Y-110861904D02*
X148473866Y-110909523D01*
X148473866Y-110909523D02*
X148235771Y-110909523D01*
X148235771Y-110909523D02*
X148045295Y-110861904D01*
X148045295Y-110861904D02*
X147950057Y-110814285D01*
X147950057Y-110814285D02*
X147902438Y-110766666D01*
X147902438Y-110766666D02*
X147854819Y-110671428D01*
D12*
%TO.C,R33*%
X138253641Y-82220000D02*
X137946359Y-82220000D01*
X138253641Y-82980000D02*
X137946359Y-82980000D01*
%TO.C,C18*%
X145407836Y-81440000D02*
X145192164Y-81440000D01*
X145407836Y-82160000D02*
X145192164Y-82160000D01*
%TO.C,R3*%
X141446359Y-75820000D02*
X141753641Y-75820000D01*
X141446359Y-76580000D02*
X141753641Y-76580000D01*
%TO.C,R14*%
X136520000Y-118046359D02*
X136520000Y-118353641D01*
X137280000Y-118046359D02*
X137280000Y-118353641D01*
%TO.C,C27*%
X131440000Y-90572164D02*
X131440000Y-90787836D01*
X132160000Y-90572164D02*
X132160000Y-90787836D01*
%TO.C,REF\u002A\u002A*%
X133000000Y-88500000D02*
X159000000Y-88500000D01*
X159000000Y-92500000D01*
X133000000Y-92500000D01*
X133000000Y-88500000D01*
X138000000Y-85500000D02*
X146000000Y-85500000D01*
X146000000Y-88500000D01*
X138000000Y-88500000D01*
X138000000Y-85500000D01*
X139000000Y-80500000D02*
X145000000Y-80500000D01*
X145000000Y-85500000D01*
X139000000Y-85500000D01*
X139000000Y-80500000D01*
X136000000Y-90500000D02*
G75*
G02*
X134000000Y-90500000I-1000000J0D01*
G01*
X134000000Y-90500000D02*
G75*
G02*
X136000000Y-90500000I1000000J0D01*
G01*
X158000000Y-90500000D02*
G75*
G02*
X156000000Y-90500000I-1000000J0D01*
G01*
X156000000Y-90500000D02*
G75*
G02*
X158000000Y-90500000I1000000J0D01*
G01*
%TO.C,C25*%
X163742164Y-78140000D02*
X163957836Y-78140000D01*
X163742164Y-78860000D02*
X163957836Y-78860000D01*
%TO.C,Q5*%
X138120000Y-114740000D02*
X137964000Y-114740000D01*
X140436000Y-114740000D02*
X140280000Y-114740000D01*
X138120163Y-117341130D02*
G75*
G02*
X138120000Y-115259039I1079837J1041130D01*
G01*
X138121392Y-117972335D02*
G75*
G02*
X137964484Y-114740000I1078609J1672335D01*
G01*
X140280000Y-115259039D02*
G75*
G02*
X140279837Y-117341130I-1080000J-1040961D01*
G01*
X140435516Y-114740000D02*
G75*
G02*
X140278608Y-117972335I-1235517J-1560000D01*
G01*
D11*
%TO.C,D8*%
X176515000Y-80800000D02*
G75*
G02*
X176415000Y-80800000I-50000J0D01*
G01*
X176415000Y-80800000D02*
G75*
G02*
X176515000Y-80800000I50000J0D01*
G01*
D12*
%TO.C,R22*%
X145253641Y-82520000D02*
X144946359Y-82520000D01*
X145253641Y-83280000D02*
X144946359Y-83280000D01*
%TO.C,Q1*%
X131000000Y-85540000D02*
X130350000Y-85540000D01*
X131000000Y-85540000D02*
X131650000Y-85540000D01*
X131000000Y-88660000D02*
X130350000Y-88660000D01*
X131000000Y-88660000D02*
X132675000Y-88660000D01*
%TO.C,D2*%
X126800000Y-83740000D02*
X126800000Y-87750000D01*
X128800000Y-83740000D02*
X126800000Y-83740000D01*
X128800000Y-83740000D02*
X128800000Y-87750000D01*
%TO.C,R11*%
X136620000Y-110146359D02*
X136620000Y-110453641D01*
X137380000Y-110146359D02*
X137380000Y-110453641D01*
%TO.C,D4*%
X142620000Y-106940000D02*
X142464000Y-106940000D01*
X144936000Y-106940000D02*
X144780000Y-106940000D01*
X142620163Y-109541130D02*
G75*
G02*
X142620000Y-107459039I1079837J1041130D01*
G01*
X142621392Y-110172335D02*
G75*
G02*
X142464484Y-106940000I1078609J1672335D01*
G01*
X144780000Y-107459039D02*
G75*
G02*
X144779837Y-109541130I-1080000J-1040961D01*
G01*
X144935516Y-106940000D02*
G75*
G02*
X144778608Y-110172335I-1235517J-1560000D01*
G01*
%TO.C,R5*%
X133120000Y-87146359D02*
X133120000Y-87453641D01*
X133880000Y-87146359D02*
X133880000Y-87453641D01*
%TO.C,J6*%
X164854045Y-96842915D02*
X162363558Y-96625026D01*
X165115512Y-93854331D02*
X162625026Y-93636442D01*
X165115512Y-93854331D02*
G75*
G02*
X164854045Y-96842915I-130733J-1494292D01*
G01*
%TO.C,C4*%
X150357836Y-76390000D02*
X150142164Y-76390000D01*
X150357836Y-77110000D02*
X150142164Y-77110000D01*
%TO.C,R35*%
X135246359Y-85020000D02*
X135553641Y-85020000D01*
X135246359Y-85780000D02*
X135553641Y-85780000D01*
%TO.C,R25*%
X172646359Y-82420000D02*
X172953641Y-82420000D01*
X172646359Y-83180000D02*
X172953641Y-83180000D01*
%TO.C,R26*%
X172646359Y-80420000D02*
X172953641Y-80420000D01*
X172646359Y-81180000D02*
X172953641Y-81180000D01*
%TO.C,U3*%
X139350000Y-79250000D02*
X140550000Y-79250000D01*
X139350000Y-80750000D02*
X139350000Y-79250000D01*
X139800000Y-79630000D02*
X142170000Y-79630000D01*
X141550000Y-82870000D02*
X140550000Y-82870000D01*
%TO.C,R17*%
X136520000Y-53246359D02*
X136520000Y-53553641D01*
X137280000Y-53246359D02*
X137280000Y-53553641D01*
%TO.C,J3*%
X173700962Y-91214102D02*
X172450962Y-89049038D01*
X176299038Y-89714102D02*
X175049038Y-87549038D01*
X176299038Y-89714102D02*
G75*
G02*
X173700962Y-91214102I-1299038J-750000D01*
G01*
%TO.C,J5*%
X173700962Y-68785898D02*
X172450962Y-70950962D01*
X176299038Y-70285898D02*
X175049038Y-72450962D01*
X173700962Y-68785898D02*
G75*
G02*
X176299038Y-70285898I1299038J-750000D01*
G01*
D11*
%TO.C,U14*%
X137475000Y-77500000D02*
X137475000Y-78000000D01*
X137600000Y-77500000D02*
X137475000Y-77500000D01*
D12*
%TO.C,R4*%
X141446359Y-74820000D02*
X141753641Y-74820000D01*
X141446359Y-75580000D02*
X141753641Y-75580000D01*
%TO.C,U9*%
X137390000Y-59390000D02*
X137865000Y-59390000D01*
X137390000Y-59865000D02*
X137390000Y-59390000D01*
X137390000Y-62135000D02*
X137390000Y-62610000D01*
X137390000Y-62610000D02*
X137865000Y-62610000D01*
X140610000Y-59865000D02*
X140610000Y-59390000D01*
X140610000Y-62135000D02*
X140610000Y-62610000D01*
X140610000Y-62610000D02*
X140135000Y-62610000D01*
%TO.C,R30*%
X137846359Y-79720000D02*
X138153641Y-79720000D01*
X137846359Y-80480000D02*
X138153641Y-80480000D01*
%TO.C,C7*%
X135690000Y-74611252D02*
X135690000Y-73188748D01*
X137510000Y-74611252D02*
X137510000Y-73188748D01*
%TO.C,C8*%
X141190000Y-45392164D02*
X141190000Y-45607836D01*
X141910000Y-45392164D02*
X141910000Y-45607836D01*
%TO.C,R7*%
X143946359Y-78420000D02*
X144253641Y-78420000D01*
X143946359Y-79180000D02*
X144253641Y-79180000D01*
%TO.C,U11*%
X153490000Y-75890000D02*
X153490000Y-76415000D01*
X153490000Y-84110000D02*
X153490000Y-83585000D01*
X154015000Y-75890000D02*
X153490000Y-75890000D01*
X154015000Y-84110000D02*
X153490000Y-84110000D01*
X161185000Y-75890000D02*
X161710000Y-75890000D01*
X161185000Y-84110000D02*
X161410000Y-84110000D01*
X161710000Y-75890000D02*
X161710000Y-76415000D01*
X161710000Y-83585000D02*
X161710000Y-83870000D01*
X161950000Y-84440000D02*
X161470000Y-84440000D01*
X161710000Y-84110000D01*
X161950000Y-84440000D01*
G36*
X161950000Y-84440000D02*
G01*
X161470000Y-84440000D01*
X161710000Y-84110000D01*
X161950000Y-84440000D01*
G37*
%TO.C,R23*%
X145253641Y-83520000D02*
X144946359Y-83520000D01*
X145253641Y-84280000D02*
X144946359Y-84280000D01*
%TO.C,C14*%
X141040000Y-53392164D02*
X141040000Y-53607836D01*
X141760000Y-53392164D02*
X141760000Y-53607836D01*
%TO.C,C22*%
X161042164Y-74390000D02*
X161257836Y-74390000D01*
X161042164Y-75110000D02*
X161257836Y-75110000D01*
%TO.C,R20*%
X145146359Y-79420000D02*
X145453641Y-79420000D01*
X145146359Y-80180000D02*
X145453641Y-80180000D01*
%TO.C,C24*%
X151740000Y-83707836D02*
X151740000Y-83492164D01*
X152460000Y-83707836D02*
X152460000Y-83492164D01*
%TO.C,R28*%
X172646359Y-76410000D02*
X172953641Y-76410000D01*
X172646359Y-77170000D02*
X172953641Y-77170000D01*
D11*
%TO.C,SW2*%
X122750000Y-86700000D02*
X125450000Y-86700000D01*
X122750000Y-88900000D02*
X125450000Y-88900000D01*
X124600000Y-87800000D02*
G75*
G02*
X123600000Y-87800000I-500000J0D01*
G01*
X123600000Y-87800000D02*
G75*
G02*
X124600000Y-87800000I500000J0D01*
G01*
%TO.C,U10*%
X146200000Y-82100000D02*
X146200000Y-85500000D01*
X148400000Y-85100000D02*
X148400000Y-82100000D01*
D13*
X146600000Y-84400000D02*
G75*
G02*
X146400000Y-84400000I-100000J0D01*
G01*
X146400000Y-84400000D02*
G75*
G02*
X146600000Y-84400000I100000J0D01*
G01*
D12*
%TO.C,U2*%
X148640000Y-78390000D02*
X148815000Y-78390000D01*
X148640000Y-79065000D02*
X148640000Y-78390000D01*
X148640000Y-80935000D02*
X148640000Y-81610000D01*
X151360000Y-78390000D02*
X151185000Y-78390000D01*
X151360000Y-79065000D02*
X151360000Y-78390000D01*
X151360000Y-80935000D02*
X151360000Y-81610000D01*
X151360000Y-81610000D02*
X151185000Y-81610000D01*
%TO.C,R6*%
X143946359Y-77420000D02*
X144253641Y-77420000D01*
X143946359Y-78180000D02*
X144253641Y-78180000D01*
D11*
%TO.C,U12*%
X138500000Y-85200000D02*
X138625000Y-85200000D01*
X138625000Y-85200000D02*
X138625000Y-84700000D01*
D12*
%TO.C,C5*%
X150357836Y-77390000D02*
X150142164Y-77390000D01*
X150357836Y-78110000D02*
X150142164Y-78110000D01*
%TO.C,R31*%
X138953641Y-76120000D02*
X138646359Y-76120000D01*
X138953641Y-76880000D02*
X138646359Y-76880000D01*
%TO.C,Q2*%
X128300000Y-71940000D02*
X126500000Y-71940000D01*
X128300000Y-71940000D02*
X129100000Y-71940000D01*
X128300000Y-75060000D02*
X127500000Y-75060000D01*
X128300000Y-75060000D02*
X129100000Y-75060000D01*
%TO.C,D6*%
X142620000Y-50040000D02*
X142464000Y-50040000D01*
X144936000Y-50040000D02*
X144780000Y-50040000D01*
X142620163Y-52641130D02*
G75*
G02*
X142620000Y-50559039I1079837J1041130D01*
G01*
X142621392Y-53272335D02*
G75*
G02*
X142464484Y-50040000I1078609J1672335D01*
G01*
X144780000Y-50559039D02*
G75*
G02*
X144779837Y-52641130I-1080000J-1040961D01*
G01*
X144935516Y-50040000D02*
G75*
G02*
X144778608Y-53272335I-1235517J-1560000D01*
G01*
%TO.C,U8*%
X137390000Y-97390000D02*
X137865000Y-97390000D01*
X137390000Y-97865000D02*
X137390000Y-97390000D01*
X137390000Y-100135000D02*
X137390000Y-100610000D01*
X137390000Y-100610000D02*
X137865000Y-100610000D01*
X140610000Y-97865000D02*
X140610000Y-97390000D01*
X140610000Y-100135000D02*
X140610000Y-100610000D01*
X140610000Y-100610000D02*
X140135000Y-100610000D01*
%TO.C,J8*%
X164854045Y-63157085D02*
X162363558Y-63374974D01*
X165115512Y-66145669D02*
X162625026Y-66363558D01*
X164854045Y-63157085D02*
G75*
G02*
X165115512Y-66145669I130734J-1494292D01*
G01*
%TO.C,Q3*%
X138120000Y-42240000D02*
X137964000Y-42240000D01*
X140436000Y-42240000D02*
X140280000Y-42240000D01*
X138120163Y-44841130D02*
G75*
G02*
X138120000Y-42759039I1079837J1041130D01*
G01*
X138121392Y-45472335D02*
G75*
G02*
X137964484Y-42240000I1078609J1672335D01*
G01*
X140280000Y-42759039D02*
G75*
G02*
X140279837Y-44841130I-1080000J-1040961D01*
G01*
X140435516Y-42240000D02*
G75*
G02*
X140278608Y-45472335I-1235517J-1560000D01*
G01*
%TO.C,R34*%
X135553641Y-84020000D02*
X135246359Y-84020000D01*
X135553641Y-84780000D02*
X135246359Y-84780000D01*
%TO.C,D5*%
X142620000Y-114740000D02*
X142464000Y-114740000D01*
X144936000Y-114740000D02*
X144780000Y-114740000D01*
X142620163Y-117341130D02*
G75*
G02*
X142620000Y-115259039I1079837J1041130D01*
G01*
X142621392Y-117972335D02*
G75*
G02*
X142464484Y-114740000I1078609J1672335D01*
G01*
X144780000Y-115259039D02*
G75*
G02*
X144779837Y-117341130I-1080000J-1040961D01*
G01*
X144935516Y-114740000D02*
G75*
G02*
X144778608Y-117972335I-1235517J-1560000D01*
G01*
%TO.C,R32*%
X136346359Y-76320000D02*
X136653641Y-76320000D01*
X136346359Y-77080000D02*
X136653641Y-77080000D01*
%TO.C,C26*%
X161040000Y-85592164D02*
X161040000Y-85807836D01*
X161760000Y-85592164D02*
X161760000Y-85807836D01*
%TO.C,R29*%
X158053641Y-87420000D02*
X157746359Y-87420000D01*
X158053641Y-88180000D02*
X157746359Y-88180000D01*
%TO.C,C28*%
X156090000Y-63111252D02*
X156090000Y-61688748D01*
X157910000Y-63111252D02*
X157910000Y-61688748D01*
%TO.C,C21*%
X163192164Y-83140000D02*
X163407836Y-83140000D01*
X163192164Y-83860000D02*
X163407836Y-83860000D01*
D11*
%TO.C,D1*%
X122885000Y-70900000D02*
G75*
G02*
X122785000Y-70900000I-50000J0D01*
G01*
X122785000Y-70900000D02*
G75*
G02*
X122885000Y-70900000I50000J0D01*
G01*
%TO.C,J14*%
X120850000Y-79300000D02*
X126150000Y-79300000D01*
X120850000Y-86100000D02*
X126150000Y-86100000D01*
D12*
%TO.C,C12*%
X141140000Y-118092164D02*
X141140000Y-118307836D01*
X141860000Y-118092164D02*
X141860000Y-118307836D01*
%TO.C,R8*%
X136470000Y-45146359D02*
X136470000Y-45453641D01*
X137230000Y-45146359D02*
X137230000Y-45453641D01*
D11*
%TO.C,D10*%
X176542500Y-76810000D02*
G75*
G02*
X176442500Y-76810000I-50000J0D01*
G01*
X176442500Y-76810000D02*
G75*
G02*
X176542500Y-76810000I50000J0D01*
G01*
D12*
%TO.C,D3*%
X142620000Y-42240000D02*
X142464000Y-42240000D01*
X144936000Y-42240000D02*
X144780000Y-42240000D01*
X142620163Y-44841130D02*
G75*
G02*
X142620000Y-42759039I1079837J1041130D01*
G01*
X142621392Y-45472335D02*
G75*
G02*
X142464484Y-42240000I1078609J1672335D01*
G01*
X144780000Y-42759039D02*
G75*
G02*
X144779837Y-44841130I-1080000J-1040961D01*
G01*
X144935516Y-42240000D02*
G75*
G02*
X144778608Y-45472335I-1235517J-1560000D01*
G01*
%TO.C,R1*%
X127153641Y-70920000D02*
X126846359Y-70920000D01*
X127153641Y-71680000D02*
X126846359Y-71680000D01*
%TO.C,C2*%
X133640000Y-73107836D02*
X133640000Y-72892164D01*
X134360000Y-73107836D02*
X134360000Y-72892164D01*
D11*
%TO.C,U1*%
X132000000Y-72900000D02*
X132900000Y-72900000D01*
X132000000Y-74100000D02*
X132550000Y-74100000D01*
D12*
%TO.C,C1*%
X130640000Y-73107836D02*
X130640000Y-72892164D01*
X131360000Y-73107836D02*
X131360000Y-72892164D01*
D11*
%TO.C,D7*%
X176542500Y-82790000D02*
G75*
G02*
X176442500Y-82790000I-50000J0D01*
G01*
X176442500Y-82790000D02*
G75*
G02*
X176542500Y-82790000I50000J0D01*
G01*
D12*
%TO.C,C23*%
X153957836Y-74490000D02*
X153742164Y-74490000D01*
X153957836Y-75210000D02*
X153742164Y-75210000D01*
%TO.C,M1*%
X135605000Y-78815000D02*
X136300000Y-78815000D01*
X135605000Y-79500000D02*
X135605000Y-78815000D01*
X135605000Y-80185000D02*
X135605000Y-81060000D01*
X135605000Y-80185000D02*
X135691724Y-80185000D01*
X135605000Y-81060000D02*
X135905507Y-81060000D01*
X136694493Y-81060000D02*
X136995000Y-81060000D01*
X136908276Y-80185000D02*
X136995000Y-80185000D01*
X136995000Y-80185000D02*
X136995000Y-81060000D01*
D11*
%TO.C,SW3*%
X128611299Y-68986887D02*
X131219299Y-68288076D01*
X129180701Y-71111924D02*
X131788701Y-70413113D01*
X130700000Y-69700000D02*
G75*
G02*
X129700000Y-69700000I-500000J0D01*
G01*
X129700000Y-69700000D02*
G75*
G02*
X130700000Y-69700000I500000J0D01*
G01*
D12*
%TO.C,J1*%
X129940000Y-74640000D02*
X129940000Y-80760000D01*
X129940000Y-80760000D02*
X134660000Y-80760000D01*
X130550000Y-75250000D02*
X130550000Y-80150000D01*
X130550000Y-77600000D02*
X131050000Y-77600000D01*
X130550000Y-77700000D02*
X131050000Y-77700000D01*
X130550000Y-80150000D02*
X134050000Y-80150000D01*
X131050000Y-77600000D02*
X131050000Y-77800000D01*
X131050000Y-77800000D02*
X130550000Y-77800000D01*
X132050000Y-74640000D02*
X132050000Y-75250000D01*
X132050000Y-80760000D02*
X132050000Y-80150000D01*
X133350000Y-74640000D02*
X133350000Y-75250000D01*
X133350000Y-80760000D02*
X133350000Y-80150000D01*
X134050000Y-75250000D02*
X130550000Y-75250000D01*
X134050000Y-77200000D02*
X134050000Y-75250000D01*
X134050000Y-78200000D02*
X134660000Y-78200000D01*
X134050000Y-80150000D02*
X134050000Y-78200000D01*
X134660000Y-74640000D02*
X129940000Y-74640000D01*
X134660000Y-76400000D02*
X134860000Y-76400000D01*
X134660000Y-77200000D02*
X134050000Y-77200000D01*
X134660000Y-80760000D02*
X134660000Y-74640000D01*
X134760000Y-76400000D02*
X134760000Y-76100000D01*
X134860000Y-76100000D02*
X134660000Y-76100000D01*
X134860000Y-76400000D02*
X134860000Y-76100000D01*
X134960000Y-74340000D02*
X133710000Y-74340000D01*
X134960000Y-75590000D02*
X134960000Y-74340000D01*
%TO.C,Q4*%
X138120000Y-106940000D02*
X137964000Y-106940000D01*
X140436000Y-106940000D02*
X140280000Y-106940000D01*
X138120163Y-109541130D02*
G75*
G02*
X138120000Y-107459039I1079837J1041130D01*
G01*
X138121392Y-110172335D02*
G75*
G02*
X137964484Y-106940000I1078609J1672335D01*
G01*
X140280000Y-107459039D02*
G75*
G02*
X140279837Y-109541130I-1080000J-1040961D01*
G01*
X140435516Y-106940000D02*
G75*
G02*
X140278608Y-110172335I-1235517J-1560000D01*
G01*
%TO.C,R21*%
X145146359Y-80420000D02*
X145453641Y-80420000D01*
X145146359Y-81180000D02*
X145453641Y-81180000D01*
%TO.C,C19*%
X159740000Y-85562164D02*
X159740000Y-85777836D01*
X160460000Y-85562164D02*
X160460000Y-85777836D01*
%TO.C,M2*%
X135605000Y-81515000D02*
X136300000Y-81515000D01*
X135605000Y-82200000D02*
X135605000Y-81515000D01*
X135605000Y-82885000D02*
X135605000Y-83760000D01*
X135605000Y-82885000D02*
X135691724Y-82885000D01*
X135605000Y-83760000D02*
X135905507Y-83760000D01*
X136694493Y-83760000D02*
X136995000Y-83760000D01*
X136908276Y-82885000D02*
X136995000Y-82885000D01*
X136995000Y-82885000D02*
X136995000Y-83760000D01*
%TO.C,R2*%
X126453641Y-69920000D02*
X126146359Y-69920000D01*
X126453641Y-70680000D02*
X126146359Y-70680000D01*
%TO.C,R24*%
X145253641Y-84520000D02*
X144946359Y-84520000D01*
X145253641Y-85280000D02*
X144946359Y-85280000D01*
%TO.C,C20*%
X154990000Y-74457836D02*
X154990000Y-74242164D01*
X155710000Y-74457836D02*
X155710000Y-74242164D01*
D11*
%TO.C,BZ1*%
X129600000Y-81300000D02*
X129600000Y-81900000D01*
X129600000Y-81300000D02*
X133600000Y-81300000D01*
X129600000Y-85300000D02*
X129600000Y-84700000D01*
X129600000Y-85300000D02*
X133600000Y-85300000D01*
X133600000Y-81300000D02*
X133600000Y-81900000D01*
X133600000Y-85300000D02*
X133600000Y-84700000D01*
D12*
%TO.C,R27*%
X172646359Y-78410000D02*
X172953641Y-78410000D01*
X172646359Y-79170000D02*
X172953641Y-79170000D01*
D11*
%TO.C,SW1*%
X120100000Y-73600000D02*
X121100000Y-73600000D01*
X120100000Y-75100000D02*
X120100000Y-73600000D01*
X121100000Y-71500000D02*
X121100000Y-78700000D01*
X121100000Y-75100000D02*
X120100000Y-75100000D01*
X124100000Y-71500000D02*
X121100000Y-71500000D01*
X124100000Y-71500000D02*
X124100000Y-78700000D01*
X124100000Y-78700000D02*
X121100000Y-78700000D01*
D12*
%TO.C,C3*%
X142740000Y-75907836D02*
X142740000Y-75692164D01*
X143460000Y-75907836D02*
X143460000Y-75692164D01*
D11*
%TO.C,D9*%
X176542500Y-78800000D02*
G75*
G02*
X176442500Y-78800000I-50000J0D01*
G01*
X176442500Y-78800000D02*
G75*
G02*
X176542500Y-78800000I50000J0D01*
G01*
D12*
%TO.C,Q6*%
X138120000Y-50040000D02*
X137964000Y-50040000D01*
X140436000Y-50040000D02*
X140280000Y-50040000D01*
X138120163Y-52641130D02*
G75*
G02*
X138120000Y-50559039I1079837J1041130D01*
G01*
X138121392Y-53272335D02*
G75*
G02*
X137964484Y-50040000I1078609J1672335D01*
G01*
X140280000Y-50559039D02*
G75*
G02*
X140279837Y-52641130I-1080000J-1040961D01*
G01*
X140435516Y-50040000D02*
G75*
G02*
X140278608Y-53272335I-1235517J-1560000D01*
G01*
%TO.C,C6*%
X151690000Y-80992164D02*
X151690000Y-81207836D01*
X152410000Y-80992164D02*
X152410000Y-81207836D01*
%TO.C,C10*%
X141240000Y-110192164D02*
X141240000Y-110407836D01*
X141960000Y-110192164D02*
X141960000Y-110407836D01*
%TO.C,REF\u002A\u002A*%
X133000000Y-67500000D02*
X159000000Y-67500000D01*
X159000000Y-71500000D01*
X133000000Y-71500000D01*
X133000000Y-67500000D01*
X138000000Y-71500000D02*
X146000000Y-71500000D01*
X146000000Y-74500000D01*
X138000000Y-74500000D01*
X138000000Y-71500000D01*
X139000000Y-74500000D02*
X145000000Y-74500000D01*
X145000000Y-79500000D01*
X139000000Y-79500000D01*
X139000000Y-74500000D01*
X136000000Y-69500000D02*
G75*
G02*
X134000000Y-69500000I-1000000J0D01*
G01*
X134000000Y-69500000D02*
G75*
G02*
X136000000Y-69500000I1000000J0D01*
G01*
X158000000Y-69500000D02*
G75*
G02*
X156000000Y-69500000I-1000000J0D01*
G01*
X156000000Y-69500000D02*
G75*
G02*
X158000000Y-69500000I1000000J0D01*
G01*
%TD*%
M02*
